%TF.GenerationSoftware,KiCad,Pcbnew,10.0.0*%
%TF.CreationDate,2026-04-08T20:56:09+02:00*%
%TF.ProjectId,wulpus_pro_acq_pcb,77756c70-7573-45f7-9072-6f5f6163715f,rev?*%
%TF.SameCoordinates,Original*%
%TF.FileFunction,Other,User*%
%FSLAX46Y46*%
G04 Gerber Fmt 4.6, Leading zero omitted, Abs format (unit mm)*
G04 Created by KiCad (PCBNEW 10.0.0) date 2026-04-08 20:56:09*
%MOMM*%
%LPD*%
G01*
G04 APERTURE LIST*
%ADD10C,0.150000*%
G04 APERTURE END LIST*
D10*
X68039160Y-126812722D02*
X68182017Y-126860341D01*
X68182017Y-126860341D02*
X68420112Y-126860341D01*
X68420112Y-126860341D02*
X68515350Y-126812722D01*
X68515350Y-126812722D02*
X68562969Y-126765102D01*
X68562969Y-126765102D02*
X68610588Y-126669864D01*
X68610588Y-126669864D02*
X68610588Y-126574626D01*
X68610588Y-126574626D02*
X68562969Y-126479388D01*
X68562969Y-126479388D02*
X68515350Y-126431769D01*
X68515350Y-126431769D02*
X68420112Y-126384150D01*
X68420112Y-126384150D02*
X68229636Y-126336531D01*
X68229636Y-126336531D02*
X68134398Y-126288912D01*
X68134398Y-126288912D02*
X68086779Y-126241293D01*
X68086779Y-126241293D02*
X68039160Y-126146055D01*
X68039160Y-126146055D02*
X68039160Y-126050817D01*
X68039160Y-126050817D02*
X68086779Y-125955579D01*
X68086779Y-125955579D02*
X68134398Y-125907960D01*
X68134398Y-125907960D02*
X68229636Y-125860341D01*
X68229636Y-125860341D02*
X68467731Y-125860341D01*
X68467731Y-125860341D02*
X68610588Y-125907960D01*
X68896303Y-126193674D02*
X69277255Y-126193674D01*
X69039160Y-125860341D02*
X69039160Y-126717483D01*
X69039160Y-126717483D02*
X69086779Y-126812722D01*
X69086779Y-126812722D02*
X69182017Y-126860341D01*
X69182017Y-126860341D02*
X69277255Y-126860341D01*
X69610589Y-126860341D02*
X69610589Y-126193674D01*
X69610589Y-125860341D02*
X69562970Y-125907960D01*
X69562970Y-125907960D02*
X69610589Y-125955579D01*
X69610589Y-125955579D02*
X69658208Y-125907960D01*
X69658208Y-125907960D02*
X69610589Y-125860341D01*
X69610589Y-125860341D02*
X69610589Y-125955579D01*
X69943922Y-126193674D02*
X70324874Y-126193674D01*
X70086779Y-126860341D02*
X70086779Y-126003198D01*
X70086779Y-126003198D02*
X70134398Y-125907960D01*
X70134398Y-125907960D02*
X70229636Y-125860341D01*
X70229636Y-125860341D02*
X70324874Y-125860341D01*
X70515351Y-126193674D02*
X70896303Y-126193674D01*
X70658208Y-126860341D02*
X70658208Y-126003198D01*
X70658208Y-126003198D02*
X70705827Y-125907960D01*
X70705827Y-125907960D02*
X70801065Y-125860341D01*
X70801065Y-125860341D02*
X70896303Y-125860341D01*
X71610589Y-126812722D02*
X71515351Y-126860341D01*
X71515351Y-126860341D02*
X71324875Y-126860341D01*
X71324875Y-126860341D02*
X71229637Y-126812722D01*
X71229637Y-126812722D02*
X71182018Y-126717483D01*
X71182018Y-126717483D02*
X71182018Y-126336531D01*
X71182018Y-126336531D02*
X71229637Y-126241293D01*
X71229637Y-126241293D02*
X71324875Y-126193674D01*
X71324875Y-126193674D02*
X71515351Y-126193674D01*
X71515351Y-126193674D02*
X71610589Y-126241293D01*
X71610589Y-126241293D02*
X71658208Y-126336531D01*
X71658208Y-126336531D02*
X71658208Y-126431769D01*
X71658208Y-126431769D02*
X71182018Y-126527007D01*
X72086780Y-126193674D02*
X72086780Y-126860341D01*
X72086780Y-126288912D02*
X72134399Y-126241293D01*
X72134399Y-126241293D02*
X72229637Y-126193674D01*
X72229637Y-126193674D02*
X72372494Y-126193674D01*
X72372494Y-126193674D02*
X72467732Y-126241293D01*
X72467732Y-126241293D02*
X72515351Y-126336531D01*
X72515351Y-126336531D02*
X72515351Y-126860341D01*
X73372494Y-126812722D02*
X73277256Y-126860341D01*
X73277256Y-126860341D02*
X73086780Y-126860341D01*
X73086780Y-126860341D02*
X72991542Y-126812722D01*
X72991542Y-126812722D02*
X72943923Y-126717483D01*
X72943923Y-126717483D02*
X72943923Y-126336531D01*
X72943923Y-126336531D02*
X72991542Y-126241293D01*
X72991542Y-126241293D02*
X73086780Y-126193674D01*
X73086780Y-126193674D02*
X73277256Y-126193674D01*
X73277256Y-126193674D02*
X73372494Y-126241293D01*
X73372494Y-126241293D02*
X73420113Y-126336531D01*
X73420113Y-126336531D02*
X73420113Y-126431769D01*
X73420113Y-126431769D02*
X72943923Y-126527007D01*
X73848685Y-126860341D02*
X73848685Y-126193674D01*
X73848685Y-126384150D02*
X73896304Y-126288912D01*
X73896304Y-126288912D02*
X73943923Y-126241293D01*
X73943923Y-126241293D02*
X74039161Y-126193674D01*
X74039161Y-126193674D02*
X74134399Y-126193674D01*
X75229638Y-126860341D02*
X75229638Y-125860341D01*
X75229638Y-125860341D02*
X75562971Y-126574626D01*
X75562971Y-126574626D02*
X75896304Y-125860341D01*
X75896304Y-125860341D02*
X75896304Y-126860341D01*
X76801066Y-126860341D02*
X76801066Y-126336531D01*
X76801066Y-126336531D02*
X76753447Y-126241293D01*
X76753447Y-126241293D02*
X76658209Y-126193674D01*
X76658209Y-126193674D02*
X76467733Y-126193674D01*
X76467733Y-126193674D02*
X76372495Y-126241293D01*
X76801066Y-126812722D02*
X76705828Y-126860341D01*
X76705828Y-126860341D02*
X76467733Y-126860341D01*
X76467733Y-126860341D02*
X76372495Y-126812722D01*
X76372495Y-126812722D02*
X76324876Y-126717483D01*
X76324876Y-126717483D02*
X76324876Y-126622245D01*
X76324876Y-126622245D02*
X76372495Y-126527007D01*
X76372495Y-126527007D02*
X76467733Y-126479388D01*
X76467733Y-126479388D02*
X76705828Y-126479388D01*
X76705828Y-126479388D02*
X76801066Y-126431769D01*
X77134400Y-126193674D02*
X77515352Y-126193674D01*
X77277257Y-125860341D02*
X77277257Y-126717483D01*
X77277257Y-126717483D02*
X77324876Y-126812722D01*
X77324876Y-126812722D02*
X77420114Y-126860341D01*
X77420114Y-126860341D02*
X77515352Y-126860341D01*
X78229638Y-126812722D02*
X78134400Y-126860341D01*
X78134400Y-126860341D02*
X77943924Y-126860341D01*
X77943924Y-126860341D02*
X77848686Y-126812722D01*
X77848686Y-126812722D02*
X77801067Y-126717483D01*
X77801067Y-126717483D02*
X77801067Y-126336531D01*
X77801067Y-126336531D02*
X77848686Y-126241293D01*
X77848686Y-126241293D02*
X77943924Y-126193674D01*
X77943924Y-126193674D02*
X78134400Y-126193674D01*
X78134400Y-126193674D02*
X78229638Y-126241293D01*
X78229638Y-126241293D02*
X78277257Y-126336531D01*
X78277257Y-126336531D02*
X78277257Y-126431769D01*
X78277257Y-126431769D02*
X77801067Y-126527007D01*
X78705829Y-126860341D02*
X78705829Y-126193674D01*
X78705829Y-126384150D02*
X78753448Y-126288912D01*
X78753448Y-126288912D02*
X78801067Y-126241293D01*
X78801067Y-126241293D02*
X78896305Y-126193674D01*
X78896305Y-126193674D02*
X78991543Y-126193674D01*
X79324877Y-126860341D02*
X79324877Y-126193674D01*
X79324877Y-125860341D02*
X79277258Y-125907960D01*
X79277258Y-125907960D02*
X79324877Y-125955579D01*
X79324877Y-125955579D02*
X79372496Y-125907960D01*
X79372496Y-125907960D02*
X79324877Y-125860341D01*
X79324877Y-125860341D02*
X79324877Y-125955579D01*
X80229638Y-126860341D02*
X80229638Y-126336531D01*
X80229638Y-126336531D02*
X80182019Y-126241293D01*
X80182019Y-126241293D02*
X80086781Y-126193674D01*
X80086781Y-126193674D02*
X79896305Y-126193674D01*
X79896305Y-126193674D02*
X79801067Y-126241293D01*
X80229638Y-126812722D02*
X80134400Y-126860341D01*
X80134400Y-126860341D02*
X79896305Y-126860341D01*
X79896305Y-126860341D02*
X79801067Y-126812722D01*
X79801067Y-126812722D02*
X79753448Y-126717483D01*
X79753448Y-126717483D02*
X79753448Y-126622245D01*
X79753448Y-126622245D02*
X79801067Y-126527007D01*
X79801067Y-126527007D02*
X79896305Y-126479388D01*
X79896305Y-126479388D02*
X80134400Y-126479388D01*
X80134400Y-126479388D02*
X80229638Y-126431769D01*
X80848686Y-126860341D02*
X80753448Y-126812722D01*
X80753448Y-126812722D02*
X80705829Y-126717483D01*
X80705829Y-126717483D02*
X80705829Y-125860341D01*
X81229639Y-126765102D02*
X81277258Y-126812722D01*
X81277258Y-126812722D02*
X81229639Y-126860341D01*
X81229639Y-126860341D02*
X81182020Y-126812722D01*
X81182020Y-126812722D02*
X81229639Y-126765102D01*
X81229639Y-126765102D02*
X81229639Y-126860341D01*
X81229639Y-126241293D02*
X81277258Y-126288912D01*
X81277258Y-126288912D02*
X81229639Y-126336531D01*
X81229639Y-126336531D02*
X81182020Y-126288912D01*
X81182020Y-126288912D02*
X81229639Y-126241293D01*
X81229639Y-126241293D02*
X81229639Y-126336531D01*
X82420115Y-126812722D02*
X82562972Y-126860341D01*
X82562972Y-126860341D02*
X82801067Y-126860341D01*
X82801067Y-126860341D02*
X82896305Y-126812722D01*
X82896305Y-126812722D02*
X82943924Y-126765102D01*
X82943924Y-126765102D02*
X82991543Y-126669864D01*
X82991543Y-126669864D02*
X82991543Y-126574626D01*
X82991543Y-126574626D02*
X82943924Y-126479388D01*
X82943924Y-126479388D02*
X82896305Y-126431769D01*
X82896305Y-126431769D02*
X82801067Y-126384150D01*
X82801067Y-126384150D02*
X82610591Y-126336531D01*
X82610591Y-126336531D02*
X82515353Y-126288912D01*
X82515353Y-126288912D02*
X82467734Y-126241293D01*
X82467734Y-126241293D02*
X82420115Y-126146055D01*
X82420115Y-126146055D02*
X82420115Y-126050817D01*
X82420115Y-126050817D02*
X82467734Y-125955579D01*
X82467734Y-125955579D02*
X82515353Y-125907960D01*
X82515353Y-125907960D02*
X82610591Y-125860341D01*
X82610591Y-125860341D02*
X82848686Y-125860341D01*
X82848686Y-125860341D02*
X82991543Y-125907960D01*
X83277258Y-126193674D02*
X83658210Y-126193674D01*
X83420115Y-125860341D02*
X83420115Y-126717483D01*
X83420115Y-126717483D02*
X83467734Y-126812722D01*
X83467734Y-126812722D02*
X83562972Y-126860341D01*
X83562972Y-126860341D02*
X83658210Y-126860341D01*
X84420115Y-126860341D02*
X84420115Y-126336531D01*
X84420115Y-126336531D02*
X84372496Y-126241293D01*
X84372496Y-126241293D02*
X84277258Y-126193674D01*
X84277258Y-126193674D02*
X84086782Y-126193674D01*
X84086782Y-126193674D02*
X83991544Y-126241293D01*
X84420115Y-126812722D02*
X84324877Y-126860341D01*
X84324877Y-126860341D02*
X84086782Y-126860341D01*
X84086782Y-126860341D02*
X83991544Y-126812722D01*
X83991544Y-126812722D02*
X83943925Y-126717483D01*
X83943925Y-126717483D02*
X83943925Y-126622245D01*
X83943925Y-126622245D02*
X83991544Y-126527007D01*
X83991544Y-126527007D02*
X84086782Y-126479388D01*
X84086782Y-126479388D02*
X84324877Y-126479388D01*
X84324877Y-126479388D02*
X84420115Y-126431769D01*
X84896306Y-126860341D02*
X84896306Y-126193674D01*
X84896306Y-125860341D02*
X84848687Y-125907960D01*
X84848687Y-125907960D02*
X84896306Y-125955579D01*
X84896306Y-125955579D02*
X84943925Y-125907960D01*
X84943925Y-125907960D02*
X84896306Y-125860341D01*
X84896306Y-125860341D02*
X84896306Y-125955579D01*
X85372496Y-126193674D02*
X85372496Y-126860341D01*
X85372496Y-126288912D02*
X85420115Y-126241293D01*
X85420115Y-126241293D02*
X85515353Y-126193674D01*
X85515353Y-126193674D02*
X85658210Y-126193674D01*
X85658210Y-126193674D02*
X85753448Y-126241293D01*
X85753448Y-126241293D02*
X85801067Y-126336531D01*
X85801067Y-126336531D02*
X85801067Y-126860341D01*
X86420115Y-126860341D02*
X86324877Y-126812722D01*
X86324877Y-126812722D02*
X86277258Y-126717483D01*
X86277258Y-126717483D02*
X86277258Y-125860341D01*
X87182020Y-126812722D02*
X87086782Y-126860341D01*
X87086782Y-126860341D02*
X86896306Y-126860341D01*
X86896306Y-126860341D02*
X86801068Y-126812722D01*
X86801068Y-126812722D02*
X86753449Y-126717483D01*
X86753449Y-126717483D02*
X86753449Y-126336531D01*
X86753449Y-126336531D02*
X86801068Y-126241293D01*
X86801068Y-126241293D02*
X86896306Y-126193674D01*
X86896306Y-126193674D02*
X87086782Y-126193674D01*
X87086782Y-126193674D02*
X87182020Y-126241293D01*
X87182020Y-126241293D02*
X87229639Y-126336531D01*
X87229639Y-126336531D02*
X87229639Y-126431769D01*
X87229639Y-126431769D02*
X86753449Y-126527007D01*
X87610592Y-126812722D02*
X87705830Y-126860341D01*
X87705830Y-126860341D02*
X87896306Y-126860341D01*
X87896306Y-126860341D02*
X87991544Y-126812722D01*
X87991544Y-126812722D02*
X88039163Y-126717483D01*
X88039163Y-126717483D02*
X88039163Y-126669864D01*
X88039163Y-126669864D02*
X87991544Y-126574626D01*
X87991544Y-126574626D02*
X87896306Y-126527007D01*
X87896306Y-126527007D02*
X87753449Y-126527007D01*
X87753449Y-126527007D02*
X87658211Y-126479388D01*
X87658211Y-126479388D02*
X87610592Y-126384150D01*
X87610592Y-126384150D02*
X87610592Y-126336531D01*
X87610592Y-126336531D02*
X87658211Y-126241293D01*
X87658211Y-126241293D02*
X87753449Y-126193674D01*
X87753449Y-126193674D02*
X87896306Y-126193674D01*
X87896306Y-126193674D02*
X87991544Y-126241293D01*
X88420116Y-126812722D02*
X88515354Y-126860341D01*
X88515354Y-126860341D02*
X88705830Y-126860341D01*
X88705830Y-126860341D02*
X88801068Y-126812722D01*
X88801068Y-126812722D02*
X88848687Y-126717483D01*
X88848687Y-126717483D02*
X88848687Y-126669864D01*
X88848687Y-126669864D02*
X88801068Y-126574626D01*
X88801068Y-126574626D02*
X88705830Y-126527007D01*
X88705830Y-126527007D02*
X88562973Y-126527007D01*
X88562973Y-126527007D02*
X88467735Y-126479388D01*
X88467735Y-126479388D02*
X88420116Y-126384150D01*
X88420116Y-126384150D02*
X88420116Y-126336531D01*
X88420116Y-126336531D02*
X88467735Y-126241293D01*
X88467735Y-126241293D02*
X88562973Y-126193674D01*
X88562973Y-126193674D02*
X88705830Y-126193674D01*
X88705830Y-126193674D02*
X88801068Y-126241293D01*
X89991545Y-126812722D02*
X90134402Y-126860341D01*
X90134402Y-126860341D02*
X90372497Y-126860341D01*
X90372497Y-126860341D02*
X90467735Y-126812722D01*
X90467735Y-126812722D02*
X90515354Y-126765102D01*
X90515354Y-126765102D02*
X90562973Y-126669864D01*
X90562973Y-126669864D02*
X90562973Y-126574626D01*
X90562973Y-126574626D02*
X90515354Y-126479388D01*
X90515354Y-126479388D02*
X90467735Y-126431769D01*
X90467735Y-126431769D02*
X90372497Y-126384150D01*
X90372497Y-126384150D02*
X90182021Y-126336531D01*
X90182021Y-126336531D02*
X90086783Y-126288912D01*
X90086783Y-126288912D02*
X90039164Y-126241293D01*
X90039164Y-126241293D02*
X89991545Y-126146055D01*
X89991545Y-126146055D02*
X89991545Y-126050817D01*
X89991545Y-126050817D02*
X90039164Y-125955579D01*
X90039164Y-125955579D02*
X90086783Y-125907960D01*
X90086783Y-125907960D02*
X90182021Y-125860341D01*
X90182021Y-125860341D02*
X90420116Y-125860341D01*
X90420116Y-125860341D02*
X90562973Y-125907960D01*
X90848688Y-126193674D02*
X91229640Y-126193674D01*
X90991545Y-125860341D02*
X90991545Y-126717483D01*
X90991545Y-126717483D02*
X91039164Y-126812722D01*
X91039164Y-126812722D02*
X91134402Y-126860341D01*
X91134402Y-126860341D02*
X91229640Y-126860341D01*
X91943926Y-126812722D02*
X91848688Y-126860341D01*
X91848688Y-126860341D02*
X91658212Y-126860341D01*
X91658212Y-126860341D02*
X91562974Y-126812722D01*
X91562974Y-126812722D02*
X91515355Y-126717483D01*
X91515355Y-126717483D02*
X91515355Y-126336531D01*
X91515355Y-126336531D02*
X91562974Y-126241293D01*
X91562974Y-126241293D02*
X91658212Y-126193674D01*
X91658212Y-126193674D02*
X91848688Y-126193674D01*
X91848688Y-126193674D02*
X91943926Y-126241293D01*
X91943926Y-126241293D02*
X91991545Y-126336531D01*
X91991545Y-126336531D02*
X91991545Y-126431769D01*
X91991545Y-126431769D02*
X91515355Y-126527007D01*
X92801069Y-126812722D02*
X92705831Y-126860341D01*
X92705831Y-126860341D02*
X92515355Y-126860341D01*
X92515355Y-126860341D02*
X92420117Y-126812722D01*
X92420117Y-126812722D02*
X92372498Y-126717483D01*
X92372498Y-126717483D02*
X92372498Y-126336531D01*
X92372498Y-126336531D02*
X92420117Y-126241293D01*
X92420117Y-126241293D02*
X92515355Y-126193674D01*
X92515355Y-126193674D02*
X92705831Y-126193674D01*
X92705831Y-126193674D02*
X92801069Y-126241293D01*
X92801069Y-126241293D02*
X92848688Y-126336531D01*
X92848688Y-126336531D02*
X92848688Y-126431769D01*
X92848688Y-126431769D02*
X92372498Y-126527007D01*
X93420117Y-126860341D02*
X93324879Y-126812722D01*
X93324879Y-126812722D02*
X93277260Y-126717483D01*
X93277260Y-126717483D02*
X93277260Y-125860341D01*
X68039160Y-128422666D02*
X68182017Y-128470285D01*
X68182017Y-128470285D02*
X68420112Y-128470285D01*
X68420112Y-128470285D02*
X68515350Y-128422666D01*
X68515350Y-128422666D02*
X68562969Y-128375046D01*
X68562969Y-128375046D02*
X68610588Y-128279808D01*
X68610588Y-128279808D02*
X68610588Y-128184570D01*
X68610588Y-128184570D02*
X68562969Y-128089332D01*
X68562969Y-128089332D02*
X68515350Y-128041713D01*
X68515350Y-128041713D02*
X68420112Y-127994094D01*
X68420112Y-127994094D02*
X68229636Y-127946475D01*
X68229636Y-127946475D02*
X68134398Y-127898856D01*
X68134398Y-127898856D02*
X68086779Y-127851237D01*
X68086779Y-127851237D02*
X68039160Y-127755999D01*
X68039160Y-127755999D02*
X68039160Y-127660761D01*
X68039160Y-127660761D02*
X68086779Y-127565523D01*
X68086779Y-127565523D02*
X68134398Y-127517904D01*
X68134398Y-127517904D02*
X68229636Y-127470285D01*
X68229636Y-127470285D02*
X68467731Y-127470285D01*
X68467731Y-127470285D02*
X68610588Y-127517904D01*
X68896303Y-127803618D02*
X69277255Y-127803618D01*
X69039160Y-127470285D02*
X69039160Y-128327427D01*
X69039160Y-128327427D02*
X69086779Y-128422666D01*
X69086779Y-128422666D02*
X69182017Y-128470285D01*
X69182017Y-128470285D02*
X69277255Y-128470285D01*
X69610589Y-128470285D02*
X69610589Y-127803618D01*
X69610589Y-127470285D02*
X69562970Y-127517904D01*
X69562970Y-127517904D02*
X69610589Y-127565523D01*
X69610589Y-127565523D02*
X69658208Y-127517904D01*
X69658208Y-127517904D02*
X69610589Y-127470285D01*
X69610589Y-127470285D02*
X69610589Y-127565523D01*
X69943922Y-127803618D02*
X70324874Y-127803618D01*
X70086779Y-128470285D02*
X70086779Y-127613142D01*
X70086779Y-127613142D02*
X70134398Y-127517904D01*
X70134398Y-127517904D02*
X70229636Y-127470285D01*
X70229636Y-127470285D02*
X70324874Y-127470285D01*
X70515351Y-127803618D02*
X70896303Y-127803618D01*
X70658208Y-128470285D02*
X70658208Y-127613142D01*
X70658208Y-127613142D02*
X70705827Y-127517904D01*
X70705827Y-127517904D02*
X70801065Y-127470285D01*
X70801065Y-127470285D02*
X70896303Y-127470285D01*
X71610589Y-128422666D02*
X71515351Y-128470285D01*
X71515351Y-128470285D02*
X71324875Y-128470285D01*
X71324875Y-128470285D02*
X71229637Y-128422666D01*
X71229637Y-128422666D02*
X71182018Y-128327427D01*
X71182018Y-128327427D02*
X71182018Y-127946475D01*
X71182018Y-127946475D02*
X71229637Y-127851237D01*
X71229637Y-127851237D02*
X71324875Y-127803618D01*
X71324875Y-127803618D02*
X71515351Y-127803618D01*
X71515351Y-127803618D02*
X71610589Y-127851237D01*
X71610589Y-127851237D02*
X71658208Y-127946475D01*
X71658208Y-127946475D02*
X71658208Y-128041713D01*
X71658208Y-128041713D02*
X71182018Y-128136951D01*
X72086780Y-127803618D02*
X72086780Y-128470285D01*
X72086780Y-127898856D02*
X72134399Y-127851237D01*
X72134399Y-127851237D02*
X72229637Y-127803618D01*
X72229637Y-127803618D02*
X72372494Y-127803618D01*
X72372494Y-127803618D02*
X72467732Y-127851237D01*
X72467732Y-127851237D02*
X72515351Y-127946475D01*
X72515351Y-127946475D02*
X72515351Y-128470285D01*
X73372494Y-128422666D02*
X73277256Y-128470285D01*
X73277256Y-128470285D02*
X73086780Y-128470285D01*
X73086780Y-128470285D02*
X72991542Y-128422666D01*
X72991542Y-128422666D02*
X72943923Y-128327427D01*
X72943923Y-128327427D02*
X72943923Y-127946475D01*
X72943923Y-127946475D02*
X72991542Y-127851237D01*
X72991542Y-127851237D02*
X73086780Y-127803618D01*
X73086780Y-127803618D02*
X73277256Y-127803618D01*
X73277256Y-127803618D02*
X73372494Y-127851237D01*
X73372494Y-127851237D02*
X73420113Y-127946475D01*
X73420113Y-127946475D02*
X73420113Y-128041713D01*
X73420113Y-128041713D02*
X72943923Y-128136951D01*
X73848685Y-128470285D02*
X73848685Y-127803618D01*
X73848685Y-127994094D02*
X73896304Y-127898856D01*
X73896304Y-127898856D02*
X73943923Y-127851237D01*
X73943923Y-127851237D02*
X74039161Y-127803618D01*
X74039161Y-127803618D02*
X74134399Y-127803618D01*
X75086781Y-127470285D02*
X75658209Y-127470285D01*
X75372495Y-128470285D02*
X75372495Y-127470285D01*
X75991543Y-128470285D02*
X75991543Y-127470285D01*
X76420114Y-128470285D02*
X76420114Y-127946475D01*
X76420114Y-127946475D02*
X76372495Y-127851237D01*
X76372495Y-127851237D02*
X76277257Y-127803618D01*
X76277257Y-127803618D02*
X76134400Y-127803618D01*
X76134400Y-127803618D02*
X76039162Y-127851237D01*
X76039162Y-127851237D02*
X75991543Y-127898856D01*
X76896305Y-128470285D02*
X76896305Y-127803618D01*
X76896305Y-127470285D02*
X76848686Y-127517904D01*
X76848686Y-127517904D02*
X76896305Y-127565523D01*
X76896305Y-127565523D02*
X76943924Y-127517904D01*
X76943924Y-127517904D02*
X76896305Y-127470285D01*
X76896305Y-127470285D02*
X76896305Y-127565523D01*
X77801066Y-128422666D02*
X77705828Y-128470285D01*
X77705828Y-128470285D02*
X77515352Y-128470285D01*
X77515352Y-128470285D02*
X77420114Y-128422666D01*
X77420114Y-128422666D02*
X77372495Y-128375046D01*
X77372495Y-128375046D02*
X77324876Y-128279808D01*
X77324876Y-128279808D02*
X77324876Y-127994094D01*
X77324876Y-127994094D02*
X77372495Y-127898856D01*
X77372495Y-127898856D02*
X77420114Y-127851237D01*
X77420114Y-127851237D02*
X77515352Y-127803618D01*
X77515352Y-127803618D02*
X77705828Y-127803618D01*
X77705828Y-127803618D02*
X77801066Y-127851237D01*
X78229638Y-128470285D02*
X78229638Y-127470285D01*
X78324876Y-128089332D02*
X78610590Y-128470285D01*
X78610590Y-127803618D02*
X78229638Y-128184570D01*
X79039162Y-127803618D02*
X79039162Y-128470285D01*
X79039162Y-127898856D02*
X79086781Y-127851237D01*
X79086781Y-127851237D02*
X79182019Y-127803618D01*
X79182019Y-127803618D02*
X79324876Y-127803618D01*
X79324876Y-127803618D02*
X79420114Y-127851237D01*
X79420114Y-127851237D02*
X79467733Y-127946475D01*
X79467733Y-127946475D02*
X79467733Y-128470285D01*
X80324876Y-128422666D02*
X80229638Y-128470285D01*
X80229638Y-128470285D02*
X80039162Y-128470285D01*
X80039162Y-128470285D02*
X79943924Y-128422666D01*
X79943924Y-128422666D02*
X79896305Y-128327427D01*
X79896305Y-128327427D02*
X79896305Y-127946475D01*
X79896305Y-127946475D02*
X79943924Y-127851237D01*
X79943924Y-127851237D02*
X80039162Y-127803618D01*
X80039162Y-127803618D02*
X80229638Y-127803618D01*
X80229638Y-127803618D02*
X80324876Y-127851237D01*
X80324876Y-127851237D02*
X80372495Y-127946475D01*
X80372495Y-127946475D02*
X80372495Y-128041713D01*
X80372495Y-128041713D02*
X79896305Y-128136951D01*
X80753448Y-128422666D02*
X80848686Y-128470285D01*
X80848686Y-128470285D02*
X81039162Y-128470285D01*
X81039162Y-128470285D02*
X81134400Y-128422666D01*
X81134400Y-128422666D02*
X81182019Y-128327427D01*
X81182019Y-128327427D02*
X81182019Y-128279808D01*
X81182019Y-128279808D02*
X81134400Y-128184570D01*
X81134400Y-128184570D02*
X81039162Y-128136951D01*
X81039162Y-128136951D02*
X80896305Y-128136951D01*
X80896305Y-128136951D02*
X80801067Y-128089332D01*
X80801067Y-128089332D02*
X80753448Y-127994094D01*
X80753448Y-127994094D02*
X80753448Y-127946475D01*
X80753448Y-127946475D02*
X80801067Y-127851237D01*
X80801067Y-127851237D02*
X80896305Y-127803618D01*
X80896305Y-127803618D02*
X81039162Y-127803618D01*
X81039162Y-127803618D02*
X81134400Y-127851237D01*
X81562972Y-128422666D02*
X81658210Y-128470285D01*
X81658210Y-128470285D02*
X81848686Y-128470285D01*
X81848686Y-128470285D02*
X81943924Y-128422666D01*
X81943924Y-128422666D02*
X81991543Y-128327427D01*
X81991543Y-128327427D02*
X81991543Y-128279808D01*
X81991543Y-128279808D02*
X81943924Y-128184570D01*
X81943924Y-128184570D02*
X81848686Y-128136951D01*
X81848686Y-128136951D02*
X81705829Y-128136951D01*
X81705829Y-128136951D02*
X81610591Y-128089332D01*
X81610591Y-128089332D02*
X81562972Y-127994094D01*
X81562972Y-127994094D02*
X81562972Y-127946475D01*
X81562972Y-127946475D02*
X81610591Y-127851237D01*
X81610591Y-127851237D02*
X81705829Y-127803618D01*
X81705829Y-127803618D02*
X81848686Y-127803618D01*
X81848686Y-127803618D02*
X81943924Y-127851237D01*
X82420115Y-128375046D02*
X82467734Y-128422666D01*
X82467734Y-128422666D02*
X82420115Y-128470285D01*
X82420115Y-128470285D02*
X82372496Y-128422666D01*
X82372496Y-128422666D02*
X82420115Y-128375046D01*
X82420115Y-128375046D02*
X82420115Y-128470285D01*
X82420115Y-127851237D02*
X82467734Y-127898856D01*
X82467734Y-127898856D02*
X82420115Y-127946475D01*
X82420115Y-127946475D02*
X82372496Y-127898856D01*
X82372496Y-127898856D02*
X82420115Y-127851237D01*
X82420115Y-127851237D02*
X82420115Y-127946475D01*
X83848686Y-127470285D02*
X83943924Y-127470285D01*
X83943924Y-127470285D02*
X84039162Y-127517904D01*
X84039162Y-127517904D02*
X84086781Y-127565523D01*
X84086781Y-127565523D02*
X84134400Y-127660761D01*
X84134400Y-127660761D02*
X84182019Y-127851237D01*
X84182019Y-127851237D02*
X84182019Y-128089332D01*
X84182019Y-128089332D02*
X84134400Y-128279808D01*
X84134400Y-128279808D02*
X84086781Y-128375046D01*
X84086781Y-128375046D02*
X84039162Y-128422666D01*
X84039162Y-128422666D02*
X83943924Y-128470285D01*
X83943924Y-128470285D02*
X83848686Y-128470285D01*
X83848686Y-128470285D02*
X83753448Y-128422666D01*
X83753448Y-128422666D02*
X83705829Y-128375046D01*
X83705829Y-128375046D02*
X83658210Y-128279808D01*
X83658210Y-128279808D02*
X83610591Y-128089332D01*
X83610591Y-128089332D02*
X83610591Y-127851237D01*
X83610591Y-127851237D02*
X83658210Y-127660761D01*
X83658210Y-127660761D02*
X83705829Y-127565523D01*
X83705829Y-127565523D02*
X83753448Y-127517904D01*
X83753448Y-127517904D02*
X83848686Y-127470285D01*
X84610591Y-128375046D02*
X84658210Y-128422666D01*
X84658210Y-128422666D02*
X84610591Y-128470285D01*
X84610591Y-128470285D02*
X84562972Y-128422666D01*
X84562972Y-128422666D02*
X84610591Y-128375046D01*
X84610591Y-128375046D02*
X84610591Y-128470285D01*
X84991543Y-127470285D02*
X85610590Y-127470285D01*
X85610590Y-127470285D02*
X85277257Y-127851237D01*
X85277257Y-127851237D02*
X85420114Y-127851237D01*
X85420114Y-127851237D02*
X85515352Y-127898856D01*
X85515352Y-127898856D02*
X85562971Y-127946475D01*
X85562971Y-127946475D02*
X85610590Y-128041713D01*
X85610590Y-128041713D02*
X85610590Y-128279808D01*
X85610590Y-128279808D02*
X85562971Y-128375046D01*
X85562971Y-128375046D02*
X85515352Y-128422666D01*
X85515352Y-128422666D02*
X85420114Y-128470285D01*
X85420114Y-128470285D02*
X85134400Y-128470285D01*
X85134400Y-128470285D02*
X85039162Y-128422666D01*
X85039162Y-128422666D02*
X84991543Y-128375046D01*
X86039162Y-128470285D02*
X86039162Y-127803618D01*
X86039162Y-127898856D02*
X86086781Y-127851237D01*
X86086781Y-127851237D02*
X86182019Y-127803618D01*
X86182019Y-127803618D02*
X86324876Y-127803618D01*
X86324876Y-127803618D02*
X86420114Y-127851237D01*
X86420114Y-127851237D02*
X86467733Y-127946475D01*
X86467733Y-127946475D02*
X86467733Y-128470285D01*
X86467733Y-127946475D02*
X86515352Y-127851237D01*
X86515352Y-127851237D02*
X86610590Y-127803618D01*
X86610590Y-127803618D02*
X86753447Y-127803618D01*
X86753447Y-127803618D02*
X86848686Y-127851237D01*
X86848686Y-127851237D02*
X86896305Y-127946475D01*
X86896305Y-127946475D02*
X86896305Y-128470285D01*
X87372495Y-128470285D02*
X87372495Y-127803618D01*
X87372495Y-127898856D02*
X87420114Y-127851237D01*
X87420114Y-127851237D02*
X87515352Y-127803618D01*
X87515352Y-127803618D02*
X87658209Y-127803618D01*
X87658209Y-127803618D02*
X87753447Y-127851237D01*
X87753447Y-127851237D02*
X87801066Y-127946475D01*
X87801066Y-127946475D02*
X87801066Y-128470285D01*
X87801066Y-127946475D02*
X87848685Y-127851237D01*
X87848685Y-127851237D02*
X87943923Y-127803618D01*
X87943923Y-127803618D02*
X88086780Y-127803618D01*
X88086780Y-127803618D02*
X88182019Y-127851237D01*
X88182019Y-127851237D02*
X88229638Y-127946475D01*
X88229638Y-127946475D02*
X88229638Y-128470285D01*
X68086779Y-130080229D02*
X68086779Y-129080229D01*
X68086779Y-129080229D02*
X68467731Y-129080229D01*
X68467731Y-129080229D02*
X68562969Y-129127848D01*
X68562969Y-129127848D02*
X68610588Y-129175467D01*
X68610588Y-129175467D02*
X68658207Y-129270705D01*
X68658207Y-129270705D02*
X68658207Y-129413562D01*
X68658207Y-129413562D02*
X68610588Y-129508800D01*
X68610588Y-129508800D02*
X68562969Y-129556419D01*
X68562969Y-129556419D02*
X68467731Y-129604038D01*
X68467731Y-129604038D02*
X68086779Y-129604038D01*
X69229636Y-130080229D02*
X69134398Y-130032610D01*
X69134398Y-130032610D02*
X69086779Y-129937371D01*
X69086779Y-129937371D02*
X69086779Y-129080229D01*
X70039160Y-130080229D02*
X70039160Y-129556419D01*
X70039160Y-129556419D02*
X69991541Y-129461181D01*
X69991541Y-129461181D02*
X69896303Y-129413562D01*
X69896303Y-129413562D02*
X69705827Y-129413562D01*
X69705827Y-129413562D02*
X69610589Y-129461181D01*
X70039160Y-130032610D02*
X69943922Y-130080229D01*
X69943922Y-130080229D02*
X69705827Y-130080229D01*
X69705827Y-130080229D02*
X69610589Y-130032610D01*
X69610589Y-130032610D02*
X69562970Y-129937371D01*
X69562970Y-129937371D02*
X69562970Y-129842133D01*
X69562970Y-129842133D02*
X69610589Y-129746895D01*
X69610589Y-129746895D02*
X69705827Y-129699276D01*
X69705827Y-129699276D02*
X69943922Y-129699276D01*
X69943922Y-129699276D02*
X70039160Y-129651657D01*
X70943922Y-130032610D02*
X70848684Y-130080229D01*
X70848684Y-130080229D02*
X70658208Y-130080229D01*
X70658208Y-130080229D02*
X70562970Y-130032610D01*
X70562970Y-130032610D02*
X70515351Y-129984990D01*
X70515351Y-129984990D02*
X70467732Y-129889752D01*
X70467732Y-129889752D02*
X70467732Y-129604038D01*
X70467732Y-129604038D02*
X70515351Y-129508800D01*
X70515351Y-129508800D02*
X70562970Y-129461181D01*
X70562970Y-129461181D02*
X70658208Y-129413562D01*
X70658208Y-129413562D02*
X70848684Y-129413562D01*
X70848684Y-129413562D02*
X70943922Y-129461181D01*
X71753446Y-130032610D02*
X71658208Y-130080229D01*
X71658208Y-130080229D02*
X71467732Y-130080229D01*
X71467732Y-130080229D02*
X71372494Y-130032610D01*
X71372494Y-130032610D02*
X71324875Y-129937371D01*
X71324875Y-129937371D02*
X71324875Y-129556419D01*
X71324875Y-129556419D02*
X71372494Y-129461181D01*
X71372494Y-129461181D02*
X71467732Y-129413562D01*
X71467732Y-129413562D02*
X71658208Y-129413562D01*
X71658208Y-129413562D02*
X71753446Y-129461181D01*
X71753446Y-129461181D02*
X71801065Y-129556419D01*
X71801065Y-129556419D02*
X71801065Y-129651657D01*
X71801065Y-129651657D02*
X71324875Y-129746895D01*
X72229637Y-130080229D02*
X72229637Y-129413562D01*
X72229637Y-129508800D02*
X72277256Y-129461181D01*
X72277256Y-129461181D02*
X72372494Y-129413562D01*
X72372494Y-129413562D02*
X72515351Y-129413562D01*
X72515351Y-129413562D02*
X72610589Y-129461181D01*
X72610589Y-129461181D02*
X72658208Y-129556419D01*
X72658208Y-129556419D02*
X72658208Y-130080229D01*
X72658208Y-129556419D02*
X72705827Y-129461181D01*
X72705827Y-129461181D02*
X72801065Y-129413562D01*
X72801065Y-129413562D02*
X72943922Y-129413562D01*
X72943922Y-129413562D02*
X73039161Y-129461181D01*
X73039161Y-129461181D02*
X73086780Y-129556419D01*
X73086780Y-129556419D02*
X73086780Y-130080229D01*
X73943922Y-130032610D02*
X73848684Y-130080229D01*
X73848684Y-130080229D02*
X73658208Y-130080229D01*
X73658208Y-130080229D02*
X73562970Y-130032610D01*
X73562970Y-130032610D02*
X73515351Y-129937371D01*
X73515351Y-129937371D02*
X73515351Y-129556419D01*
X73515351Y-129556419D02*
X73562970Y-129461181D01*
X73562970Y-129461181D02*
X73658208Y-129413562D01*
X73658208Y-129413562D02*
X73848684Y-129413562D01*
X73848684Y-129413562D02*
X73943922Y-129461181D01*
X73943922Y-129461181D02*
X73991541Y-129556419D01*
X73991541Y-129556419D02*
X73991541Y-129651657D01*
X73991541Y-129651657D02*
X73515351Y-129746895D01*
X74420113Y-129413562D02*
X74420113Y-130080229D01*
X74420113Y-129508800D02*
X74467732Y-129461181D01*
X74467732Y-129461181D02*
X74562970Y-129413562D01*
X74562970Y-129413562D02*
X74705827Y-129413562D01*
X74705827Y-129413562D02*
X74801065Y-129461181D01*
X74801065Y-129461181D02*
X74848684Y-129556419D01*
X74848684Y-129556419D02*
X74848684Y-130080229D01*
X75182018Y-129413562D02*
X75562970Y-129413562D01*
X75324875Y-129080229D02*
X75324875Y-129937371D01*
X75324875Y-129937371D02*
X75372494Y-130032610D01*
X75372494Y-130032610D02*
X75467732Y-130080229D01*
X75467732Y-130080229D02*
X75562970Y-130080229D01*
X75896304Y-129984990D02*
X75943923Y-130032610D01*
X75943923Y-130032610D02*
X75896304Y-130080229D01*
X75896304Y-130080229D02*
X75848685Y-130032610D01*
X75848685Y-130032610D02*
X75896304Y-129984990D01*
X75896304Y-129984990D02*
X75896304Y-130080229D01*
X75896304Y-129461181D02*
X75943923Y-129508800D01*
X75943923Y-129508800D02*
X75896304Y-129556419D01*
X75896304Y-129556419D02*
X75848685Y-129508800D01*
X75848685Y-129508800D02*
X75896304Y-129461181D01*
X75896304Y-129461181D02*
X75896304Y-129556419D01*
X77467732Y-129556419D02*
X77610589Y-129604038D01*
X77610589Y-129604038D02*
X77658208Y-129651657D01*
X77658208Y-129651657D02*
X77705827Y-129746895D01*
X77705827Y-129746895D02*
X77705827Y-129889752D01*
X77705827Y-129889752D02*
X77658208Y-129984990D01*
X77658208Y-129984990D02*
X77610589Y-130032610D01*
X77610589Y-130032610D02*
X77515351Y-130080229D01*
X77515351Y-130080229D02*
X77134399Y-130080229D01*
X77134399Y-130080229D02*
X77134399Y-129080229D01*
X77134399Y-129080229D02*
X77467732Y-129080229D01*
X77467732Y-129080229D02*
X77562970Y-129127848D01*
X77562970Y-129127848D02*
X77610589Y-129175467D01*
X77610589Y-129175467D02*
X77658208Y-129270705D01*
X77658208Y-129270705D02*
X77658208Y-129365943D01*
X77658208Y-129365943D02*
X77610589Y-129461181D01*
X77610589Y-129461181D02*
X77562970Y-129508800D01*
X77562970Y-129508800D02*
X77467732Y-129556419D01*
X77467732Y-129556419D02*
X77134399Y-129556419D01*
X78277256Y-130080229D02*
X78182018Y-130032610D01*
X78182018Y-130032610D02*
X78134399Y-129984990D01*
X78134399Y-129984990D02*
X78086780Y-129889752D01*
X78086780Y-129889752D02*
X78086780Y-129604038D01*
X78086780Y-129604038D02*
X78134399Y-129508800D01*
X78134399Y-129508800D02*
X78182018Y-129461181D01*
X78182018Y-129461181D02*
X78277256Y-129413562D01*
X78277256Y-129413562D02*
X78420113Y-129413562D01*
X78420113Y-129413562D02*
X78515351Y-129461181D01*
X78515351Y-129461181D02*
X78562970Y-129508800D01*
X78562970Y-129508800D02*
X78610589Y-129604038D01*
X78610589Y-129604038D02*
X78610589Y-129889752D01*
X78610589Y-129889752D02*
X78562970Y-129984990D01*
X78562970Y-129984990D02*
X78515351Y-130032610D01*
X78515351Y-130032610D02*
X78420113Y-130080229D01*
X78420113Y-130080229D02*
X78277256Y-130080229D01*
X78896304Y-129413562D02*
X79277256Y-129413562D01*
X79039161Y-129080229D02*
X79039161Y-129937371D01*
X79039161Y-129937371D02*
X79086780Y-130032610D01*
X79086780Y-130032610D02*
X79182018Y-130080229D01*
X79182018Y-130080229D02*
X79277256Y-130080229D01*
X79467733Y-129413562D02*
X79848685Y-129413562D01*
X79610590Y-129080229D02*
X79610590Y-129937371D01*
X79610590Y-129937371D02*
X79658209Y-130032610D01*
X79658209Y-130032610D02*
X79753447Y-130080229D01*
X79753447Y-130080229D02*
X79848685Y-130080229D01*
X80324876Y-130080229D02*
X80229638Y-130032610D01*
X80229638Y-130032610D02*
X80182019Y-129984990D01*
X80182019Y-129984990D02*
X80134400Y-129889752D01*
X80134400Y-129889752D02*
X80134400Y-129604038D01*
X80134400Y-129604038D02*
X80182019Y-129508800D01*
X80182019Y-129508800D02*
X80229638Y-129461181D01*
X80229638Y-129461181D02*
X80324876Y-129413562D01*
X80324876Y-129413562D02*
X80467733Y-129413562D01*
X80467733Y-129413562D02*
X80562971Y-129461181D01*
X80562971Y-129461181D02*
X80610590Y-129508800D01*
X80610590Y-129508800D02*
X80658209Y-129604038D01*
X80658209Y-129604038D02*
X80658209Y-129889752D01*
X80658209Y-129889752D02*
X80610590Y-129984990D01*
X80610590Y-129984990D02*
X80562971Y-130032610D01*
X80562971Y-130032610D02*
X80467733Y-130080229D01*
X80467733Y-130080229D02*
X80324876Y-130080229D01*
X81086781Y-130080229D02*
X81086781Y-129413562D01*
X81086781Y-129508800D02*
X81134400Y-129461181D01*
X81134400Y-129461181D02*
X81229638Y-129413562D01*
X81229638Y-129413562D02*
X81372495Y-129413562D01*
X81372495Y-129413562D02*
X81467733Y-129461181D01*
X81467733Y-129461181D02*
X81515352Y-129556419D01*
X81515352Y-129556419D02*
X81515352Y-130080229D01*
X81515352Y-129556419D02*
X81562971Y-129461181D01*
X81562971Y-129461181D02*
X81658209Y-129413562D01*
X81658209Y-129413562D02*
X81801066Y-129413562D01*
X81801066Y-129413562D02*
X81896305Y-129461181D01*
X81896305Y-129461181D02*
X81943924Y-129556419D01*
X81943924Y-129556419D02*
X81943924Y-130080229D01*
X83134400Y-130032610D02*
X83229638Y-130080229D01*
X83229638Y-130080229D02*
X83420114Y-130080229D01*
X83420114Y-130080229D02*
X83515352Y-130032610D01*
X83515352Y-130032610D02*
X83562971Y-129937371D01*
X83562971Y-129937371D02*
X83562971Y-129889752D01*
X83562971Y-129889752D02*
X83515352Y-129794514D01*
X83515352Y-129794514D02*
X83420114Y-129746895D01*
X83420114Y-129746895D02*
X83277257Y-129746895D01*
X83277257Y-129746895D02*
X83182019Y-129699276D01*
X83182019Y-129699276D02*
X83134400Y-129604038D01*
X83134400Y-129604038D02*
X83134400Y-129556419D01*
X83134400Y-129556419D02*
X83182019Y-129461181D01*
X83182019Y-129461181D02*
X83277257Y-129413562D01*
X83277257Y-129413562D02*
X83420114Y-129413562D01*
X83420114Y-129413562D02*
X83515352Y-129461181D01*
X83991543Y-130080229D02*
X83991543Y-129413562D01*
X83991543Y-129080229D02*
X83943924Y-129127848D01*
X83943924Y-129127848D02*
X83991543Y-129175467D01*
X83991543Y-129175467D02*
X84039162Y-129127848D01*
X84039162Y-129127848D02*
X83991543Y-129080229D01*
X83991543Y-129080229D02*
X83991543Y-129175467D01*
X84896304Y-130080229D02*
X84896304Y-129080229D01*
X84896304Y-130032610D02*
X84801066Y-130080229D01*
X84801066Y-130080229D02*
X84610590Y-130080229D01*
X84610590Y-130080229D02*
X84515352Y-130032610D01*
X84515352Y-130032610D02*
X84467733Y-129984990D01*
X84467733Y-129984990D02*
X84420114Y-129889752D01*
X84420114Y-129889752D02*
X84420114Y-129604038D01*
X84420114Y-129604038D02*
X84467733Y-129508800D01*
X84467733Y-129508800D02*
X84515352Y-129461181D01*
X84515352Y-129461181D02*
X84610590Y-129413562D01*
X84610590Y-129413562D02*
X84801066Y-129413562D01*
X84801066Y-129413562D02*
X84896304Y-129461181D01*
X85753447Y-130032610D02*
X85658209Y-130080229D01*
X85658209Y-130080229D02*
X85467733Y-130080229D01*
X85467733Y-130080229D02*
X85372495Y-130032610D01*
X85372495Y-130032610D02*
X85324876Y-129937371D01*
X85324876Y-129937371D02*
X85324876Y-129556419D01*
X85324876Y-129556419D02*
X85372495Y-129461181D01*
X85372495Y-129461181D02*
X85467733Y-129413562D01*
X85467733Y-129413562D02*
X85658209Y-129413562D01*
X85658209Y-129413562D02*
X85753447Y-129461181D01*
X85753447Y-129461181D02*
X85801066Y-129556419D01*
X85801066Y-129556419D02*
X85801066Y-129651657D01*
X85801066Y-129651657D02*
X85324876Y-129746895D01*
X87277257Y-130461181D02*
X87229638Y-130413562D01*
X87229638Y-130413562D02*
X87134400Y-130270705D01*
X87134400Y-130270705D02*
X87086781Y-130175467D01*
X87086781Y-130175467D02*
X87039162Y-130032610D01*
X87039162Y-130032610D02*
X86991543Y-129794514D01*
X86991543Y-129794514D02*
X86991543Y-129604038D01*
X86991543Y-129604038D02*
X87039162Y-129365943D01*
X87039162Y-129365943D02*
X87086781Y-129223086D01*
X87086781Y-129223086D02*
X87134400Y-129127848D01*
X87134400Y-129127848D02*
X87229638Y-128984990D01*
X87229638Y-128984990D02*
X87277257Y-128937371D01*
X88086781Y-130080229D02*
X88086781Y-129556419D01*
X88086781Y-129556419D02*
X88039162Y-129461181D01*
X88039162Y-129461181D02*
X87943924Y-129413562D01*
X87943924Y-129413562D02*
X87753448Y-129413562D01*
X87753448Y-129413562D02*
X87658210Y-129461181D01*
X88086781Y-130032610D02*
X87991543Y-130080229D01*
X87991543Y-130080229D02*
X87753448Y-130080229D01*
X87753448Y-130080229D02*
X87658210Y-130032610D01*
X87658210Y-130032610D02*
X87610591Y-129937371D01*
X87610591Y-129937371D02*
X87610591Y-129842133D01*
X87610591Y-129842133D02*
X87658210Y-129746895D01*
X87658210Y-129746895D02*
X87753448Y-129699276D01*
X87753448Y-129699276D02*
X87991543Y-129699276D01*
X87991543Y-129699276D02*
X88086781Y-129651657D01*
X88515353Y-130032610D02*
X88610591Y-130080229D01*
X88610591Y-130080229D02*
X88801067Y-130080229D01*
X88801067Y-130080229D02*
X88896305Y-130032610D01*
X88896305Y-130032610D02*
X88943924Y-129937371D01*
X88943924Y-129937371D02*
X88943924Y-129889752D01*
X88943924Y-129889752D02*
X88896305Y-129794514D01*
X88896305Y-129794514D02*
X88801067Y-129746895D01*
X88801067Y-129746895D02*
X88658210Y-129746895D01*
X88658210Y-129746895D02*
X88562972Y-129699276D01*
X88562972Y-129699276D02*
X88515353Y-129604038D01*
X88515353Y-129604038D02*
X88515353Y-129556419D01*
X88515353Y-129556419D02*
X88562972Y-129461181D01*
X88562972Y-129461181D02*
X88658210Y-129413562D01*
X88658210Y-129413562D02*
X88801067Y-129413562D01*
X88801067Y-129413562D02*
X88896305Y-129461181D01*
X90134401Y-129413562D02*
X90134401Y-130413562D01*
X90134401Y-129461181D02*
X90229639Y-129413562D01*
X90229639Y-129413562D02*
X90420115Y-129413562D01*
X90420115Y-129413562D02*
X90515353Y-129461181D01*
X90515353Y-129461181D02*
X90562972Y-129508800D01*
X90562972Y-129508800D02*
X90610591Y-129604038D01*
X90610591Y-129604038D02*
X90610591Y-129889752D01*
X90610591Y-129889752D02*
X90562972Y-129984990D01*
X90562972Y-129984990D02*
X90515353Y-130032610D01*
X90515353Y-130032610D02*
X90420115Y-130080229D01*
X90420115Y-130080229D02*
X90229639Y-130080229D01*
X90229639Y-130080229D02*
X90134401Y-130032610D01*
X91420115Y-130032610D02*
X91324877Y-130080229D01*
X91324877Y-130080229D02*
X91134401Y-130080229D01*
X91134401Y-130080229D02*
X91039163Y-130032610D01*
X91039163Y-130032610D02*
X90991544Y-129937371D01*
X90991544Y-129937371D02*
X90991544Y-129556419D01*
X90991544Y-129556419D02*
X91039163Y-129461181D01*
X91039163Y-129461181D02*
X91134401Y-129413562D01*
X91134401Y-129413562D02*
X91324877Y-129413562D01*
X91324877Y-129413562D02*
X91420115Y-129461181D01*
X91420115Y-129461181D02*
X91467734Y-129556419D01*
X91467734Y-129556419D02*
X91467734Y-129651657D01*
X91467734Y-129651657D02*
X90991544Y-129746895D01*
X91896306Y-130080229D02*
X91896306Y-129413562D01*
X91896306Y-129604038D02*
X91943925Y-129508800D01*
X91943925Y-129508800D02*
X91991544Y-129461181D01*
X91991544Y-129461181D02*
X92086782Y-129413562D01*
X92086782Y-129413562D02*
X92182020Y-129413562D01*
X93801068Y-129127848D02*
X93705830Y-129080229D01*
X93705830Y-129080229D02*
X93562973Y-129080229D01*
X93562973Y-129080229D02*
X93420116Y-129127848D01*
X93420116Y-129127848D02*
X93324878Y-129223086D01*
X93324878Y-129223086D02*
X93277259Y-129318324D01*
X93277259Y-129318324D02*
X93229640Y-129508800D01*
X93229640Y-129508800D02*
X93229640Y-129651657D01*
X93229640Y-129651657D02*
X93277259Y-129842133D01*
X93277259Y-129842133D02*
X93324878Y-129937371D01*
X93324878Y-129937371D02*
X93420116Y-130032610D01*
X93420116Y-130032610D02*
X93562973Y-130080229D01*
X93562973Y-130080229D02*
X93658211Y-130080229D01*
X93658211Y-130080229D02*
X93801068Y-130032610D01*
X93801068Y-130032610D02*
X93848687Y-129984990D01*
X93848687Y-129984990D02*
X93848687Y-129651657D01*
X93848687Y-129651657D02*
X93658211Y-129651657D01*
X94658211Y-130032610D02*
X94562973Y-130080229D01*
X94562973Y-130080229D02*
X94372497Y-130080229D01*
X94372497Y-130080229D02*
X94277259Y-130032610D01*
X94277259Y-130032610D02*
X94229640Y-129937371D01*
X94229640Y-129937371D02*
X94229640Y-129556419D01*
X94229640Y-129556419D02*
X94277259Y-129461181D01*
X94277259Y-129461181D02*
X94372497Y-129413562D01*
X94372497Y-129413562D02*
X94562973Y-129413562D01*
X94562973Y-129413562D02*
X94658211Y-129461181D01*
X94658211Y-129461181D02*
X94705830Y-129556419D01*
X94705830Y-129556419D02*
X94705830Y-129651657D01*
X94705830Y-129651657D02*
X94229640Y-129746895D01*
X95134402Y-130080229D02*
X95134402Y-129413562D01*
X95134402Y-129604038D02*
X95182021Y-129508800D01*
X95182021Y-129508800D02*
X95229640Y-129461181D01*
X95229640Y-129461181D02*
X95324878Y-129413562D01*
X95324878Y-129413562D02*
X95420116Y-129413562D01*
X95753450Y-130080229D02*
X95753450Y-129080229D01*
X95753450Y-129461181D02*
X95848688Y-129413562D01*
X95848688Y-129413562D02*
X96039164Y-129413562D01*
X96039164Y-129413562D02*
X96134402Y-129461181D01*
X96134402Y-129461181D02*
X96182021Y-129508800D01*
X96182021Y-129508800D02*
X96229640Y-129604038D01*
X96229640Y-129604038D02*
X96229640Y-129889752D01*
X96229640Y-129889752D02*
X96182021Y-129984990D01*
X96182021Y-129984990D02*
X96134402Y-130032610D01*
X96134402Y-130032610D02*
X96039164Y-130080229D01*
X96039164Y-130080229D02*
X95848688Y-130080229D01*
X95848688Y-130080229D02*
X95753450Y-130032610D01*
X97039164Y-130032610D02*
X96943926Y-130080229D01*
X96943926Y-130080229D02*
X96753450Y-130080229D01*
X96753450Y-130080229D02*
X96658212Y-130032610D01*
X96658212Y-130032610D02*
X96610593Y-129937371D01*
X96610593Y-129937371D02*
X96610593Y-129556419D01*
X96610593Y-129556419D02*
X96658212Y-129461181D01*
X96658212Y-129461181D02*
X96753450Y-129413562D01*
X96753450Y-129413562D02*
X96943926Y-129413562D01*
X96943926Y-129413562D02*
X97039164Y-129461181D01*
X97039164Y-129461181D02*
X97086783Y-129556419D01*
X97086783Y-129556419D02*
X97086783Y-129651657D01*
X97086783Y-129651657D02*
X96610593Y-129746895D01*
X97515355Y-130080229D02*
X97515355Y-129413562D01*
X97515355Y-129604038D02*
X97562974Y-129508800D01*
X97562974Y-129508800D02*
X97610593Y-129461181D01*
X97610593Y-129461181D02*
X97705831Y-129413562D01*
X97705831Y-129413562D02*
X97801069Y-129413562D01*
X99039165Y-130080229D02*
X98943927Y-130032610D01*
X98943927Y-130032610D02*
X98896308Y-129937371D01*
X98896308Y-129937371D02*
X98896308Y-129080229D01*
X99848689Y-130080229D02*
X99848689Y-129556419D01*
X99848689Y-129556419D02*
X99801070Y-129461181D01*
X99801070Y-129461181D02*
X99705832Y-129413562D01*
X99705832Y-129413562D02*
X99515356Y-129413562D01*
X99515356Y-129413562D02*
X99420118Y-129461181D01*
X99848689Y-130032610D02*
X99753451Y-130080229D01*
X99753451Y-130080229D02*
X99515356Y-130080229D01*
X99515356Y-130080229D02*
X99420118Y-130032610D01*
X99420118Y-130032610D02*
X99372499Y-129937371D01*
X99372499Y-129937371D02*
X99372499Y-129842133D01*
X99372499Y-129842133D02*
X99420118Y-129746895D01*
X99420118Y-129746895D02*
X99515356Y-129699276D01*
X99515356Y-129699276D02*
X99753451Y-129699276D01*
X99753451Y-129699276D02*
X99848689Y-129651657D01*
X100229642Y-129413562D02*
X100467737Y-130080229D01*
X100705832Y-129413562D02*
X100467737Y-130080229D01*
X100467737Y-130080229D02*
X100372499Y-130318324D01*
X100372499Y-130318324D02*
X100324880Y-130365943D01*
X100324880Y-130365943D02*
X100229642Y-130413562D01*
X101467737Y-130032610D02*
X101372499Y-130080229D01*
X101372499Y-130080229D02*
X101182023Y-130080229D01*
X101182023Y-130080229D02*
X101086785Y-130032610D01*
X101086785Y-130032610D02*
X101039166Y-129937371D01*
X101039166Y-129937371D02*
X101039166Y-129556419D01*
X101039166Y-129556419D02*
X101086785Y-129461181D01*
X101086785Y-129461181D02*
X101182023Y-129413562D01*
X101182023Y-129413562D02*
X101372499Y-129413562D01*
X101372499Y-129413562D02*
X101467737Y-129461181D01*
X101467737Y-129461181D02*
X101515356Y-129556419D01*
X101515356Y-129556419D02*
X101515356Y-129651657D01*
X101515356Y-129651657D02*
X101039166Y-129746895D01*
X101943928Y-130080229D02*
X101943928Y-129413562D01*
X101943928Y-129604038D02*
X101991547Y-129508800D01*
X101991547Y-129508800D02*
X102039166Y-129461181D01*
X102039166Y-129461181D02*
X102134404Y-129413562D01*
X102134404Y-129413562D02*
X102229642Y-129413562D01*
X102467738Y-130461181D02*
X102515357Y-130413562D01*
X102515357Y-130413562D02*
X102610595Y-130270705D01*
X102610595Y-130270705D02*
X102658214Y-130175467D01*
X102658214Y-130175467D02*
X102705833Y-130032610D01*
X102705833Y-130032610D02*
X102753452Y-129794514D01*
X102753452Y-129794514D02*
X102753452Y-129604038D01*
X102753452Y-129604038D02*
X102705833Y-129365943D01*
X102705833Y-129365943D02*
X102658214Y-129223086D01*
X102658214Y-129223086D02*
X102610595Y-129127848D01*
X102610595Y-129127848D02*
X102515357Y-128984990D01*
X102515357Y-128984990D02*
X102467738Y-128937371D01*
X68039160Y-131404458D02*
X68515350Y-131404458D01*
X67943922Y-131690173D02*
X68277255Y-130690173D01*
X68277255Y-130690173D02*
X68610588Y-131690173D01*
X69372493Y-131690173D02*
X69372493Y-130690173D01*
X69372493Y-131642554D02*
X69277255Y-131690173D01*
X69277255Y-131690173D02*
X69086779Y-131690173D01*
X69086779Y-131690173D02*
X68991541Y-131642554D01*
X68991541Y-131642554D02*
X68943922Y-131594934D01*
X68943922Y-131594934D02*
X68896303Y-131499696D01*
X68896303Y-131499696D02*
X68896303Y-131213982D01*
X68896303Y-131213982D02*
X68943922Y-131118744D01*
X68943922Y-131118744D02*
X68991541Y-131071125D01*
X68991541Y-131071125D02*
X69086779Y-131023506D01*
X69086779Y-131023506D02*
X69277255Y-131023506D01*
X69277255Y-131023506D02*
X69372493Y-131071125D01*
X69848684Y-131690173D02*
X69848684Y-130690173D01*
X70277255Y-131690173D02*
X70277255Y-131166363D01*
X70277255Y-131166363D02*
X70229636Y-131071125D01*
X70229636Y-131071125D02*
X70134398Y-131023506D01*
X70134398Y-131023506D02*
X69991541Y-131023506D01*
X69991541Y-131023506D02*
X69896303Y-131071125D01*
X69896303Y-131071125D02*
X69848684Y-131118744D01*
X71134398Y-131642554D02*
X71039160Y-131690173D01*
X71039160Y-131690173D02*
X70848684Y-131690173D01*
X70848684Y-131690173D02*
X70753446Y-131642554D01*
X70753446Y-131642554D02*
X70705827Y-131547315D01*
X70705827Y-131547315D02*
X70705827Y-131166363D01*
X70705827Y-131166363D02*
X70753446Y-131071125D01*
X70753446Y-131071125D02*
X70848684Y-131023506D01*
X70848684Y-131023506D02*
X71039160Y-131023506D01*
X71039160Y-131023506D02*
X71134398Y-131071125D01*
X71134398Y-131071125D02*
X71182017Y-131166363D01*
X71182017Y-131166363D02*
X71182017Y-131261601D01*
X71182017Y-131261601D02*
X70705827Y-131356839D01*
X71562970Y-131642554D02*
X71658208Y-131690173D01*
X71658208Y-131690173D02*
X71848684Y-131690173D01*
X71848684Y-131690173D02*
X71943922Y-131642554D01*
X71943922Y-131642554D02*
X71991541Y-131547315D01*
X71991541Y-131547315D02*
X71991541Y-131499696D01*
X71991541Y-131499696D02*
X71943922Y-131404458D01*
X71943922Y-131404458D02*
X71848684Y-131356839D01*
X71848684Y-131356839D02*
X71705827Y-131356839D01*
X71705827Y-131356839D02*
X71610589Y-131309220D01*
X71610589Y-131309220D02*
X71562970Y-131213982D01*
X71562970Y-131213982D02*
X71562970Y-131166363D01*
X71562970Y-131166363D02*
X71610589Y-131071125D01*
X71610589Y-131071125D02*
X71705827Y-131023506D01*
X71705827Y-131023506D02*
X71848684Y-131023506D01*
X71848684Y-131023506D02*
X71943922Y-131071125D01*
X72420113Y-131690173D02*
X72420113Y-131023506D01*
X72420113Y-130690173D02*
X72372494Y-130737792D01*
X72372494Y-130737792D02*
X72420113Y-130785411D01*
X72420113Y-130785411D02*
X72467732Y-130737792D01*
X72467732Y-130737792D02*
X72420113Y-130690173D01*
X72420113Y-130690173D02*
X72420113Y-130785411D01*
X72801065Y-131023506D02*
X73039160Y-131690173D01*
X73039160Y-131690173D02*
X73277255Y-131023506D01*
X74039160Y-131642554D02*
X73943922Y-131690173D01*
X73943922Y-131690173D02*
X73753446Y-131690173D01*
X73753446Y-131690173D02*
X73658208Y-131642554D01*
X73658208Y-131642554D02*
X73610589Y-131547315D01*
X73610589Y-131547315D02*
X73610589Y-131166363D01*
X73610589Y-131166363D02*
X73658208Y-131071125D01*
X73658208Y-131071125D02*
X73753446Y-131023506D01*
X73753446Y-131023506D02*
X73943922Y-131023506D01*
X73943922Y-131023506D02*
X74039160Y-131071125D01*
X74039160Y-131071125D02*
X74086779Y-131166363D01*
X74086779Y-131166363D02*
X74086779Y-131261601D01*
X74086779Y-131261601D02*
X73610589Y-131356839D01*
X74515351Y-131594934D02*
X74562970Y-131642554D01*
X74562970Y-131642554D02*
X74515351Y-131690173D01*
X74515351Y-131690173D02*
X74467732Y-131642554D01*
X74467732Y-131642554D02*
X74515351Y-131594934D01*
X74515351Y-131594934D02*
X74515351Y-131690173D01*
X74515351Y-131071125D02*
X74562970Y-131118744D01*
X74562970Y-131118744D02*
X74515351Y-131166363D01*
X74515351Y-131166363D02*
X74467732Y-131118744D01*
X74467732Y-131118744D02*
X74515351Y-131071125D01*
X74515351Y-131071125D02*
X74515351Y-131166363D01*
X75658208Y-130690173D02*
X76277255Y-130690173D01*
X76277255Y-130690173D02*
X75943922Y-131071125D01*
X75943922Y-131071125D02*
X76086779Y-131071125D01*
X76086779Y-131071125D02*
X76182017Y-131118744D01*
X76182017Y-131118744D02*
X76229636Y-131166363D01*
X76229636Y-131166363D02*
X76277255Y-131261601D01*
X76277255Y-131261601D02*
X76277255Y-131499696D01*
X76277255Y-131499696D02*
X76229636Y-131594934D01*
X76229636Y-131594934D02*
X76182017Y-131642554D01*
X76182017Y-131642554D02*
X76086779Y-131690173D01*
X76086779Y-131690173D02*
X75801065Y-131690173D01*
X75801065Y-131690173D02*
X75705827Y-131642554D01*
X75705827Y-131642554D02*
X75658208Y-131594934D01*
X76705827Y-131690173D02*
X76705827Y-130690173D01*
X76705827Y-130690173D02*
X77039160Y-131404458D01*
X77039160Y-131404458D02*
X77372493Y-130690173D01*
X77372493Y-130690173D02*
X77372493Y-131690173D01*
X77896303Y-131690173D02*
X78086779Y-131690173D01*
X78086779Y-131690173D02*
X78182017Y-131642554D01*
X78182017Y-131642554D02*
X78229636Y-131594934D01*
X78229636Y-131594934D02*
X78324874Y-131452077D01*
X78324874Y-131452077D02*
X78372493Y-131261601D01*
X78372493Y-131261601D02*
X78372493Y-130880649D01*
X78372493Y-130880649D02*
X78324874Y-130785411D01*
X78324874Y-130785411D02*
X78277255Y-130737792D01*
X78277255Y-130737792D02*
X78182017Y-130690173D01*
X78182017Y-130690173D02*
X77991541Y-130690173D01*
X77991541Y-130690173D02*
X77896303Y-130737792D01*
X77896303Y-130737792D02*
X77848684Y-130785411D01*
X77848684Y-130785411D02*
X77801065Y-130880649D01*
X77801065Y-130880649D02*
X77801065Y-131118744D01*
X77801065Y-131118744D02*
X77848684Y-131213982D01*
X77848684Y-131213982D02*
X77896303Y-131261601D01*
X77896303Y-131261601D02*
X77991541Y-131309220D01*
X77991541Y-131309220D02*
X78182017Y-131309220D01*
X78182017Y-131309220D02*
X78277255Y-131261601D01*
X78277255Y-131261601D02*
X78324874Y-131213982D01*
X78324874Y-131213982D02*
X78372493Y-131118744D01*
X78991541Y-130690173D02*
X79086779Y-130690173D01*
X79086779Y-130690173D02*
X79182017Y-130737792D01*
X79182017Y-130737792D02*
X79229636Y-130785411D01*
X79229636Y-130785411D02*
X79277255Y-130880649D01*
X79277255Y-130880649D02*
X79324874Y-131071125D01*
X79324874Y-131071125D02*
X79324874Y-131309220D01*
X79324874Y-131309220D02*
X79277255Y-131499696D01*
X79277255Y-131499696D02*
X79229636Y-131594934D01*
X79229636Y-131594934D02*
X79182017Y-131642554D01*
X79182017Y-131642554D02*
X79086779Y-131690173D01*
X79086779Y-131690173D02*
X78991541Y-131690173D01*
X78991541Y-131690173D02*
X78896303Y-131642554D01*
X78896303Y-131642554D02*
X78848684Y-131594934D01*
X78848684Y-131594934D02*
X78801065Y-131499696D01*
X78801065Y-131499696D02*
X78753446Y-131309220D01*
X78753446Y-131309220D02*
X78753446Y-131071125D01*
X78753446Y-131071125D02*
X78801065Y-130880649D01*
X78801065Y-130880649D02*
X78848684Y-130785411D01*
X78848684Y-130785411D02*
X78896303Y-130737792D01*
X78896303Y-130737792D02*
X78991541Y-130690173D01*
X79658208Y-130690173D02*
X80324874Y-130690173D01*
X80324874Y-130690173D02*
X79896303Y-131690173D01*
X80610589Y-130690173D02*
X81277255Y-130690173D01*
X81277255Y-130690173D02*
X80848684Y-131690173D01*
X82324875Y-130690173D02*
X82943922Y-130690173D01*
X82943922Y-130690173D02*
X82610589Y-131071125D01*
X82610589Y-131071125D02*
X82753446Y-131071125D01*
X82753446Y-131071125D02*
X82848684Y-131118744D01*
X82848684Y-131118744D02*
X82896303Y-131166363D01*
X82896303Y-131166363D02*
X82943922Y-131261601D01*
X82943922Y-131261601D02*
X82943922Y-131499696D01*
X82943922Y-131499696D02*
X82896303Y-131594934D01*
X82896303Y-131594934D02*
X82848684Y-131642554D01*
X82848684Y-131642554D02*
X82753446Y-131690173D01*
X82753446Y-131690173D02*
X82467732Y-131690173D01*
X82467732Y-131690173D02*
X82372494Y-131642554D01*
X82372494Y-131642554D02*
X82324875Y-131594934D01*
X83372494Y-131690173D02*
X83372494Y-130690173D01*
X83372494Y-130690173D02*
X83705827Y-131404458D01*
X83705827Y-131404458D02*
X84039160Y-130690173D01*
X84039160Y-130690173D02*
X84039160Y-131690173D01*
X85134399Y-131023506D02*
X85515351Y-131023506D01*
X85277256Y-130690173D02*
X85277256Y-131547315D01*
X85277256Y-131547315D02*
X85324875Y-131642554D01*
X85324875Y-131642554D02*
X85420113Y-131690173D01*
X85420113Y-131690173D02*
X85515351Y-131690173D01*
X86277256Y-131690173D02*
X86277256Y-131166363D01*
X86277256Y-131166363D02*
X86229637Y-131071125D01*
X86229637Y-131071125D02*
X86134399Y-131023506D01*
X86134399Y-131023506D02*
X85943923Y-131023506D01*
X85943923Y-131023506D02*
X85848685Y-131071125D01*
X86277256Y-131642554D02*
X86182018Y-131690173D01*
X86182018Y-131690173D02*
X85943923Y-131690173D01*
X85943923Y-131690173D02*
X85848685Y-131642554D01*
X85848685Y-131642554D02*
X85801066Y-131547315D01*
X85801066Y-131547315D02*
X85801066Y-131452077D01*
X85801066Y-131452077D02*
X85848685Y-131356839D01*
X85848685Y-131356839D02*
X85943923Y-131309220D01*
X85943923Y-131309220D02*
X86182018Y-131309220D01*
X86182018Y-131309220D02*
X86277256Y-131261601D01*
X86753447Y-131023506D02*
X86753447Y-132023506D01*
X86753447Y-131071125D02*
X86848685Y-131023506D01*
X86848685Y-131023506D02*
X87039161Y-131023506D01*
X87039161Y-131023506D02*
X87134399Y-131071125D01*
X87134399Y-131071125D02*
X87182018Y-131118744D01*
X87182018Y-131118744D02*
X87229637Y-131213982D01*
X87229637Y-131213982D02*
X87229637Y-131499696D01*
X87229637Y-131499696D02*
X87182018Y-131594934D01*
X87182018Y-131594934D02*
X87134399Y-131642554D01*
X87134399Y-131642554D02*
X87039161Y-131690173D01*
X87039161Y-131690173D02*
X86848685Y-131690173D01*
X86848685Y-131690173D02*
X86753447Y-131642554D01*
X88039161Y-131642554D02*
X87943923Y-131690173D01*
X87943923Y-131690173D02*
X87753447Y-131690173D01*
X87753447Y-131690173D02*
X87658209Y-131642554D01*
X87658209Y-131642554D02*
X87610590Y-131547315D01*
X87610590Y-131547315D02*
X87610590Y-131166363D01*
X87610590Y-131166363D02*
X87658209Y-131071125D01*
X87658209Y-131071125D02*
X87753447Y-131023506D01*
X87753447Y-131023506D02*
X87943923Y-131023506D01*
X87943923Y-131023506D02*
X88039161Y-131071125D01*
X88039161Y-131071125D02*
X88086780Y-131166363D01*
X88086780Y-131166363D02*
X88086780Y-131261601D01*
X88086780Y-131261601D02*
X87610590Y-131356839D01*
G36*
X89350560Y-50900359D02*
G01*
X89382453Y-50900643D01*
X89383778Y-50900662D01*
X89404550Y-50901069D01*
X89410966Y-50901361D01*
X89498485Y-50907620D01*
X89509038Y-50908831D01*
X89648789Y-50930966D01*
X89655750Y-50932273D01*
X89716745Y-50945542D01*
X89725318Y-50947730D01*
X89741023Y-50952341D01*
X89744408Y-50953388D01*
X89874148Y-50995542D01*
X89879168Y-50997293D01*
X89920059Y-51012546D01*
X89928233Y-51015931D01*
X89967475Y-51033852D01*
X89972259Y-51036162D01*
X90094915Y-51098658D01*
X90098045Y-51100310D01*
X90111768Y-51107803D01*
X90119381Y-51112320D01*
X90170948Y-51145459D01*
X90176796Y-51149458D01*
X90292769Y-51233719D01*
X90301084Y-51240322D01*
X90352320Y-51284717D01*
X90358800Y-51290750D01*
X90459596Y-51391546D01*
X90465629Y-51398025D01*
X90509435Y-51448581D01*
X90516039Y-51456897D01*
X90601631Y-51574703D01*
X90605629Y-51580550D01*
X90638040Y-51630983D01*
X90642556Y-51638595D01*
X90647436Y-51647532D01*
X90649089Y-51650665D01*
X90715691Y-51781380D01*
X90717999Y-51786160D01*
X90734421Y-51822117D01*
X90737811Y-51830300D01*
X90751203Y-51866208D01*
X90752951Y-51871221D01*
X90799212Y-52013597D01*
X90800260Y-52016988D01*
X90802624Y-52025041D01*
X90804811Y-52033610D01*
X90816984Y-52089568D01*
X90818291Y-52096529D01*
X90841765Y-52244742D01*
X90842976Y-52255292D01*
X90848513Y-52332699D01*
X90848805Y-52339113D01*
X90849976Y-52398786D01*
X90850000Y-52401219D01*
X90850000Y-60776354D01*
X90830315Y-60843393D01*
X90777511Y-60889148D01*
X90726000Y-60900354D01*
X77474000Y-60900354D01*
X77406961Y-60880669D01*
X77361206Y-60827865D01*
X77350000Y-60776354D01*
X77350000Y-52401168D01*
X77350024Y-52398737D01*
X77351193Y-52339115D01*
X77351485Y-52332699D01*
X77357022Y-52255292D01*
X77358232Y-52244742D01*
X77381704Y-52096538D01*
X77383012Y-52089575D01*
X77395190Y-52033598D01*
X77397378Y-52025026D01*
X77399740Y-52016981D01*
X77400787Y-52013595D01*
X77447046Y-51871225D01*
X77448796Y-51866208D01*
X77462191Y-51830296D01*
X77465577Y-51822122D01*
X77481998Y-51786163D01*
X77484308Y-51781377D01*
X77550904Y-51650675D01*
X77552558Y-51647541D01*
X77557448Y-51638586D01*
X77561962Y-51630977D01*
X77594363Y-51580558D01*
X77598362Y-51574710D01*
X77683959Y-51456897D01*
X77690563Y-51448581D01*
X77734369Y-51398025D01*
X77740402Y-51391546D01*
X77841198Y-51290750D01*
X77847678Y-51284717D01*
X77898914Y-51240322D01*
X77907229Y-51233719D01*
X78023198Y-51149461D01*
X78029048Y-51145460D01*
X78080634Y-51112310D01*
X78088241Y-51107797D01*
X78101926Y-51100324D01*
X78105060Y-51098670D01*
X78227728Y-51036167D01*
X78232513Y-51033857D01*
X78271769Y-51015930D01*
X78279944Y-51012544D01*
X78320840Y-50997290D01*
X78325858Y-50995540D01*
X78455608Y-50953383D01*
X78458984Y-50952339D01*
X78474661Y-50947735D01*
X78483243Y-50945544D01*
X78544252Y-50932272D01*
X78551213Y-50930965D01*
X78690960Y-50908831D01*
X78701513Y-50907620D01*
X78789032Y-50901361D01*
X78795448Y-50901069D01*
X78816220Y-50900662D01*
X78817545Y-50900643D01*
X78849440Y-50900359D01*
X78850544Y-50900354D01*
X89349456Y-50900354D01*
X89350560Y-50900359D01*
G37*
G36*
X119349897Y-104400305D02*
G01*
X119350212Y-104400306D01*
X119350901Y-104400311D01*
X119351054Y-104400312D01*
X119382072Y-104400589D01*
X119382269Y-104400591D01*
X119383003Y-104400600D01*
X119383234Y-104400603D01*
X119384117Y-104400618D01*
X119384244Y-104400673D01*
X119384246Y-104400621D01*
X119402339Y-104400976D01*
X119402975Y-104400993D01*
X119407177Y-104401130D01*
X119408446Y-104401188D01*
X119412661Y-104401435D01*
X119413292Y-104401476D01*
X119494758Y-104407305D01*
X119495805Y-104407391D01*
X119502774Y-104408040D01*
X119504860Y-104408280D01*
X119511743Y-104409220D01*
X119512779Y-104409372D01*
X119646371Y-104430534D01*
X119647058Y-104430648D01*
X119651636Y-104431440D01*
X119653016Y-104431699D01*
X119657595Y-104432627D01*
X119658279Y-104432771D01*
X119713714Y-104444832D01*
X119714567Y-104445026D01*
X119720254Y-104446370D01*
X119721951Y-104446803D01*
X119727552Y-104448340D01*
X119728393Y-104448579D01*
X119739769Y-104451920D01*
X119740101Y-104452018D01*
X119742407Y-104452713D01*
X119743070Y-104452919D01*
X119745364Y-104453646D01*
X119745704Y-104453755D01*
X119872346Y-104494907D01*
X119872829Y-104495066D01*
X119876235Y-104496212D01*
X119877248Y-104496565D01*
X119880547Y-104497756D01*
X119881033Y-104497935D01*
X119917116Y-104511394D01*
X119917934Y-104511707D01*
X119923385Y-104513852D01*
X119924998Y-104514521D01*
X119930374Y-104516861D01*
X119931174Y-104517217D01*
X119965728Y-104532998D01*
X119966197Y-104533215D01*
X119969443Y-104534739D01*
X119970402Y-104535203D01*
X119973525Y-104536753D01*
X119973987Y-104536985D01*
X120093808Y-104598040D01*
X120094112Y-104598196D01*
X120096265Y-104599312D01*
X120096897Y-104599645D01*
X120098938Y-104600741D01*
X120099242Y-104600906D01*
X120109044Y-104606259D01*
X120109802Y-104606682D01*
X120114850Y-104609556D01*
X120116357Y-104610450D01*
X120121353Y-104613536D01*
X120122093Y-104614002D01*
X120168846Y-104644048D01*
X120169434Y-104644432D01*
X120173340Y-104647022D01*
X120174500Y-104647816D01*
X120178289Y-104650488D01*
X120178852Y-104650890D01*
X120289747Y-104731461D01*
X120290591Y-104732089D01*
X120296163Y-104736323D01*
X120297801Y-104737623D01*
X120303174Y-104742080D01*
X120303978Y-104742763D01*
X120349977Y-104782622D01*
X120350633Y-104783200D01*
X120354978Y-104787103D01*
X120356258Y-104788294D01*
X120360444Y-104792333D01*
X120361068Y-104792947D01*
X120457405Y-104889284D01*
X120458020Y-104889910D01*
X120462052Y-104894089D01*
X120463236Y-104895360D01*
X120467161Y-104899728D01*
X120467746Y-104900391D01*
X120506993Y-104945685D01*
X120507675Y-104946489D01*
X120512127Y-104951856D01*
X120513428Y-104953494D01*
X120517687Y-104959099D01*
X120518314Y-104959943D01*
X120600187Y-105072631D01*
X120600590Y-105073194D01*
X120603281Y-105077010D01*
X120604078Y-105078176D01*
X120606632Y-105082029D01*
X120607011Y-105082610D01*
X120636359Y-105128276D01*
X120636822Y-105129011D01*
X120639901Y-105133994D01*
X120640798Y-105135505D01*
X120643673Y-105140554D01*
X120644094Y-105141309D01*
X120646868Y-105146387D01*
X120647050Y-105146723D01*
X120648131Y-105148739D01*
X120648441Y-105149326D01*
X120649499Y-105151365D01*
X120649664Y-105151687D01*
X120714869Y-105279654D01*
X120715104Y-105280120D01*
X120716669Y-105283274D01*
X120717127Y-105284224D01*
X120718589Y-105287337D01*
X120718809Y-105287811D01*
X120733151Y-105319215D01*
X120733506Y-105320012D01*
X120735833Y-105325357D01*
X120736503Y-105326974D01*
X120738620Y-105332354D01*
X120738934Y-105333172D01*
X120750596Y-105364439D01*
X120750774Y-105364926D01*
X120751941Y-105368159D01*
X120752290Y-105369158D01*
X120753406Y-105372472D01*
X120753569Y-105372967D01*
X120798851Y-105512321D01*
X120798955Y-105512644D01*
X120799668Y-105514891D01*
X120799882Y-105515582D01*
X120800577Y-105517890D01*
X120800672Y-105518211D01*
X120801771Y-105521953D01*
X120802011Y-105522797D01*
X120803552Y-105528414D01*
X120803982Y-105530100D01*
X120805328Y-105535791D01*
X120805524Y-105536653D01*
X120816482Y-105587024D01*
X120816625Y-105587702D01*
X120817559Y-105592308D01*
X120817819Y-105593694D01*
X120818601Y-105598215D01*
X120818714Y-105598900D01*
X120841221Y-105740973D01*
X120841375Y-105742013D01*
X120842321Y-105748943D01*
X120842560Y-105751029D01*
X120843207Y-105757980D01*
X120843293Y-105759025D01*
X120848396Y-105830366D01*
X120848437Y-105830991D01*
X120848685Y-105835216D01*
X120848743Y-105836490D01*
X120848880Y-105840690D01*
X120848897Y-105841323D01*
X120850038Y-105899327D01*
X120850040Y-105899446D01*
X120850042Y-105899562D01*
X120850048Y-105900304D01*
X120850049Y-105900304D01*
X120850050Y-105900630D01*
X120850050Y-117897985D01*
X120850049Y-117898235D01*
X120850042Y-117899605D01*
X120850038Y-117900060D01*
X120850015Y-117901658D01*
X120850011Y-117901916D01*
X120848878Y-117959550D01*
X120848861Y-117960184D01*
X120848724Y-117964386D01*
X120848666Y-117965656D01*
X120848419Y-117969870D01*
X120848378Y-117970499D01*
X120843385Y-118040294D01*
X120843299Y-118041343D01*
X120842650Y-118048310D01*
X120842410Y-118050395D01*
X120841472Y-118057264D01*
X120841319Y-118058301D01*
X120818303Y-118203590D01*
X120818190Y-118204274D01*
X120817402Y-118208830D01*
X120817144Y-118210207D01*
X120816224Y-118214749D01*
X120816079Y-118215438D01*
X120804737Y-118267570D01*
X120804540Y-118268436D01*
X120804045Y-118270528D01*
X120803614Y-118272217D01*
X120803049Y-118274275D01*
X120802889Y-118274231D01*
X120802709Y-118275457D01*
X120802033Y-118277698D01*
X120801832Y-118278348D01*
X120801191Y-118280371D01*
X120801082Y-118280713D01*
X120751757Y-118432511D01*
X120751589Y-118433017D01*
X120750494Y-118436266D01*
X120750151Y-118437248D01*
X120748974Y-118440510D01*
X120748793Y-118441004D01*
X120738952Y-118467387D01*
X120738640Y-118468202D01*
X120736504Y-118473631D01*
X120735833Y-118475250D01*
X120733506Y-118480595D01*
X120733151Y-118481391D01*
X120721924Y-118505975D01*
X120721704Y-118506450D01*
X120720249Y-118509548D01*
X120719788Y-118510504D01*
X120718219Y-118513665D01*
X120717987Y-118514125D01*
X120644147Y-118659039D01*
X120643982Y-118659361D01*
X120643061Y-118661136D01*
X120642744Y-118661737D01*
X120641967Y-118663185D01*
X120641363Y-118664276D01*
X120640853Y-118665171D01*
X120639976Y-118666649D01*
X120639347Y-118667668D01*
X120638872Y-118668422D01*
X120610932Y-118711895D01*
X120610552Y-118712477D01*
X120608019Y-118716298D01*
X120607223Y-118717463D01*
X120604556Y-118721245D01*
X120604153Y-118721808D01*
X120515095Y-118844384D01*
X120514469Y-118845226D01*
X120510253Y-118850775D01*
X120508949Y-118852417D01*
X120504489Y-118857793D01*
X120503808Y-118858595D01*
X120472323Y-118894930D01*
X120471746Y-118895585D01*
X120467846Y-118899927D01*
X120466654Y-118901208D01*
X120462615Y-118905394D01*
X120462001Y-118906018D01*
X120355764Y-119012255D01*
X120355138Y-119012870D01*
X120350959Y-119016902D01*
X120349688Y-119018086D01*
X120345320Y-119022011D01*
X120344657Y-119022596D01*
X120309034Y-119053463D01*
X120308230Y-119054145D01*
X120302863Y-119058597D01*
X120301228Y-119059895D01*
X120295645Y-119064138D01*
X120294798Y-119064768D01*
X120170411Y-119155141D01*
X120169848Y-119155543D01*
X120166059Y-119158215D01*
X120164896Y-119159011D01*
X120161021Y-119161580D01*
X120160436Y-119161961D01*
X120124705Y-119184924D01*
X120123667Y-119185574D01*
X120116674Y-119189825D01*
X120114556Y-119191041D01*
X120107388Y-119194923D01*
X120106299Y-119195495D01*
X119960585Y-119269742D01*
X119960125Y-119269974D01*
X119956964Y-119271543D01*
X119956009Y-119272004D01*
X119952877Y-119273475D01*
X119952400Y-119273696D01*
X119931125Y-119283411D01*
X119930330Y-119283765D01*
X119925008Y-119286082D01*
X119923389Y-119286753D01*
X119917988Y-119288878D01*
X119917171Y-119289191D01*
X119895737Y-119297185D01*
X119895260Y-119297360D01*
X119891971Y-119298548D01*
X119890960Y-119298900D01*
X119887586Y-119300036D01*
X119887094Y-119300199D01*
X119730943Y-119350939D01*
X119729779Y-119351302D01*
X119721951Y-119353632D01*
X119719578Y-119354274D01*
X119711629Y-119356212D01*
X119710441Y-119356486D01*
X119670221Y-119365237D01*
X119669539Y-119365380D01*
X119665011Y-119366298D01*
X119663627Y-119366558D01*
X119658956Y-119367366D01*
X119658271Y-119367479D01*
X119504703Y-119391807D01*
X119503662Y-119391961D01*
X119496687Y-119392913D01*
X119494605Y-119393152D01*
X119487658Y-119393799D01*
X119486610Y-119393885D01*
X119426932Y-119398154D01*
X119426302Y-119398195D01*
X119422087Y-119398442D01*
X119420818Y-119398500D01*
X119416616Y-119398637D01*
X119415982Y-119398654D01*
X119352111Y-119399909D01*
X119351858Y-119399913D01*
X119350201Y-119399937D01*
X119349760Y-119399941D01*
X119348302Y-119399949D01*
X119348033Y-119399950D01*
X104351958Y-119399999D01*
X104351747Y-119399999D01*
X104350354Y-119399993D01*
X104349844Y-119399988D01*
X104348146Y-119399963D01*
X104347912Y-119399959D01*
X104284290Y-119398719D01*
X104283658Y-119398702D01*
X104279492Y-119398567D01*
X104278204Y-119398509D01*
X104273950Y-119398259D01*
X104273329Y-119398218D01*
X104213626Y-119393947D01*
X104212588Y-119393862D01*
X104205647Y-119393217D01*
X104203570Y-119392979D01*
X104196703Y-119392044D01*
X104195671Y-119391892D01*
X104042906Y-119367770D01*
X104042207Y-119367655D01*
X104037536Y-119366848D01*
X104036156Y-119366589D01*
X104031562Y-119365659D01*
X104030867Y-119365513D01*
X103990282Y-119356683D01*
X103989099Y-119356410D01*
X103981240Y-119354495D01*
X103978903Y-119353864D01*
X103971171Y-119351570D01*
X103970013Y-119351211D01*
X103815252Y-119301098D01*
X103814750Y-119300932D01*
X103811322Y-119299781D01*
X103810290Y-119299422D01*
X103806925Y-119298208D01*
X103806431Y-119298027D01*
X103782909Y-119289254D01*
X103782087Y-119288939D01*
X103776670Y-119286807D01*
X103775064Y-119286142D01*
X103769691Y-119283804D01*
X103768885Y-119283444D01*
X103750021Y-119274828D01*
X103749571Y-119274620D01*
X103746439Y-119273151D01*
X103745515Y-119272706D01*
X103742526Y-119271227D01*
X103742078Y-119271002D01*
X103591522Y-119194580D01*
X103591216Y-119194424D01*
X103589272Y-119193420D01*
X103588587Y-119193059D01*
X103587195Y-119192312D01*
X103586139Y-119191728D01*
X103585165Y-119191174D01*
X103583632Y-119190265D01*
X103582530Y-119189584D01*
X103581797Y-119189122D01*
X103541750Y-119163385D01*
X103541185Y-119163016D01*
X103537439Y-119160535D01*
X103536331Y-119159779D01*
X103532631Y-119157180D01*
X103532077Y-119156785D01*
X103407201Y-119066452D01*
X103406333Y-119065810D01*
X103400581Y-119061453D01*
X103398904Y-119060124D01*
X103393384Y-119055550D01*
X103392559Y-119054851D01*
X103357349Y-119024340D01*
X103356717Y-119023783D01*
X103352557Y-119020051D01*
X103351333Y-119018915D01*
X103347326Y-119015066D01*
X103346713Y-119014467D01*
X103240269Y-118908578D01*
X103239632Y-118907931D01*
X103235490Y-118903655D01*
X103234252Y-118902330D01*
X103230176Y-118897798D01*
X103229578Y-118897120D01*
X103198078Y-118860769D01*
X103197422Y-118859996D01*
X103193116Y-118854814D01*
X103191855Y-118853231D01*
X103187767Y-118847876D01*
X103187164Y-118847069D01*
X103098517Y-118725860D01*
X103098086Y-118725262D01*
X103095247Y-118721255D01*
X103094411Y-118720037D01*
X103091670Y-118715910D01*
X103091267Y-118715292D01*
X103066142Y-118676199D01*
X103065516Y-118675199D01*
X103061440Y-118668508D01*
X103060263Y-118666467D01*
X103056490Y-118659545D01*
X103055937Y-118658500D01*
X102985042Y-118520618D01*
X102984784Y-118520110D01*
X102983086Y-118516711D01*
X102982593Y-118515695D01*
X102980972Y-118512254D01*
X102980728Y-118511727D01*
X102966903Y-118481453D01*
X102966547Y-118480654D01*
X102964220Y-118475308D01*
X102963554Y-118473702D01*
X102961406Y-118468246D01*
X102961089Y-118467419D01*
X102953798Y-118447870D01*
X102953637Y-118447433D01*
X102952536Y-118444393D01*
X102952222Y-118443497D01*
X102951196Y-118440483D01*
X102951045Y-118440032D01*
X102902673Y-118293272D01*
X102902546Y-118292882D01*
X102901739Y-118290363D01*
X102901498Y-118289590D01*
X102900711Y-118286986D01*
X102900604Y-118286624D01*
X102898268Y-118278674D01*
X102898026Y-118277824D01*
X102896496Y-118272247D01*
X102896061Y-118270544D01*
X102894729Y-118264903D01*
X102894538Y-118264060D01*
X102885161Y-118220966D01*
X102885029Y-118220339D01*
X102884178Y-118216166D01*
X102883937Y-118214896D01*
X102883195Y-118210694D01*
X102883088Y-118210068D01*
X102859214Y-118063840D01*
X102859048Y-118062747D01*
X102858021Y-118055420D01*
X102857764Y-118053221D01*
X102857074Y-118045909D01*
X102856982Y-118044803D01*
X102851856Y-117973163D01*
X102851819Y-117972595D01*
X102851587Y-117968721D01*
X102851532Y-117967581D01*
X102851396Y-117963858D01*
X102851378Y-117963287D01*
X102850144Y-117913656D01*
X102850141Y-117913507D01*
X102850114Y-117912270D01*
X102850105Y-117911780D01*
X102850089Y-117910425D01*
X102850088Y-117910280D01*
X102850008Y-117901241D01*
X102850007Y-117901171D01*
X102850002Y-117900498D01*
X102850001Y-117900197D01*
X102850000Y-117899418D01*
X102850000Y-105900503D01*
X102850001Y-105900454D01*
X102850001Y-105900354D01*
X102850002Y-105900354D01*
X102850007Y-105900125D01*
X102850002Y-105900125D01*
X102850003Y-105899986D01*
X102850011Y-105899375D01*
X102851152Y-105841385D01*
X102851169Y-105840752D01*
X102851306Y-105836552D01*
X102851364Y-105835287D01*
X102851610Y-105831083D01*
X102851651Y-105830446D01*
X102856762Y-105759057D01*
X102856848Y-105758016D01*
X102857496Y-105751053D01*
X102857735Y-105748964D01*
X102858679Y-105742050D01*
X102858833Y-105741011D01*
X102881322Y-105599073D01*
X102881435Y-105598392D01*
X102882241Y-105593731D01*
X102882501Y-105592343D01*
X102883413Y-105587845D01*
X102883556Y-105587163D01*
X102894541Y-105536680D01*
X102894734Y-105535833D01*
X102896075Y-105530157D01*
X102896510Y-105528451D01*
X102898046Y-105522856D01*
X102898285Y-105522016D01*
X102899412Y-105518180D01*
X102899510Y-105517851D01*
X102900187Y-105515605D01*
X102900388Y-105514955D01*
X102901077Y-105512779D01*
X102901190Y-105512426D01*
X102946494Y-105373014D01*
X102946658Y-105372520D01*
X102947771Y-105369215D01*
X102948119Y-105368214D01*
X102949297Y-105364951D01*
X102949477Y-105364463D01*
X102961123Y-105333246D01*
X102961434Y-105332434D01*
X102963560Y-105327030D01*
X102964229Y-105325415D01*
X102966540Y-105320105D01*
X102966898Y-105319302D01*
X102981277Y-105287820D01*
X102981494Y-105287351D01*
X102982936Y-105284280D01*
X102983394Y-105283331D01*
X102984964Y-105280166D01*
X102985201Y-105279694D01*
X103050349Y-105151842D01*
X103050513Y-105151524D01*
X103051590Y-105149448D01*
X103051905Y-105148850D01*
X103052980Y-105146846D01*
X103053156Y-105146522D01*
X103055960Y-105141388D01*
X103056387Y-105140622D01*
X103059291Y-105135524D01*
X103060179Y-105134027D01*
X103063213Y-105129115D01*
X103063681Y-105128373D01*
X103093042Y-105082687D01*
X103093425Y-105082101D01*
X103096005Y-105078210D01*
X103096796Y-105077053D01*
X103099514Y-105073198D01*
X103099920Y-105072631D01*
X103181765Y-104959986D01*
X103182388Y-104959146D01*
X103186618Y-104953578D01*
X103187923Y-104951936D01*
X103192385Y-104946557D01*
X103193066Y-104945753D01*
X103232322Y-104900449D01*
X103232907Y-104899786D01*
X103236832Y-104895418D01*
X103238016Y-104894147D01*
X103242048Y-104889968D01*
X103242663Y-104889342D01*
X103338989Y-104793016D01*
X103339614Y-104792402D01*
X103343799Y-104788364D01*
X103345078Y-104787173D01*
X103349423Y-104783270D01*
X103350078Y-104782692D01*
X103396087Y-104742824D01*
X103396891Y-104742143D01*
X103402260Y-104737689D01*
X103403899Y-104736387D01*
X103409513Y-104732121D01*
X103410357Y-104731494D01*
X103521158Y-104650988D01*
X103521735Y-104650575D01*
X103525551Y-104647886D01*
X103526695Y-104647104D01*
X103530590Y-104644521D01*
X103531180Y-104644135D01*
X103577994Y-104614050D01*
X103578735Y-104613583D01*
X103583673Y-104610533D01*
X103585169Y-104609646D01*
X103590293Y-104606727D01*
X103591067Y-104606295D01*
X103600806Y-104600978D01*
X103601096Y-104600821D01*
X103603244Y-104599667D01*
X103603882Y-104599330D01*
X103605917Y-104598275D01*
X103606222Y-104598118D01*
X103726088Y-104537039D01*
X103726557Y-104536804D01*
X103729675Y-104535257D01*
X103730617Y-104534802D01*
X103733731Y-104533339D01*
X103734211Y-104533116D01*
X103768941Y-104517255D01*
X103769741Y-104516899D01*
X103775055Y-104514586D01*
X103776669Y-104513917D01*
X103782087Y-104511785D01*
X103782903Y-104511472D01*
X103819089Y-104497973D01*
X103819576Y-104497795D01*
X103822825Y-104496622D01*
X103823834Y-104496270D01*
X103827141Y-104495157D01*
X103827627Y-104494996D01*
X103954442Y-104453786D01*
X103954766Y-104453682D01*
X103956950Y-104452989D01*
X103957617Y-104452782D01*
X103959871Y-104452102D01*
X103960218Y-104451999D01*
X103971633Y-104448647D01*
X103972475Y-104448408D01*
X103978132Y-104446856D01*
X103979823Y-104446424D01*
X103985445Y-104445095D01*
X103986299Y-104444901D01*
X104041846Y-104432814D01*
X104042528Y-104432671D01*
X104047026Y-104431759D01*
X104048414Y-104431499D01*
X104053075Y-104430693D01*
X104053756Y-104430580D01*
X104187202Y-104409437D01*
X104188232Y-104409285D01*
X104195187Y-104408334D01*
X104197289Y-104408092D01*
X104204237Y-104407446D01*
X104205275Y-104407361D01*
X104286771Y-104401528D01*
X104287402Y-104401487D01*
X104291616Y-104401240D01*
X104292885Y-104401182D01*
X104297084Y-104401045D01*
X104297718Y-104401028D01*
X104315766Y-104400673D01*
X104315767Y-104400725D01*
X104315898Y-104400670D01*
X104316782Y-104400655D01*
X104317011Y-104400652D01*
X104317743Y-104400643D01*
X104317905Y-104400708D01*
X104317905Y-104400642D01*
X104348994Y-104400362D01*
X104349119Y-104400361D01*
X104349895Y-104400356D01*
X104350149Y-104400355D01*
X104350945Y-104400354D01*
X104350945Y-104400378D01*
X104351006Y-104400353D01*
X119349046Y-104400304D01*
X119349108Y-104400304D01*
X119349897Y-104400305D01*
G37*
G36*
X93833629Y-101942471D02*
G01*
X93835256Y-101942482D01*
X93921540Y-101943623D01*
X93926370Y-101943781D01*
X94100031Y-101952854D01*
X94105523Y-101953263D01*
X94278288Y-101970007D01*
X94283756Y-101970660D01*
X94455597Y-101995057D01*
X94461031Y-101995952D01*
X94631633Y-102027958D01*
X94637022Y-102029094D01*
X94806000Y-102068635D01*
X94811333Y-102070008D01*
X94978421Y-102117022D01*
X94983688Y-102118631D01*
X95148510Y-102173013D01*
X95153700Y-102174855D01*
X95315949Y-102236504D01*
X95321053Y-102238573D01*
X95480411Y-102307368D01*
X95485418Y-102309663D01*
X95641559Y-102385464D01*
X95646457Y-102387978D01*
X95799071Y-102470631D01*
X95803855Y-102473361D01*
X95952653Y-102562713D01*
X95957310Y-102565652D01*
X96101995Y-102661524D01*
X96106517Y-102664667D01*
X96246808Y-102766872D01*
X96251186Y-102770213D01*
X96386786Y-102878535D01*
X96391012Y-102882067D01*
X96521687Y-102996319D01*
X96525751Y-103000035D01*
X96651205Y-103119959D01*
X96655101Y-103123852D01*
X96775130Y-103249252D01*
X96778848Y-103253314D01*
X96893165Y-103383890D01*
X96896700Y-103388113D01*
X97005128Y-103523664D01*
X97008472Y-103528040D01*
X97110752Y-103668241D01*
X97113898Y-103672761D01*
X97209879Y-103817405D01*
X97212822Y-103822061D01*
X97302259Y-103970782D01*
X97304991Y-103975563D01*
X97387755Y-104128142D01*
X97390273Y-104133040D01*
X97466166Y-104289111D01*
X97468464Y-104294116D01*
X97537367Y-104453440D01*
X97539440Y-104458541D01*
X97601191Y-104620738D01*
X97603036Y-104625929D01*
X97657532Y-104790736D01*
X97659144Y-104796001D01*
X97706262Y-104963039D01*
X97707639Y-104968371D01*
X97747296Y-105137343D01*
X97748435Y-105142732D01*
X97780552Y-105313314D01*
X97781450Y-105318746D01*
X97805957Y-105490551D01*
X97806614Y-105496020D01*
X97823471Y-105668774D01*
X97823884Y-105674266D01*
X97833071Y-105847935D01*
X97833232Y-105852755D01*
X97834437Y-105939136D01*
X97834449Y-105940542D01*
X97865844Y-117972891D01*
X97865833Y-117974858D01*
X97864692Y-118060958D01*
X97864534Y-118065785D01*
X97855460Y-118239446D01*
X97855051Y-118244938D01*
X97838307Y-118417703D01*
X97837654Y-118423171D01*
X97813257Y-118595011D01*
X97812362Y-118600445D01*
X97780356Y-118771047D01*
X97779220Y-118776436D01*
X97739680Y-118945407D01*
X97738307Y-118950741D01*
X97695901Y-119101449D01*
X97695025Y-119104417D01*
X97683548Y-119141618D01*
X97682815Y-119143915D01*
X97635302Y-119287921D01*
X97633460Y-119293114D01*
X97620797Y-119326439D01*
X97619267Y-119330273D01*
X97493422Y-119630919D01*
X97488237Y-119641790D01*
X97308326Y-119976192D01*
X97302112Y-119986507D01*
X97090604Y-120301892D01*
X97083418Y-120311557D01*
X96842322Y-120604923D01*
X96834233Y-120613846D01*
X96565810Y-120882445D01*
X96556893Y-120890540D01*
X96263676Y-121131837D01*
X96254016Y-121139029D01*
X95938778Y-121350740D01*
X95928466Y-121356961D01*
X95594176Y-121537093D01*
X95583310Y-121542284D01*
X95233123Y-121689139D01*
X95221803Y-121693252D01*
X94859019Y-121805443D01*
X94847354Y-121808438D01*
X94475397Y-121884906D01*
X94463497Y-121886755D01*
X94085149Y-121926858D01*
X94074595Y-121927523D01*
X93886556Y-121931339D01*
X93881503Y-121931339D01*
X92350002Y-121899999D01*
X72349968Y-121899999D01*
X68320339Y-121931405D01*
X68316935Y-121931385D01*
X68128050Y-121927670D01*
X68117499Y-121927012D01*
X67739114Y-121887157D01*
X67727212Y-121885315D01*
X67355214Y-121809092D01*
X67343548Y-121806105D01*
X66980682Y-121694150D01*
X66969360Y-121690044D01*
X66619088Y-121543425D01*
X66608217Y-121538241D01*
X66273807Y-121358326D01*
X66263492Y-121352112D01*
X65948107Y-121140604D01*
X65938442Y-121133418D01*
X65645076Y-120892322D01*
X65636153Y-120884233D01*
X65367554Y-120615810D01*
X65359459Y-120606893D01*
X65118162Y-120313676D01*
X65110970Y-120304016D01*
X64899259Y-119988778D01*
X64893038Y-119978466D01*
X64712906Y-119644176D01*
X64707715Y-119633310D01*
X64560860Y-119283123D01*
X64556747Y-119271803D01*
X64444556Y-118909019D01*
X64441561Y-118897354D01*
X64365093Y-118525397D01*
X64363244Y-118513497D01*
X64323141Y-118135149D01*
X64322476Y-118124595D01*
X64318638Y-117935494D01*
X64318612Y-117932628D01*
X64352612Y-105900346D01*
X66849999Y-105900346D01*
X66849999Y-117900362D01*
X66850476Y-117953903D01*
X66858118Y-118060749D01*
X66873362Y-118166774D01*
X66896127Y-118271425D01*
X66896128Y-118271427D01*
X66926304Y-118374195D01*
X66926311Y-118374216D01*
X66963741Y-118474571D01*
X67008232Y-118571991D01*
X67059565Y-118666001D01*
X67117485Y-118756125D01*
X67181669Y-118841864D01*
X67251784Y-118922780D01*
X67251822Y-118922821D01*
X67327532Y-118998531D01*
X67327573Y-118998569D01*
X67408489Y-119068684D01*
X67494228Y-119132868D01*
X67584352Y-119190788D01*
X67678362Y-119242121D01*
X67775782Y-119286612D01*
X67876137Y-119324042D01*
X67876158Y-119324049D01*
X67978926Y-119354225D01*
X67978928Y-119354226D01*
X68083579Y-119376991D01*
X68189604Y-119392235D01*
X68296450Y-119399877D01*
X68349991Y-119400354D01*
X72350000Y-119400354D01*
X92350001Y-119400355D01*
X93850007Y-119400354D01*
X93903548Y-119399876D01*
X94010394Y-119392234D01*
X94116419Y-119376990D01*
X94221070Y-119354225D01*
X94221072Y-119354224D01*
X94323840Y-119324048D01*
X94323861Y-119324041D01*
X94424216Y-119286611D01*
X94521636Y-119242120D01*
X94615645Y-119190788D01*
X94615660Y-119190778D01*
X94705756Y-119132877D01*
X94705772Y-119132866D01*
X94791488Y-119068699D01*
X94791497Y-119068691D01*
X94872451Y-118998546D01*
X94872473Y-118998526D01*
X94948172Y-118922827D01*
X94948192Y-118922805D01*
X95018337Y-118841851D01*
X95018345Y-118841842D01*
X95082512Y-118756126D01*
X95082523Y-118756110D01*
X95140424Y-118666014D01*
X95140434Y-118665999D01*
X95191766Y-118571990D01*
X95236257Y-118474570D01*
X95273687Y-118374215D01*
X95273694Y-118374194D01*
X95303870Y-118271426D01*
X95303871Y-118271424D01*
X95326636Y-118166773D01*
X95341880Y-118060748D01*
X95349522Y-117953902D01*
X95350000Y-117900361D01*
X95350000Y-105900346D01*
X95349522Y-105846805D01*
X95341880Y-105739959D01*
X95326636Y-105633934D01*
X95303871Y-105529283D01*
X95303870Y-105529281D01*
X95273694Y-105426513D01*
X95273687Y-105426492D01*
X95236257Y-105326137D01*
X95191766Y-105228717D01*
X95140434Y-105134708D01*
X95140424Y-105134693D01*
X95082523Y-105044597D01*
X95082512Y-105044581D01*
X95018345Y-104958865D01*
X95018337Y-104958856D01*
X94948192Y-104877902D01*
X94948172Y-104877880D01*
X94872473Y-104802181D01*
X94872451Y-104802161D01*
X94791497Y-104732016D01*
X94791488Y-104732008D01*
X94705772Y-104667841D01*
X94705756Y-104667830D01*
X94615660Y-104609929D01*
X94615645Y-104609919D01*
X94521636Y-104558587D01*
X94424216Y-104514096D01*
X94323861Y-104476666D01*
X94323840Y-104476659D01*
X94221072Y-104446483D01*
X94221070Y-104446482D01*
X94116419Y-104423717D01*
X94010394Y-104408473D01*
X93903548Y-104400831D01*
X93850007Y-104400354D01*
X68349993Y-104400354D01*
X68296451Y-104400831D01*
X68189605Y-104408473D01*
X68083580Y-104423717D01*
X67978929Y-104446482D01*
X67978927Y-104446483D01*
X67876159Y-104476659D01*
X67876138Y-104476666D01*
X67775783Y-104514096D01*
X67678363Y-104558587D01*
X67584353Y-104609920D01*
X67494229Y-104667840D01*
X67408490Y-104732024D01*
X67327574Y-104802139D01*
X67327533Y-104802177D01*
X67251823Y-104877887D01*
X67251785Y-104877928D01*
X67181670Y-104958844D01*
X67117486Y-105044583D01*
X67059566Y-105134707D01*
X67008233Y-105228717D01*
X66963742Y-105326137D01*
X66926312Y-105426492D01*
X66926305Y-105426513D01*
X66896129Y-105529281D01*
X66896128Y-105529283D01*
X66873363Y-105633934D01*
X66858119Y-105739959D01*
X66850477Y-105846805D01*
X66849999Y-105900346D01*
X64352612Y-105900346D01*
X64352618Y-105898391D01*
X64352641Y-105896327D01*
X64356330Y-105706856D01*
X64356987Y-105696302D01*
X64396775Y-105317940D01*
X64398616Y-105306032D01*
X64474789Y-104934050D01*
X64477777Y-104922377D01*
X64575796Y-104604597D01*
X64578372Y-104597103D01*
X64627211Y-104468566D01*
X64628741Y-104464734D01*
X64645555Y-104424561D01*
X64646096Y-104423288D01*
X64701950Y-104293909D01*
X64704244Y-104288904D01*
X64780041Y-104132769D01*
X64782555Y-104127869D01*
X64865213Y-103975248D01*
X64867943Y-103970465D01*
X64957295Y-103821667D01*
X64960234Y-103817010D01*
X65056107Y-103672323D01*
X65059250Y-103667801D01*
X65161453Y-103527511D01*
X65164794Y-103523133D01*
X65273116Y-103387533D01*
X65276648Y-103383307D01*
X65390900Y-103252633D01*
X65394616Y-103248569D01*
X65514552Y-103123102D01*
X65518445Y-103119207D01*
X65643818Y-102999203D01*
X65647881Y-102995483D01*
X65778474Y-102881153D01*
X65782696Y-102877619D01*
X65918234Y-102769200D01*
X65922610Y-102765856D01*
X66062843Y-102663553D01*
X66067363Y-102660407D01*
X66211965Y-102564454D01*
X66216620Y-102561512D01*
X66365370Y-102472056D01*
X66370152Y-102469323D01*
X66522721Y-102386564D01*
X66527619Y-102384046D01*
X66683690Y-102308153D01*
X66688695Y-102305855D01*
X66848019Y-102236952D01*
X66853120Y-102234879D01*
X67015317Y-102173128D01*
X67020508Y-102171283D01*
X67185309Y-102116789D01*
X67190573Y-102115177D01*
X67357622Y-102068055D01*
X67362955Y-102066678D01*
X67531921Y-102027023D01*
X67537310Y-102025884D01*
X67707892Y-101993767D01*
X67713324Y-101992869D01*
X67885129Y-101968362D01*
X67890597Y-101967705D01*
X68063350Y-101950848D01*
X68068842Y-101950435D01*
X68242511Y-101941247D01*
X68247333Y-101941086D01*
X68333582Y-101939883D01*
X68335324Y-101939871D01*
X93833629Y-101942471D01*
G37*
G36*
X119351132Y-72900021D02*
G01*
X119459286Y-72902024D01*
X119476381Y-72903529D01*
X119691105Y-72937526D01*
X119710028Y-72942068D01*
X119915691Y-73008884D01*
X119933669Y-73016330D01*
X120126348Y-73114498D01*
X120142940Y-73124665D01*
X120317889Y-73251769D01*
X120332686Y-73264407D01*
X120485592Y-73417313D01*
X120498230Y-73432110D01*
X120625334Y-73607059D01*
X120635501Y-73623651D01*
X120733669Y-73816330D01*
X120741115Y-73834308D01*
X120807931Y-74039971D01*
X120812473Y-74058894D01*
X120846470Y-74273618D01*
X120847975Y-74290712D01*
X120849979Y-74398866D01*
X120850000Y-74401163D01*
X120850000Y-88398791D01*
X120849976Y-88401223D01*
X120847855Y-88509337D01*
X120846352Y-88526303D01*
X120812336Y-88741068D01*
X120807794Y-88759988D01*
X120742661Y-88960445D01*
X120737526Y-88973635D01*
X120729253Y-88991752D01*
X120726942Y-88996538D01*
X120647731Y-89152001D01*
X120641562Y-89162745D01*
X120601245Y-89225481D01*
X120597247Y-89231329D01*
X120537166Y-89314022D01*
X120536121Y-89315439D01*
X120526295Y-89328567D01*
X120520736Y-89335465D01*
X120456403Y-89409712D01*
X120450372Y-89416190D01*
X120380887Y-89485678D01*
X120374409Y-89491710D01*
X120300161Y-89556050D01*
X120293268Y-89561605D01*
X120214615Y-89620486D01*
X120207344Y-89625534D01*
X120124686Y-89678657D01*
X120117074Y-89683174D01*
X120030841Y-89730263D01*
X120022927Y-89734225D01*
X119933561Y-89775040D01*
X119925382Y-89778428D01*
X119833326Y-89812765D01*
X119824927Y-89815561D01*
X119730649Y-89843245D01*
X119722073Y-89845433D01*
X119626056Y-89866323D01*
X119617344Y-89867896D01*
X119520110Y-89881878D01*
X119511310Y-89882824D01*
X119412757Y-89889875D01*
X119404992Y-89890186D01*
X119355902Y-89890615D01*
X119354818Y-89890620D01*
X102979330Y-89890620D01*
X102912291Y-89870935D01*
X102866536Y-89818131D01*
X102855330Y-89766620D01*
X102855330Y-75000002D01*
X104000000Y-75000002D01*
X104000000Y-87799997D01*
X104000448Y-87845477D01*
X104000449Y-87845486D01*
X104007958Y-87936112D01*
X104007959Y-87936122D01*
X104022929Y-88025834D01*
X104022932Y-88025851D01*
X104045261Y-88114018D01*
X104074789Y-88200030D01*
X104074793Y-88200041D01*
X104111327Y-88283329D01*
X104111336Y-88283348D01*
X104154618Y-88363325D01*
X104154623Y-88363334D01*
X104204360Y-88439462D01*
X104260234Y-88511249D01*
X104321835Y-88578164D01*
X104388750Y-88639765D01*
X104460537Y-88695639D01*
X104536665Y-88745376D01*
X104536674Y-88745381D01*
X104616651Y-88788663D01*
X104616670Y-88788672D01*
X104699958Y-88825206D01*
X104699969Y-88825210D01*
X104785981Y-88854738D01*
X104874148Y-88877067D01*
X104874165Y-88877070D01*
X104963877Y-88892040D01*
X104963887Y-88892041D01*
X105054513Y-88899550D01*
X105054522Y-88899551D01*
X105100003Y-88900000D01*
X118799997Y-88900000D01*
X118845477Y-88899551D01*
X118845486Y-88899550D01*
X118936112Y-88892041D01*
X118936122Y-88892040D01*
X119025834Y-88877070D01*
X119025851Y-88877067D01*
X119114018Y-88854738D01*
X119200030Y-88825210D01*
X119200041Y-88825206D01*
X119283329Y-88788672D01*
X119283348Y-88788663D01*
X119363325Y-88745381D01*
X119363334Y-88745376D01*
X119439462Y-88695639D01*
X119511249Y-88639765D01*
X119578164Y-88578164D01*
X119639765Y-88511249D01*
X119695639Y-88439462D01*
X119745376Y-88363334D01*
X119745381Y-88363325D01*
X119788663Y-88283348D01*
X119788672Y-88283329D01*
X119825206Y-88200041D01*
X119825210Y-88200030D01*
X119854738Y-88114018D01*
X119877067Y-88025851D01*
X119877070Y-88025834D01*
X119892040Y-87936122D01*
X119892041Y-87936112D01*
X119899550Y-87845486D01*
X119899551Y-87845477D01*
X119900000Y-87799997D01*
X119900000Y-75000002D01*
X119899551Y-74954522D01*
X119899550Y-74954513D01*
X119892041Y-74863887D01*
X119892040Y-74863877D01*
X119877070Y-74774165D01*
X119877067Y-74774148D01*
X119854738Y-74685981D01*
X119825210Y-74599969D01*
X119825206Y-74599958D01*
X119788672Y-74516670D01*
X119788663Y-74516651D01*
X119745381Y-74436674D01*
X119745376Y-74436665D01*
X119695639Y-74360537D01*
X119639765Y-74288750D01*
X119578164Y-74221835D01*
X119511249Y-74160234D01*
X119439462Y-74104360D01*
X119363334Y-74054623D01*
X119363325Y-74054618D01*
X119283348Y-74011336D01*
X119283329Y-74011327D01*
X119200041Y-73974793D01*
X119200030Y-73974789D01*
X119114018Y-73945261D01*
X119025851Y-73922932D01*
X119025834Y-73922929D01*
X118936122Y-73907959D01*
X118936112Y-73907958D01*
X118845486Y-73900449D01*
X118845477Y-73900448D01*
X118799997Y-73900000D01*
X105100003Y-73900000D01*
X105054522Y-73900448D01*
X105054513Y-73900449D01*
X104963887Y-73907958D01*
X104963877Y-73907959D01*
X104874165Y-73922929D01*
X104874148Y-73922932D01*
X104785981Y-73945261D01*
X104699969Y-73974789D01*
X104699958Y-73974793D01*
X104616670Y-74011327D01*
X104616651Y-74011336D01*
X104536674Y-74054618D01*
X104536665Y-74054623D01*
X104460537Y-74104360D01*
X104388750Y-74160234D01*
X104321835Y-74221835D01*
X104260234Y-74288750D01*
X104204360Y-74360537D01*
X104154623Y-74436665D01*
X104154618Y-74436674D01*
X104111336Y-74516651D01*
X104111327Y-74516670D01*
X104074793Y-74599958D01*
X104074789Y-74599969D01*
X104045261Y-74685981D01*
X104022932Y-74774148D01*
X104022929Y-74774165D01*
X104007959Y-74863877D01*
X104007958Y-74863887D01*
X104000449Y-74954513D01*
X104000448Y-74954522D01*
X104000000Y-75000002D01*
X102855330Y-75000002D01*
X102855330Y-73024000D01*
X102875015Y-72956961D01*
X102927819Y-72911206D01*
X102979330Y-72900000D01*
X119348836Y-72900000D01*
X119351132Y-72900021D01*
G37*
G36*
X93848768Y-65902600D02*
G01*
X93851194Y-65902624D01*
X93955242Y-65904671D01*
X93959273Y-65904816D01*
X94096952Y-65912009D01*
X94103472Y-65912522D01*
X94361496Y-65939701D01*
X94365937Y-65940250D01*
X94471148Y-65955188D01*
X94476581Y-65956083D01*
X94485296Y-65957718D01*
X94487323Y-65958116D01*
X94745410Y-66010999D01*
X94748773Y-66011737D01*
X94821561Y-66028770D01*
X94826892Y-66030143D01*
X94886540Y-66046926D01*
X94889512Y-66047802D01*
X95133118Y-66122962D01*
X95135419Y-66123697D01*
X95164077Y-66133154D01*
X95169261Y-66134993D01*
X95259634Y-66169330D01*
X95263472Y-66170862D01*
X95504952Y-66271945D01*
X95511224Y-66274777D01*
X95612503Y-66323943D01*
X95617101Y-66326295D01*
X95843074Y-66447871D01*
X95848160Y-66450764D01*
X95945952Y-66509488D01*
X95951182Y-66512809D01*
X96165119Y-66656283D01*
X96169069Y-66659045D01*
X96258787Y-66724408D01*
X96264502Y-66728832D01*
X96469435Y-66897252D01*
X96472323Y-66899700D01*
X96537221Y-66956442D01*
X96541286Y-66960159D01*
X96575532Y-66992896D01*
X96577501Y-66994820D01*
X96756008Y-67173211D01*
X96757934Y-67175179D01*
X96790653Y-67209362D01*
X96794372Y-67213424D01*
X96851170Y-67278301D01*
X96853620Y-67281188D01*
X97022205Y-67486050D01*
X97026632Y-67491762D01*
X97091983Y-67581341D01*
X97094748Y-67585289D01*
X97238457Y-67799273D01*
X97241781Y-67804501D01*
X97300462Y-67902078D01*
X97303359Y-67907162D01*
X97425204Y-68133284D01*
X97427558Y-68137878D01*
X97476675Y-68238885D01*
X97479512Y-68245158D01*
X97580892Y-68486912D01*
X97582426Y-68490746D01*
X97616748Y-68580897D01*
X97618593Y-68586089D01*
X97627885Y-68614191D01*
X97628619Y-68616484D01*
X97704212Y-68860924D01*
X97705090Y-68863895D01*
X97721811Y-68923173D01*
X97723188Y-68928506D01*
X97740179Y-69000905D01*
X97740919Y-69004266D01*
X97794190Y-69263392D01*
X97794589Y-69265419D01*
X97796102Y-69273455D01*
X97797000Y-69278886D01*
X97811958Y-69383741D01*
X97812510Y-69388184D01*
X97839914Y-69646745D01*
X97840432Y-69653263D01*
X97847699Y-69790615D01*
X97847846Y-69794632D01*
X97849969Y-69898517D01*
X97849994Y-69901492D01*
X97844670Y-71399998D01*
X97846981Y-71517869D01*
X97848287Y-71526116D01*
X97849813Y-71545521D01*
X97847582Y-91269153D01*
X97847104Y-91280018D01*
X97846918Y-91282124D01*
X97844670Y-91399968D01*
X97847396Y-92898691D01*
X97847372Y-92901332D01*
X97845367Y-93004261D01*
X97845222Y-93008316D01*
X97837921Y-93148054D01*
X97837410Y-93154552D01*
X97810687Y-93408677D01*
X97810136Y-93413139D01*
X97794802Y-93521142D01*
X97793906Y-93526581D01*
X97790969Y-93542233D01*
X97790575Y-93544240D01*
X97740217Y-93790162D01*
X97739476Y-93793539D01*
X97721219Y-93871559D01*
X97719846Y-93876893D01*
X97701349Y-93942630D01*
X97700476Y-93945591D01*
X97629854Y-94174553D01*
X97629118Y-94176858D01*
X97616840Y-94214070D01*
X97614998Y-94219262D01*
X97578842Y-94314415D01*
X97577313Y-94318247D01*
X97479443Y-94552074D01*
X97476608Y-94558350D01*
X97424337Y-94666023D01*
X97421985Y-94670621D01*
X97303861Y-94890173D01*
X97300969Y-94895258D01*
X97239120Y-94998254D01*
X97235794Y-95003491D01*
X97095479Y-95212686D01*
X97092722Y-95216629D01*
X97024748Y-95309932D01*
X97020316Y-95315657D01*
X96853890Y-95518119D01*
X96851450Y-95520997D01*
X96793550Y-95587220D01*
X96789832Y-95591286D01*
X96756858Y-95625779D01*
X96754920Y-95627761D01*
X96575655Y-95807084D01*
X96573705Y-95808993D01*
X96540638Y-95840646D01*
X96536572Y-95844368D01*
X96473838Y-95899289D01*
X96470932Y-95901755D01*
X96261935Y-96073671D01*
X96256243Y-96078083D01*
X96172807Y-96138952D01*
X96168833Y-96141733D01*
X95946119Y-96291223D01*
X95940917Y-96294530D01*
X95853877Y-96346874D01*
X95848760Y-96349789D01*
X95607756Y-96479559D01*
X95603193Y-96481895D01*
X95518810Y-96522927D01*
X95512499Y-96525781D01*
X95246879Y-96637061D01*
X95243087Y-96638577D01*
X95169958Y-96666420D01*
X95162424Y-96669014D01*
X94859736Y-96762487D01*
X94856813Y-96763351D01*
X94826833Y-96771808D01*
X94821498Y-96773185D01*
X94777782Y-96783444D01*
X94774368Y-96784195D01*
X94465176Y-96847616D01*
X94457772Y-96848902D01*
X94393976Y-96858003D01*
X94389473Y-96858562D01*
X94081168Y-96891086D01*
X94074710Y-96891597D01*
X93996873Y-96895715D01*
X93992784Y-96895864D01*
X93850132Y-96898697D01*
X93849801Y-96898703D01*
X93775915Y-96899973D01*
X93773771Y-96899991D01*
X68351233Y-96897399D01*
X68348806Y-96897375D01*
X68244964Y-96895331D01*
X68240935Y-96895186D01*
X68102933Y-96887977D01*
X68096412Y-96887464D01*
X67838636Y-96860311D01*
X67834197Y-96859762D01*
X67728847Y-96844806D01*
X67723404Y-96843909D01*
X67714516Y-96842241D01*
X67712497Y-96841845D01*
X67454701Y-96789022D01*
X67451339Y-96788284D01*
X67378438Y-96771225D01*
X67373105Y-96769852D01*
X67313351Y-96753039D01*
X67310380Y-96752163D01*
X67066875Y-96677034D01*
X67064580Y-96676301D01*
X67035932Y-96666849D01*
X67030741Y-96665008D01*
X66940364Y-96630668D01*
X66936527Y-96629136D01*
X66695031Y-96528047D01*
X66688759Y-96525215D01*
X66587520Y-96476069D01*
X66582922Y-96473717D01*
X66356893Y-96352111D01*
X66351807Y-96349218D01*
X66254078Y-96290532D01*
X66248848Y-96287211D01*
X66034819Y-96143674D01*
X66030870Y-96140913D01*
X65941261Y-96075631D01*
X65935546Y-96071206D01*
X65730459Y-95902660D01*
X65727570Y-95900212D01*
X65662774Y-95843559D01*
X65658709Y-95839842D01*
X65624581Y-95807218D01*
X65622612Y-95805294D01*
X65443858Y-95626656D01*
X65441933Y-95624688D01*
X65409321Y-95590617D01*
X65405601Y-95586554D01*
X65348946Y-95521840D01*
X65346496Y-95518954D01*
X65177736Y-95313880D01*
X65173308Y-95308168D01*
X65108089Y-95218769D01*
X65105325Y-95214821D01*
X64961498Y-95000659D01*
X64958174Y-94995432D01*
X64899576Y-94897995D01*
X64896679Y-94892910D01*
X64774736Y-94666607D01*
X64772382Y-94662012D01*
X64723361Y-94561201D01*
X64720524Y-94554929D01*
X64619054Y-94312963D01*
X64617520Y-94309128D01*
X64583249Y-94219109D01*
X64581404Y-94213917D01*
X64572173Y-94185999D01*
X64571439Y-94183707D01*
X64495744Y-93938937D01*
X64494866Y-93935967D01*
X64478185Y-93876832D01*
X64476808Y-93871498D01*
X64459842Y-93799206D01*
X64459102Y-93795845D01*
X64405781Y-93536477D01*
X64405380Y-93534440D01*
X64403895Y-93526549D01*
X64402999Y-93521128D01*
X64388046Y-93416308D01*
X64387494Y-93411865D01*
X64360082Y-93153234D01*
X64359564Y-93146716D01*
X64352300Y-93009413D01*
X64352153Y-93005395D01*
X64350026Y-92901279D01*
X64350000Y-92898732D01*
X64352600Y-69901210D01*
X64352612Y-69899992D01*
X66850000Y-69899992D01*
X66850000Y-92900007D01*
X66850477Y-92953548D01*
X66858119Y-93060394D01*
X66873363Y-93166419D01*
X66896128Y-93271070D01*
X66896129Y-93271072D01*
X66926305Y-93373840D01*
X66926312Y-93373861D01*
X66963742Y-93474216D01*
X67008233Y-93571636D01*
X67059566Y-93665646D01*
X67117486Y-93755770D01*
X67181670Y-93841509D01*
X67251785Y-93922425D01*
X67251823Y-93922466D01*
X67327533Y-93998176D01*
X67327574Y-93998214D01*
X67408490Y-94068329D01*
X67494229Y-94132513D01*
X67584353Y-94190433D01*
X67678363Y-94241766D01*
X67775783Y-94286257D01*
X67876138Y-94323687D01*
X67876159Y-94323694D01*
X67978927Y-94353870D01*
X67978929Y-94353871D01*
X68083580Y-94376636D01*
X68189605Y-94391880D01*
X68296451Y-94399522D01*
X68349993Y-94400000D01*
X93850007Y-94400000D01*
X93903548Y-94399522D01*
X94010396Y-94391880D01*
X94116424Y-94376636D01*
X94221070Y-94353871D01*
X94323849Y-94323694D01*
X94323875Y-94323686D01*
X94424200Y-94286268D01*
X94521651Y-94241765D01*
X94615663Y-94190431D01*
X94705760Y-94132531D01*
X94705773Y-94132522D01*
X94791507Y-94068344D01*
X94872458Y-93998201D01*
X94872483Y-93998178D01*
X94948188Y-93922477D01*
X94948212Y-93922451D01*
X95018360Y-93841499D01*
X95018364Y-93841493D01*
X95082542Y-93755763D01*
X95140449Y-93665665D01*
X95140463Y-93665642D01*
X95191788Y-93571649D01*
X95191793Y-93571640D01*
X95236285Y-93474223D01*
X95273725Y-93373849D01*
X95303904Y-93271077D01*
X95326676Y-93166407D01*
X95341920Y-93060405D01*
X95341922Y-93060383D01*
X95349565Y-92953556D01*
X95350000Y-92899990D01*
X95350000Y-69899992D01*
X95349522Y-69846452D01*
X95341879Y-69739605D01*
X95341879Y-69739602D01*
X95326637Y-69633585D01*
X95303865Y-69528914D01*
X95273693Y-69426160D01*
X95273686Y-69426139D01*
X95236256Y-69325784D01*
X95191768Y-69228370D01*
X95140434Y-69134359D01*
X95082517Y-69044237D01*
X95082511Y-69044229D01*
X95018341Y-68958509D01*
X94948198Y-68877560D01*
X94948175Y-68877535D01*
X94872465Y-68801825D01*
X94872424Y-68801787D01*
X94791508Y-68731672D01*
X94705765Y-68667486D01*
X94705760Y-68667483D01*
X94615641Y-68609567D01*
X94521642Y-68558239D01*
X94424208Y-68513744D01*
X94323839Y-68476307D01*
X94323829Y-68476304D01*
X94221077Y-68446134D01*
X94221071Y-68446133D01*
X94116420Y-68423367D01*
X94010392Y-68408123D01*
X93903543Y-68400481D01*
X93903552Y-68400481D01*
X93849999Y-68400000D01*
X68349993Y-68400000D01*
X68296451Y-68400477D01*
X68189605Y-68408119D01*
X68083580Y-68423363D01*
X67978929Y-68446128D01*
X67978927Y-68446129D01*
X67876159Y-68476305D01*
X67876138Y-68476312D01*
X67775783Y-68513742D01*
X67678363Y-68558233D01*
X67584353Y-68609566D01*
X67494229Y-68667486D01*
X67408490Y-68731670D01*
X67327574Y-68801785D01*
X67327533Y-68801823D01*
X67251823Y-68877533D01*
X67251785Y-68877574D01*
X67181670Y-68958490D01*
X67117486Y-69044229D01*
X67059566Y-69134353D01*
X67008233Y-69228363D01*
X66963742Y-69325783D01*
X66926312Y-69426138D01*
X66926305Y-69426159D01*
X66896129Y-69528927D01*
X66896128Y-69528929D01*
X66873363Y-69633580D01*
X66858119Y-69739605D01*
X66850477Y-69846451D01*
X66850000Y-69899992D01*
X64352612Y-69899992D01*
X64352624Y-69898786D01*
X64354666Y-69794964D01*
X64354811Y-69790933D01*
X64362023Y-69652885D01*
X64362536Y-69646365D01*
X64389675Y-69388700D01*
X64390224Y-69384259D01*
X64405194Y-69278816D01*
X64406090Y-69273379D01*
X64407798Y-69264276D01*
X64408195Y-69262253D01*
X64460940Y-69004830D01*
X64461678Y-69001465D01*
X64478774Y-68928411D01*
X64480147Y-68923081D01*
X64497010Y-68863148D01*
X64497886Y-68860176D01*
X64572862Y-68617164D01*
X64573596Y-68614865D01*
X64583149Y-68585914D01*
X64584989Y-68580727D01*
X64619412Y-68490130D01*
X64620943Y-68486294D01*
X64721880Y-68245155D01*
X64724713Y-68238882D01*
X64774026Y-68137300D01*
X64776378Y-68132702D01*
X64897782Y-67907049D01*
X64900675Y-67901964D01*
X64959573Y-67803880D01*
X64962894Y-67798649D01*
X65106162Y-67585020D01*
X65108923Y-67581072D01*
X65174480Y-67491084D01*
X65178905Y-67485367D01*
X65347063Y-67280754D01*
X65349512Y-67277865D01*
X65406442Y-67212753D01*
X65410155Y-67208692D01*
X65443203Y-67174118D01*
X65445130Y-67172146D01*
X65622888Y-66994272D01*
X65624857Y-66992346D01*
X65659373Y-66959309D01*
X65663433Y-66955592D01*
X65728533Y-66898597D01*
X65731421Y-66896145D01*
X65935898Y-66727877D01*
X65941610Y-66723450D01*
X66031570Y-66657821D01*
X66035518Y-66655056D01*
X66249062Y-66511643D01*
X66254290Y-66508319D01*
X66352306Y-66449374D01*
X66357390Y-66446477D01*
X66583012Y-66324901D01*
X66587606Y-66322548D01*
X66689090Y-66273198D01*
X66695363Y-66270360D01*
X66936512Y-66169233D01*
X66940347Y-66167699D01*
X67030883Y-66133231D01*
X67036070Y-66131387D01*
X67064937Y-66121841D01*
X67067234Y-66121106D01*
X67310335Y-66045928D01*
X67313307Y-66045050D01*
X67373158Y-66028168D01*
X67378487Y-66026791D01*
X67451476Y-66009660D01*
X67454840Y-66008920D01*
X67712367Y-65955978D01*
X67714394Y-65955579D01*
X67723434Y-65953877D01*
X67728866Y-65952979D01*
X67834237Y-65937948D01*
X67838679Y-65937396D01*
X68096385Y-65910082D01*
X68102903Y-65909564D01*
X68240924Y-65902262D01*
X68244955Y-65902115D01*
X68348714Y-65900006D01*
X68351247Y-65899980D01*
X93848768Y-65902600D01*
G37*
M02*
