%TF.GenerationSoftware,KiCad,Pcbnew,10.0.0*%
%TF.CreationDate,2026-04-16T18:06:38+02:00*%
%TF.ProjectId,wulpus_pro_acq_pcb,77756c70-7573-45f7-9072-6f5f6163715f,rev?*%
%TF.SameCoordinates,Original*%
%TF.FileFunction,Paste,Bot*%
%TF.FilePolarity,Positive*%
%FSLAX46Y46*%
G04 Gerber Fmt 4.6, Leading zero omitted, Abs format (unit mm)*
G04 Created by KiCad (PCBNEW 10.0.0) date 2026-04-16 18:06:38*
%MOMM*%
%LPD*%
G01*
G04 APERTURE LIST*
G04 Aperture macros list*
%AMRoundRect*
0 Rectangle with rounded corners*
0 $1 Rounding radius*
0 $2 $3 $4 $5 $6 $7 $8 $9 X,Y pos of 4 corners*
0 Add a 4 corners polygon primitive as box body*
4,1,4,$2,$3,$4,$5,$6,$7,$8,$9,$2,$3,0*
0 Add four circle primitives for the rounded corners*
1,1,$1+$1,$2,$3*
1,1,$1+$1,$4,$5*
1,1,$1+$1,$6,$7*
1,1,$1+$1,$8,$9*
0 Add four rect primitives between the rounded corners*
20,1,$1+$1,$2,$3,$4,$5,0*
20,1,$1+$1,$4,$5,$6,$7,0*
20,1,$1+$1,$6,$7,$8,$9,0*
20,1,$1+$1,$8,$9,$2,$3,0*%
G04 Aperture macros list end*
%ADD10C,0.050000*%
%ADD11C,0.000000*%
%ADD12RoundRect,0.140000X0.140000X0.170000X-0.140000X0.170000X-0.140000X-0.170000X0.140000X-0.170000X0*%
%ADD13RoundRect,0.140000X-0.140000X-0.170000X0.140000X-0.170000X0.140000X0.170000X-0.140000X0.170000X0*%
%ADD14RoundRect,0.050000X0.400000X0.050000X-0.400000X0.050000X-0.400000X-0.050000X0.400000X-0.050000X0*%
%ADD15RoundRect,0.050000X0.350000X0.050000X-0.350000X0.050000X-0.350000X-0.050000X0.350000X-0.050000X0*%
%ADD16RoundRect,0.050000X0.050000X0.350000X-0.050000X0.350000X-0.050000X-0.350000X0.050000X-0.350000X0*%
%ADD17RoundRect,0.135000X-0.185000X0.135000X-0.185000X-0.135000X0.185000X-0.135000X0.185000X0.135000X0*%
%ADD18RoundRect,0.140000X0.170000X-0.140000X0.170000X0.140000X-0.170000X0.140000X-0.170000X-0.140000X0*%
%ADD19RoundRect,0.135000X0.185000X-0.135000X0.185000X0.135000X-0.185000X0.135000X-0.185000X-0.135000X0*%
%ADD20RoundRect,0.200000X0.275000X-0.200000X0.275000X0.200000X-0.275000X0.200000X-0.275000X-0.200000X0*%
%ADD21RoundRect,0.140000X-0.170000X0.140000X-0.170000X-0.140000X0.170000X-0.140000X0.170000X0.140000X0*%
%ADD22RoundRect,0.075000X-0.075000X0.662500X-0.075000X-0.662500X0.075000X-0.662500X0.075000X0.662500X0*%
%ADD23RoundRect,0.075000X-0.662500X0.075000X-0.662500X-0.075000X0.662500X-0.075000X0.662500X0.075000X0*%
%ADD24R,0.400000X0.250000*%
%ADD25R,0.400000X0.700000*%
%ADD26RoundRect,0.225000X0.225000X0.250000X-0.225000X0.250000X-0.225000X-0.250000X0.225000X-0.250000X0*%
%ADD27RoundRect,0.218750X-0.256250X0.218750X-0.256250X-0.218750X0.256250X-0.218750X0.256250X0.218750X0*%
%ADD28R,1.000000X0.500000*%
%ADD29RoundRect,0.135000X-0.135000X-0.185000X0.135000X-0.185000X0.135000X0.185000X-0.135000X0.185000X0*%
%ADD30RoundRect,0.250000X-0.275000X-0.350000X0.275000X-0.350000X0.275000X0.350000X-0.275000X0.350000X0*%
%ADD31RoundRect,0.250000X-0.475000X-0.475000X0.475000X-0.475000X0.475000X0.475000X-0.475000X0.475000X0*%
%ADD32RoundRect,0.062500X-0.350000X-0.062500X0.350000X-0.062500X0.350000X0.062500X-0.350000X0.062500X0*%
%ADD33RoundRect,0.062500X-0.062500X-0.350000X0.062500X-0.350000X0.062500X0.350000X-0.062500X0.350000X0*%
%ADD34RoundRect,0.250000X0.275000X0.350000X-0.275000X0.350000X-0.275000X-0.350000X0.275000X-0.350000X0*%
%ADD35R,0.711200X0.203200*%
%ADD36R,1.050000X2.200000*%
%ADD37R,1.000000X1.050000*%
%ADD38R,0.711200X3.098800*%
%ADD39R,1.498600X3.098800*%
%ADD40RoundRect,0.225000X0.250000X-0.225000X0.250000X0.225000X-0.250000X0.225000X-0.250000X-0.225000X0*%
%ADD41RoundRect,0.225000X-0.250000X0.225000X-0.250000X-0.225000X0.250000X-0.225000X0.250000X0.225000X0*%
%ADD42RoundRect,0.225000X-0.225000X-0.250000X0.225000X-0.250000X0.225000X0.250000X-0.225000X0.250000X0*%
%ADD43RoundRect,0.135000X0.135000X0.185000X-0.135000X0.185000X-0.135000X-0.185000X0.135000X-0.185000X0*%
%ADD44RoundRect,0.200000X0.200000X0.275000X-0.200000X0.275000X-0.200000X-0.275000X0.200000X-0.275000X0*%
%ADD45R,0.480000X1.403200*%
%ADD46R,0.560000X1.900000*%
%ADD47R,1.397000X1.600200*%
%ADD48R,0.406400X1.143000*%
%ADD49R,3.098800X2.590800*%
G04 APERTURE END LIST*
%TO.C,U9*%
D10*
X92500006Y-109275161D02*
G75*
G02*
X92450002Y-109275161I-25002J0D01*
G01*
X92450002Y-109275161D02*
G75*
G02*
X92500006Y-109275161I25002J0D01*
G01*
X92500006Y-109425163D02*
G75*
G02*
X92450002Y-109425163I-25002J0D01*
G01*
X92450002Y-109425163D02*
G75*
G02*
X92500006Y-109425163I25002J0D01*
G01*
X92500006Y-109675160D02*
G75*
G02*
X92450002Y-109675160I-25002J0D01*
G01*
X92450002Y-109675160D02*
G75*
G02*
X92500006Y-109675160I25002J0D01*
G01*
X92500006Y-109825162D02*
G75*
G02*
X92450002Y-109825162I-25002J0D01*
G01*
X92450002Y-109825162D02*
G75*
G02*
X92500006Y-109825162I25002J0D01*
G01*
X92650008Y-109275161D02*
G75*
G02*
X92600006Y-109275161I-25001J0D01*
G01*
X92600006Y-109275161D02*
G75*
G02*
X92650008Y-109275161I25001J0D01*
G01*
X92650008Y-109425163D02*
G75*
G02*
X92600006Y-109425163I-25001J0D01*
G01*
X92600006Y-109425163D02*
G75*
G02*
X92650008Y-109425163I25001J0D01*
G01*
X92650008Y-109675160D02*
G75*
G02*
X92600006Y-109675160I-25001J0D01*
G01*
X92600006Y-109675160D02*
G75*
G02*
X92650008Y-109675160I25001J0D01*
G01*
X92650008Y-109825162D02*
G75*
G02*
X92600006Y-109825162I-25001J0D01*
G01*
X92600006Y-109825162D02*
G75*
G02*
X92650008Y-109825162I25001J0D01*
G01*
X92900007Y-109275161D02*
G75*
G02*
X92850005Y-109275161I-25001J0D01*
G01*
X92850005Y-109275161D02*
G75*
G02*
X92900007Y-109275161I25001J0D01*
G01*
X92900007Y-109425163D02*
G75*
G02*
X92850005Y-109425163I-25001J0D01*
G01*
X92850005Y-109425163D02*
G75*
G02*
X92900007Y-109425163I25001J0D01*
G01*
X92900007Y-109675160D02*
G75*
G02*
X92850005Y-109675160I-25001J0D01*
G01*
X92850005Y-109675160D02*
G75*
G02*
X92900007Y-109675160I25001J0D01*
G01*
X92900007Y-109825162D02*
G75*
G02*
X92850005Y-109825162I-25001J0D01*
G01*
X92850005Y-109825162D02*
G75*
G02*
X92900007Y-109825162I25001J0D01*
G01*
X93050010Y-109275161D02*
G75*
G02*
X93000006Y-109275161I-25002J0D01*
G01*
X93000006Y-109275161D02*
G75*
G02*
X93050010Y-109275161I25002J0D01*
G01*
X93050010Y-109425163D02*
G75*
G02*
X93000006Y-109425163I-25002J0D01*
G01*
X93000006Y-109425163D02*
G75*
G02*
X93050010Y-109425163I25002J0D01*
G01*
X93050010Y-109675160D02*
G75*
G02*
X93000006Y-109675160I-25002J0D01*
G01*
X93000006Y-109675160D02*
G75*
G02*
X93050010Y-109675160I25002J0D01*
G01*
X93050010Y-109825162D02*
G75*
G02*
X93000006Y-109825162I-25002J0D01*
G01*
X93000006Y-109825162D02*
G75*
G02*
X93050010Y-109825162I25002J0D01*
G01*
D11*
G36*
X92475007Y-109425163D02*
G01*
X92425007Y-109425163D01*
X92425007Y-109275163D01*
X92475007Y-109275163D01*
X92475007Y-109425163D01*
G37*
G36*
X92475007Y-109825162D02*
G01*
X92425007Y-109825162D01*
X92425007Y-109675163D01*
X92475007Y-109675163D01*
X92475007Y-109825162D01*
G37*
G36*
X92625007Y-109275163D02*
G01*
X92475007Y-109275163D01*
X92475007Y-109225163D01*
X92625007Y-109225163D01*
X92625007Y-109275163D01*
G37*
G36*
X92625009Y-109425166D02*
G01*
X92475007Y-109425166D01*
X92475007Y-109275163D01*
X92625009Y-109275163D01*
X92625009Y-109425166D01*
G37*
G36*
X92625007Y-109675163D02*
G01*
X92475007Y-109675163D01*
X92475007Y-109625163D01*
X92625007Y-109625163D01*
X92625007Y-109675163D01*
G37*
G36*
X92625009Y-109825165D02*
G01*
X92475007Y-109825165D01*
X92475007Y-109675163D01*
X92625009Y-109675163D01*
X92625009Y-109825165D01*
G37*
G36*
X92625007Y-109475163D02*
G01*
X92475007Y-109475163D01*
X92475007Y-109425163D01*
X92625007Y-109425163D01*
X92625007Y-109475163D01*
G37*
G36*
X92625007Y-109875162D02*
G01*
X92475007Y-109875162D01*
X92475007Y-109825162D01*
X92625007Y-109825162D01*
X92625007Y-109875162D01*
G37*
G36*
X92675006Y-109425163D02*
G01*
X92625007Y-109425163D01*
X92625007Y-109275163D01*
X92675006Y-109275163D01*
X92675006Y-109425163D01*
G37*
G36*
X92675006Y-109825162D02*
G01*
X92625007Y-109825162D01*
X92625007Y-109675163D01*
X92675006Y-109675163D01*
X92675006Y-109825162D01*
G37*
G36*
X92875009Y-109425163D02*
G01*
X92825009Y-109425163D01*
X92825009Y-109275163D01*
X92875009Y-109275163D01*
X92875009Y-109425163D01*
G37*
G36*
X92875009Y-109825162D02*
G01*
X92825009Y-109825162D01*
X92825009Y-109675163D01*
X92875009Y-109675163D01*
X92875009Y-109825162D01*
G37*
G36*
X93025008Y-109275163D02*
G01*
X92875009Y-109275163D01*
X92875009Y-109225163D01*
X93025008Y-109225163D01*
X93025008Y-109275163D01*
G37*
G36*
X93025011Y-109425166D02*
G01*
X92875009Y-109425166D01*
X92875009Y-109275163D01*
X93025011Y-109275163D01*
X93025011Y-109425166D01*
G37*
G36*
X93025008Y-109675163D02*
G01*
X92875009Y-109675163D01*
X92875009Y-109625163D01*
X93025008Y-109625163D01*
X93025008Y-109675163D01*
G37*
G36*
X93025011Y-109825165D02*
G01*
X92875009Y-109825165D01*
X92875009Y-109675163D01*
X93025011Y-109675163D01*
X93025011Y-109825165D01*
G37*
G36*
X93025008Y-109475163D02*
G01*
X92875009Y-109475163D01*
X92875009Y-109425163D01*
X93025008Y-109425163D01*
X93025008Y-109475163D01*
G37*
G36*
X93025008Y-109875162D02*
G01*
X92875009Y-109875162D01*
X92875009Y-109825162D01*
X93025008Y-109825162D01*
X93025008Y-109875162D01*
G37*
G36*
X93075008Y-109425163D02*
G01*
X93025008Y-109425163D01*
X93025008Y-109275163D01*
X93075008Y-109275163D01*
X93075008Y-109425163D01*
G37*
G36*
X93075008Y-109825162D02*
G01*
X93025008Y-109825162D01*
X93025008Y-109675163D01*
X93075008Y-109675163D01*
X93075008Y-109825162D01*
G37*
%TO.C,U10*%
G36*
X71338900Y-114291700D02*
G01*
X70638500Y-114966700D01*
X70638500Y-116008100D01*
X70158500Y-116008100D01*
X70158500Y-114966700D01*
X69458100Y-114291700D01*
X69458100Y-112299700D01*
X71338900Y-112299700D01*
X71338900Y-114291700D01*
G37*
%TO.C,U6*%
G36*
X75394999Y-108635200D02*
G01*
X74045599Y-108635200D01*
X74045599Y-107539800D01*
X75394999Y-107539800D01*
X75394999Y-108635200D01*
G37*
G36*
X75394999Y-109930600D02*
G01*
X74045599Y-109930600D01*
X74045599Y-108835200D01*
X75394999Y-108835200D01*
X75394999Y-109930600D01*
G37*
G36*
X76944399Y-108635200D02*
G01*
X75594999Y-108635200D01*
X75594999Y-107539800D01*
X76944399Y-107539800D01*
X76944399Y-108635200D01*
G37*
G36*
X76944399Y-109930600D02*
G01*
X75594999Y-109930600D01*
X75594999Y-108835200D01*
X76944399Y-108835200D01*
X76944399Y-109930600D01*
G37*
%TD*%
D12*
%TO.C,C47*%
X75200000Y-76100000D03*
X74240000Y-76100000D03*
%TD*%
D13*
%TO.C,C44*%
X74240000Y-75150000D03*
X75200000Y-75150000D03*
%TD*%
D14*
%TO.C,U15*%
X90200000Y-79500000D03*
D15*
X90250000Y-79900000D03*
X90250000Y-80300000D03*
X90250000Y-80700000D03*
D16*
X90000000Y-81350000D03*
X89600000Y-81350000D03*
X89200000Y-81350000D03*
X88800000Y-81350000D03*
D15*
X88550000Y-80700000D03*
X88550000Y-80300000D03*
X88550000Y-79900000D03*
X88550000Y-79500000D03*
D16*
X88800000Y-78850000D03*
X89200000Y-78850000D03*
X89600000Y-78850000D03*
X90000000Y-78850000D03*
%TD*%
D14*
%TO.C,U14*%
X90200000Y-75175000D03*
D15*
X90250000Y-75575000D03*
X90250000Y-75975000D03*
X90250000Y-76375000D03*
D16*
X90000000Y-77025000D03*
X89600000Y-77025000D03*
X89200000Y-77025000D03*
X88800000Y-77025000D03*
D15*
X88550000Y-76375000D03*
X88550000Y-75975000D03*
X88550000Y-75575000D03*
X88550000Y-75175000D03*
D16*
X88800000Y-74525000D03*
X89200000Y-74525000D03*
X89600000Y-74525000D03*
X90000000Y-74525000D03*
%TD*%
D17*
%TO.C,R56*%
X73300000Y-75290000D03*
X73300000Y-76310000D03*
%TD*%
D18*
%TO.C,C37*%
X73370000Y-114730000D03*
X73370000Y-113770000D03*
%TD*%
D19*
%TO.C,R88*%
X78700000Y-75780000D03*
X78700000Y-74760000D03*
%TD*%
D20*
%TO.C,R23*%
X84410000Y-107725000D03*
X84410000Y-106075000D03*
%TD*%
D17*
%TO.C,R45*%
X88375000Y-82415000D03*
X88375000Y-83435000D03*
%TD*%
%TO.C,R74*%
X84400000Y-74760000D03*
X84400000Y-75780000D03*
%TD*%
D21*
%TO.C,C19*%
X72770000Y-110420000D03*
X72770000Y-111380000D03*
%TD*%
D12*
%TO.C,C41*%
X78630000Y-87800000D03*
X77670000Y-87800000D03*
%TD*%
D13*
%TO.C,C48*%
X82520000Y-88000000D03*
X83480000Y-88000000D03*
%TD*%
D19*
%TO.C,R24*%
X75250000Y-116660000D03*
X75250000Y-115640000D03*
%TD*%
D21*
%TO.C,C32*%
X92775000Y-112545000D03*
X92775000Y-113505000D03*
%TD*%
D17*
%TO.C,R104*%
X94150000Y-116890000D03*
X94150000Y-117910000D03*
%TD*%
D22*
%TO.C,U8*%
X84375600Y-109387500D03*
X84875600Y-109387500D03*
X85375600Y-109387500D03*
X85875600Y-109387500D03*
X86375600Y-109387500D03*
X86875600Y-109387500D03*
X87375600Y-109387500D03*
X87875600Y-109387500D03*
X88375600Y-109387500D03*
X88875600Y-109387500D03*
X89375600Y-109387500D03*
X89875600Y-109387500D03*
D23*
X91288100Y-110800000D03*
X91288100Y-111300000D03*
X91288100Y-111800000D03*
X91288100Y-112300000D03*
X91288100Y-112800000D03*
X91288100Y-113300000D03*
X91288100Y-113800000D03*
X91288100Y-114300000D03*
X91288100Y-114800000D03*
X91288100Y-115300000D03*
X91288100Y-115800000D03*
X91288100Y-116300000D03*
D22*
X89875600Y-117712500D03*
X89375600Y-117712500D03*
X88875600Y-117712500D03*
X88375600Y-117712500D03*
X87875600Y-117712500D03*
X87375600Y-117712500D03*
X86875600Y-117712500D03*
X86375600Y-117712500D03*
X85875600Y-117712500D03*
X85375600Y-117712500D03*
X84875600Y-117712500D03*
X84375600Y-117712500D03*
D23*
X82963100Y-116300000D03*
X82963100Y-115800000D03*
X82963100Y-115300000D03*
X82963100Y-114800000D03*
X82963100Y-114300000D03*
X82963100Y-113800000D03*
X82963100Y-113300000D03*
X82963100Y-112800000D03*
X82963100Y-112300000D03*
X82963100Y-111800000D03*
X82963100Y-111300000D03*
X82963100Y-110800000D03*
%TD*%
D24*
%TO.C,Q1*%
X75500000Y-93100000D03*
X75500000Y-93550000D03*
D25*
X74800000Y-93325000D03*
%TD*%
D19*
%TO.C,R10*%
X89700000Y-86310000D03*
X89700000Y-85290000D03*
%TD*%
D13*
%TO.C,C55*%
X69570000Y-84250000D03*
X70530000Y-84250000D03*
%TD*%
D19*
%TO.C,R90*%
X77750000Y-75780000D03*
X77750000Y-74760000D03*
%TD*%
D17*
%TO.C,R86*%
X72350000Y-75290000D03*
X72350000Y-76310000D03*
%TD*%
D26*
%TO.C,C21*%
X77020000Y-112550000D03*
X75470000Y-112550000D03*
%TD*%
D27*
%TO.C,FB2*%
X78470000Y-111012500D03*
X78470000Y-112587500D03*
%TD*%
D28*
%TO.C,Y2*%
X71750000Y-84300000D03*
X71750000Y-83200000D03*
%TD*%
D12*
%TO.C,C70*%
X87480000Y-78650000D03*
X86520000Y-78650000D03*
%TD*%
D18*
%TO.C,C38*%
X75750000Y-88730000D03*
X75750000Y-87770000D03*
%TD*%
D27*
%TO.C,FB1*%
X81450000Y-106112500D03*
X81450000Y-107687500D03*
%TD*%
D19*
%TO.C,R109*%
X89540000Y-107760000D03*
X89540000Y-106740000D03*
%TD*%
D29*
%TO.C,R92*%
X84440000Y-85550000D03*
X85460000Y-85550000D03*
%TD*%
D26*
%TO.C,C61*%
X77045000Y-114050000D03*
X75495000Y-114050000D03*
%TD*%
D30*
%TO.C,L2*%
X69750000Y-87600000D03*
X72050000Y-87600000D03*
%TD*%
D29*
%TO.C,R15*%
X74780000Y-92250000D03*
X75800000Y-92250000D03*
%TD*%
D21*
%TO.C,C35*%
X93900000Y-108750000D03*
X93900000Y-109710000D03*
%TD*%
D19*
%TO.C,R112*%
X80620000Y-112850000D03*
X80620000Y-111830000D03*
%TD*%
D29*
%TO.C,R72*%
X84440000Y-86500000D03*
X85460000Y-86500000D03*
%TD*%
%TO.C,R94*%
X84440000Y-81750000D03*
X85460000Y-81750000D03*
%TD*%
D31*
%TO.C,U11*%
X76150000Y-80037500D03*
X76150000Y-81837500D03*
X76150000Y-83637500D03*
X77950000Y-80037500D03*
X77950000Y-81837500D03*
X77950000Y-83637500D03*
X79750000Y-80037500D03*
X79750000Y-81837500D03*
X79750000Y-83637500D03*
D32*
X73512500Y-85587500D03*
X73512500Y-85087500D03*
X73512500Y-84587500D03*
X73512500Y-84087500D03*
X73512500Y-83587500D03*
X73512500Y-83087500D03*
X73512500Y-82587500D03*
X73512500Y-82087500D03*
X73512500Y-81587500D03*
X73512500Y-81087500D03*
X73512500Y-80587500D03*
X73512500Y-80087500D03*
X73512500Y-79587500D03*
X73512500Y-79087500D03*
X73512500Y-78587500D03*
X73512500Y-78087500D03*
D33*
X74200000Y-77400000D03*
X74700000Y-77400000D03*
X75200000Y-77400000D03*
X75700000Y-77400000D03*
X76200000Y-77400000D03*
X76700000Y-77400000D03*
X77200000Y-77400000D03*
X77700000Y-77400000D03*
X78200000Y-77400000D03*
X78700000Y-77400000D03*
X79200000Y-77400000D03*
X79700000Y-77400000D03*
X80200000Y-77400000D03*
X80700000Y-77400000D03*
X81200000Y-77400000D03*
X81700000Y-77400000D03*
D32*
X82387500Y-78087500D03*
X82387500Y-78587500D03*
X82387500Y-79087500D03*
X82387500Y-79587500D03*
X82387500Y-80087500D03*
X82387500Y-80587500D03*
X82387500Y-81087500D03*
X82387500Y-81587500D03*
X82387500Y-82087500D03*
X82387500Y-82587500D03*
X82387500Y-83087500D03*
X82387500Y-83587500D03*
X82387500Y-84087500D03*
X82387500Y-84587500D03*
X82387500Y-85087500D03*
X82387500Y-85587500D03*
D33*
X81700000Y-86275000D03*
X81200000Y-86275000D03*
X80700000Y-86275000D03*
X80200000Y-86275000D03*
X79700000Y-86275000D03*
X79200000Y-86275000D03*
X78700000Y-86275000D03*
X78200000Y-86275000D03*
X77700000Y-86275000D03*
X77200000Y-86275000D03*
X76700000Y-86275000D03*
X76200000Y-86275000D03*
X75700000Y-86275000D03*
X75200000Y-86275000D03*
X74700000Y-86275000D03*
X74200000Y-86275000D03*
%TD*%
D34*
%TO.C,L1*%
X82150000Y-89600000D03*
X79850000Y-89600000D03*
%TD*%
D13*
%TO.C,C54*%
X72400000Y-93550000D03*
X73360000Y-93550000D03*
%TD*%
D29*
%TO.C,R101*%
X75740000Y-89650000D03*
X76760000Y-89650000D03*
%TD*%
D35*
%TO.C,J11*%
X91610000Y-86925000D03*
X91610000Y-86524998D03*
X91610000Y-86124999D03*
X91610000Y-85724999D03*
X91610000Y-85324998D03*
X91610000Y-84924998D03*
X91610000Y-84524999D03*
X91610000Y-84125000D03*
X91610000Y-83724998D03*
X91610000Y-83324999D03*
X91610000Y-82925000D03*
X91610000Y-82524998D03*
X91610000Y-82124999D03*
X91610000Y-81725000D03*
X91610000Y-81324998D03*
X91610000Y-80924999D03*
X91610000Y-80525000D03*
X91610000Y-80125000D03*
X91610000Y-79724999D03*
X91610000Y-79325000D03*
X91610000Y-78925000D03*
X91610000Y-78524999D03*
X91610000Y-78124999D03*
X91610000Y-77725000D03*
X91610000Y-77325001D03*
X94150000Y-77325001D03*
X94150000Y-77725000D03*
X94150000Y-78124999D03*
X94150000Y-78524999D03*
X94150000Y-78925000D03*
X94150000Y-79325000D03*
X94150000Y-79724999D03*
X94150000Y-80125000D03*
X94150000Y-80525000D03*
X94150000Y-80924999D03*
X94150000Y-81324998D03*
X94150000Y-81725000D03*
X94150000Y-82124999D03*
X94150000Y-82524998D03*
X94150000Y-82925000D03*
X94150000Y-83324999D03*
X94150000Y-83724998D03*
X94150000Y-84125000D03*
X94150000Y-84524999D03*
X94150000Y-84924998D03*
X94150000Y-85324998D03*
X94150000Y-85724999D03*
X94150000Y-86124999D03*
X94150000Y-86524998D03*
X94150000Y-86925000D03*
%TD*%
D36*
%TO.C,J8*%
X82075000Y-70675000D03*
D37*
X80600000Y-72200000D03*
D36*
X79125000Y-70675000D03*
%TD*%
D12*
%TO.C,C74*%
X92300000Y-117450000D03*
X91340000Y-117450000D03*
%TD*%
D17*
%TO.C,R103*%
X72350000Y-78100000D03*
X72350000Y-79120000D03*
%TD*%
D29*
%TO.C,R33*%
X80590000Y-73450000D03*
X81610000Y-73450000D03*
%TD*%
D17*
%TO.C,R76*%
X82500000Y-74760000D03*
X82500000Y-75780000D03*
%TD*%
D19*
%TO.C,R47*%
X86700000Y-72510000D03*
X86700000Y-71490000D03*
%TD*%
%TO.C,R46*%
X89325000Y-83435000D03*
X89325000Y-82415000D03*
%TD*%
D29*
%TO.C,R34*%
X76090000Y-73450000D03*
X77110000Y-73450000D03*
%TD*%
D21*
%TO.C,C46*%
X73300000Y-87020000D03*
X73300000Y-87980000D03*
%TD*%
D29*
%TO.C,R102*%
X75740000Y-90600000D03*
X76760000Y-90600000D03*
%TD*%
D12*
%TO.C,C45*%
X83480000Y-87050000D03*
X82520000Y-87050000D03*
%TD*%
%TO.C,C51*%
X92300000Y-118400000D03*
X91340000Y-118400000D03*
%TD*%
D19*
%TO.C,R18*%
X78270000Y-107870000D03*
X78270000Y-106850000D03*
%TD*%
D13*
%TO.C,C53*%
X69570000Y-83300000D03*
X70530000Y-83300000D03*
%TD*%
D29*
%TO.C,R114*%
X78710000Y-113750000D03*
X79730000Y-113750000D03*
%TD*%
D17*
%TO.C,R29*%
X74300000Y-115640000D03*
X74300000Y-116660000D03*
%TD*%
D38*
%TO.C,Y1*%
X70750000Y-91250000D03*
D39*
X72250000Y-91250000D03*
D38*
X73750000Y-91250000D03*
%TD*%
D17*
%TO.C,R100*%
X76750000Y-87740000D03*
X76750000Y-88760000D03*
%TD*%
D29*
%TO.C,R70*%
X84440000Y-84600000D03*
X85460000Y-84600000D03*
%TD*%
D40*
%TO.C,C57*%
X82950000Y-107675000D03*
X82950000Y-106125000D03*
%TD*%
D19*
%TO.C,R27*%
X74320000Y-114760000D03*
X74320000Y-113740000D03*
%TD*%
D17*
%TO.C,R62*%
X88750000Y-85290000D03*
X88750000Y-86310000D03*
%TD*%
D19*
%TO.C,R25*%
X70870000Y-111410000D03*
X70870000Y-110390000D03*
%TD*%
D41*
%TO.C,C56*%
X79990000Y-106125000D03*
X79990000Y-107675000D03*
%TD*%
D42*
%TO.C,C42*%
X79775000Y-88000000D03*
X81325000Y-88000000D03*
%TD*%
D21*
%TO.C,C20*%
X71820000Y-110420000D03*
X71820000Y-111380000D03*
%TD*%
D19*
%TO.C,R44*%
X84800000Y-72510000D03*
X84800000Y-71490000D03*
%TD*%
D40*
%TO.C,C60*%
X79970000Y-110675000D03*
X79970000Y-109125000D03*
%TD*%
D13*
%TO.C,C25*%
X92770000Y-110700000D03*
X93730000Y-110700000D03*
%TD*%
D19*
%TO.C,R113*%
X80620000Y-114720000D03*
X80620000Y-113700000D03*
%TD*%
D13*
%TO.C,C43*%
X71420000Y-86250000D03*
X72380000Y-86250000D03*
%TD*%
D43*
%TO.C,R54*%
X70560000Y-86250000D03*
X69540000Y-86250000D03*
%TD*%
D44*
%TO.C,R14*%
X74070000Y-112550000D03*
X72420000Y-112550000D03*
%TD*%
D17*
%TO.C,R110*%
X88600000Y-106732500D03*
X88600000Y-107752500D03*
%TD*%
D26*
%TO.C,C39*%
X81575000Y-91200000D03*
X80025000Y-91200000D03*
%TD*%
D27*
%TO.C,D2*%
X83600000Y-70650000D03*
X83600000Y-72225000D03*
%TD*%
D29*
%TO.C,R21*%
X79740000Y-92450000D03*
X80760000Y-92450000D03*
%TD*%
D17*
%TO.C,R17*%
X78600000Y-91500000D03*
X78600000Y-92520000D03*
%TD*%
D29*
%TO.C,R26*%
X78710000Y-114700000D03*
X79730000Y-114700000D03*
%TD*%
D17*
%TO.C,R66*%
X87800000Y-85290000D03*
X87800000Y-86310000D03*
%TD*%
D41*
%TO.C,C33*%
X85900000Y-106125000D03*
X85900000Y-107675000D03*
%TD*%
D29*
%TO.C,R98*%
X84490000Y-82700000D03*
X85510000Y-82700000D03*
%TD*%
D18*
%TO.C,C27*%
X93700000Y-113505000D03*
X93700000Y-112545000D03*
%TD*%
D17*
%TO.C,R78*%
X83450000Y-74760000D03*
X83450000Y-75780000D03*
%TD*%
%TO.C,R80*%
X85366667Y-74760000D03*
X85366667Y-75780000D03*
%TD*%
D19*
%TO.C,R52*%
X74800000Y-88760000D03*
X74800000Y-87740000D03*
%TD*%
D17*
%TO.C,R13*%
X78600000Y-89640000D03*
X78600000Y-90660000D03*
%TD*%
D12*
%TO.C,C71*%
X87480000Y-77700000D03*
X86520000Y-77700000D03*
%TD*%
D17*
%TO.C,R19*%
X78270000Y-108740000D03*
X78270000Y-109760000D03*
%TD*%
D45*
%TO.C,U10*%
X71898500Y-116398700D03*
D46*
X70398500Y-116398701D03*
D45*
X68898500Y-116398701D03*
%TD*%
D19*
%TO.C,R68*%
X81550000Y-75780000D03*
X81550000Y-74760000D03*
%TD*%
D13*
%TO.C,C40*%
X77670000Y-88750000D03*
X78630000Y-88750000D03*
%TD*%
D19*
%TO.C,R49*%
X85752978Y-72510000D03*
X85752978Y-71490000D03*
%TD*%
D36*
%TO.C,J9*%
X77575000Y-70675000D03*
D37*
X76100000Y-72200000D03*
D36*
X74625000Y-70675000D03*
%TD*%
D12*
%TO.C,C26*%
X93730000Y-111650000D03*
X92770000Y-111650000D03*
%TD*%
D29*
%TO.C,R22*%
X93190000Y-115975000D03*
X94210000Y-115975000D03*
%TD*%
D17*
%TO.C,R64*%
X86850000Y-85290000D03*
X86850000Y-86310000D03*
%TD*%
D13*
%TO.C,C69*%
X89470000Y-73375000D03*
X90430000Y-73375000D03*
%TD*%
D12*
%TO.C,C72*%
X70230000Y-75050004D03*
X69270000Y-75050004D03*
%TD*%
D29*
%TO.C,R37*%
X72740000Y-88950000D03*
X73760000Y-88950000D03*
%TD*%
D13*
%TO.C,C73*%
X69570000Y-82350000D03*
X70530000Y-82350000D03*
%TD*%
D43*
%TO.C,R58*%
X70550000Y-85300000D03*
X69530000Y-85300000D03*
%TD*%
D17*
%TO.C,R111*%
X79670000Y-111840000D03*
X79670000Y-112860000D03*
%TD*%
D41*
%TO.C,C34*%
X87360000Y-106125000D03*
X87360000Y-107675000D03*
%TD*%
D17*
%TO.C,R16*%
X77650000Y-91500000D03*
X77650000Y-92520000D03*
%TD*%
D19*
%TO.C,R82*%
X79650000Y-75780000D03*
X79650000Y-74760000D03*
%TD*%
D12*
%TO.C,C52*%
X71480000Y-93550000D03*
X70520000Y-93550000D03*
%TD*%
D19*
%TO.C,R36*%
X80600000Y-75780000D03*
X80600000Y-74760000D03*
%TD*%
D18*
%TO.C,C68*%
X88550000Y-73425000D03*
X88550000Y-72465000D03*
%TD*%
D29*
%TO.C,R84*%
X84440000Y-87450000D03*
X85460000Y-87450000D03*
%TD*%
%TO.C,R96*%
X84440000Y-83650000D03*
X85460000Y-83650000D03*
%TD*%
D18*
%TO.C,C36*%
X76200000Y-116630000D03*
X76200000Y-115670000D03*
%TD*%
D47*
%TO.C,XTAL2*%
X68450000Y-76600004D03*
X68450000Y-80800000D03*
X70850000Y-80800000D03*
X70850000Y-76600004D03*
%TD*%
D48*
%TO.C,U6*%
X74070001Y-106500000D03*
X75019999Y-106500000D03*
X75969999Y-106500000D03*
X76920000Y-106500000D03*
X76919997Y-110970400D03*
X75969999Y-110970400D03*
X75019999Y-110970400D03*
X74069998Y-110970400D03*
D49*
X75494999Y-108735200D03*
%TD*%
D17*
%TO.C,R12*%
X77650000Y-89640000D03*
X77650000Y-90660000D03*
%TD*%
%TO.C,R115*%
X93200000Y-117440000D03*
X93200000Y-118460000D03*
%TD*%
M02*
