%TF.GenerationSoftware,KiCad,Pcbnew,10.0.0*%
%TF.CreationDate,2026-04-10T12:16:05+02:00*%
%TF.ProjectId,wulpus_pro_acq_pcb,77756c70-7573-45f7-9072-6f5f6163715f,rev?*%
%TF.SameCoordinates,Original*%
%TF.FileFunction,Legend,Top*%
%TF.FilePolarity,Positive*%
%FSLAX46Y46*%
G04 Gerber Fmt 4.6, Leading zero omitted, Abs format (unit mm)*
G04 Created by KiCad (PCBNEW 10.0.0) date 2026-04-10 12:16:05*
%MOMM*%
%LPD*%
G01*
G04 APERTURE LIST*
%ADD10C,0.100000*%
%ADD11C,0.150000*%
%ADD12C,0.177800*%
%ADD13C,0.200000*%
%ADD14C,0.127000*%
%ADD15C,0.120000*%
%ADD16C,0.152400*%
%ADD17C,0.508000*%
%ADD18C,0.000000*%
G04 APERTURE END LIST*
D10*
X107250000Y-78400000D02*
X107620000Y-78880000D01*
X107615000Y-78880000D02*
X107425000Y-78880000D01*
X107620000Y-78880000D02*
X107620000Y-78690000D01*
X108200000Y-83205000D02*
X108570000Y-83685000D01*
X108565000Y-83685000D02*
X108375000Y-83685000D01*
X108570000Y-83685000D02*
X108570000Y-83495000D01*
X110055000Y-78340000D02*
X110425000Y-78820000D01*
X110420000Y-78820000D02*
X110230000Y-78820000D01*
X110425000Y-78820000D02*
X110425000Y-78630000D01*
X112065000Y-88050000D02*
X112545000Y-87680000D01*
X112545000Y-87680000D02*
X112355000Y-87680000D01*
X112545000Y-87685000D02*
X112545000Y-87875000D01*
X116015000Y-78685000D02*
X116015000Y-78495000D01*
X116015000Y-78690000D02*
X116205000Y-78690000D01*
X116495000Y-78320000D02*
X116015000Y-78690000D01*
X118585000Y-78685000D02*
X118585000Y-78495000D01*
X118585000Y-78690000D02*
X118775000Y-78690000D01*
X119065000Y-78320000D02*
X118585000Y-78690000D01*
D11*
X105731541Y-82498866D02*
X106188684Y-82498866D01*
X105960112Y-82879819D02*
X105960112Y-82117914D01*
X106388683Y-81879819D02*
X106588683Y-82879819D01*
X106588683Y-82879819D02*
X106788683Y-81879819D01*
X106845827Y-82975057D02*
X107302969Y-82975057D01*
X107788684Y-82879819D02*
X107588684Y-82403628D01*
X107445827Y-82879819D02*
X107445827Y-81879819D01*
X107445827Y-81879819D02*
X107674398Y-81879819D01*
X107674398Y-81879819D02*
X107731541Y-81927438D01*
X107731541Y-81927438D02*
X107760112Y-81975057D01*
X107760112Y-81975057D02*
X107788684Y-82070295D01*
X107788684Y-82070295D02*
X107788684Y-82213152D01*
X107788684Y-82213152D02*
X107760112Y-82308390D01*
X107760112Y-82308390D02*
X107731541Y-82356009D01*
X107731541Y-82356009D02*
X107674398Y-82403628D01*
X107674398Y-82403628D02*
X107445827Y-82403628D01*
X107988684Y-81879819D02*
X108388684Y-82879819D01*
X108388684Y-81879819D02*
X107988684Y-82879819D01*
X108474399Y-82975057D02*
X108931541Y-82975057D01*
X109417256Y-82784580D02*
X109388684Y-82832200D01*
X109388684Y-82832200D02*
X109302970Y-82879819D01*
X109302970Y-82879819D02*
X109245827Y-82879819D01*
X109245827Y-82879819D02*
X109160113Y-82832200D01*
X109160113Y-82832200D02*
X109102970Y-82736961D01*
X109102970Y-82736961D02*
X109074399Y-82641723D01*
X109074399Y-82641723D02*
X109045827Y-82451247D01*
X109045827Y-82451247D02*
X109045827Y-82308390D01*
X109045827Y-82308390D02*
X109074399Y-82117914D01*
X109074399Y-82117914D02*
X109102970Y-82022676D01*
X109102970Y-82022676D02*
X109160113Y-81927438D01*
X109160113Y-81927438D02*
X109245827Y-81879819D01*
X109245827Y-81879819D02*
X109302970Y-81879819D01*
X109302970Y-81879819D02*
X109388684Y-81927438D01*
X109388684Y-81927438D02*
X109417256Y-81975057D01*
X109788684Y-81879819D02*
X109902970Y-81879819D01*
X109902970Y-81879819D02*
X109960113Y-81927438D01*
X109960113Y-81927438D02*
X110017256Y-82022676D01*
X110017256Y-82022676D02*
X110045827Y-82213152D01*
X110045827Y-82213152D02*
X110045827Y-82546485D01*
X110045827Y-82546485D02*
X110017256Y-82736961D01*
X110017256Y-82736961D02*
X109960113Y-82832200D01*
X109960113Y-82832200D02*
X109902970Y-82879819D01*
X109902970Y-82879819D02*
X109788684Y-82879819D01*
X109788684Y-82879819D02*
X109731542Y-82832200D01*
X109731542Y-82832200D02*
X109674399Y-82736961D01*
X109674399Y-82736961D02*
X109645827Y-82546485D01*
X109645827Y-82546485D02*
X109645827Y-82213152D01*
X109645827Y-82213152D02*
X109674399Y-82022676D01*
X109674399Y-82022676D02*
X109731542Y-81927438D01*
X109731542Y-81927438D02*
X109788684Y-81879819D01*
X110302970Y-82879819D02*
X110302970Y-81879819D01*
X110302970Y-81879819D02*
X110645827Y-82879819D01*
X110645827Y-82879819D02*
X110645827Y-81879819D01*
X110931541Y-82879819D02*
X110931541Y-81879819D01*
X110931541Y-81879819D02*
X111274398Y-82879819D01*
X111274398Y-82879819D02*
X111274398Y-81879819D01*
X108641541Y-88958866D02*
X109098684Y-88958866D01*
X108870112Y-89339819D02*
X108870112Y-88577914D01*
X109298683Y-88339819D02*
X109498683Y-89339819D01*
X109498683Y-89339819D02*
X109698683Y-88339819D01*
X110241541Y-89244580D02*
X110212969Y-89292200D01*
X110212969Y-89292200D02*
X110127255Y-89339819D01*
X110127255Y-89339819D02*
X110070112Y-89339819D01*
X110070112Y-89339819D02*
X109984398Y-89292200D01*
X109984398Y-89292200D02*
X109927255Y-89196961D01*
X109927255Y-89196961D02*
X109898684Y-89101723D01*
X109898684Y-89101723D02*
X109870112Y-88911247D01*
X109870112Y-88911247D02*
X109870112Y-88768390D01*
X109870112Y-88768390D02*
X109898684Y-88577914D01*
X109898684Y-88577914D02*
X109927255Y-88482676D01*
X109927255Y-88482676D02*
X109984398Y-88387438D01*
X109984398Y-88387438D02*
X110070112Y-88339819D01*
X110070112Y-88339819D02*
X110127255Y-88339819D01*
X110127255Y-88339819D02*
X110212969Y-88387438D01*
X110212969Y-88387438D02*
X110241541Y-88435057D01*
X110841541Y-89244580D02*
X110812969Y-89292200D01*
X110812969Y-89292200D02*
X110727255Y-89339819D01*
X110727255Y-89339819D02*
X110670112Y-89339819D01*
X110670112Y-89339819D02*
X110584398Y-89292200D01*
X110584398Y-89292200D02*
X110527255Y-89196961D01*
X110527255Y-89196961D02*
X110498684Y-89101723D01*
X110498684Y-89101723D02*
X110470112Y-88911247D01*
X110470112Y-88911247D02*
X110470112Y-88768390D01*
X110470112Y-88768390D02*
X110498684Y-88577914D01*
X110498684Y-88577914D02*
X110527255Y-88482676D01*
X110527255Y-88482676D02*
X110584398Y-88387438D01*
X110584398Y-88387438D02*
X110670112Y-88339819D01*
X110670112Y-88339819D02*
X110727255Y-88339819D01*
X110727255Y-88339819D02*
X110812969Y-88387438D01*
X110812969Y-88387438D02*
X110841541Y-88435057D01*
X110955827Y-89435057D02*
X111412969Y-89435057D01*
X111555827Y-89339819D02*
X111555827Y-88339819D01*
X111555827Y-88339819D02*
X111755827Y-89054104D01*
X111755827Y-89054104D02*
X111955827Y-88339819D01*
X111955827Y-88339819D02*
X111955827Y-89339819D01*
X112212969Y-89292200D02*
X112298684Y-89339819D01*
X112298684Y-89339819D02*
X112441541Y-89339819D01*
X112441541Y-89339819D02*
X112498684Y-89292200D01*
X112498684Y-89292200D02*
X112527255Y-89244580D01*
X112527255Y-89244580D02*
X112555826Y-89149342D01*
X112555826Y-89149342D02*
X112555826Y-89054104D01*
X112555826Y-89054104D02*
X112527255Y-88958866D01*
X112527255Y-88958866D02*
X112498684Y-88911247D01*
X112498684Y-88911247D02*
X112441541Y-88863628D01*
X112441541Y-88863628D02*
X112327255Y-88816009D01*
X112327255Y-88816009D02*
X112270112Y-88768390D01*
X112270112Y-88768390D02*
X112241541Y-88720771D01*
X112241541Y-88720771D02*
X112212969Y-88625533D01*
X112212969Y-88625533D02*
X112212969Y-88530295D01*
X112212969Y-88530295D02*
X112241541Y-88435057D01*
X112241541Y-88435057D02*
X112270112Y-88387438D01*
X112270112Y-88387438D02*
X112327255Y-88339819D01*
X112327255Y-88339819D02*
X112470112Y-88339819D01*
X112470112Y-88339819D02*
X112555826Y-88387438D01*
X112812970Y-89339819D02*
X112812970Y-88339819D01*
X112812970Y-88339819D02*
X113041541Y-88339819D01*
X113041541Y-88339819D02*
X113098684Y-88387438D01*
X113098684Y-88387438D02*
X113127255Y-88435057D01*
X113127255Y-88435057D02*
X113155827Y-88530295D01*
X113155827Y-88530295D02*
X113155827Y-88673152D01*
X113155827Y-88673152D02*
X113127255Y-88768390D01*
X113127255Y-88768390D02*
X113098684Y-88816009D01*
X113098684Y-88816009D02*
X113041541Y-88863628D01*
X113041541Y-88863628D02*
X112812970Y-88863628D01*
X113270113Y-89435057D02*
X113727255Y-89435057D01*
X114212970Y-89244580D02*
X114184398Y-89292200D01*
X114184398Y-89292200D02*
X114098684Y-89339819D01*
X114098684Y-89339819D02*
X114041541Y-89339819D01*
X114041541Y-89339819D02*
X113955827Y-89292200D01*
X113955827Y-89292200D02*
X113898684Y-89196961D01*
X113898684Y-89196961D02*
X113870113Y-89101723D01*
X113870113Y-89101723D02*
X113841541Y-88911247D01*
X113841541Y-88911247D02*
X113841541Y-88768390D01*
X113841541Y-88768390D02*
X113870113Y-88577914D01*
X113870113Y-88577914D02*
X113898684Y-88482676D01*
X113898684Y-88482676D02*
X113955827Y-88387438D01*
X113955827Y-88387438D02*
X114041541Y-88339819D01*
X114041541Y-88339819D02*
X114098684Y-88339819D01*
X114098684Y-88339819D02*
X114184398Y-88387438D01*
X114184398Y-88387438D02*
X114212970Y-88435057D01*
X114584398Y-88339819D02*
X114698684Y-88339819D01*
X114698684Y-88339819D02*
X114755827Y-88387438D01*
X114755827Y-88387438D02*
X114812970Y-88482676D01*
X114812970Y-88482676D02*
X114841541Y-88673152D01*
X114841541Y-88673152D02*
X114841541Y-89006485D01*
X114841541Y-89006485D02*
X114812970Y-89196961D01*
X114812970Y-89196961D02*
X114755827Y-89292200D01*
X114755827Y-89292200D02*
X114698684Y-89339819D01*
X114698684Y-89339819D02*
X114584398Y-89339819D01*
X114584398Y-89339819D02*
X114527256Y-89292200D01*
X114527256Y-89292200D02*
X114470113Y-89196961D01*
X114470113Y-89196961D02*
X114441541Y-89006485D01*
X114441541Y-89006485D02*
X114441541Y-88673152D01*
X114441541Y-88673152D02*
X114470113Y-88482676D01*
X114470113Y-88482676D02*
X114527256Y-88387438D01*
X114527256Y-88387438D02*
X114584398Y-88339819D01*
X115098684Y-89339819D02*
X115098684Y-88339819D01*
X115098684Y-88339819D02*
X115441541Y-89339819D01*
X115441541Y-89339819D02*
X115441541Y-88339819D01*
X115727255Y-89339819D02*
X115727255Y-88339819D01*
X115727255Y-88339819D02*
X116070112Y-89339819D01*
X116070112Y-89339819D02*
X116070112Y-88339819D01*
X116075826Y-77137438D02*
X116018684Y-77089819D01*
X116018684Y-77089819D02*
X115932969Y-77089819D01*
X115932969Y-77089819D02*
X115847255Y-77137438D01*
X115847255Y-77137438D02*
X115790112Y-77232676D01*
X115790112Y-77232676D02*
X115761541Y-77327914D01*
X115761541Y-77327914D02*
X115732969Y-77518390D01*
X115732969Y-77518390D02*
X115732969Y-77661247D01*
X115732969Y-77661247D02*
X115761541Y-77851723D01*
X115761541Y-77851723D02*
X115790112Y-77946961D01*
X115790112Y-77946961D02*
X115847255Y-78042200D01*
X115847255Y-78042200D02*
X115932969Y-78089819D01*
X115932969Y-78089819D02*
X115990112Y-78089819D01*
X115990112Y-78089819D02*
X116075826Y-78042200D01*
X116075826Y-78042200D02*
X116104398Y-77994580D01*
X116104398Y-77994580D02*
X116104398Y-77661247D01*
X116104398Y-77661247D02*
X115990112Y-77661247D01*
X116361541Y-78089819D02*
X116361541Y-77089819D01*
X116361541Y-77089819D02*
X116704398Y-78089819D01*
X116704398Y-78089819D02*
X116704398Y-77089819D01*
X116990112Y-78089819D02*
X116990112Y-77089819D01*
X116990112Y-77089819D02*
X117132969Y-77089819D01*
X117132969Y-77089819D02*
X117218683Y-77137438D01*
X117218683Y-77137438D02*
X117275826Y-77232676D01*
X117275826Y-77232676D02*
X117304397Y-77327914D01*
X117304397Y-77327914D02*
X117332969Y-77518390D01*
X117332969Y-77518390D02*
X117332969Y-77661247D01*
X117332969Y-77661247D02*
X117304397Y-77851723D01*
X117304397Y-77851723D02*
X117275826Y-77946961D01*
X117275826Y-77946961D02*
X117218683Y-78042200D01*
X117218683Y-78042200D02*
X117132969Y-78089819D01*
X117132969Y-78089819D02*
X116990112Y-78089819D01*
X116741541Y-88938866D02*
X117198684Y-88938866D01*
X116970112Y-89319819D02*
X116970112Y-88557914D01*
X117398683Y-88319819D02*
X117598683Y-89319819D01*
X117598683Y-89319819D02*
X117798683Y-88319819D01*
X118198684Y-88796009D02*
X118284398Y-88843628D01*
X118284398Y-88843628D02*
X118312969Y-88891247D01*
X118312969Y-88891247D02*
X118341541Y-88986485D01*
X118341541Y-88986485D02*
X118341541Y-89129342D01*
X118341541Y-89129342D02*
X118312969Y-89224580D01*
X118312969Y-89224580D02*
X118284398Y-89272200D01*
X118284398Y-89272200D02*
X118227255Y-89319819D01*
X118227255Y-89319819D02*
X117998684Y-89319819D01*
X117998684Y-89319819D02*
X117998684Y-88319819D01*
X117998684Y-88319819D02*
X118198684Y-88319819D01*
X118198684Y-88319819D02*
X118255827Y-88367438D01*
X118255827Y-88367438D02*
X118284398Y-88415057D01*
X118284398Y-88415057D02*
X118312969Y-88510295D01*
X118312969Y-88510295D02*
X118312969Y-88605533D01*
X118312969Y-88605533D02*
X118284398Y-88700771D01*
X118284398Y-88700771D02*
X118255827Y-88748390D01*
X118255827Y-88748390D02*
X118198684Y-88796009D01*
X118198684Y-88796009D02*
X117998684Y-88796009D01*
X118570112Y-89034104D02*
X118855827Y-89034104D01*
X118512969Y-89319819D02*
X118712969Y-88319819D01*
X118712969Y-88319819D02*
X118912969Y-89319819D01*
X119027255Y-88319819D02*
X119370113Y-88319819D01*
X119198684Y-89319819D02*
X119198684Y-88319819D01*
X118505826Y-77137438D02*
X118448684Y-77089819D01*
X118448684Y-77089819D02*
X118362969Y-77089819D01*
X118362969Y-77089819D02*
X118277255Y-77137438D01*
X118277255Y-77137438D02*
X118220112Y-77232676D01*
X118220112Y-77232676D02*
X118191541Y-77327914D01*
X118191541Y-77327914D02*
X118162969Y-77518390D01*
X118162969Y-77518390D02*
X118162969Y-77661247D01*
X118162969Y-77661247D02*
X118191541Y-77851723D01*
X118191541Y-77851723D02*
X118220112Y-77946961D01*
X118220112Y-77946961D02*
X118277255Y-78042200D01*
X118277255Y-78042200D02*
X118362969Y-78089819D01*
X118362969Y-78089819D02*
X118420112Y-78089819D01*
X118420112Y-78089819D02*
X118505826Y-78042200D01*
X118505826Y-78042200D02*
X118534398Y-77994580D01*
X118534398Y-77994580D02*
X118534398Y-77661247D01*
X118534398Y-77661247D02*
X118420112Y-77661247D01*
X118791541Y-78089819D02*
X118791541Y-77089819D01*
X118791541Y-77089819D02*
X119134398Y-78089819D01*
X119134398Y-78089819D02*
X119134398Y-77089819D01*
X119420112Y-78089819D02*
X119420112Y-77089819D01*
X119420112Y-77089819D02*
X119562969Y-77089819D01*
X119562969Y-77089819D02*
X119648683Y-77137438D01*
X119648683Y-77137438D02*
X119705826Y-77232676D01*
X119705826Y-77232676D02*
X119734397Y-77327914D01*
X119734397Y-77327914D02*
X119762969Y-77518390D01*
X119762969Y-77518390D02*
X119762969Y-77661247D01*
X119762969Y-77661247D02*
X119734397Y-77851723D01*
X119734397Y-77851723D02*
X119705826Y-77946961D01*
X119705826Y-77946961D02*
X119648683Y-78042200D01*
X119648683Y-78042200D02*
X119562969Y-78089819D01*
X119562969Y-78089819D02*
X119420112Y-78089819D01*
X106021541Y-78089819D02*
X106021541Y-77089819D01*
X106021541Y-77089819D02*
X106164398Y-77089819D01*
X106164398Y-77089819D02*
X106250112Y-77137438D01*
X106250112Y-77137438D02*
X106307255Y-77232676D01*
X106307255Y-77232676D02*
X106335826Y-77327914D01*
X106335826Y-77327914D02*
X106364398Y-77518390D01*
X106364398Y-77518390D02*
X106364398Y-77661247D01*
X106364398Y-77661247D02*
X106335826Y-77851723D01*
X106335826Y-77851723D02*
X106307255Y-77946961D01*
X106307255Y-77946961D02*
X106250112Y-78042200D01*
X106250112Y-78042200D02*
X106164398Y-78089819D01*
X106164398Y-78089819D02*
X106021541Y-78089819D01*
X106478684Y-78185057D02*
X106935826Y-78185057D01*
X107421541Y-78089819D02*
X107221541Y-77613628D01*
X107078684Y-78089819D02*
X107078684Y-77089819D01*
X107078684Y-77089819D02*
X107307255Y-77089819D01*
X107307255Y-77089819D02*
X107364398Y-77137438D01*
X107364398Y-77137438D02*
X107392969Y-77185057D01*
X107392969Y-77185057D02*
X107421541Y-77280295D01*
X107421541Y-77280295D02*
X107421541Y-77423152D01*
X107421541Y-77423152D02*
X107392969Y-77518390D01*
X107392969Y-77518390D02*
X107364398Y-77566009D01*
X107364398Y-77566009D02*
X107307255Y-77613628D01*
X107307255Y-77613628D02*
X107078684Y-77613628D01*
X107678684Y-78089819D02*
X107678684Y-77089819D01*
X107678684Y-77089819D02*
X107821541Y-77089819D01*
X107821541Y-77089819D02*
X107907255Y-77137438D01*
X107907255Y-77137438D02*
X107964398Y-77232676D01*
X107964398Y-77232676D02*
X107992969Y-77327914D01*
X107992969Y-77327914D02*
X108021541Y-77518390D01*
X108021541Y-77518390D02*
X108021541Y-77661247D01*
X108021541Y-77661247D02*
X107992969Y-77851723D01*
X107992969Y-77851723D02*
X107964398Y-77946961D01*
X107964398Y-77946961D02*
X107907255Y-78042200D01*
X107907255Y-78042200D02*
X107821541Y-78089819D01*
X107821541Y-78089819D02*
X107678684Y-78089819D01*
X108392969Y-77613628D02*
X108392969Y-78089819D01*
X108192969Y-77089819D02*
X108392969Y-77613628D01*
X108392969Y-77613628D02*
X108592969Y-77089819D01*
X106275826Y-73459819D02*
X106475826Y-74459819D01*
X106475826Y-74459819D02*
X106675826Y-73459819D01*
X107075827Y-73936009D02*
X107161541Y-73983628D01*
X107161541Y-73983628D02*
X107190112Y-74031247D01*
X107190112Y-74031247D02*
X107218684Y-74126485D01*
X107218684Y-74126485D02*
X107218684Y-74269342D01*
X107218684Y-74269342D02*
X107190112Y-74364580D01*
X107190112Y-74364580D02*
X107161541Y-74412200D01*
X107161541Y-74412200D02*
X107104398Y-74459819D01*
X107104398Y-74459819D02*
X106875827Y-74459819D01*
X106875827Y-74459819D02*
X106875827Y-73459819D01*
X106875827Y-73459819D02*
X107075827Y-73459819D01*
X107075827Y-73459819D02*
X107132970Y-73507438D01*
X107132970Y-73507438D02*
X107161541Y-73555057D01*
X107161541Y-73555057D02*
X107190112Y-73650295D01*
X107190112Y-73650295D02*
X107190112Y-73745533D01*
X107190112Y-73745533D02*
X107161541Y-73840771D01*
X107161541Y-73840771D02*
X107132970Y-73888390D01*
X107132970Y-73888390D02*
X107075827Y-73936009D01*
X107075827Y-73936009D02*
X106875827Y-73936009D01*
X107447255Y-74174104D02*
X107732970Y-74174104D01*
X107390112Y-74459819D02*
X107590112Y-73459819D01*
X107590112Y-73459819D02*
X107790112Y-74459819D01*
X107904398Y-73459819D02*
X108247256Y-73459819D01*
X108075827Y-74459819D02*
X108075827Y-73459819D01*
X108304399Y-74555057D02*
X108761541Y-74555057D01*
X108904399Y-74459819D02*
X108904399Y-73459819D01*
X108904399Y-73459819D02*
X109104399Y-74174104D01*
X109104399Y-74174104D02*
X109304399Y-73459819D01*
X109304399Y-73459819D02*
X109304399Y-74459819D01*
X109397255Y-78089819D02*
X109111541Y-78089819D01*
X109111541Y-78089819D02*
X109111541Y-77089819D01*
X109454398Y-78185057D02*
X109911540Y-78185057D01*
X110397255Y-78089819D02*
X110197255Y-77613628D01*
X110054398Y-78089819D02*
X110054398Y-77089819D01*
X110054398Y-77089819D02*
X110282969Y-77089819D01*
X110282969Y-77089819D02*
X110340112Y-77137438D01*
X110340112Y-77137438D02*
X110368683Y-77185057D01*
X110368683Y-77185057D02*
X110397255Y-77280295D01*
X110397255Y-77280295D02*
X110397255Y-77423152D01*
X110397255Y-77423152D02*
X110368683Y-77518390D01*
X110368683Y-77518390D02*
X110340112Y-77566009D01*
X110340112Y-77566009D02*
X110282969Y-77613628D01*
X110282969Y-77613628D02*
X110054398Y-77613628D01*
X110654398Y-78089819D02*
X110654398Y-77089819D01*
X110654398Y-77089819D02*
X110797255Y-77089819D01*
X110797255Y-77089819D02*
X110882969Y-77137438D01*
X110882969Y-77137438D02*
X110940112Y-77232676D01*
X110940112Y-77232676D02*
X110968683Y-77327914D01*
X110968683Y-77327914D02*
X110997255Y-77518390D01*
X110997255Y-77518390D02*
X110997255Y-77661247D01*
X110997255Y-77661247D02*
X110968683Y-77851723D01*
X110968683Y-77851723D02*
X110940112Y-77946961D01*
X110940112Y-77946961D02*
X110882969Y-78042200D01*
X110882969Y-78042200D02*
X110797255Y-78089819D01*
X110797255Y-78089819D02*
X110654398Y-78089819D01*
X111368683Y-77613628D02*
X111368683Y-78089819D01*
X111168683Y-77089819D02*
X111368683Y-77613628D01*
X111368683Y-77613628D02*
X111568683Y-77089819D01*
X110764398Y-74454580D02*
X110735826Y-74502200D01*
X110735826Y-74502200D02*
X110650112Y-74549819D01*
X110650112Y-74549819D02*
X110592969Y-74549819D01*
X110592969Y-74549819D02*
X110507255Y-74502200D01*
X110507255Y-74502200D02*
X110450112Y-74406961D01*
X110450112Y-74406961D02*
X110421541Y-74311723D01*
X110421541Y-74311723D02*
X110392969Y-74121247D01*
X110392969Y-74121247D02*
X110392969Y-73978390D01*
X110392969Y-73978390D02*
X110421541Y-73787914D01*
X110421541Y-73787914D02*
X110450112Y-73692676D01*
X110450112Y-73692676D02*
X110507255Y-73597438D01*
X110507255Y-73597438D02*
X110592969Y-73549819D01*
X110592969Y-73549819D02*
X110650112Y-73549819D01*
X110650112Y-73549819D02*
X110735826Y-73597438D01*
X110735826Y-73597438D02*
X110764398Y-73645057D01*
X110992969Y-74502200D02*
X111078684Y-74549819D01*
X111078684Y-74549819D02*
X111221541Y-74549819D01*
X111221541Y-74549819D02*
X111278684Y-74502200D01*
X111278684Y-74502200D02*
X111307255Y-74454580D01*
X111307255Y-74454580D02*
X111335826Y-74359342D01*
X111335826Y-74359342D02*
X111335826Y-74264104D01*
X111335826Y-74264104D02*
X111307255Y-74168866D01*
X111307255Y-74168866D02*
X111278684Y-74121247D01*
X111278684Y-74121247D02*
X111221541Y-74073628D01*
X111221541Y-74073628D02*
X111107255Y-74026009D01*
X111107255Y-74026009D02*
X111050112Y-73978390D01*
X111050112Y-73978390D02*
X111021541Y-73930771D01*
X111021541Y-73930771D02*
X110992969Y-73835533D01*
X110992969Y-73835533D02*
X110992969Y-73740295D01*
X110992969Y-73740295D02*
X111021541Y-73645057D01*
X111021541Y-73645057D02*
X111050112Y-73597438D01*
X111050112Y-73597438D02*
X111107255Y-73549819D01*
X111107255Y-73549819D02*
X111250112Y-73549819D01*
X111250112Y-73549819D02*
X111335826Y-73597438D01*
X112115826Y-77089819D02*
X112315826Y-78089819D01*
X112315826Y-78089819D02*
X112515826Y-77089819D01*
X112915827Y-77566009D02*
X113001541Y-77613628D01*
X113001541Y-77613628D02*
X113030112Y-77661247D01*
X113030112Y-77661247D02*
X113058684Y-77756485D01*
X113058684Y-77756485D02*
X113058684Y-77899342D01*
X113058684Y-77899342D02*
X113030112Y-77994580D01*
X113030112Y-77994580D02*
X113001541Y-78042200D01*
X113001541Y-78042200D02*
X112944398Y-78089819D01*
X112944398Y-78089819D02*
X112715827Y-78089819D01*
X112715827Y-78089819D02*
X112715827Y-77089819D01*
X112715827Y-77089819D02*
X112915827Y-77089819D01*
X112915827Y-77089819D02*
X112972970Y-77137438D01*
X112972970Y-77137438D02*
X113001541Y-77185057D01*
X113001541Y-77185057D02*
X113030112Y-77280295D01*
X113030112Y-77280295D02*
X113030112Y-77375533D01*
X113030112Y-77375533D02*
X113001541Y-77470771D01*
X113001541Y-77470771D02*
X112972970Y-77518390D01*
X112972970Y-77518390D02*
X112915827Y-77566009D01*
X112915827Y-77566009D02*
X112715827Y-77566009D01*
X113287255Y-77804104D02*
X113572970Y-77804104D01*
X113230112Y-78089819D02*
X113430112Y-77089819D01*
X113430112Y-77089819D02*
X113630112Y-78089819D01*
X113744398Y-77089819D02*
X114087256Y-77089819D01*
X113915827Y-78089819D02*
X113915827Y-77089819D01*
X114144399Y-78185057D02*
X114601541Y-78185057D01*
X114744399Y-78089819D02*
X114744399Y-77089819D01*
X114744399Y-77089819D02*
X114944399Y-77804104D01*
X114944399Y-77804104D02*
X115144399Y-77089819D01*
X115144399Y-77089819D02*
X115144399Y-78089819D01*
X112884398Y-74424580D02*
X112855826Y-74472200D01*
X112855826Y-74472200D02*
X112770112Y-74519819D01*
X112770112Y-74519819D02*
X112712969Y-74519819D01*
X112712969Y-74519819D02*
X112627255Y-74472200D01*
X112627255Y-74472200D02*
X112570112Y-74376961D01*
X112570112Y-74376961D02*
X112541541Y-74281723D01*
X112541541Y-74281723D02*
X112512969Y-74091247D01*
X112512969Y-74091247D02*
X112512969Y-73948390D01*
X112512969Y-73948390D02*
X112541541Y-73757914D01*
X112541541Y-73757914D02*
X112570112Y-73662676D01*
X112570112Y-73662676D02*
X112627255Y-73567438D01*
X112627255Y-73567438D02*
X112712969Y-73519819D01*
X112712969Y-73519819D02*
X112770112Y-73519819D01*
X112770112Y-73519819D02*
X112855826Y-73567438D01*
X112855826Y-73567438D02*
X112884398Y-73615057D01*
X113427255Y-74519819D02*
X113141541Y-74519819D01*
X113141541Y-74519819D02*
X113141541Y-73519819D01*
X113627255Y-74519819D02*
X113627255Y-73519819D01*
X113970112Y-74519819D02*
X113712969Y-73948390D01*
X113970112Y-73519819D02*
X113627255Y-74091247D01*
X114891541Y-74519819D02*
X114891541Y-73519819D01*
X114891541Y-73519819D02*
X115091541Y-74234104D01*
X115091541Y-74234104D02*
X115291541Y-73519819D01*
X115291541Y-73519819D02*
X115291541Y-74519819D01*
X115691540Y-73519819D02*
X115805826Y-73519819D01*
X115805826Y-73519819D02*
X115862969Y-73567438D01*
X115862969Y-73567438D02*
X115920112Y-73662676D01*
X115920112Y-73662676D02*
X115948683Y-73853152D01*
X115948683Y-73853152D02*
X115948683Y-74186485D01*
X115948683Y-74186485D02*
X115920112Y-74376961D01*
X115920112Y-74376961D02*
X115862969Y-74472200D01*
X115862969Y-74472200D02*
X115805826Y-74519819D01*
X115805826Y-74519819D02*
X115691540Y-74519819D01*
X115691540Y-74519819D02*
X115634398Y-74472200D01*
X115634398Y-74472200D02*
X115577255Y-74376961D01*
X115577255Y-74376961D02*
X115548683Y-74186485D01*
X115548683Y-74186485D02*
X115548683Y-73853152D01*
X115548683Y-73853152D02*
X115577255Y-73662676D01*
X115577255Y-73662676D02*
X115634398Y-73567438D01*
X115634398Y-73567438D02*
X115691540Y-73519819D01*
X116177254Y-74472200D02*
X116262969Y-74519819D01*
X116262969Y-74519819D02*
X116405826Y-74519819D01*
X116405826Y-74519819D02*
X116462969Y-74472200D01*
X116462969Y-74472200D02*
X116491540Y-74424580D01*
X116491540Y-74424580D02*
X116520111Y-74329342D01*
X116520111Y-74329342D02*
X116520111Y-74234104D01*
X116520111Y-74234104D02*
X116491540Y-74138866D01*
X116491540Y-74138866D02*
X116462969Y-74091247D01*
X116462969Y-74091247D02*
X116405826Y-74043628D01*
X116405826Y-74043628D02*
X116291540Y-73996009D01*
X116291540Y-73996009D02*
X116234397Y-73948390D01*
X116234397Y-73948390D02*
X116205826Y-73900771D01*
X116205826Y-73900771D02*
X116177254Y-73805533D01*
X116177254Y-73805533D02*
X116177254Y-73710295D01*
X116177254Y-73710295D02*
X116205826Y-73615057D01*
X116205826Y-73615057D02*
X116234397Y-73567438D01*
X116234397Y-73567438D02*
X116291540Y-73519819D01*
X116291540Y-73519819D02*
X116434397Y-73519819D01*
X116434397Y-73519819D02*
X116520111Y-73567438D01*
X116777255Y-74519819D02*
X116777255Y-73519819D01*
X117441541Y-74519819D02*
X117441541Y-73519819D01*
X117441541Y-73519819D02*
X117641541Y-74234104D01*
X117641541Y-74234104D02*
X117841541Y-73519819D01*
X117841541Y-73519819D02*
X117841541Y-74519819D01*
X118127255Y-74519819D02*
X118127255Y-73519819D01*
X118384397Y-74472200D02*
X118470112Y-74519819D01*
X118470112Y-74519819D02*
X118612969Y-74519819D01*
X118612969Y-74519819D02*
X118670112Y-74472200D01*
X118670112Y-74472200D02*
X118698683Y-74424580D01*
X118698683Y-74424580D02*
X118727254Y-74329342D01*
X118727254Y-74329342D02*
X118727254Y-74234104D01*
X118727254Y-74234104D02*
X118698683Y-74138866D01*
X118698683Y-74138866D02*
X118670112Y-74091247D01*
X118670112Y-74091247D02*
X118612969Y-74043628D01*
X118612969Y-74043628D02*
X118498683Y-73996009D01*
X118498683Y-73996009D02*
X118441540Y-73948390D01*
X118441540Y-73948390D02*
X118412969Y-73900771D01*
X118412969Y-73900771D02*
X118384397Y-73805533D01*
X118384397Y-73805533D02*
X118384397Y-73710295D01*
X118384397Y-73710295D02*
X118412969Y-73615057D01*
X118412969Y-73615057D02*
X118441540Y-73567438D01*
X118441540Y-73567438D02*
X118498683Y-73519819D01*
X118498683Y-73519819D02*
X118641540Y-73519819D01*
X118641540Y-73519819D02*
X118727254Y-73567438D01*
X119098683Y-73519819D02*
X119212969Y-73519819D01*
X119212969Y-73519819D02*
X119270112Y-73567438D01*
X119270112Y-73567438D02*
X119327255Y-73662676D01*
X119327255Y-73662676D02*
X119355826Y-73853152D01*
X119355826Y-73853152D02*
X119355826Y-74186485D01*
X119355826Y-74186485D02*
X119327255Y-74376961D01*
X119327255Y-74376961D02*
X119270112Y-74472200D01*
X119270112Y-74472200D02*
X119212969Y-74519819D01*
X119212969Y-74519819D02*
X119098683Y-74519819D01*
X119098683Y-74519819D02*
X119041541Y-74472200D01*
X119041541Y-74472200D02*
X118984398Y-74376961D01*
X118984398Y-74376961D02*
X118955826Y-74186485D01*
X118955826Y-74186485D02*
X118955826Y-73853152D01*
X118955826Y-73853152D02*
X118984398Y-73662676D01*
X118984398Y-73662676D02*
X119041541Y-73567438D01*
X119041541Y-73567438D02*
X119098683Y-73519819D01*
X103958866Y-85298458D02*
X103958866Y-84841316D01*
X104339819Y-85069887D02*
X103577914Y-85069887D01*
X103339819Y-84269887D02*
X103339819Y-84555601D01*
X103339819Y-84555601D02*
X103816009Y-84584173D01*
X103816009Y-84584173D02*
X103768390Y-84555601D01*
X103768390Y-84555601D02*
X103720771Y-84498459D01*
X103720771Y-84498459D02*
X103720771Y-84355601D01*
X103720771Y-84355601D02*
X103768390Y-84298459D01*
X103768390Y-84298459D02*
X103816009Y-84269887D01*
X103816009Y-84269887D02*
X103911247Y-84241316D01*
X103911247Y-84241316D02*
X104149342Y-84241316D01*
X104149342Y-84241316D02*
X104244580Y-84269887D01*
X104244580Y-84269887D02*
X104292200Y-84298459D01*
X104292200Y-84298459D02*
X104339819Y-84355601D01*
X104339819Y-84355601D02*
X104339819Y-84498459D01*
X104339819Y-84498459D02*
X104292200Y-84555601D01*
X104292200Y-84555601D02*
X104244580Y-84584173D01*
X103339819Y-84069887D02*
X104339819Y-83869887D01*
X104339819Y-83869887D02*
X103339819Y-83669887D01*
X103417438Y-75944173D02*
X103369819Y-76001316D01*
X103369819Y-76001316D02*
X103369819Y-76087030D01*
X103369819Y-76087030D02*
X103417438Y-76172744D01*
X103417438Y-76172744D02*
X103512676Y-76229887D01*
X103512676Y-76229887D02*
X103607914Y-76258458D01*
X103607914Y-76258458D02*
X103798390Y-76287030D01*
X103798390Y-76287030D02*
X103941247Y-76287030D01*
X103941247Y-76287030D02*
X104131723Y-76258458D01*
X104131723Y-76258458D02*
X104226961Y-76229887D01*
X104226961Y-76229887D02*
X104322200Y-76172744D01*
X104322200Y-76172744D02*
X104369819Y-76087030D01*
X104369819Y-76087030D02*
X104369819Y-76029887D01*
X104369819Y-76029887D02*
X104322200Y-75944173D01*
X104322200Y-75944173D02*
X104274580Y-75915601D01*
X104274580Y-75915601D02*
X103941247Y-75915601D01*
X103941247Y-75915601D02*
X103941247Y-76029887D01*
X104369819Y-75658458D02*
X103369819Y-75658458D01*
X103369819Y-75658458D02*
X104369819Y-75315601D01*
X104369819Y-75315601D02*
X103369819Y-75315601D01*
X104369819Y-75029887D02*
X103369819Y-75029887D01*
X103369819Y-75029887D02*
X103369819Y-74887030D01*
X103369819Y-74887030D02*
X103417438Y-74801316D01*
X103417438Y-74801316D02*
X103512676Y-74744173D01*
X103512676Y-74744173D02*
X103607914Y-74715602D01*
X103607914Y-74715602D02*
X103798390Y-74687030D01*
X103798390Y-74687030D02*
X103941247Y-74687030D01*
X103941247Y-74687030D02*
X104131723Y-74715602D01*
X104131723Y-74715602D02*
X104226961Y-74744173D01*
X104226961Y-74744173D02*
X104322200Y-74801316D01*
X104322200Y-74801316D02*
X104369819Y-74887030D01*
X104369819Y-74887030D02*
X104369819Y-75029887D01*
X103417438Y-87744173D02*
X103369819Y-87801316D01*
X103369819Y-87801316D02*
X103369819Y-87887030D01*
X103369819Y-87887030D02*
X103417438Y-87972744D01*
X103417438Y-87972744D02*
X103512676Y-88029887D01*
X103512676Y-88029887D02*
X103607914Y-88058458D01*
X103607914Y-88058458D02*
X103798390Y-88087030D01*
X103798390Y-88087030D02*
X103941247Y-88087030D01*
X103941247Y-88087030D02*
X104131723Y-88058458D01*
X104131723Y-88058458D02*
X104226961Y-88029887D01*
X104226961Y-88029887D02*
X104322200Y-87972744D01*
X104322200Y-87972744D02*
X104369819Y-87887030D01*
X104369819Y-87887030D02*
X104369819Y-87829887D01*
X104369819Y-87829887D02*
X104322200Y-87744173D01*
X104322200Y-87744173D02*
X104274580Y-87715601D01*
X104274580Y-87715601D02*
X103941247Y-87715601D01*
X103941247Y-87715601D02*
X103941247Y-87829887D01*
X104369819Y-87458458D02*
X103369819Y-87458458D01*
X103369819Y-87458458D02*
X104369819Y-87115601D01*
X104369819Y-87115601D02*
X103369819Y-87115601D01*
X104369819Y-86829887D02*
X103369819Y-86829887D01*
X103369819Y-86829887D02*
X103369819Y-86687030D01*
X103369819Y-86687030D02*
X103417438Y-86601316D01*
X103417438Y-86601316D02*
X103512676Y-86544173D01*
X103512676Y-86544173D02*
X103607914Y-86515602D01*
X103607914Y-86515602D02*
X103798390Y-86487030D01*
X103798390Y-86487030D02*
X103941247Y-86487030D01*
X103941247Y-86487030D02*
X104131723Y-86515602D01*
X104131723Y-86515602D02*
X104226961Y-86544173D01*
X104226961Y-86544173D02*
X104322200Y-86601316D01*
X104322200Y-86601316D02*
X104369819Y-86687030D01*
X104369819Y-86687030D02*
X104369819Y-86829887D01*
X107117438Y-87644173D02*
X107069819Y-87701316D01*
X107069819Y-87701316D02*
X107069819Y-87787030D01*
X107069819Y-87787030D02*
X107117438Y-87872744D01*
X107117438Y-87872744D02*
X107212676Y-87929887D01*
X107212676Y-87929887D02*
X107307914Y-87958458D01*
X107307914Y-87958458D02*
X107498390Y-87987030D01*
X107498390Y-87987030D02*
X107641247Y-87987030D01*
X107641247Y-87987030D02*
X107831723Y-87958458D01*
X107831723Y-87958458D02*
X107926961Y-87929887D01*
X107926961Y-87929887D02*
X108022200Y-87872744D01*
X108022200Y-87872744D02*
X108069819Y-87787030D01*
X108069819Y-87787030D02*
X108069819Y-87729887D01*
X108069819Y-87729887D02*
X108022200Y-87644173D01*
X108022200Y-87644173D02*
X107974580Y-87615601D01*
X107974580Y-87615601D02*
X107641247Y-87615601D01*
X107641247Y-87615601D02*
X107641247Y-87729887D01*
X108069819Y-87358458D02*
X107069819Y-87358458D01*
X107069819Y-87358458D02*
X108069819Y-87015601D01*
X108069819Y-87015601D02*
X107069819Y-87015601D01*
X108069819Y-86729887D02*
X107069819Y-86729887D01*
X107069819Y-86729887D02*
X107069819Y-86587030D01*
X107069819Y-86587030D02*
X107117438Y-86501316D01*
X107117438Y-86501316D02*
X107212676Y-86444173D01*
X107212676Y-86444173D02*
X107307914Y-86415602D01*
X107307914Y-86415602D02*
X107498390Y-86387030D01*
X107498390Y-86387030D02*
X107641247Y-86387030D01*
X107641247Y-86387030D02*
X107831723Y-86415602D01*
X107831723Y-86415602D02*
X107926961Y-86444173D01*
X107926961Y-86444173D02*
X108022200Y-86501316D01*
X108022200Y-86501316D02*
X108069819Y-86587030D01*
X108069819Y-86587030D02*
X108069819Y-86729887D01*
X111487438Y-84984172D02*
X111439819Y-85041315D01*
X111439819Y-85041315D02*
X111439819Y-85127029D01*
X111439819Y-85127029D02*
X111487438Y-85212743D01*
X111487438Y-85212743D02*
X111582676Y-85269886D01*
X111582676Y-85269886D02*
X111677914Y-85298457D01*
X111677914Y-85298457D02*
X111868390Y-85327029D01*
X111868390Y-85327029D02*
X112011247Y-85327029D01*
X112011247Y-85327029D02*
X112201723Y-85298457D01*
X112201723Y-85298457D02*
X112296961Y-85269886D01*
X112296961Y-85269886D02*
X112392200Y-85212743D01*
X112392200Y-85212743D02*
X112439819Y-85127029D01*
X112439819Y-85127029D02*
X112439819Y-85069886D01*
X112439819Y-85069886D02*
X112392200Y-84984172D01*
X112392200Y-84984172D02*
X112344580Y-84955600D01*
X112344580Y-84955600D02*
X112011247Y-84955600D01*
X112011247Y-84955600D02*
X112011247Y-85069886D01*
X112439819Y-84698457D02*
X111439819Y-84698457D01*
X111439819Y-84698457D02*
X112439819Y-84355600D01*
X112439819Y-84355600D02*
X111439819Y-84355600D01*
X112439819Y-84069886D02*
X111439819Y-84069886D01*
X111439819Y-84069886D02*
X111439819Y-83927029D01*
X111439819Y-83927029D02*
X111487438Y-83841315D01*
X111487438Y-83841315D02*
X111582676Y-83784172D01*
X111582676Y-83784172D02*
X111677914Y-83755601D01*
X111677914Y-83755601D02*
X111868390Y-83727029D01*
X111868390Y-83727029D02*
X112011247Y-83727029D01*
X112011247Y-83727029D02*
X112201723Y-83755601D01*
X112201723Y-83755601D02*
X112296961Y-83784172D01*
X112296961Y-83784172D02*
X112392200Y-83841315D01*
X112392200Y-83841315D02*
X112439819Y-83927029D01*
X112439819Y-83927029D02*
X112439819Y-84069886D01*
X115687438Y-84984172D02*
X115639819Y-85041315D01*
X115639819Y-85041315D02*
X115639819Y-85127029D01*
X115639819Y-85127029D02*
X115687438Y-85212743D01*
X115687438Y-85212743D02*
X115782676Y-85269886D01*
X115782676Y-85269886D02*
X115877914Y-85298457D01*
X115877914Y-85298457D02*
X116068390Y-85327029D01*
X116068390Y-85327029D02*
X116211247Y-85327029D01*
X116211247Y-85327029D02*
X116401723Y-85298457D01*
X116401723Y-85298457D02*
X116496961Y-85269886D01*
X116496961Y-85269886D02*
X116592200Y-85212743D01*
X116592200Y-85212743D02*
X116639819Y-85127029D01*
X116639819Y-85127029D02*
X116639819Y-85069886D01*
X116639819Y-85069886D02*
X116592200Y-84984172D01*
X116592200Y-84984172D02*
X116544580Y-84955600D01*
X116544580Y-84955600D02*
X116211247Y-84955600D01*
X116211247Y-84955600D02*
X116211247Y-85069886D01*
X116639819Y-84698457D02*
X115639819Y-84698457D01*
X115639819Y-84698457D02*
X116639819Y-84355600D01*
X116639819Y-84355600D02*
X115639819Y-84355600D01*
X116639819Y-84069886D02*
X115639819Y-84069886D01*
X115639819Y-84069886D02*
X115639819Y-83927029D01*
X115639819Y-83927029D02*
X115687438Y-83841315D01*
X115687438Y-83841315D02*
X115782676Y-83784172D01*
X115782676Y-83784172D02*
X115877914Y-83755601D01*
X115877914Y-83755601D02*
X116068390Y-83727029D01*
X116068390Y-83727029D02*
X116211247Y-83727029D01*
X116211247Y-83727029D02*
X116401723Y-83755601D01*
X116401723Y-83755601D02*
X116496961Y-83784172D01*
X116496961Y-83784172D02*
X116592200Y-83841315D01*
X116592200Y-83841315D02*
X116639819Y-83927029D01*
X116639819Y-83927029D02*
X116639819Y-84069886D01*
X68969819Y-86258458D02*
X67969819Y-86258458D01*
X68969819Y-85972744D02*
X67969819Y-85972744D01*
X68588866Y-85915602D02*
X68969819Y-85744173D01*
X68303152Y-85744173D02*
X68684104Y-85972744D01*
X68922200Y-85258459D02*
X68969819Y-85315602D01*
X68969819Y-85315602D02*
X68969819Y-85429888D01*
X68969819Y-85429888D02*
X68922200Y-85487030D01*
X68922200Y-85487030D02*
X68826961Y-85515602D01*
X68826961Y-85515602D02*
X68446009Y-85515602D01*
X68446009Y-85515602D02*
X68350771Y-85487030D01*
X68350771Y-85487030D02*
X68303152Y-85429888D01*
X68303152Y-85429888D02*
X68303152Y-85315602D01*
X68303152Y-85315602D02*
X68350771Y-85258459D01*
X68350771Y-85258459D02*
X68446009Y-85229888D01*
X68446009Y-85229888D02*
X68541247Y-85229888D01*
X68541247Y-85229888D02*
X68636485Y-85515602D01*
X68969819Y-84972744D02*
X68303152Y-84972744D01*
X68493628Y-84972744D02*
X68398390Y-84944173D01*
X68398390Y-84944173D02*
X68350771Y-84915602D01*
X68350771Y-84915602D02*
X68303152Y-84858459D01*
X68303152Y-84858459D02*
X68303152Y-84801316D01*
X68969819Y-84144172D02*
X67969819Y-84144172D01*
X67969819Y-84144172D02*
X67969819Y-84001315D01*
X67969819Y-84001315D02*
X68017438Y-83915601D01*
X68017438Y-83915601D02*
X68112676Y-83858458D01*
X68112676Y-83858458D02*
X68207914Y-83829887D01*
X68207914Y-83829887D02*
X68398390Y-83801315D01*
X68398390Y-83801315D02*
X68541247Y-83801315D01*
X68541247Y-83801315D02*
X68731723Y-83829887D01*
X68731723Y-83829887D02*
X68826961Y-83858458D01*
X68826961Y-83858458D02*
X68922200Y-83915601D01*
X68922200Y-83915601D02*
X68969819Y-84001315D01*
X68969819Y-84001315D02*
X68969819Y-84144172D01*
X68922200Y-83315601D02*
X68969819Y-83372744D01*
X68969819Y-83372744D02*
X68969819Y-83487030D01*
X68969819Y-83487030D02*
X68922200Y-83544172D01*
X68922200Y-83544172D02*
X68826961Y-83572744D01*
X68826961Y-83572744D02*
X68446009Y-83572744D01*
X68446009Y-83572744D02*
X68350771Y-83544172D01*
X68350771Y-83544172D02*
X68303152Y-83487030D01*
X68303152Y-83487030D02*
X68303152Y-83372744D01*
X68303152Y-83372744D02*
X68350771Y-83315601D01*
X68350771Y-83315601D02*
X68446009Y-83287030D01*
X68446009Y-83287030D02*
X68541247Y-83287030D01*
X68541247Y-83287030D02*
X68636485Y-83572744D01*
X68969819Y-82944172D02*
X68922200Y-83001315D01*
X68922200Y-83001315D02*
X68826961Y-83029886D01*
X68826961Y-83029886D02*
X67969819Y-83029886D01*
X68874580Y-81915600D02*
X68922200Y-81944172D01*
X68922200Y-81944172D02*
X68969819Y-82029886D01*
X68969819Y-82029886D02*
X68969819Y-82087029D01*
X68969819Y-82087029D02*
X68922200Y-82172743D01*
X68922200Y-82172743D02*
X68826961Y-82229886D01*
X68826961Y-82229886D02*
X68731723Y-82258457D01*
X68731723Y-82258457D02*
X68541247Y-82287029D01*
X68541247Y-82287029D02*
X68398390Y-82287029D01*
X68398390Y-82287029D02*
X68207914Y-82258457D01*
X68207914Y-82258457D02*
X68112676Y-82229886D01*
X68112676Y-82229886D02*
X68017438Y-82172743D01*
X68017438Y-82172743D02*
X67969819Y-82087029D01*
X67969819Y-82087029D02*
X67969819Y-82029886D01*
X67969819Y-82029886D02*
X68017438Y-81944172D01*
X68017438Y-81944172D02*
X68065057Y-81915600D01*
X68969819Y-81401315D02*
X68446009Y-81401315D01*
X68446009Y-81401315D02*
X68350771Y-81429886D01*
X68350771Y-81429886D02*
X68303152Y-81487029D01*
X68303152Y-81487029D02*
X68303152Y-81601315D01*
X68303152Y-81601315D02*
X68350771Y-81658457D01*
X68922200Y-81401315D02*
X68969819Y-81458457D01*
X68969819Y-81458457D02*
X68969819Y-81601315D01*
X68969819Y-81601315D02*
X68922200Y-81658457D01*
X68922200Y-81658457D02*
X68826961Y-81687029D01*
X68826961Y-81687029D02*
X68731723Y-81687029D01*
X68731723Y-81687029D02*
X68636485Y-81658457D01*
X68636485Y-81658457D02*
X68588866Y-81601315D01*
X68588866Y-81601315D02*
X68588866Y-81458457D01*
X68588866Y-81458457D02*
X68541247Y-81401315D01*
X68969819Y-81115600D02*
X68303152Y-81115600D01*
X68398390Y-81115600D02*
X68350771Y-81087029D01*
X68350771Y-81087029D02*
X68303152Y-81029886D01*
X68303152Y-81029886D02*
X68303152Y-80944172D01*
X68303152Y-80944172D02*
X68350771Y-80887029D01*
X68350771Y-80887029D02*
X68446009Y-80858458D01*
X68446009Y-80858458D02*
X68969819Y-80858458D01*
X68446009Y-80858458D02*
X68350771Y-80829886D01*
X68350771Y-80829886D02*
X68303152Y-80772743D01*
X68303152Y-80772743D02*
X68303152Y-80687029D01*
X68303152Y-80687029D02*
X68350771Y-80629886D01*
X68350771Y-80629886D02*
X68446009Y-80601315D01*
X68446009Y-80601315D02*
X68969819Y-80601315D01*
X68303152Y-80315600D02*
X69303152Y-80315600D01*
X68350771Y-80315600D02*
X68303152Y-80258458D01*
X68303152Y-80258458D02*
X68303152Y-80144172D01*
X68303152Y-80144172D02*
X68350771Y-80087029D01*
X68350771Y-80087029D02*
X68398390Y-80058458D01*
X68398390Y-80058458D02*
X68493628Y-80029886D01*
X68493628Y-80029886D02*
X68779342Y-80029886D01*
X68779342Y-80029886D02*
X68874580Y-80058458D01*
X68874580Y-80058458D02*
X68922200Y-80087029D01*
X68922200Y-80087029D02*
X68969819Y-80144172D01*
X68969819Y-80144172D02*
X68969819Y-80258458D01*
X68969819Y-80258458D02*
X68922200Y-80315600D01*
X68969819Y-79687029D02*
X68922200Y-79744172D01*
X68922200Y-79744172D02*
X68874580Y-79772743D01*
X68874580Y-79772743D02*
X68779342Y-79801315D01*
X68779342Y-79801315D02*
X68493628Y-79801315D01*
X68493628Y-79801315D02*
X68398390Y-79772743D01*
X68398390Y-79772743D02*
X68350771Y-79744172D01*
X68350771Y-79744172D02*
X68303152Y-79687029D01*
X68303152Y-79687029D02*
X68303152Y-79601315D01*
X68303152Y-79601315D02*
X68350771Y-79544172D01*
X68350771Y-79544172D02*
X68398390Y-79515601D01*
X68398390Y-79515601D02*
X68493628Y-79487029D01*
X68493628Y-79487029D02*
X68779342Y-79487029D01*
X68779342Y-79487029D02*
X68874580Y-79515601D01*
X68874580Y-79515601D02*
X68922200Y-79544172D01*
X68922200Y-79544172D02*
X68969819Y-79601315D01*
X68969819Y-79601315D02*
X68969819Y-79687029D01*
X104322200Y-80987030D02*
X104369819Y-80901316D01*
X104369819Y-80901316D02*
X104369819Y-80758458D01*
X104369819Y-80758458D02*
X104322200Y-80701316D01*
X104322200Y-80701316D02*
X104274580Y-80672744D01*
X104274580Y-80672744D02*
X104179342Y-80644173D01*
X104179342Y-80644173D02*
X104084104Y-80644173D01*
X104084104Y-80644173D02*
X103988866Y-80672744D01*
X103988866Y-80672744D02*
X103941247Y-80701316D01*
X103941247Y-80701316D02*
X103893628Y-80758458D01*
X103893628Y-80758458D02*
X103846009Y-80872744D01*
X103846009Y-80872744D02*
X103798390Y-80929887D01*
X103798390Y-80929887D02*
X103750771Y-80958458D01*
X103750771Y-80958458D02*
X103655533Y-80987030D01*
X103655533Y-80987030D02*
X103560295Y-80987030D01*
X103560295Y-80987030D02*
X103465057Y-80958458D01*
X103465057Y-80958458D02*
X103417438Y-80929887D01*
X103417438Y-80929887D02*
X103369819Y-80872744D01*
X103369819Y-80872744D02*
X103369819Y-80729887D01*
X103369819Y-80729887D02*
X103417438Y-80644173D01*
X104369819Y-80387029D02*
X103369819Y-80387029D01*
X103369819Y-80387029D02*
X103369819Y-80158458D01*
X103369819Y-80158458D02*
X103417438Y-80101315D01*
X103417438Y-80101315D02*
X103465057Y-80072744D01*
X103465057Y-80072744D02*
X103560295Y-80044172D01*
X103560295Y-80044172D02*
X103703152Y-80044172D01*
X103703152Y-80044172D02*
X103798390Y-80072744D01*
X103798390Y-80072744D02*
X103846009Y-80101315D01*
X103846009Y-80101315D02*
X103893628Y-80158458D01*
X103893628Y-80158458D02*
X103893628Y-80387029D01*
X104084104Y-79815601D02*
X104084104Y-79529887D01*
X104369819Y-79872744D02*
X103369819Y-79672744D01*
X103369819Y-79672744D02*
X104369819Y-79472744D01*
X104369819Y-78929886D02*
X103893628Y-79129886D01*
X104369819Y-79272743D02*
X103369819Y-79272743D01*
X103369819Y-79272743D02*
X103369819Y-79044172D01*
X103369819Y-79044172D02*
X103417438Y-78987029D01*
X103417438Y-78987029D02*
X103465057Y-78958458D01*
X103465057Y-78958458D02*
X103560295Y-78929886D01*
X103560295Y-78929886D02*
X103703152Y-78929886D01*
X103703152Y-78929886D02*
X103798390Y-78958458D01*
X103798390Y-78958458D02*
X103846009Y-78987029D01*
X103846009Y-78987029D02*
X103893628Y-79044172D01*
X103893628Y-79044172D02*
X103893628Y-79272743D01*
X103846009Y-78672743D02*
X103846009Y-78472743D01*
X104369819Y-78387029D02*
X104369819Y-78672743D01*
X104369819Y-78672743D02*
X103369819Y-78672743D01*
X103369819Y-78672743D02*
X103369819Y-78387029D01*
%TO.C,U4*%
D12*
X70674998Y-110025001D02*
X70674998Y-110149999D01*
X70675001Y-109175000D02*
X70675001Y-109274999D01*
X70799999Y-109149998D02*
X70675001Y-109149998D01*
X70799999Y-110149999D02*
X70700000Y-110149999D01*
X71650000Y-109150001D02*
X71550001Y-109150001D01*
X71674999Y-109900000D02*
X71674999Y-110125000D01*
X71674999Y-110125000D02*
X71674999Y-110150002D01*
X71674999Y-110150002D02*
X71425000Y-110150002D01*
X71675002Y-109150001D02*
X71675002Y-109274999D01*
%TO.C,U13*%
X88195567Y-57655001D02*
X88195567Y-57779999D01*
X88195570Y-56779998D02*
X88320568Y-56779998D01*
X88195570Y-56805000D02*
X88195570Y-56904999D01*
X88220569Y-57779999D02*
X88320568Y-57779999D01*
X88945569Y-56780001D02*
X89170569Y-56780001D01*
X89070570Y-57780002D02*
X89195568Y-57780002D01*
X89170569Y-56780001D02*
X89195571Y-56780001D01*
X89195568Y-57655001D02*
X89195568Y-57755000D01*
X89195571Y-56780001D02*
X89195571Y-57030000D01*
%TO.C,U5*%
X74499998Y-118069999D02*
X74499998Y-117945001D01*
X74500001Y-117069998D02*
X74750000Y-117069998D01*
X74500001Y-117095000D02*
X74500001Y-117069998D01*
X74500001Y-117320000D02*
X74500001Y-117095000D01*
X74525000Y-118069999D02*
X74624999Y-118069999D01*
X75375001Y-117070001D02*
X75475000Y-117070001D01*
X75375001Y-118070002D02*
X75499999Y-118070002D01*
X75499999Y-118045000D02*
X75499999Y-117945001D01*
X75500002Y-117194999D02*
X75500002Y-117070001D01*
%TO.C,J3*%
D13*
X95500000Y-78400000D02*
G75*
G02*
X95300000Y-78400000I-100000J0D01*
G01*
X95300000Y-78400000D02*
G75*
G02*
X95500000Y-78400000I100000J0D01*
G01*
D14*
X93650000Y-82210000D02*
X88650000Y-82210000D01*
X93650000Y-79045000D02*
X93650000Y-82210000D01*
X93650000Y-69510000D02*
X93650000Y-72675000D01*
X88650000Y-82210000D02*
X88650000Y-79045000D01*
X88650000Y-72675000D02*
X88650000Y-69510000D01*
X88650000Y-69510000D02*
X93650000Y-69510000D01*
%TO.C,U3*%
D13*
X73200000Y-112010000D02*
G75*
G02*
X73000000Y-112010000I-100000J0D01*
G01*
X73000000Y-112010000D02*
G75*
G02*
X73200000Y-112010000I100000J0D01*
G01*
D14*
X75350000Y-111035000D02*
X75350000Y-110735000D01*
X75350000Y-111035000D02*
X75050000Y-111035000D01*
X75350000Y-108035000D02*
X75350000Y-108335000D01*
X75350000Y-108035000D02*
X75050000Y-108035000D01*
X72350000Y-111035000D02*
X72650000Y-111035000D01*
X72350000Y-111035000D02*
X72350000Y-110735000D01*
X72350000Y-108035000D02*
X72650000Y-108035000D01*
X72350000Y-108035000D02*
X72350000Y-108335000D01*
%TO.C,R99*%
D15*
X84746359Y-82320000D02*
X85053641Y-82320000D01*
X84746359Y-83080000D02*
X85053641Y-83080000D01*
%TO.C,R38*%
X80541930Y-57225000D02*
X80849212Y-57225000D01*
X80541930Y-57985000D02*
X80849212Y-57985000D01*
%TO.C,R2*%
X76496359Y-114905000D02*
X76803641Y-114905000D01*
X76496359Y-115665000D02*
X76803641Y-115665000D01*
%TO.C,R39*%
X80541930Y-58205000D02*
X80849212Y-58205000D01*
X80541930Y-58965000D02*
X80849212Y-58965000D01*
%TO.C,R87*%
X71270000Y-75953641D02*
X71270000Y-75646359D01*
X72030000Y-75953641D02*
X72030000Y-75646359D01*
%TO.C,C58*%
X81885571Y-58484420D02*
X81885571Y-58765580D01*
X82905571Y-58484420D02*
X82905571Y-58765580D01*
%TO.C,R48*%
X86020000Y-72153641D02*
X86020000Y-71846359D01*
X86780000Y-72153641D02*
X86780000Y-71846359D01*
%TO.C,R81*%
X84636667Y-75136359D02*
X84636667Y-75443641D01*
X85396667Y-75136359D02*
X85396667Y-75443641D01*
%TO.C,C18*%
X70865000Y-108107836D02*
X70865000Y-107892164D01*
X71585000Y-108107836D02*
X71585000Y-107892164D01*
%TO.C,J2*%
X81710000Y-111950000D02*
X82960000Y-111950000D01*
X81710000Y-115050000D02*
X81710000Y-111950000D01*
X82960000Y-115050000D02*
X81710000Y-115050000D01*
X90703494Y-110835000D02*
X91136506Y-110835000D01*
X90920000Y-111210000D02*
X90703494Y-110835000D01*
X91136506Y-110835000D02*
X90920000Y-111210000D01*
X91280000Y-111950000D02*
X92530000Y-111950000D01*
X92530000Y-111950000D02*
X92530000Y-115050000D01*
X92530000Y-115050000D02*
X91280000Y-115050000D01*
%TO.C,FB3*%
X70640000Y-86962779D02*
X70640000Y-86637221D01*
X71660000Y-86962779D02*
X71660000Y-86637221D01*
%TO.C,U1*%
X72290000Y-113735000D02*
X72290000Y-115535000D01*
X75510000Y-114735000D02*
X75510000Y-113935000D01*
X75510000Y-114735000D02*
X75510000Y-115535000D01*
X74850000Y-112275000D02*
X74610000Y-111945000D01*
X75090000Y-111945000D01*
X74850000Y-112275000D01*
G36*
X74850000Y-112275000D02*
G01*
X74610000Y-111945000D01*
X75090000Y-111945000D01*
X74850000Y-112275000D01*
G37*
%TO.C,R8*%
X71006359Y-114285000D02*
X71313641Y-114285000D01*
X71006359Y-115045000D02*
X71313641Y-115045000D01*
%TO.C,R57*%
X72220000Y-75646359D02*
X72220000Y-75953641D01*
X72980000Y-75646359D02*
X72980000Y-75953641D01*
%TO.C,R35*%
X86220000Y-84856359D02*
X86220000Y-85163641D01*
X86980000Y-84856359D02*
X86980000Y-85163641D01*
%TO.C,C84*%
X82240000Y-86392164D02*
X82240000Y-86607836D01*
X82960000Y-86392164D02*
X82960000Y-86607836D01*
%TO.C,D1*%
X70120000Y-116600000D02*
X70120000Y-117900000D01*
X71920000Y-116600000D02*
X71920000Y-117900000D01*
D11*
X70585000Y-118500000D02*
G75*
G02*
X70435000Y-118500000I-75000J0D01*
G01*
X70435000Y-118500000D02*
G75*
G02*
X70585000Y-118500000I75000J0D01*
G01*
%TO.C,R97*%
D15*
X84746359Y-83270000D02*
X85053641Y-83270000D01*
X84746359Y-84030000D02*
X85053641Y-84030000D01*
%TO.C,C12*%
X73107836Y-118315000D02*
X72892164Y-118315000D01*
X73107836Y-119035000D02*
X72892164Y-119035000D01*
%TO.C,C65*%
X71990000Y-86142164D02*
X71990000Y-86357836D01*
X72710000Y-86142164D02*
X72710000Y-86357836D01*
%TO.C,R28*%
X69090000Y-117096359D02*
X69090000Y-117403641D01*
X69850000Y-117096359D02*
X69850000Y-117403641D01*
%TO.C,C59*%
X88360571Y-55261252D02*
X88360571Y-54738748D01*
X89830571Y-55261252D02*
X89830571Y-54738748D01*
%TO.C,R69*%
X80820000Y-75423641D02*
X80820000Y-75116359D01*
X81580000Y-75423641D02*
X81580000Y-75116359D01*
%TO.C,C22*%
X75777836Y-88490000D02*
X75562164Y-88490000D01*
X75777836Y-89210000D02*
X75562164Y-89210000D01*
%TO.C,R77*%
X81770000Y-75136359D02*
X81770000Y-75443641D01*
X82530000Y-75136359D02*
X82530000Y-75443641D01*
%TO.C,R89*%
X78920000Y-75423641D02*
X78920000Y-75116359D01*
X79680000Y-75423641D02*
X79680000Y-75116359D01*
%TO.C,FB4*%
X80062779Y-89840000D02*
X79737221Y-89840000D01*
X80062779Y-90860000D02*
X79737221Y-90860000D01*
%TO.C,C24*%
X78890000Y-92127836D02*
X78890000Y-91912164D01*
X79610000Y-92127836D02*
X79610000Y-91912164D01*
%TO.C,C87*%
X81800000Y-77807836D02*
X81800000Y-77592164D01*
X82520000Y-77807836D02*
X82520000Y-77592164D01*
%TO.C,TP6*%
X69570000Y-112250000D02*
G75*
G02*
X68170000Y-112250000I-700000J0D01*
G01*
X68170000Y-112250000D02*
G75*
G02*
X69570000Y-112250000I700000J0D01*
G01*
%TO.C,R30*%
X85970000Y-89636359D02*
X85970000Y-89943641D01*
X86730000Y-89636359D02*
X86730000Y-89943641D01*
%TO.C,R83*%
X79870000Y-75423641D02*
X79870000Y-75116359D01*
X80630000Y-75423641D02*
X80630000Y-75116359D01*
%TO.C,R65*%
X81720000Y-90396359D02*
X81720000Y-90703641D01*
X82480000Y-90396359D02*
X82480000Y-90703641D01*
%TO.C,R41*%
X79419212Y-56175000D02*
X79111930Y-56175000D01*
X79419212Y-56935000D02*
X79111930Y-56935000D01*
%TO.C,TP11*%
X84025000Y-109775000D02*
G75*
G02*
X82625000Y-109775000I-700000J0D01*
G01*
X82625000Y-109775000D02*
G75*
G02*
X84025000Y-109775000I700000J0D01*
G01*
%TO.C,C85*%
X75340000Y-75357836D02*
X75340000Y-75142164D01*
X76060000Y-75357836D02*
X76060000Y-75142164D01*
%TO.C,J5*%
D16*
X104128399Y-114073000D02*
X104128399Y-115161766D01*
X105250561Y-114073000D02*
X104128399Y-114073000D01*
X105365223Y-117298800D02*
X118334775Y-117298800D01*
X119571599Y-114073000D02*
X118449437Y-114073000D01*
X119571599Y-115161766D02*
X119571599Y-114073000D01*
D17*
X106230999Y-112485900D02*
G75*
G02*
X105468999Y-112485900I-381000J0D01*
G01*
X105468999Y-112485900D02*
G75*
G02*
X106230999Y-112485900I381000J0D01*
G01*
%TO.C,R95*%
D15*
X84746359Y-81370000D02*
X85053641Y-81370000D01*
X84746359Y-82130000D02*
X85053641Y-82130000D01*
%TO.C,C49*%
X77240000Y-75357836D02*
X77240000Y-75142164D01*
X77960000Y-75357836D02*
X77960000Y-75142164D01*
%TO.C,C50*%
X86240000Y-86762164D02*
X86240000Y-86977836D01*
X86960000Y-86762164D02*
X86960000Y-86977836D01*
%TO.C,R116*%
X86220000Y-77653641D02*
X86220000Y-77346359D01*
X86980000Y-77653641D02*
X86980000Y-77346359D01*
%TO.C,J6*%
D10*
X87340000Y-89957081D02*
X87340000Y-90499420D01*
X87738629Y-90210000D02*
X87340000Y-89957081D01*
X87738629Y-90210000D02*
X87340000Y-90499420D01*
D16*
X88400000Y-83750009D02*
X88400000Y-86279961D01*
X88400000Y-90720039D02*
X88400000Y-93249991D01*
X88400000Y-93249991D02*
X90329960Y-93249991D01*
X90329960Y-83750009D02*
X88400000Y-83750009D01*
X92270039Y-93249991D02*
X93700000Y-93249991D01*
X93700000Y-83750009D02*
X92270039Y-83750009D01*
X93700000Y-93249991D02*
X93700000Y-83750009D01*
%TO.C,C28*%
D15*
X80040000Y-112740580D02*
X80040000Y-112459420D01*
X81060000Y-112740580D02*
X81060000Y-112459420D01*
%TO.C,C8*%
X69407836Y-113355000D02*
X69192164Y-113355000D01*
X69407836Y-114075000D02*
X69192164Y-114075000D01*
%TO.C,C15*%
X74957836Y-118315000D02*
X74742164Y-118315000D01*
X74957836Y-119035000D02*
X74742164Y-119035000D01*
%TO.C,R91*%
X70320000Y-75963641D02*
X70320000Y-75656359D01*
X71080000Y-75963641D02*
X71080000Y-75656359D01*
%TO.C,C6*%
X78610000Y-111507836D02*
X78610000Y-111292164D01*
X77890000Y-111507836D02*
X77890000Y-111292164D01*
%TO.C,R85*%
X85020000Y-88053641D02*
X85020000Y-87746359D01*
X85780000Y-88053641D02*
X85780000Y-87746359D01*
%TO.C,R71*%
X84746359Y-84220000D02*
X85053641Y-84220000D01*
X84746359Y-84980000D02*
X85053641Y-84980000D01*
%TO.C,L3*%
D14*
X84675571Y-56450000D02*
X84675571Y-59450000D01*
X88015571Y-56450000D02*
X88015571Y-59450000D01*
%TO.C,C17*%
D15*
X89482836Y-58140000D02*
X89267164Y-58140000D01*
X89482836Y-58860000D02*
X89267164Y-58860000D01*
%TO.C,C14*%
X68687164Y-107990000D02*
X68902836Y-107990000D01*
X68687164Y-108710000D02*
X68902836Y-108710000D01*
%TO.C,L4*%
D14*
X84675571Y-55950000D02*
X84675571Y-52950000D01*
X88015571Y-55950000D02*
X88015571Y-52950000D01*
%TO.C,R1*%
D15*
X78820000Y-111246359D02*
X78820000Y-111553641D01*
X79580000Y-111246359D02*
X79580000Y-111553641D01*
%TO.C,R93*%
X84746359Y-85170000D02*
X85053641Y-85170000D01*
X84746359Y-85930000D02*
X85053641Y-85930000D01*
%TO.C,R61*%
X71653641Y-82270000D02*
X71346359Y-82270000D01*
X71653641Y-83030000D02*
X71346359Y-83030000D01*
%TO.C,U2*%
X76490000Y-108410000D02*
X76940000Y-108410000D01*
X76940000Y-110180000D02*
X76490000Y-110180000D01*
X77760000Y-108410000D02*
X78210000Y-108410000D01*
X77786877Y-110180000D02*
X77760000Y-110180000D01*
X78320000Y-110515000D02*
X77840000Y-110515000D01*
X78080000Y-110185000D01*
X78320000Y-110515000D01*
G36*
X78320000Y-110515000D02*
G01*
X77840000Y-110515000D01*
X78080000Y-110185000D01*
X78320000Y-110515000D01*
G37*
%TO.C,C82*%
X72940000Y-86142164D02*
X72940000Y-86357836D01*
X73660000Y-86142164D02*
X73660000Y-86357836D01*
%TO.C,U12*%
X80805571Y-53765000D02*
X84025571Y-53765000D01*
X80805571Y-53990000D02*
X80805571Y-53765000D01*
X80805571Y-56985000D02*
X80805571Y-56760000D01*
X84025571Y-53765000D02*
X84025571Y-53990000D01*
X84025571Y-56760000D02*
X84025571Y-56985000D01*
X84025571Y-56985000D02*
X80805571Y-56985000D01*
X84165571Y-57675000D02*
X83685571Y-57675000D01*
X83925571Y-57345000D01*
X84165571Y-57675000D01*
G36*
X84165571Y-57675000D02*
G01*
X83685571Y-57675000D01*
X83925571Y-57345000D01*
X84165571Y-57675000D01*
G37*
%TO.C,R5*%
X69106359Y-115235000D02*
X69413641Y-115235000D01*
X69106359Y-115995000D02*
X69413641Y-115995000D01*
%TO.C,R43*%
X78320000Y-53996359D02*
X78320000Y-54303641D01*
X79080000Y-53996359D02*
X79080000Y-54303641D01*
%TO.C,R105*%
X84796359Y-79470000D02*
X85103641Y-79470000D01*
X84796359Y-80230000D02*
X85103641Y-80230000D01*
%TO.C,R32*%
X85103641Y-80420000D02*
X84796359Y-80420000D01*
X85103641Y-81180000D02*
X84796359Y-81180000D01*
%TO.C,R108*%
X86220000Y-83293641D02*
X86220000Y-82986359D01*
X86980000Y-83293641D02*
X86980000Y-82986359D01*
%TO.C,TP19*%
X89795571Y-52300000D02*
G75*
G02*
X88395571Y-52300000I-700000J0D01*
G01*
X88395571Y-52300000D02*
G75*
G02*
X89795571Y-52300000I700000J0D01*
G01*
%TO.C,C83*%
X82740000Y-77807836D02*
X82740000Y-77592164D01*
X83460000Y-77807836D02*
X83460000Y-77592164D01*
%TO.C,R6*%
X71006359Y-115235000D02*
X71313641Y-115235000D01*
X71006359Y-115995000D02*
X71313641Y-115995000D01*
%TO.C,SW1*%
X70450000Y-69750000D02*
X70450000Y-73050000D01*
X70450000Y-73050000D02*
X70750000Y-73050000D01*
X70750000Y-69750000D02*
X70450000Y-69750000D01*
X72950000Y-69750000D02*
X73250000Y-69750000D01*
X73250000Y-69750000D02*
X73250000Y-73050000D01*
X73250000Y-73050000D02*
X72950000Y-73050000D01*
%TO.C,TP4*%
X68450000Y-118250000D02*
G75*
G02*
X67050000Y-118250000I-700000J0D01*
G01*
X67050000Y-118250000D02*
G75*
G02*
X68450000Y-118250000I700000J0D01*
G01*
%TO.C,C11*%
X69265580Y-109040000D02*
X68984420Y-109040000D01*
X69265580Y-110060000D02*
X68984420Y-110060000D01*
%TO.C,C10*%
X68687164Y-110390000D02*
X68902836Y-110390000D01*
X68687164Y-111110000D02*
X68902836Y-111110000D01*
%TO.C,R75*%
X83670000Y-75136359D02*
X83670000Y-75443641D01*
X84430000Y-75136359D02*
X84430000Y-75443641D01*
%TO.C,R9*%
X71006359Y-113335000D02*
X71313641Y-113335000D01*
X71006359Y-114095000D02*
X71313641Y-114095000D01*
%TO.C,C16*%
X70692164Y-111340000D02*
X70907836Y-111340000D01*
X70692164Y-112060000D02*
X70907836Y-112060000D01*
%TO.C,C13*%
X70907836Y-110390000D02*
X70692164Y-110390000D01*
X70907836Y-111110000D02*
X70692164Y-111110000D01*
%TO.C,TP18*%
X71200000Y-91900000D02*
G75*
G02*
X69800000Y-91900000I-700000J0D01*
G01*
X69800000Y-91900000D02*
G75*
G02*
X71200000Y-91900000I700000J0D01*
G01*
%TO.C,R11*%
X73153641Y-117140000D02*
X72846359Y-117140000D01*
X73153641Y-117900000D02*
X72846359Y-117900000D01*
%TO.C,R107*%
X86220000Y-81418641D02*
X86220000Y-81111359D01*
X86980000Y-81418641D02*
X86980000Y-81111359D01*
%TO.C,TP2*%
X79420000Y-114715000D02*
G75*
G02*
X78020000Y-114715000I-700000J0D01*
G01*
X78020000Y-114715000D02*
G75*
G02*
X79420000Y-114715000I700000J0D01*
G01*
%TO.C,R73*%
X84746359Y-86120000D02*
X85053641Y-86120000D01*
X84746359Y-86880000D02*
X85053641Y-86880000D01*
%TO.C,R42*%
X79419212Y-55195000D02*
X79111930Y-55195000D01*
X79419212Y-55955000D02*
X79111930Y-55955000D01*
%TO.C,C64*%
X69590000Y-87207836D02*
X69590000Y-86992164D01*
X70310000Y-87207836D02*
X70310000Y-86992164D01*
%TO.C,U17*%
X74340000Y-78227500D02*
X74790000Y-78227500D01*
X74340000Y-78677500D02*
X74340000Y-78227500D01*
X74340000Y-85447500D02*
X74340000Y-84997500D01*
X74790000Y-85447500D02*
X74340000Y-85447500D01*
X81110000Y-78227500D02*
X81560000Y-78227500D01*
X81560000Y-78227500D02*
X81560000Y-78677500D01*
X81560000Y-84997500D02*
X81560000Y-85447500D01*
X81560000Y-85447500D02*
X81110000Y-85447500D01*
X80750000Y-76537500D02*
X80641489Y-76387500D01*
X80858511Y-76387500D01*
X80750000Y-76537500D01*
G36*
X80750000Y-76537500D02*
G01*
X80641489Y-76387500D01*
X80858511Y-76387500D01*
X80750000Y-76537500D01*
G37*
%TO.C,R55*%
X71653641Y-84170000D02*
X71346359Y-84170000D01*
X71653641Y-84930000D02*
X71346359Y-84930000D01*
%TO.C,FB6*%
X73990000Y-74537221D02*
X73990000Y-74862779D01*
X75010000Y-74537221D02*
X75010000Y-74862779D01*
D18*
%TO.C,ART1*%
G36*
X65379699Y-79006718D02*
G01*
X65463570Y-79019300D01*
X65513868Y-79034376D01*
X65539165Y-79059135D01*
X65548032Y-79100765D01*
X65549057Y-79148766D01*
X65545282Y-79215365D01*
X65532564Y-79247162D01*
X65518297Y-79252508D01*
X65480674Y-79248253D01*
X65418996Y-79237408D01*
X65380484Y-79229549D01*
X65273431Y-79206590D01*
X65273431Y-79099606D01*
X65273431Y-78992621D01*
X65379699Y-79006718D01*
G37*
G36*
X65363539Y-76519875D02*
G01*
X65451549Y-76538490D01*
X65506284Y-76552943D01*
X65535587Y-76569425D01*
X65547305Y-76594125D01*
X65549283Y-76633236D01*
X65549057Y-76666268D01*
X65545406Y-76733517D01*
X65533071Y-76766003D01*
X65518297Y-76771874D01*
X65480674Y-76767619D01*
X65418996Y-76756774D01*
X65380484Y-76748915D01*
X65273431Y-76725956D01*
X65273431Y-76613355D01*
X65273431Y-76500755D01*
X65363539Y-76519875D01*
G37*
G36*
X65321135Y-78457120D02*
G01*
X65373451Y-78468531D01*
X65441042Y-78482387D01*
X65453648Y-78484882D01*
X65538456Y-78501549D01*
X65544864Y-78612003D01*
X65545214Y-78673820D01*
X65539227Y-78713905D01*
X65532499Y-78722458D01*
X65502809Y-78718547D01*
X65445688Y-78708445D01*
X65393578Y-78698329D01*
X65273431Y-78674200D01*
X65273431Y-78560112D01*
X65274733Y-78494683D01*
X65281532Y-78462268D01*
X65298171Y-78453496D01*
X65321135Y-78457120D01*
G37*
G36*
X66598556Y-76767552D02*
G01*
X67287621Y-76905328D01*
X67287621Y-77019222D01*
X67286323Y-77084568D01*
X67279527Y-77116879D01*
X67262881Y-77125508D01*
X67239917Y-77121733D01*
X67209110Y-77115149D01*
X67144230Y-77101811D01*
X67051356Y-77082937D01*
X66936570Y-77059744D01*
X66805952Y-77033449D01*
X66665582Y-77005269D01*
X66521542Y-76976422D01*
X66379910Y-76948124D01*
X66246769Y-76921592D01*
X66128199Y-76898044D01*
X66030279Y-76878698D01*
X65959091Y-76864769D01*
X65920715Y-76857475D01*
X65915792Y-76856682D01*
X65912299Y-76837526D01*
X65910011Y-76788239D01*
X65909491Y-76743229D01*
X65909491Y-76629777D01*
X66598556Y-76767552D01*
G37*
G36*
X66031755Y-77148938D02*
G01*
X66074563Y-77182417D01*
X66110356Y-77216548D01*
X66193104Y-77301290D01*
X66148278Y-77349311D01*
X66099052Y-77430593D01*
X66087570Y-77524129D01*
X66113340Y-77623845D01*
X66175867Y-77723667D01*
X66179005Y-77727432D01*
X66216051Y-77766215D01*
X66259681Y-77799245D01*
X66315444Y-77828485D01*
X66388888Y-77855895D01*
X66485565Y-77883438D01*
X66611021Y-77913075D01*
X66770808Y-77946767D01*
X66837497Y-77960206D01*
X67287621Y-78050152D01*
X67287621Y-78164088D01*
X67286324Y-78229450D01*
X67279533Y-78261775D01*
X67262897Y-78270416D01*
X67239917Y-78266641D01*
X67209110Y-78260057D01*
X67144230Y-78246719D01*
X67051356Y-78227845D01*
X66936570Y-78204652D01*
X66805952Y-78178357D01*
X66665582Y-78150177D01*
X66521542Y-78121330D01*
X66379910Y-78093032D01*
X66246769Y-78066500D01*
X66128199Y-78042953D01*
X66030279Y-78023606D01*
X65959091Y-78009677D01*
X65920715Y-78002383D01*
X65915792Y-78001590D01*
X65912196Y-77982505D01*
X65909915Y-77933713D01*
X65909491Y-77895580D01*
X65911723Y-77831995D01*
X65921200Y-77800282D01*
X65942087Y-77790023D01*
X65951895Y-77789570D01*
X65986371Y-77787339D01*
X65994210Y-77784269D01*
X65985405Y-77764098D01*
X65962799Y-77717678D01*
X65941205Y-77674666D01*
X65896682Y-77545083D01*
X65888479Y-77410665D01*
X65916704Y-77282463D01*
X65936934Y-77237805D01*
X65969301Y-77182793D01*
X65996942Y-77146278D01*
X66006594Y-77138811D01*
X66031755Y-77148938D01*
G37*
G36*
X66117638Y-75344651D02*
G01*
X66159374Y-75379374D01*
X66199589Y-75421080D01*
X66224723Y-75456542D01*
X66227521Y-75466312D01*
X66214645Y-75491425D01*
X66182195Y-75534508D01*
X66164961Y-75554807D01*
X66107133Y-75648582D01*
X66087238Y-75749456D01*
X66102662Y-75852128D01*
X66150787Y-75951295D01*
X66228998Y-76041655D01*
X66334679Y-76117907D01*
X66465213Y-76174748D01*
X66471879Y-76176841D01*
X66641208Y-76220414D01*
X66781021Y-76236628D01*
X66894394Y-76225249D01*
X66984401Y-76186047D01*
X67042261Y-76133774D01*
X67096400Y-76039356D01*
X67111375Y-75935411D01*
X67087642Y-75827517D01*
X67025660Y-75721255D01*
X67006580Y-75698244D01*
X66942048Y-75624746D01*
X67014125Y-75563112D01*
X67063797Y-75525288D01*
X67103512Y-75503026D01*
X67113172Y-75500615D01*
X67140272Y-75517613D01*
X67177642Y-75562744D01*
X67218474Y-75625326D01*
X67255964Y-75694679D01*
X67283307Y-75760120D01*
X67287768Y-75774648D01*
X67310014Y-75918151D01*
X67301214Y-76063617D01*
X67262645Y-76195954D01*
X67249789Y-76222773D01*
X67203150Y-76298887D01*
X67149403Y-76351539D01*
X67077752Y-76394810D01*
X67007921Y-76427306D01*
X66943486Y-76445295D01*
X66866377Y-76452636D01*
X66802854Y-76453530D01*
X66594491Y-76437766D01*
X66405458Y-76392599D01*
X66239767Y-76319962D01*
X66101432Y-76221787D01*
X65994465Y-76100005D01*
X65963751Y-76049551D01*
X65920399Y-75940243D01*
X65894740Y-75813009D01*
X65888615Y-75684556D01*
X65903862Y-75571590D01*
X65909133Y-75553842D01*
X65937233Y-75492993D01*
X65978827Y-75429298D01*
X66025023Y-75373883D01*
X66066929Y-75337872D01*
X66087938Y-75330137D01*
X66117638Y-75344651D01*
G37*
G36*
X65997211Y-79793651D02*
G01*
X66025674Y-79801009D01*
X66058249Y-79815696D01*
X66098701Y-79840654D01*
X66150797Y-79878827D01*
X66218305Y-79933155D01*
X66304990Y-80006580D01*
X66414620Y-80102047D01*
X66550961Y-80222495D01*
X66585567Y-80253218D01*
X67086202Y-80697965D01*
X67092021Y-80345007D01*
X67094498Y-80214964D01*
X67097444Y-80121608D01*
X67101566Y-80059222D01*
X67107571Y-80022090D01*
X67116165Y-80004496D01*
X67128055Y-80000723D01*
X67134425Y-80001944D01*
X67182926Y-80014073D01*
X67229316Y-80024814D01*
X67287621Y-80037790D01*
X67287621Y-80535103D01*
X67287621Y-81032416D01*
X67218715Y-81020154D01*
X67189271Y-81013692D01*
X67159752Y-81003281D01*
X67126411Y-80986020D01*
X67085504Y-80959008D01*
X67033286Y-80919344D01*
X66966011Y-80864126D01*
X66879934Y-80790453D01*
X66771309Y-80695425D01*
X66636392Y-80576139D01*
X66573567Y-80520400D01*
X66457333Y-80417582D01*
X66351429Y-80324600D01*
X66259971Y-80245013D01*
X66187078Y-80182379D01*
X66136865Y-80140258D01*
X66113452Y-80122209D01*
X66112424Y-80121790D01*
X66108208Y-80141770D01*
X66104630Y-80196824D01*
X66101969Y-80279622D01*
X66100505Y-80382837D01*
X66100309Y-80439820D01*
X66100128Y-80561901D01*
X66098953Y-80647893D01*
X66095835Y-80704111D01*
X66089827Y-80736869D01*
X66079981Y-80752484D01*
X66065348Y-80757268D01*
X66052604Y-80757561D01*
X65991202Y-80751542D01*
X65957195Y-80744487D01*
X65941802Y-80739488D01*
X65930137Y-80730300D01*
X65921683Y-80711618D01*
X65915925Y-80678140D01*
X65912343Y-80624561D01*
X65910422Y-80545580D01*
X65909644Y-80435892D01*
X65909492Y-80290195D01*
X65909491Y-80255267D01*
X65909491Y-79778831D01*
X65997211Y-79793651D01*
G37*
G36*
X65937816Y-78429621D02*
G01*
X65995326Y-78440782D01*
X66082241Y-78457897D01*
X66192481Y-78479747D01*
X66319964Y-78505117D01*
X66458611Y-78532788D01*
X66602342Y-78561544D01*
X66745075Y-78590167D01*
X66880729Y-78617441D01*
X67003226Y-78642148D01*
X67106483Y-78663071D01*
X67184420Y-78678993D01*
X67230958Y-78688696D01*
X67239917Y-78690682D01*
X67268727Y-78703086D01*
X67282946Y-78730250D01*
X67287441Y-78784110D01*
X67287621Y-78807670D01*
X67285349Y-78871148D01*
X67275768Y-78902747D01*
X67254734Y-78912871D01*
X67245557Y-78913276D01*
X67221397Y-78915336D01*
X67215693Y-78928072D01*
X67228997Y-78961321D01*
X67250602Y-79003385D01*
X67288074Y-79106835D01*
X67305651Y-79225988D01*
X67302783Y-79345112D01*
X67278924Y-79448476D01*
X67267039Y-79475129D01*
X67210656Y-79559064D01*
X67137630Y-79616385D01*
X67036027Y-79656136D01*
X67023739Y-79659519D01*
X66986249Y-79667987D01*
X66947293Y-79672013D01*
X66900004Y-79670860D01*
X66837518Y-79663793D01*
X66752971Y-79650075D01*
X66639496Y-79628968D01*
X66518326Y-79605291D01*
X66384715Y-79578838D01*
X66258548Y-79553724D01*
X66148370Y-79531660D01*
X66062724Y-79514356D01*
X66010200Y-79503535D01*
X65909491Y-79482216D01*
X65909491Y-79370352D01*
X65909491Y-79258488D01*
X66369454Y-79350907D01*
X66507807Y-79378095D01*
X66635876Y-79402118D01*
X66746526Y-79421728D01*
X66832623Y-79435678D01*
X66887034Y-79442721D01*
X66897878Y-79443326D01*
X66975997Y-79424146D01*
X67046268Y-79374044D01*
X67095622Y-79304184D01*
X67108783Y-79263213D01*
X67107779Y-79160574D01*
X67071429Y-79057160D01*
X67005402Y-78962969D01*
X66915365Y-78887997D01*
X66886998Y-78872002D01*
X66843331Y-78856119D01*
X66765443Y-78834250D01*
X66660789Y-78808223D01*
X66536824Y-78779867D01*
X66401004Y-78751011D01*
X66359615Y-78742640D01*
X65909491Y-78652693D01*
X65909491Y-78539162D01*
X65910554Y-78476247D01*
X65913290Y-78435020D01*
X65915792Y-78425630D01*
X65937816Y-78429621D01*
G37*
G36*
X66311569Y-74018841D02*
G01*
X66397491Y-74029929D01*
X66509241Y-74047149D01*
X66638972Y-74069265D01*
X66778838Y-74095046D01*
X66826478Y-74104265D01*
X67287621Y-74194607D01*
X67287621Y-74306529D01*
X67284903Y-74368907D01*
X67277918Y-74409506D01*
X67271720Y-74418382D01*
X67247197Y-74414398D01*
X67187189Y-74403268D01*
X67097787Y-74386164D01*
X66985087Y-74364257D01*
X66855181Y-74338720D01*
X66781950Y-74324216D01*
X66626003Y-74293615D01*
X66505681Y-74271109D01*
X66415134Y-74255967D01*
X66348511Y-74247458D01*
X66299962Y-74244852D01*
X66263636Y-74247417D01*
X66233683Y-74254424D01*
X66230698Y-74255379D01*
X66155823Y-74298730D01*
X66108928Y-74365483D01*
X66089096Y-74448003D01*
X66095411Y-74538658D01*
X66126957Y-74629814D01*
X66182817Y-74713838D01*
X66262074Y-74783096D01*
X66296451Y-74803095D01*
X66348967Y-74823054D01*
X66436982Y-74848346D01*
X66554158Y-74877389D01*
X66694159Y-74908601D01*
X66831778Y-74936718D01*
X67277020Y-75024092D01*
X67283429Y-75134710D01*
X67284078Y-75204465D01*
X67274888Y-75238690D01*
X67262227Y-75244714D01*
X67236410Y-75240507D01*
X67173251Y-75228697D01*
X67076965Y-75210113D01*
X66951768Y-75185585D01*
X66801874Y-75155943D01*
X66631498Y-75122016D01*
X66444857Y-75084634D01*
X66259324Y-75047283D01*
X65284032Y-74850468D01*
X65277623Y-74740470D01*
X65277320Y-74678801D01*
X65283437Y-74638887D01*
X65290217Y-74630471D01*
X65316683Y-74634489D01*
X65376947Y-74645556D01*
X65463272Y-74662195D01*
X65567918Y-74682927D01*
X65623264Y-74694077D01*
X65734912Y-74716333D01*
X65832880Y-74735191D01*
X65909150Y-74749159D01*
X65955708Y-74756746D01*
X65965089Y-74757683D01*
X65976628Y-74745663D01*
X65962138Y-74706943D01*
X65947520Y-74680823D01*
X65917820Y-74611701D01*
X65900362Y-74520811D01*
X65894209Y-74442300D01*
X65891813Y-74353025D01*
X65896910Y-74290998D01*
X65911987Y-74241358D01*
X65935404Y-74196262D01*
X66012053Y-74105015D01*
X66114755Y-74043446D01*
X66235426Y-74016074D01*
X66259324Y-74015117D01*
X66311569Y-74018841D01*
G37*
G36*
X65338338Y-81143251D02*
G01*
X65403407Y-81154950D01*
X65501463Y-81173470D01*
X65628224Y-81197975D01*
X65779411Y-81227634D01*
X65950744Y-81261612D01*
X66137942Y-81299076D01*
X66317625Y-81335324D01*
X67287612Y-81531723D01*
X67287617Y-81855054D01*
X67287185Y-81966709D01*
X67285991Y-82061673D01*
X67284192Y-82132676D01*
X67281946Y-82172450D01*
X67280610Y-82178385D01*
X67258589Y-82174396D01*
X67201793Y-82163326D01*
X67117004Y-82146519D01*
X67011007Y-82125319D01*
X66905985Y-82104177D01*
X66786975Y-82080230D01*
X66683226Y-82059498D01*
X66601523Y-82043326D01*
X66548649Y-82033057D01*
X66531360Y-82029970D01*
X66528408Y-82049671D01*
X66526069Y-82102768D01*
X66524644Y-82180255D01*
X66524349Y-82240562D01*
X66525262Y-82338366D01*
X66528882Y-82401690D01*
X66536535Y-82438435D01*
X66549544Y-82456501D01*
X66561453Y-82461956D01*
X66594060Y-82469554D01*
X66660425Y-82483635D01*
X66752680Y-82502576D01*
X66862960Y-82524756D01*
X66943089Y-82540636D01*
X67287621Y-82608513D01*
X67287621Y-82934504D01*
X67287621Y-83260495D01*
X67239917Y-83249104D01*
X67209557Y-83242627D01*
X67144768Y-83229320D01*
X67051393Y-83210354D01*
X66935281Y-83186899D01*
X66802276Y-83160124D01*
X66658225Y-83131201D01*
X66508975Y-83101299D01*
X66360371Y-83071588D01*
X66218259Y-83043238D01*
X66088486Y-83017419D01*
X65976898Y-82995302D01*
X65889341Y-82978056D01*
X65831661Y-82966852D01*
X65809705Y-82962859D01*
X65807281Y-82982682D01*
X65805298Y-83036636D01*
X65803963Y-83116449D01*
X65803481Y-83212491D01*
X65803481Y-83462124D01*
X66545551Y-83609520D01*
X67287621Y-83756916D01*
X67287621Y-84080755D01*
X67286593Y-84192501D01*
X67283759Y-84287562D01*
X67279491Y-84358676D01*
X67274163Y-84398580D01*
X67270970Y-84404595D01*
X67246982Y-84400567D01*
X67186280Y-84389119D01*
X67093719Y-84371200D01*
X66974155Y-84347762D01*
X66832444Y-84319757D01*
X66673440Y-84288135D01*
X66528900Y-84259239D01*
X65803481Y-84113883D01*
X65803481Y-84818685D01*
X65803481Y-85523486D01*
X65901601Y-85538200D01*
X65966877Y-85549382D01*
X66016796Y-85560380D01*
X66028813Y-85564078D01*
X66038599Y-85561532D01*
X66045996Y-85542287D01*
X66051311Y-85501690D01*
X66054846Y-85435088D01*
X66056908Y-85337830D01*
X66057801Y-85205262D01*
X66057905Y-85120210D01*
X66057905Y-84665178D01*
X66285826Y-84710704D01*
X66513748Y-84756231D01*
X66524349Y-85210328D01*
X66534950Y-85664425D01*
X66656862Y-85688823D01*
X66778773Y-85713221D01*
X66778773Y-85258898D01*
X66778984Y-85108939D01*
X66779903Y-84996281D01*
X66781955Y-84915823D01*
X66785568Y-84862462D01*
X66791167Y-84831098D01*
X66799180Y-84816627D01*
X66810034Y-84813950D01*
X66815877Y-84815209D01*
X66853012Y-84823946D01*
X66919553Y-84837940D01*
X67003226Y-84854637D01*
X67033197Y-84860438D01*
X67119884Y-84877471D01*
X67193584Y-84892664D01*
X67242024Y-84903462D01*
X67250518Y-84905667D01*
X67260215Y-84910878D01*
X67268066Y-84923105D01*
X67274265Y-84946427D01*
X67279004Y-84984922D01*
X67282477Y-85042670D01*
X67284877Y-85123747D01*
X67286398Y-85232234D01*
X67287232Y-85372207D01*
X67287572Y-85547747D01*
X67287621Y-85688745D01*
X67287463Y-85864985D01*
X67287014Y-86027099D01*
X67286310Y-86170384D01*
X67285388Y-86290138D01*
X67284283Y-86381658D01*
X67283032Y-86440242D01*
X67281671Y-86461186D01*
X67281653Y-86461189D01*
X67259877Y-86457175D01*
X67201511Y-86445795D01*
X67111532Y-86428048D01*
X66994923Y-86404928D01*
X66856663Y-86377433D01*
X66701732Y-86346558D01*
X66535110Y-86313301D01*
X66361777Y-86278656D01*
X66186714Y-86243622D01*
X66014901Y-86209193D01*
X65851318Y-86176367D01*
X65700944Y-86146140D01*
X65568760Y-86119507D01*
X65459747Y-86097466D01*
X65378884Y-86081013D01*
X65331151Y-86071144D01*
X65321135Y-86068959D01*
X65273431Y-86057543D01*
X65273431Y-84128161D01*
X65273431Y-82198779D01*
X65321135Y-82209907D01*
X65357414Y-82217863D01*
X65427083Y-82232716D01*
X65522015Y-82252748D01*
X65634082Y-82276241D01*
X65714090Y-82292935D01*
X66059340Y-82364836D01*
X66053322Y-82150025D01*
X66047304Y-81935214D01*
X65665668Y-81856089D01*
X65544510Y-81830989D01*
X65438632Y-81809093D01*
X65354635Y-81791764D01*
X65299124Y-81780362D01*
X65278731Y-81776255D01*
X65276886Y-81756018D01*
X65275321Y-81700729D01*
X65274157Y-81617737D01*
X65273516Y-81514394D01*
X65273431Y-81457516D01*
X65273832Y-81334710D01*
X65275518Y-81248090D01*
X65279213Y-81191445D01*
X65285642Y-81158560D01*
X65295528Y-81143223D01*
X65309597Y-81139220D01*
X65310534Y-81139205D01*
X65338338Y-81143251D01*
G37*
%TO.C,R20*%
D15*
X73656359Y-88460000D02*
X73963641Y-88460000D01*
X73656359Y-89220000D02*
X73963641Y-89220000D01*
%TO.C,C62*%
X79896151Y-51890000D02*
X79614991Y-51890000D01*
X79896151Y-52910000D02*
X79614991Y-52910000D01*
%TO.C,R3*%
X76770000Y-114008641D02*
X76770000Y-113701359D01*
X77530000Y-114008641D02*
X77530000Y-113701359D01*
%TO.C,R79*%
X82720000Y-75136359D02*
X82720000Y-75443641D01*
X83480000Y-75136359D02*
X83480000Y-75443641D01*
%TO.C,R59*%
X71653641Y-83220000D02*
X71346359Y-83220000D01*
X71653641Y-83980000D02*
X71346359Y-83980000D01*
%TO.C,R7*%
X75696359Y-106570000D02*
X76003641Y-106570000D01*
X75696359Y-107330000D02*
X76003641Y-107330000D01*
%TO.C,C81*%
X81290000Y-86392164D02*
X81290000Y-86607836D01*
X82010000Y-86392164D02*
X82010000Y-86607836D01*
%TO.C,C63*%
X85287735Y-51840000D02*
X85503407Y-51840000D01*
X85287735Y-52560000D02*
X85503407Y-52560000D01*
%TO.C,J1*%
D16*
X104128400Y-107924134D02*
X104128400Y-109012900D01*
X104128400Y-109012900D02*
X105250562Y-109012900D01*
X118334776Y-105787100D02*
X105365224Y-105787100D01*
X118449438Y-109012900D02*
X119571600Y-109012900D01*
X119571600Y-109012900D02*
X119571600Y-107924134D01*
D17*
X118231000Y-110600000D02*
G75*
G02*
X117469000Y-110600000I-381000J0D01*
G01*
X117469000Y-110600000D02*
G75*
G02*
X118231000Y-110600000I381000J0D01*
G01*
%TO.C,C3*%
D15*
X76757836Y-115860000D02*
X76542164Y-115860000D01*
X76757836Y-116580000D02*
X76542164Y-116580000D01*
%TO.C,R60*%
X69715597Y-83265103D02*
X69715597Y-82957821D01*
X70475597Y-83265103D02*
X70475597Y-82957821D01*
%TO.C,C29*%
X93190000Y-113959420D02*
X93190000Y-114240580D01*
X94210000Y-113959420D02*
X94210000Y-114240580D01*
%TO.C,C4*%
X71062164Y-112390000D02*
X71277836Y-112390000D01*
X71062164Y-113110000D02*
X71277836Y-113110000D01*
%TO.C,R53*%
X74923641Y-87520000D02*
X74616359Y-87520000D01*
X74923641Y-88280000D02*
X74616359Y-88280000D01*
%TO.C,C86*%
X76290000Y-75357836D02*
X76290000Y-75142164D01*
X77010000Y-75357836D02*
X77010000Y-75142164D01*
%TO.C,TP10*%
X91625000Y-109775000D02*
G75*
G02*
X90225000Y-109775000I-700000J0D01*
G01*
X90225000Y-109775000D02*
G75*
G02*
X91625000Y-109775000I700000J0D01*
G01*
%TO.C,R106*%
X86220000Y-79553641D02*
X86220000Y-79246359D01*
X86980000Y-79553641D02*
X86980000Y-79246359D01*
%TO.C,TP20*%
X74300000Y-105975000D02*
G75*
G02*
X72900000Y-105975000I-700000J0D01*
G01*
X72900000Y-105975000D02*
G75*
G02*
X74300000Y-105975000I700000J0D01*
G01*
%TO.C,C66*%
X81042164Y-88790000D02*
X81257836Y-88790000D01*
X81042164Y-89510000D02*
X81257836Y-89510000D01*
%TO.C,C2*%
X71567164Y-106265000D02*
X71782836Y-106265000D01*
X71567164Y-106985000D02*
X71782836Y-106985000D01*
%TO.C,R4*%
X79620000Y-108496359D02*
X79620000Y-108803641D01*
X80380000Y-108496359D02*
X80380000Y-108803641D01*
%TO.C,R40*%
X79335571Y-54308641D02*
X79335571Y-54001359D01*
X80095571Y-54308641D02*
X80095571Y-54001359D01*
%TO.C,R67*%
X83070000Y-90396359D02*
X83070000Y-90703641D01*
X83830000Y-90396359D02*
X83830000Y-90703641D01*
%TO.C,C23*%
X79840000Y-91912164D02*
X79840000Y-92127836D01*
X80560000Y-91912164D02*
X80560000Y-92127836D01*
%TO.C,R51*%
X82970000Y-72153641D02*
X82970000Y-71846359D01*
X83730000Y-72153641D02*
X83730000Y-71846359D01*
%TO.C,C88*%
X81750000Y-71892164D02*
X81750000Y-72107836D01*
X82470000Y-71892164D02*
X82470000Y-72107836D01*
%TO.C,D3*%
X84455571Y-51800000D02*
X81795571Y-51800000D01*
X84455571Y-53500000D02*
X81795571Y-53500000D01*
X84455571Y-53500000D02*
X84455571Y-51800000D01*
%TO.C,C5*%
X76757836Y-112090000D02*
X76542164Y-112090000D01*
X76757836Y-112810000D02*
X76542164Y-112810000D01*
%TO.C,R50*%
X85070000Y-72153641D02*
X85070000Y-71846359D01*
X85830000Y-72153641D02*
X85830000Y-71846359D01*
%TO.C,XTAL3*%
D16*
X75757550Y-71704240D02*
X75757550Y-72041760D01*
X77495492Y-73676400D02*
X79429808Y-73676400D01*
X79429808Y-70069600D02*
X77495492Y-70069600D01*
X81167750Y-72041760D02*
X81167750Y-71704240D01*
X83591450Y-73073000D02*
G75*
G02*
X83337450Y-73073000I-127000J0D01*
G01*
X83337450Y-73073000D02*
G75*
G02*
X83591450Y-73073000I127000J0D01*
G01*
%TO.C,U7*%
D15*
X75080000Y-92730000D02*
X76880000Y-92730000D01*
X76080000Y-89510000D02*
X75280000Y-89510000D01*
X76080000Y-89510000D02*
X76880000Y-89510000D01*
X73380000Y-90170000D02*
X73050000Y-90410000D01*
X73050000Y-89930000D01*
X73380000Y-90170000D01*
G36*
X73380000Y-90170000D02*
G01*
X73050000Y-90410000D01*
X73050000Y-89930000D01*
X73380000Y-90170000D01*
G37*
%TO.C,C9*%
X76757836Y-116810000D02*
X76542164Y-116810000D01*
X76757836Y-117530000D02*
X76542164Y-117530000D01*
%TO.C,C7*%
X69192164Y-114305000D02*
X69407836Y-114305000D01*
X69192164Y-115025000D02*
X69407836Y-115025000D01*
%TO.C,R31*%
X85020000Y-89621359D02*
X85020000Y-89928641D01*
X85780000Y-89621359D02*
X85780000Y-89928641D01*
%TO.C,C89*%
X74450000Y-72107836D02*
X74450000Y-71892164D01*
X75170000Y-72107836D02*
X75170000Y-71892164D01*
%TO.C,TP14*%
X92125000Y-117050000D02*
G75*
G02*
X90725000Y-117050000I-700000J0D01*
G01*
X90725000Y-117050000D02*
G75*
G02*
X92125000Y-117050000I700000J0D01*
G01*
%TO.C,TP13*%
X81600000Y-117300000D02*
G75*
G02*
X80200000Y-117300000I-700000J0D01*
G01*
X80200000Y-117300000D02*
G75*
G02*
X81600000Y-117300000I700000J0D01*
G01*
%TO.C,R63*%
X76690000Y-88196359D02*
X76690000Y-88503641D01*
X77450000Y-88196359D02*
X77450000Y-88503641D01*
%TO.C,C1*%
X75840000Y-113962836D02*
X75840000Y-113747164D01*
X76560000Y-113962836D02*
X76560000Y-113747164D01*
%TO.C,C67*%
X79192164Y-88790000D02*
X79407836Y-88790000D01*
X79192164Y-89510000D02*
X79407836Y-89510000D01*
%TD*%
M02*
