%TF.GenerationSoftware,KiCad,Pcbnew,10.0.0*%
%TF.CreationDate,2026-04-16T18:06:39+02:00*%
%TF.ProjectId,wulpus_pro_acq_pcb,77756c70-7573-45f7-9072-6f5f6163715f,rev?*%
%TF.SameCoordinates,Original*%
%TF.FileFunction,Other,User*%
%FSLAX46Y46*%
G04 Gerber Fmt 4.6, Leading zero omitted, Abs format (unit mm)*
G04 Created by KiCad (PCBNEW 10.0.0) date 2026-04-16 18:06:39*
%MOMM*%
%LPD*%
G01*
G04 APERTURE LIST*
%ADD10C,0.150000*%
G04 APERTURE END LIST*
D10*
X68039160Y-126812722D02*
X68182017Y-126860341D01*
X68182017Y-126860341D02*
X68420112Y-126860341D01*
X68420112Y-126860341D02*
X68515350Y-126812722D01*
X68515350Y-126812722D02*
X68562969Y-126765102D01*
X68562969Y-126765102D02*
X68610588Y-126669864D01*
X68610588Y-126669864D02*
X68610588Y-126574626D01*
X68610588Y-126574626D02*
X68562969Y-126479388D01*
X68562969Y-126479388D02*
X68515350Y-126431769D01*
X68515350Y-126431769D02*
X68420112Y-126384150D01*
X68420112Y-126384150D02*
X68229636Y-126336531D01*
X68229636Y-126336531D02*
X68134398Y-126288912D01*
X68134398Y-126288912D02*
X68086779Y-126241293D01*
X68086779Y-126241293D02*
X68039160Y-126146055D01*
X68039160Y-126146055D02*
X68039160Y-126050817D01*
X68039160Y-126050817D02*
X68086779Y-125955579D01*
X68086779Y-125955579D02*
X68134398Y-125907960D01*
X68134398Y-125907960D02*
X68229636Y-125860341D01*
X68229636Y-125860341D02*
X68467731Y-125860341D01*
X68467731Y-125860341D02*
X68610588Y-125907960D01*
X68896303Y-126193674D02*
X69277255Y-126193674D01*
X69039160Y-125860341D02*
X69039160Y-126717483D01*
X69039160Y-126717483D02*
X69086779Y-126812722D01*
X69086779Y-126812722D02*
X69182017Y-126860341D01*
X69182017Y-126860341D02*
X69277255Y-126860341D01*
X69610589Y-126860341D02*
X69610589Y-126193674D01*
X69610589Y-125860341D02*
X69562970Y-125907960D01*
X69562970Y-125907960D02*
X69610589Y-125955579D01*
X69610589Y-125955579D02*
X69658208Y-125907960D01*
X69658208Y-125907960D02*
X69610589Y-125860341D01*
X69610589Y-125860341D02*
X69610589Y-125955579D01*
X69943922Y-126193674D02*
X70324874Y-126193674D01*
X70086779Y-126860341D02*
X70086779Y-126003198D01*
X70086779Y-126003198D02*
X70134398Y-125907960D01*
X70134398Y-125907960D02*
X70229636Y-125860341D01*
X70229636Y-125860341D02*
X70324874Y-125860341D01*
X70515351Y-126193674D02*
X70896303Y-126193674D01*
X70658208Y-126860341D02*
X70658208Y-126003198D01*
X70658208Y-126003198D02*
X70705827Y-125907960D01*
X70705827Y-125907960D02*
X70801065Y-125860341D01*
X70801065Y-125860341D02*
X70896303Y-125860341D01*
X71610589Y-126812722D02*
X71515351Y-126860341D01*
X71515351Y-126860341D02*
X71324875Y-126860341D01*
X71324875Y-126860341D02*
X71229637Y-126812722D01*
X71229637Y-126812722D02*
X71182018Y-126717483D01*
X71182018Y-126717483D02*
X71182018Y-126336531D01*
X71182018Y-126336531D02*
X71229637Y-126241293D01*
X71229637Y-126241293D02*
X71324875Y-126193674D01*
X71324875Y-126193674D02*
X71515351Y-126193674D01*
X71515351Y-126193674D02*
X71610589Y-126241293D01*
X71610589Y-126241293D02*
X71658208Y-126336531D01*
X71658208Y-126336531D02*
X71658208Y-126431769D01*
X71658208Y-126431769D02*
X71182018Y-126527007D01*
X72086780Y-126193674D02*
X72086780Y-126860341D01*
X72086780Y-126288912D02*
X72134399Y-126241293D01*
X72134399Y-126241293D02*
X72229637Y-126193674D01*
X72229637Y-126193674D02*
X72372494Y-126193674D01*
X72372494Y-126193674D02*
X72467732Y-126241293D01*
X72467732Y-126241293D02*
X72515351Y-126336531D01*
X72515351Y-126336531D02*
X72515351Y-126860341D01*
X73372494Y-126812722D02*
X73277256Y-126860341D01*
X73277256Y-126860341D02*
X73086780Y-126860341D01*
X73086780Y-126860341D02*
X72991542Y-126812722D01*
X72991542Y-126812722D02*
X72943923Y-126717483D01*
X72943923Y-126717483D02*
X72943923Y-126336531D01*
X72943923Y-126336531D02*
X72991542Y-126241293D01*
X72991542Y-126241293D02*
X73086780Y-126193674D01*
X73086780Y-126193674D02*
X73277256Y-126193674D01*
X73277256Y-126193674D02*
X73372494Y-126241293D01*
X73372494Y-126241293D02*
X73420113Y-126336531D01*
X73420113Y-126336531D02*
X73420113Y-126431769D01*
X73420113Y-126431769D02*
X72943923Y-126527007D01*
X73848685Y-126860341D02*
X73848685Y-126193674D01*
X73848685Y-126384150D02*
X73896304Y-126288912D01*
X73896304Y-126288912D02*
X73943923Y-126241293D01*
X73943923Y-126241293D02*
X74039161Y-126193674D01*
X74039161Y-126193674D02*
X74134399Y-126193674D01*
X75229638Y-126860341D02*
X75229638Y-125860341D01*
X75229638Y-125860341D02*
X75562971Y-126574626D01*
X75562971Y-126574626D02*
X75896304Y-125860341D01*
X75896304Y-125860341D02*
X75896304Y-126860341D01*
X76801066Y-126860341D02*
X76801066Y-126336531D01*
X76801066Y-126336531D02*
X76753447Y-126241293D01*
X76753447Y-126241293D02*
X76658209Y-126193674D01*
X76658209Y-126193674D02*
X76467733Y-126193674D01*
X76467733Y-126193674D02*
X76372495Y-126241293D01*
X76801066Y-126812722D02*
X76705828Y-126860341D01*
X76705828Y-126860341D02*
X76467733Y-126860341D01*
X76467733Y-126860341D02*
X76372495Y-126812722D01*
X76372495Y-126812722D02*
X76324876Y-126717483D01*
X76324876Y-126717483D02*
X76324876Y-126622245D01*
X76324876Y-126622245D02*
X76372495Y-126527007D01*
X76372495Y-126527007D02*
X76467733Y-126479388D01*
X76467733Y-126479388D02*
X76705828Y-126479388D01*
X76705828Y-126479388D02*
X76801066Y-126431769D01*
X77134400Y-126193674D02*
X77515352Y-126193674D01*
X77277257Y-125860341D02*
X77277257Y-126717483D01*
X77277257Y-126717483D02*
X77324876Y-126812722D01*
X77324876Y-126812722D02*
X77420114Y-126860341D01*
X77420114Y-126860341D02*
X77515352Y-126860341D01*
X78229638Y-126812722D02*
X78134400Y-126860341D01*
X78134400Y-126860341D02*
X77943924Y-126860341D01*
X77943924Y-126860341D02*
X77848686Y-126812722D01*
X77848686Y-126812722D02*
X77801067Y-126717483D01*
X77801067Y-126717483D02*
X77801067Y-126336531D01*
X77801067Y-126336531D02*
X77848686Y-126241293D01*
X77848686Y-126241293D02*
X77943924Y-126193674D01*
X77943924Y-126193674D02*
X78134400Y-126193674D01*
X78134400Y-126193674D02*
X78229638Y-126241293D01*
X78229638Y-126241293D02*
X78277257Y-126336531D01*
X78277257Y-126336531D02*
X78277257Y-126431769D01*
X78277257Y-126431769D02*
X77801067Y-126527007D01*
X78705829Y-126860341D02*
X78705829Y-126193674D01*
X78705829Y-126384150D02*
X78753448Y-126288912D01*
X78753448Y-126288912D02*
X78801067Y-126241293D01*
X78801067Y-126241293D02*
X78896305Y-126193674D01*
X78896305Y-126193674D02*
X78991543Y-126193674D01*
X79324877Y-126860341D02*
X79324877Y-126193674D01*
X79324877Y-125860341D02*
X79277258Y-125907960D01*
X79277258Y-125907960D02*
X79324877Y-125955579D01*
X79324877Y-125955579D02*
X79372496Y-125907960D01*
X79372496Y-125907960D02*
X79324877Y-125860341D01*
X79324877Y-125860341D02*
X79324877Y-125955579D01*
X80229638Y-126860341D02*
X80229638Y-126336531D01*
X80229638Y-126336531D02*
X80182019Y-126241293D01*
X80182019Y-126241293D02*
X80086781Y-126193674D01*
X80086781Y-126193674D02*
X79896305Y-126193674D01*
X79896305Y-126193674D02*
X79801067Y-126241293D01*
X80229638Y-126812722D02*
X80134400Y-126860341D01*
X80134400Y-126860341D02*
X79896305Y-126860341D01*
X79896305Y-126860341D02*
X79801067Y-126812722D01*
X79801067Y-126812722D02*
X79753448Y-126717483D01*
X79753448Y-126717483D02*
X79753448Y-126622245D01*
X79753448Y-126622245D02*
X79801067Y-126527007D01*
X79801067Y-126527007D02*
X79896305Y-126479388D01*
X79896305Y-126479388D02*
X80134400Y-126479388D01*
X80134400Y-126479388D02*
X80229638Y-126431769D01*
X80848686Y-126860341D02*
X80753448Y-126812722D01*
X80753448Y-126812722D02*
X80705829Y-126717483D01*
X80705829Y-126717483D02*
X80705829Y-125860341D01*
X81229639Y-126765102D02*
X81277258Y-126812722D01*
X81277258Y-126812722D02*
X81229639Y-126860341D01*
X81229639Y-126860341D02*
X81182020Y-126812722D01*
X81182020Y-126812722D02*
X81229639Y-126765102D01*
X81229639Y-126765102D02*
X81229639Y-126860341D01*
X81229639Y-126241293D02*
X81277258Y-126288912D01*
X81277258Y-126288912D02*
X81229639Y-126336531D01*
X81229639Y-126336531D02*
X81182020Y-126288912D01*
X81182020Y-126288912D02*
X81229639Y-126241293D01*
X81229639Y-126241293D02*
X81229639Y-126336531D01*
X82420115Y-126812722D02*
X82562972Y-126860341D01*
X82562972Y-126860341D02*
X82801067Y-126860341D01*
X82801067Y-126860341D02*
X82896305Y-126812722D01*
X82896305Y-126812722D02*
X82943924Y-126765102D01*
X82943924Y-126765102D02*
X82991543Y-126669864D01*
X82991543Y-126669864D02*
X82991543Y-126574626D01*
X82991543Y-126574626D02*
X82943924Y-126479388D01*
X82943924Y-126479388D02*
X82896305Y-126431769D01*
X82896305Y-126431769D02*
X82801067Y-126384150D01*
X82801067Y-126384150D02*
X82610591Y-126336531D01*
X82610591Y-126336531D02*
X82515353Y-126288912D01*
X82515353Y-126288912D02*
X82467734Y-126241293D01*
X82467734Y-126241293D02*
X82420115Y-126146055D01*
X82420115Y-126146055D02*
X82420115Y-126050817D01*
X82420115Y-126050817D02*
X82467734Y-125955579D01*
X82467734Y-125955579D02*
X82515353Y-125907960D01*
X82515353Y-125907960D02*
X82610591Y-125860341D01*
X82610591Y-125860341D02*
X82848686Y-125860341D01*
X82848686Y-125860341D02*
X82991543Y-125907960D01*
X83277258Y-126193674D02*
X83658210Y-126193674D01*
X83420115Y-125860341D02*
X83420115Y-126717483D01*
X83420115Y-126717483D02*
X83467734Y-126812722D01*
X83467734Y-126812722D02*
X83562972Y-126860341D01*
X83562972Y-126860341D02*
X83658210Y-126860341D01*
X84420115Y-126860341D02*
X84420115Y-126336531D01*
X84420115Y-126336531D02*
X84372496Y-126241293D01*
X84372496Y-126241293D02*
X84277258Y-126193674D01*
X84277258Y-126193674D02*
X84086782Y-126193674D01*
X84086782Y-126193674D02*
X83991544Y-126241293D01*
X84420115Y-126812722D02*
X84324877Y-126860341D01*
X84324877Y-126860341D02*
X84086782Y-126860341D01*
X84086782Y-126860341D02*
X83991544Y-126812722D01*
X83991544Y-126812722D02*
X83943925Y-126717483D01*
X83943925Y-126717483D02*
X83943925Y-126622245D01*
X83943925Y-126622245D02*
X83991544Y-126527007D01*
X83991544Y-126527007D02*
X84086782Y-126479388D01*
X84086782Y-126479388D02*
X84324877Y-126479388D01*
X84324877Y-126479388D02*
X84420115Y-126431769D01*
X84896306Y-126860341D02*
X84896306Y-126193674D01*
X84896306Y-125860341D02*
X84848687Y-125907960D01*
X84848687Y-125907960D02*
X84896306Y-125955579D01*
X84896306Y-125955579D02*
X84943925Y-125907960D01*
X84943925Y-125907960D02*
X84896306Y-125860341D01*
X84896306Y-125860341D02*
X84896306Y-125955579D01*
X85372496Y-126193674D02*
X85372496Y-126860341D01*
X85372496Y-126288912D02*
X85420115Y-126241293D01*
X85420115Y-126241293D02*
X85515353Y-126193674D01*
X85515353Y-126193674D02*
X85658210Y-126193674D01*
X85658210Y-126193674D02*
X85753448Y-126241293D01*
X85753448Y-126241293D02*
X85801067Y-126336531D01*
X85801067Y-126336531D02*
X85801067Y-126860341D01*
X86420115Y-126860341D02*
X86324877Y-126812722D01*
X86324877Y-126812722D02*
X86277258Y-126717483D01*
X86277258Y-126717483D02*
X86277258Y-125860341D01*
X87182020Y-126812722D02*
X87086782Y-126860341D01*
X87086782Y-126860341D02*
X86896306Y-126860341D01*
X86896306Y-126860341D02*
X86801068Y-126812722D01*
X86801068Y-126812722D02*
X86753449Y-126717483D01*
X86753449Y-126717483D02*
X86753449Y-126336531D01*
X86753449Y-126336531D02*
X86801068Y-126241293D01*
X86801068Y-126241293D02*
X86896306Y-126193674D01*
X86896306Y-126193674D02*
X87086782Y-126193674D01*
X87086782Y-126193674D02*
X87182020Y-126241293D01*
X87182020Y-126241293D02*
X87229639Y-126336531D01*
X87229639Y-126336531D02*
X87229639Y-126431769D01*
X87229639Y-126431769D02*
X86753449Y-126527007D01*
X87610592Y-126812722D02*
X87705830Y-126860341D01*
X87705830Y-126860341D02*
X87896306Y-126860341D01*
X87896306Y-126860341D02*
X87991544Y-126812722D01*
X87991544Y-126812722D02*
X88039163Y-126717483D01*
X88039163Y-126717483D02*
X88039163Y-126669864D01*
X88039163Y-126669864D02*
X87991544Y-126574626D01*
X87991544Y-126574626D02*
X87896306Y-126527007D01*
X87896306Y-126527007D02*
X87753449Y-126527007D01*
X87753449Y-126527007D02*
X87658211Y-126479388D01*
X87658211Y-126479388D02*
X87610592Y-126384150D01*
X87610592Y-126384150D02*
X87610592Y-126336531D01*
X87610592Y-126336531D02*
X87658211Y-126241293D01*
X87658211Y-126241293D02*
X87753449Y-126193674D01*
X87753449Y-126193674D02*
X87896306Y-126193674D01*
X87896306Y-126193674D02*
X87991544Y-126241293D01*
X88420116Y-126812722D02*
X88515354Y-126860341D01*
X88515354Y-126860341D02*
X88705830Y-126860341D01*
X88705830Y-126860341D02*
X88801068Y-126812722D01*
X88801068Y-126812722D02*
X88848687Y-126717483D01*
X88848687Y-126717483D02*
X88848687Y-126669864D01*
X88848687Y-126669864D02*
X88801068Y-126574626D01*
X88801068Y-126574626D02*
X88705830Y-126527007D01*
X88705830Y-126527007D02*
X88562973Y-126527007D01*
X88562973Y-126527007D02*
X88467735Y-126479388D01*
X88467735Y-126479388D02*
X88420116Y-126384150D01*
X88420116Y-126384150D02*
X88420116Y-126336531D01*
X88420116Y-126336531D02*
X88467735Y-126241293D01*
X88467735Y-126241293D02*
X88562973Y-126193674D01*
X88562973Y-126193674D02*
X88705830Y-126193674D01*
X88705830Y-126193674D02*
X88801068Y-126241293D01*
X89991545Y-126812722D02*
X90134402Y-126860341D01*
X90134402Y-126860341D02*
X90372497Y-126860341D01*
X90372497Y-126860341D02*
X90467735Y-126812722D01*
X90467735Y-126812722D02*
X90515354Y-126765102D01*
X90515354Y-126765102D02*
X90562973Y-126669864D01*
X90562973Y-126669864D02*
X90562973Y-126574626D01*
X90562973Y-126574626D02*
X90515354Y-126479388D01*
X90515354Y-126479388D02*
X90467735Y-126431769D01*
X90467735Y-126431769D02*
X90372497Y-126384150D01*
X90372497Y-126384150D02*
X90182021Y-126336531D01*
X90182021Y-126336531D02*
X90086783Y-126288912D01*
X90086783Y-126288912D02*
X90039164Y-126241293D01*
X90039164Y-126241293D02*
X89991545Y-126146055D01*
X89991545Y-126146055D02*
X89991545Y-126050817D01*
X89991545Y-126050817D02*
X90039164Y-125955579D01*
X90039164Y-125955579D02*
X90086783Y-125907960D01*
X90086783Y-125907960D02*
X90182021Y-125860341D01*
X90182021Y-125860341D02*
X90420116Y-125860341D01*
X90420116Y-125860341D02*
X90562973Y-125907960D01*
X90848688Y-126193674D02*
X91229640Y-126193674D01*
X90991545Y-125860341D02*
X90991545Y-126717483D01*
X90991545Y-126717483D02*
X91039164Y-126812722D01*
X91039164Y-126812722D02*
X91134402Y-126860341D01*
X91134402Y-126860341D02*
X91229640Y-126860341D01*
X91943926Y-126812722D02*
X91848688Y-126860341D01*
X91848688Y-126860341D02*
X91658212Y-126860341D01*
X91658212Y-126860341D02*
X91562974Y-126812722D01*
X91562974Y-126812722D02*
X91515355Y-126717483D01*
X91515355Y-126717483D02*
X91515355Y-126336531D01*
X91515355Y-126336531D02*
X91562974Y-126241293D01*
X91562974Y-126241293D02*
X91658212Y-126193674D01*
X91658212Y-126193674D02*
X91848688Y-126193674D01*
X91848688Y-126193674D02*
X91943926Y-126241293D01*
X91943926Y-126241293D02*
X91991545Y-126336531D01*
X91991545Y-126336531D02*
X91991545Y-126431769D01*
X91991545Y-126431769D02*
X91515355Y-126527007D01*
X92801069Y-126812722D02*
X92705831Y-126860341D01*
X92705831Y-126860341D02*
X92515355Y-126860341D01*
X92515355Y-126860341D02*
X92420117Y-126812722D01*
X92420117Y-126812722D02*
X92372498Y-126717483D01*
X92372498Y-126717483D02*
X92372498Y-126336531D01*
X92372498Y-126336531D02*
X92420117Y-126241293D01*
X92420117Y-126241293D02*
X92515355Y-126193674D01*
X92515355Y-126193674D02*
X92705831Y-126193674D01*
X92705831Y-126193674D02*
X92801069Y-126241293D01*
X92801069Y-126241293D02*
X92848688Y-126336531D01*
X92848688Y-126336531D02*
X92848688Y-126431769D01*
X92848688Y-126431769D02*
X92372498Y-126527007D01*
X93420117Y-126860341D02*
X93324879Y-126812722D01*
X93324879Y-126812722D02*
X93277260Y-126717483D01*
X93277260Y-126717483D02*
X93277260Y-125860341D01*
X68039160Y-128422666D02*
X68182017Y-128470285D01*
X68182017Y-128470285D02*
X68420112Y-128470285D01*
X68420112Y-128470285D02*
X68515350Y-128422666D01*
X68515350Y-128422666D02*
X68562969Y-128375046D01*
X68562969Y-128375046D02*
X68610588Y-128279808D01*
X68610588Y-128279808D02*
X68610588Y-128184570D01*
X68610588Y-128184570D02*
X68562969Y-128089332D01*
X68562969Y-128089332D02*
X68515350Y-128041713D01*
X68515350Y-128041713D02*
X68420112Y-127994094D01*
X68420112Y-127994094D02*
X68229636Y-127946475D01*
X68229636Y-127946475D02*
X68134398Y-127898856D01*
X68134398Y-127898856D02*
X68086779Y-127851237D01*
X68086779Y-127851237D02*
X68039160Y-127755999D01*
X68039160Y-127755999D02*
X68039160Y-127660761D01*
X68039160Y-127660761D02*
X68086779Y-127565523D01*
X68086779Y-127565523D02*
X68134398Y-127517904D01*
X68134398Y-127517904D02*
X68229636Y-127470285D01*
X68229636Y-127470285D02*
X68467731Y-127470285D01*
X68467731Y-127470285D02*
X68610588Y-127517904D01*
X68896303Y-127803618D02*
X69277255Y-127803618D01*
X69039160Y-127470285D02*
X69039160Y-128327427D01*
X69039160Y-128327427D02*
X69086779Y-128422666D01*
X69086779Y-128422666D02*
X69182017Y-128470285D01*
X69182017Y-128470285D02*
X69277255Y-128470285D01*
X69610589Y-128470285D02*
X69610589Y-127803618D01*
X69610589Y-127470285D02*
X69562970Y-127517904D01*
X69562970Y-127517904D02*
X69610589Y-127565523D01*
X69610589Y-127565523D02*
X69658208Y-127517904D01*
X69658208Y-127517904D02*
X69610589Y-127470285D01*
X69610589Y-127470285D02*
X69610589Y-127565523D01*
X69943922Y-127803618D02*
X70324874Y-127803618D01*
X70086779Y-128470285D02*
X70086779Y-127613142D01*
X70086779Y-127613142D02*
X70134398Y-127517904D01*
X70134398Y-127517904D02*
X70229636Y-127470285D01*
X70229636Y-127470285D02*
X70324874Y-127470285D01*
X70515351Y-127803618D02*
X70896303Y-127803618D01*
X70658208Y-128470285D02*
X70658208Y-127613142D01*
X70658208Y-127613142D02*
X70705827Y-127517904D01*
X70705827Y-127517904D02*
X70801065Y-127470285D01*
X70801065Y-127470285D02*
X70896303Y-127470285D01*
X71610589Y-128422666D02*
X71515351Y-128470285D01*
X71515351Y-128470285D02*
X71324875Y-128470285D01*
X71324875Y-128470285D02*
X71229637Y-128422666D01*
X71229637Y-128422666D02*
X71182018Y-128327427D01*
X71182018Y-128327427D02*
X71182018Y-127946475D01*
X71182018Y-127946475D02*
X71229637Y-127851237D01*
X71229637Y-127851237D02*
X71324875Y-127803618D01*
X71324875Y-127803618D02*
X71515351Y-127803618D01*
X71515351Y-127803618D02*
X71610589Y-127851237D01*
X71610589Y-127851237D02*
X71658208Y-127946475D01*
X71658208Y-127946475D02*
X71658208Y-128041713D01*
X71658208Y-128041713D02*
X71182018Y-128136951D01*
X72086780Y-127803618D02*
X72086780Y-128470285D01*
X72086780Y-127898856D02*
X72134399Y-127851237D01*
X72134399Y-127851237D02*
X72229637Y-127803618D01*
X72229637Y-127803618D02*
X72372494Y-127803618D01*
X72372494Y-127803618D02*
X72467732Y-127851237D01*
X72467732Y-127851237D02*
X72515351Y-127946475D01*
X72515351Y-127946475D02*
X72515351Y-128470285D01*
X73372494Y-128422666D02*
X73277256Y-128470285D01*
X73277256Y-128470285D02*
X73086780Y-128470285D01*
X73086780Y-128470285D02*
X72991542Y-128422666D01*
X72991542Y-128422666D02*
X72943923Y-128327427D01*
X72943923Y-128327427D02*
X72943923Y-127946475D01*
X72943923Y-127946475D02*
X72991542Y-127851237D01*
X72991542Y-127851237D02*
X73086780Y-127803618D01*
X73086780Y-127803618D02*
X73277256Y-127803618D01*
X73277256Y-127803618D02*
X73372494Y-127851237D01*
X73372494Y-127851237D02*
X73420113Y-127946475D01*
X73420113Y-127946475D02*
X73420113Y-128041713D01*
X73420113Y-128041713D02*
X72943923Y-128136951D01*
X73848685Y-128470285D02*
X73848685Y-127803618D01*
X73848685Y-127994094D02*
X73896304Y-127898856D01*
X73896304Y-127898856D02*
X73943923Y-127851237D01*
X73943923Y-127851237D02*
X74039161Y-127803618D01*
X74039161Y-127803618D02*
X74134399Y-127803618D01*
X75086781Y-127470285D02*
X75658209Y-127470285D01*
X75372495Y-128470285D02*
X75372495Y-127470285D01*
X75991543Y-128470285D02*
X75991543Y-127470285D01*
X76420114Y-128470285D02*
X76420114Y-127946475D01*
X76420114Y-127946475D02*
X76372495Y-127851237D01*
X76372495Y-127851237D02*
X76277257Y-127803618D01*
X76277257Y-127803618D02*
X76134400Y-127803618D01*
X76134400Y-127803618D02*
X76039162Y-127851237D01*
X76039162Y-127851237D02*
X75991543Y-127898856D01*
X76896305Y-128470285D02*
X76896305Y-127803618D01*
X76896305Y-127470285D02*
X76848686Y-127517904D01*
X76848686Y-127517904D02*
X76896305Y-127565523D01*
X76896305Y-127565523D02*
X76943924Y-127517904D01*
X76943924Y-127517904D02*
X76896305Y-127470285D01*
X76896305Y-127470285D02*
X76896305Y-127565523D01*
X77801066Y-128422666D02*
X77705828Y-128470285D01*
X77705828Y-128470285D02*
X77515352Y-128470285D01*
X77515352Y-128470285D02*
X77420114Y-128422666D01*
X77420114Y-128422666D02*
X77372495Y-128375046D01*
X77372495Y-128375046D02*
X77324876Y-128279808D01*
X77324876Y-128279808D02*
X77324876Y-127994094D01*
X77324876Y-127994094D02*
X77372495Y-127898856D01*
X77372495Y-127898856D02*
X77420114Y-127851237D01*
X77420114Y-127851237D02*
X77515352Y-127803618D01*
X77515352Y-127803618D02*
X77705828Y-127803618D01*
X77705828Y-127803618D02*
X77801066Y-127851237D01*
X78229638Y-128470285D02*
X78229638Y-127470285D01*
X78324876Y-128089332D02*
X78610590Y-128470285D01*
X78610590Y-127803618D02*
X78229638Y-128184570D01*
X79039162Y-127803618D02*
X79039162Y-128470285D01*
X79039162Y-127898856D02*
X79086781Y-127851237D01*
X79086781Y-127851237D02*
X79182019Y-127803618D01*
X79182019Y-127803618D02*
X79324876Y-127803618D01*
X79324876Y-127803618D02*
X79420114Y-127851237D01*
X79420114Y-127851237D02*
X79467733Y-127946475D01*
X79467733Y-127946475D02*
X79467733Y-128470285D01*
X80324876Y-128422666D02*
X80229638Y-128470285D01*
X80229638Y-128470285D02*
X80039162Y-128470285D01*
X80039162Y-128470285D02*
X79943924Y-128422666D01*
X79943924Y-128422666D02*
X79896305Y-128327427D01*
X79896305Y-128327427D02*
X79896305Y-127946475D01*
X79896305Y-127946475D02*
X79943924Y-127851237D01*
X79943924Y-127851237D02*
X80039162Y-127803618D01*
X80039162Y-127803618D02*
X80229638Y-127803618D01*
X80229638Y-127803618D02*
X80324876Y-127851237D01*
X80324876Y-127851237D02*
X80372495Y-127946475D01*
X80372495Y-127946475D02*
X80372495Y-128041713D01*
X80372495Y-128041713D02*
X79896305Y-128136951D01*
X80753448Y-128422666D02*
X80848686Y-128470285D01*
X80848686Y-128470285D02*
X81039162Y-128470285D01*
X81039162Y-128470285D02*
X81134400Y-128422666D01*
X81134400Y-128422666D02*
X81182019Y-128327427D01*
X81182019Y-128327427D02*
X81182019Y-128279808D01*
X81182019Y-128279808D02*
X81134400Y-128184570D01*
X81134400Y-128184570D02*
X81039162Y-128136951D01*
X81039162Y-128136951D02*
X80896305Y-128136951D01*
X80896305Y-128136951D02*
X80801067Y-128089332D01*
X80801067Y-128089332D02*
X80753448Y-127994094D01*
X80753448Y-127994094D02*
X80753448Y-127946475D01*
X80753448Y-127946475D02*
X80801067Y-127851237D01*
X80801067Y-127851237D02*
X80896305Y-127803618D01*
X80896305Y-127803618D02*
X81039162Y-127803618D01*
X81039162Y-127803618D02*
X81134400Y-127851237D01*
X81562972Y-128422666D02*
X81658210Y-128470285D01*
X81658210Y-128470285D02*
X81848686Y-128470285D01*
X81848686Y-128470285D02*
X81943924Y-128422666D01*
X81943924Y-128422666D02*
X81991543Y-128327427D01*
X81991543Y-128327427D02*
X81991543Y-128279808D01*
X81991543Y-128279808D02*
X81943924Y-128184570D01*
X81943924Y-128184570D02*
X81848686Y-128136951D01*
X81848686Y-128136951D02*
X81705829Y-128136951D01*
X81705829Y-128136951D02*
X81610591Y-128089332D01*
X81610591Y-128089332D02*
X81562972Y-127994094D01*
X81562972Y-127994094D02*
X81562972Y-127946475D01*
X81562972Y-127946475D02*
X81610591Y-127851237D01*
X81610591Y-127851237D02*
X81705829Y-127803618D01*
X81705829Y-127803618D02*
X81848686Y-127803618D01*
X81848686Y-127803618D02*
X81943924Y-127851237D01*
X82420115Y-128375046D02*
X82467734Y-128422666D01*
X82467734Y-128422666D02*
X82420115Y-128470285D01*
X82420115Y-128470285D02*
X82372496Y-128422666D01*
X82372496Y-128422666D02*
X82420115Y-128375046D01*
X82420115Y-128375046D02*
X82420115Y-128470285D01*
X82420115Y-127851237D02*
X82467734Y-127898856D01*
X82467734Y-127898856D02*
X82420115Y-127946475D01*
X82420115Y-127946475D02*
X82372496Y-127898856D01*
X82372496Y-127898856D02*
X82420115Y-127851237D01*
X82420115Y-127851237D02*
X82420115Y-127946475D01*
X83848686Y-127470285D02*
X83943924Y-127470285D01*
X83943924Y-127470285D02*
X84039162Y-127517904D01*
X84039162Y-127517904D02*
X84086781Y-127565523D01*
X84086781Y-127565523D02*
X84134400Y-127660761D01*
X84134400Y-127660761D02*
X84182019Y-127851237D01*
X84182019Y-127851237D02*
X84182019Y-128089332D01*
X84182019Y-128089332D02*
X84134400Y-128279808D01*
X84134400Y-128279808D02*
X84086781Y-128375046D01*
X84086781Y-128375046D02*
X84039162Y-128422666D01*
X84039162Y-128422666D02*
X83943924Y-128470285D01*
X83943924Y-128470285D02*
X83848686Y-128470285D01*
X83848686Y-128470285D02*
X83753448Y-128422666D01*
X83753448Y-128422666D02*
X83705829Y-128375046D01*
X83705829Y-128375046D02*
X83658210Y-128279808D01*
X83658210Y-128279808D02*
X83610591Y-128089332D01*
X83610591Y-128089332D02*
X83610591Y-127851237D01*
X83610591Y-127851237D02*
X83658210Y-127660761D01*
X83658210Y-127660761D02*
X83705829Y-127565523D01*
X83705829Y-127565523D02*
X83753448Y-127517904D01*
X83753448Y-127517904D02*
X83848686Y-127470285D01*
X84610591Y-128375046D02*
X84658210Y-128422666D01*
X84658210Y-128422666D02*
X84610591Y-128470285D01*
X84610591Y-128470285D02*
X84562972Y-128422666D01*
X84562972Y-128422666D02*
X84610591Y-128375046D01*
X84610591Y-128375046D02*
X84610591Y-128470285D01*
X84991543Y-127470285D02*
X85610590Y-127470285D01*
X85610590Y-127470285D02*
X85277257Y-127851237D01*
X85277257Y-127851237D02*
X85420114Y-127851237D01*
X85420114Y-127851237D02*
X85515352Y-127898856D01*
X85515352Y-127898856D02*
X85562971Y-127946475D01*
X85562971Y-127946475D02*
X85610590Y-128041713D01*
X85610590Y-128041713D02*
X85610590Y-128279808D01*
X85610590Y-128279808D02*
X85562971Y-128375046D01*
X85562971Y-128375046D02*
X85515352Y-128422666D01*
X85515352Y-128422666D02*
X85420114Y-128470285D01*
X85420114Y-128470285D02*
X85134400Y-128470285D01*
X85134400Y-128470285D02*
X85039162Y-128422666D01*
X85039162Y-128422666D02*
X84991543Y-128375046D01*
X86039162Y-128470285D02*
X86039162Y-127803618D01*
X86039162Y-127898856D02*
X86086781Y-127851237D01*
X86086781Y-127851237D02*
X86182019Y-127803618D01*
X86182019Y-127803618D02*
X86324876Y-127803618D01*
X86324876Y-127803618D02*
X86420114Y-127851237D01*
X86420114Y-127851237D02*
X86467733Y-127946475D01*
X86467733Y-127946475D02*
X86467733Y-128470285D01*
X86467733Y-127946475D02*
X86515352Y-127851237D01*
X86515352Y-127851237D02*
X86610590Y-127803618D01*
X86610590Y-127803618D02*
X86753447Y-127803618D01*
X86753447Y-127803618D02*
X86848686Y-127851237D01*
X86848686Y-127851237D02*
X86896305Y-127946475D01*
X86896305Y-127946475D02*
X86896305Y-128470285D01*
X87372495Y-128470285D02*
X87372495Y-127803618D01*
X87372495Y-127898856D02*
X87420114Y-127851237D01*
X87420114Y-127851237D02*
X87515352Y-127803618D01*
X87515352Y-127803618D02*
X87658209Y-127803618D01*
X87658209Y-127803618D02*
X87753447Y-127851237D01*
X87753447Y-127851237D02*
X87801066Y-127946475D01*
X87801066Y-127946475D02*
X87801066Y-128470285D01*
X87801066Y-127946475D02*
X87848685Y-127851237D01*
X87848685Y-127851237D02*
X87943923Y-127803618D01*
X87943923Y-127803618D02*
X88086780Y-127803618D01*
X88086780Y-127803618D02*
X88182019Y-127851237D01*
X88182019Y-127851237D02*
X88229638Y-127946475D01*
X88229638Y-127946475D02*
X88229638Y-128470285D01*
X68086779Y-130080229D02*
X68086779Y-129080229D01*
X68086779Y-129080229D02*
X68467731Y-129080229D01*
X68467731Y-129080229D02*
X68562969Y-129127848D01*
X68562969Y-129127848D02*
X68610588Y-129175467D01*
X68610588Y-129175467D02*
X68658207Y-129270705D01*
X68658207Y-129270705D02*
X68658207Y-129413562D01*
X68658207Y-129413562D02*
X68610588Y-129508800D01*
X68610588Y-129508800D02*
X68562969Y-129556419D01*
X68562969Y-129556419D02*
X68467731Y-129604038D01*
X68467731Y-129604038D02*
X68086779Y-129604038D01*
X69229636Y-130080229D02*
X69134398Y-130032610D01*
X69134398Y-130032610D02*
X69086779Y-129937371D01*
X69086779Y-129937371D02*
X69086779Y-129080229D01*
X70039160Y-130080229D02*
X70039160Y-129556419D01*
X70039160Y-129556419D02*
X69991541Y-129461181D01*
X69991541Y-129461181D02*
X69896303Y-129413562D01*
X69896303Y-129413562D02*
X69705827Y-129413562D01*
X69705827Y-129413562D02*
X69610589Y-129461181D01*
X70039160Y-130032610D02*
X69943922Y-130080229D01*
X69943922Y-130080229D02*
X69705827Y-130080229D01*
X69705827Y-130080229D02*
X69610589Y-130032610D01*
X69610589Y-130032610D02*
X69562970Y-129937371D01*
X69562970Y-129937371D02*
X69562970Y-129842133D01*
X69562970Y-129842133D02*
X69610589Y-129746895D01*
X69610589Y-129746895D02*
X69705827Y-129699276D01*
X69705827Y-129699276D02*
X69943922Y-129699276D01*
X69943922Y-129699276D02*
X70039160Y-129651657D01*
X70943922Y-130032610D02*
X70848684Y-130080229D01*
X70848684Y-130080229D02*
X70658208Y-130080229D01*
X70658208Y-130080229D02*
X70562970Y-130032610D01*
X70562970Y-130032610D02*
X70515351Y-129984990D01*
X70515351Y-129984990D02*
X70467732Y-129889752D01*
X70467732Y-129889752D02*
X70467732Y-129604038D01*
X70467732Y-129604038D02*
X70515351Y-129508800D01*
X70515351Y-129508800D02*
X70562970Y-129461181D01*
X70562970Y-129461181D02*
X70658208Y-129413562D01*
X70658208Y-129413562D02*
X70848684Y-129413562D01*
X70848684Y-129413562D02*
X70943922Y-129461181D01*
X71753446Y-130032610D02*
X71658208Y-130080229D01*
X71658208Y-130080229D02*
X71467732Y-130080229D01*
X71467732Y-130080229D02*
X71372494Y-130032610D01*
X71372494Y-130032610D02*
X71324875Y-129937371D01*
X71324875Y-129937371D02*
X71324875Y-129556419D01*
X71324875Y-129556419D02*
X71372494Y-129461181D01*
X71372494Y-129461181D02*
X71467732Y-129413562D01*
X71467732Y-129413562D02*
X71658208Y-129413562D01*
X71658208Y-129413562D02*
X71753446Y-129461181D01*
X71753446Y-129461181D02*
X71801065Y-129556419D01*
X71801065Y-129556419D02*
X71801065Y-129651657D01*
X71801065Y-129651657D02*
X71324875Y-129746895D01*
X72229637Y-130080229D02*
X72229637Y-129413562D01*
X72229637Y-129508800D02*
X72277256Y-129461181D01*
X72277256Y-129461181D02*
X72372494Y-129413562D01*
X72372494Y-129413562D02*
X72515351Y-129413562D01*
X72515351Y-129413562D02*
X72610589Y-129461181D01*
X72610589Y-129461181D02*
X72658208Y-129556419D01*
X72658208Y-129556419D02*
X72658208Y-130080229D01*
X72658208Y-129556419D02*
X72705827Y-129461181D01*
X72705827Y-129461181D02*
X72801065Y-129413562D01*
X72801065Y-129413562D02*
X72943922Y-129413562D01*
X72943922Y-129413562D02*
X73039161Y-129461181D01*
X73039161Y-129461181D02*
X73086780Y-129556419D01*
X73086780Y-129556419D02*
X73086780Y-130080229D01*
X73943922Y-130032610D02*
X73848684Y-130080229D01*
X73848684Y-130080229D02*
X73658208Y-130080229D01*
X73658208Y-130080229D02*
X73562970Y-130032610D01*
X73562970Y-130032610D02*
X73515351Y-129937371D01*
X73515351Y-129937371D02*
X73515351Y-129556419D01*
X73515351Y-129556419D02*
X73562970Y-129461181D01*
X73562970Y-129461181D02*
X73658208Y-129413562D01*
X73658208Y-129413562D02*
X73848684Y-129413562D01*
X73848684Y-129413562D02*
X73943922Y-129461181D01*
X73943922Y-129461181D02*
X73991541Y-129556419D01*
X73991541Y-129556419D02*
X73991541Y-129651657D01*
X73991541Y-129651657D02*
X73515351Y-129746895D01*
X74420113Y-129413562D02*
X74420113Y-130080229D01*
X74420113Y-129508800D02*
X74467732Y-129461181D01*
X74467732Y-129461181D02*
X74562970Y-129413562D01*
X74562970Y-129413562D02*
X74705827Y-129413562D01*
X74705827Y-129413562D02*
X74801065Y-129461181D01*
X74801065Y-129461181D02*
X74848684Y-129556419D01*
X74848684Y-129556419D02*
X74848684Y-130080229D01*
X75182018Y-129413562D02*
X75562970Y-129413562D01*
X75324875Y-129080229D02*
X75324875Y-129937371D01*
X75324875Y-129937371D02*
X75372494Y-130032610D01*
X75372494Y-130032610D02*
X75467732Y-130080229D01*
X75467732Y-130080229D02*
X75562970Y-130080229D01*
X75896304Y-129984990D02*
X75943923Y-130032610D01*
X75943923Y-130032610D02*
X75896304Y-130080229D01*
X75896304Y-130080229D02*
X75848685Y-130032610D01*
X75848685Y-130032610D02*
X75896304Y-129984990D01*
X75896304Y-129984990D02*
X75896304Y-130080229D01*
X75896304Y-129461181D02*
X75943923Y-129508800D01*
X75943923Y-129508800D02*
X75896304Y-129556419D01*
X75896304Y-129556419D02*
X75848685Y-129508800D01*
X75848685Y-129508800D02*
X75896304Y-129461181D01*
X75896304Y-129461181D02*
X75896304Y-129556419D01*
X77467732Y-129556419D02*
X77610589Y-129604038D01*
X77610589Y-129604038D02*
X77658208Y-129651657D01*
X77658208Y-129651657D02*
X77705827Y-129746895D01*
X77705827Y-129746895D02*
X77705827Y-129889752D01*
X77705827Y-129889752D02*
X77658208Y-129984990D01*
X77658208Y-129984990D02*
X77610589Y-130032610D01*
X77610589Y-130032610D02*
X77515351Y-130080229D01*
X77515351Y-130080229D02*
X77134399Y-130080229D01*
X77134399Y-130080229D02*
X77134399Y-129080229D01*
X77134399Y-129080229D02*
X77467732Y-129080229D01*
X77467732Y-129080229D02*
X77562970Y-129127848D01*
X77562970Y-129127848D02*
X77610589Y-129175467D01*
X77610589Y-129175467D02*
X77658208Y-129270705D01*
X77658208Y-129270705D02*
X77658208Y-129365943D01*
X77658208Y-129365943D02*
X77610589Y-129461181D01*
X77610589Y-129461181D02*
X77562970Y-129508800D01*
X77562970Y-129508800D02*
X77467732Y-129556419D01*
X77467732Y-129556419D02*
X77134399Y-129556419D01*
X78277256Y-130080229D02*
X78182018Y-130032610D01*
X78182018Y-130032610D02*
X78134399Y-129984990D01*
X78134399Y-129984990D02*
X78086780Y-129889752D01*
X78086780Y-129889752D02*
X78086780Y-129604038D01*
X78086780Y-129604038D02*
X78134399Y-129508800D01*
X78134399Y-129508800D02*
X78182018Y-129461181D01*
X78182018Y-129461181D02*
X78277256Y-129413562D01*
X78277256Y-129413562D02*
X78420113Y-129413562D01*
X78420113Y-129413562D02*
X78515351Y-129461181D01*
X78515351Y-129461181D02*
X78562970Y-129508800D01*
X78562970Y-129508800D02*
X78610589Y-129604038D01*
X78610589Y-129604038D02*
X78610589Y-129889752D01*
X78610589Y-129889752D02*
X78562970Y-129984990D01*
X78562970Y-129984990D02*
X78515351Y-130032610D01*
X78515351Y-130032610D02*
X78420113Y-130080229D01*
X78420113Y-130080229D02*
X78277256Y-130080229D01*
X78896304Y-129413562D02*
X79277256Y-129413562D01*
X79039161Y-129080229D02*
X79039161Y-129937371D01*
X79039161Y-129937371D02*
X79086780Y-130032610D01*
X79086780Y-130032610D02*
X79182018Y-130080229D01*
X79182018Y-130080229D02*
X79277256Y-130080229D01*
X79467733Y-129413562D02*
X79848685Y-129413562D01*
X79610590Y-129080229D02*
X79610590Y-129937371D01*
X79610590Y-129937371D02*
X79658209Y-130032610D01*
X79658209Y-130032610D02*
X79753447Y-130080229D01*
X79753447Y-130080229D02*
X79848685Y-130080229D01*
X80324876Y-130080229D02*
X80229638Y-130032610D01*
X80229638Y-130032610D02*
X80182019Y-129984990D01*
X80182019Y-129984990D02*
X80134400Y-129889752D01*
X80134400Y-129889752D02*
X80134400Y-129604038D01*
X80134400Y-129604038D02*
X80182019Y-129508800D01*
X80182019Y-129508800D02*
X80229638Y-129461181D01*
X80229638Y-129461181D02*
X80324876Y-129413562D01*
X80324876Y-129413562D02*
X80467733Y-129413562D01*
X80467733Y-129413562D02*
X80562971Y-129461181D01*
X80562971Y-129461181D02*
X80610590Y-129508800D01*
X80610590Y-129508800D02*
X80658209Y-129604038D01*
X80658209Y-129604038D02*
X80658209Y-129889752D01*
X80658209Y-129889752D02*
X80610590Y-129984990D01*
X80610590Y-129984990D02*
X80562971Y-130032610D01*
X80562971Y-130032610D02*
X80467733Y-130080229D01*
X80467733Y-130080229D02*
X80324876Y-130080229D01*
X81086781Y-130080229D02*
X81086781Y-129413562D01*
X81086781Y-129508800D02*
X81134400Y-129461181D01*
X81134400Y-129461181D02*
X81229638Y-129413562D01*
X81229638Y-129413562D02*
X81372495Y-129413562D01*
X81372495Y-129413562D02*
X81467733Y-129461181D01*
X81467733Y-129461181D02*
X81515352Y-129556419D01*
X81515352Y-129556419D02*
X81515352Y-130080229D01*
X81515352Y-129556419D02*
X81562971Y-129461181D01*
X81562971Y-129461181D02*
X81658209Y-129413562D01*
X81658209Y-129413562D02*
X81801066Y-129413562D01*
X81801066Y-129413562D02*
X81896305Y-129461181D01*
X81896305Y-129461181D02*
X81943924Y-129556419D01*
X81943924Y-129556419D02*
X81943924Y-130080229D01*
X83134400Y-130032610D02*
X83229638Y-130080229D01*
X83229638Y-130080229D02*
X83420114Y-130080229D01*
X83420114Y-130080229D02*
X83515352Y-130032610D01*
X83515352Y-130032610D02*
X83562971Y-129937371D01*
X83562971Y-129937371D02*
X83562971Y-129889752D01*
X83562971Y-129889752D02*
X83515352Y-129794514D01*
X83515352Y-129794514D02*
X83420114Y-129746895D01*
X83420114Y-129746895D02*
X83277257Y-129746895D01*
X83277257Y-129746895D02*
X83182019Y-129699276D01*
X83182019Y-129699276D02*
X83134400Y-129604038D01*
X83134400Y-129604038D02*
X83134400Y-129556419D01*
X83134400Y-129556419D02*
X83182019Y-129461181D01*
X83182019Y-129461181D02*
X83277257Y-129413562D01*
X83277257Y-129413562D02*
X83420114Y-129413562D01*
X83420114Y-129413562D02*
X83515352Y-129461181D01*
X83991543Y-130080229D02*
X83991543Y-129413562D01*
X83991543Y-129080229D02*
X83943924Y-129127848D01*
X83943924Y-129127848D02*
X83991543Y-129175467D01*
X83991543Y-129175467D02*
X84039162Y-129127848D01*
X84039162Y-129127848D02*
X83991543Y-129080229D01*
X83991543Y-129080229D02*
X83991543Y-129175467D01*
X84896304Y-130080229D02*
X84896304Y-129080229D01*
X84896304Y-130032610D02*
X84801066Y-130080229D01*
X84801066Y-130080229D02*
X84610590Y-130080229D01*
X84610590Y-130080229D02*
X84515352Y-130032610D01*
X84515352Y-130032610D02*
X84467733Y-129984990D01*
X84467733Y-129984990D02*
X84420114Y-129889752D01*
X84420114Y-129889752D02*
X84420114Y-129604038D01*
X84420114Y-129604038D02*
X84467733Y-129508800D01*
X84467733Y-129508800D02*
X84515352Y-129461181D01*
X84515352Y-129461181D02*
X84610590Y-129413562D01*
X84610590Y-129413562D02*
X84801066Y-129413562D01*
X84801066Y-129413562D02*
X84896304Y-129461181D01*
X85753447Y-130032610D02*
X85658209Y-130080229D01*
X85658209Y-130080229D02*
X85467733Y-130080229D01*
X85467733Y-130080229D02*
X85372495Y-130032610D01*
X85372495Y-130032610D02*
X85324876Y-129937371D01*
X85324876Y-129937371D02*
X85324876Y-129556419D01*
X85324876Y-129556419D02*
X85372495Y-129461181D01*
X85372495Y-129461181D02*
X85467733Y-129413562D01*
X85467733Y-129413562D02*
X85658209Y-129413562D01*
X85658209Y-129413562D02*
X85753447Y-129461181D01*
X85753447Y-129461181D02*
X85801066Y-129556419D01*
X85801066Y-129556419D02*
X85801066Y-129651657D01*
X85801066Y-129651657D02*
X85324876Y-129746895D01*
X87277257Y-130461181D02*
X87229638Y-130413562D01*
X87229638Y-130413562D02*
X87134400Y-130270705D01*
X87134400Y-130270705D02*
X87086781Y-130175467D01*
X87086781Y-130175467D02*
X87039162Y-130032610D01*
X87039162Y-130032610D02*
X86991543Y-129794514D01*
X86991543Y-129794514D02*
X86991543Y-129604038D01*
X86991543Y-129604038D02*
X87039162Y-129365943D01*
X87039162Y-129365943D02*
X87086781Y-129223086D01*
X87086781Y-129223086D02*
X87134400Y-129127848D01*
X87134400Y-129127848D02*
X87229638Y-128984990D01*
X87229638Y-128984990D02*
X87277257Y-128937371D01*
X88086781Y-130080229D02*
X88086781Y-129556419D01*
X88086781Y-129556419D02*
X88039162Y-129461181D01*
X88039162Y-129461181D02*
X87943924Y-129413562D01*
X87943924Y-129413562D02*
X87753448Y-129413562D01*
X87753448Y-129413562D02*
X87658210Y-129461181D01*
X88086781Y-130032610D02*
X87991543Y-130080229D01*
X87991543Y-130080229D02*
X87753448Y-130080229D01*
X87753448Y-130080229D02*
X87658210Y-130032610D01*
X87658210Y-130032610D02*
X87610591Y-129937371D01*
X87610591Y-129937371D02*
X87610591Y-129842133D01*
X87610591Y-129842133D02*
X87658210Y-129746895D01*
X87658210Y-129746895D02*
X87753448Y-129699276D01*
X87753448Y-129699276D02*
X87991543Y-129699276D01*
X87991543Y-129699276D02*
X88086781Y-129651657D01*
X88515353Y-130032610D02*
X88610591Y-130080229D01*
X88610591Y-130080229D02*
X88801067Y-130080229D01*
X88801067Y-130080229D02*
X88896305Y-130032610D01*
X88896305Y-130032610D02*
X88943924Y-129937371D01*
X88943924Y-129937371D02*
X88943924Y-129889752D01*
X88943924Y-129889752D02*
X88896305Y-129794514D01*
X88896305Y-129794514D02*
X88801067Y-129746895D01*
X88801067Y-129746895D02*
X88658210Y-129746895D01*
X88658210Y-129746895D02*
X88562972Y-129699276D01*
X88562972Y-129699276D02*
X88515353Y-129604038D01*
X88515353Y-129604038D02*
X88515353Y-129556419D01*
X88515353Y-129556419D02*
X88562972Y-129461181D01*
X88562972Y-129461181D02*
X88658210Y-129413562D01*
X88658210Y-129413562D02*
X88801067Y-129413562D01*
X88801067Y-129413562D02*
X88896305Y-129461181D01*
X90134401Y-129413562D02*
X90134401Y-130413562D01*
X90134401Y-129461181D02*
X90229639Y-129413562D01*
X90229639Y-129413562D02*
X90420115Y-129413562D01*
X90420115Y-129413562D02*
X90515353Y-129461181D01*
X90515353Y-129461181D02*
X90562972Y-129508800D01*
X90562972Y-129508800D02*
X90610591Y-129604038D01*
X90610591Y-129604038D02*
X90610591Y-129889752D01*
X90610591Y-129889752D02*
X90562972Y-129984990D01*
X90562972Y-129984990D02*
X90515353Y-130032610D01*
X90515353Y-130032610D02*
X90420115Y-130080229D01*
X90420115Y-130080229D02*
X90229639Y-130080229D01*
X90229639Y-130080229D02*
X90134401Y-130032610D01*
X91420115Y-130032610D02*
X91324877Y-130080229D01*
X91324877Y-130080229D02*
X91134401Y-130080229D01*
X91134401Y-130080229D02*
X91039163Y-130032610D01*
X91039163Y-130032610D02*
X90991544Y-129937371D01*
X90991544Y-129937371D02*
X90991544Y-129556419D01*
X90991544Y-129556419D02*
X91039163Y-129461181D01*
X91039163Y-129461181D02*
X91134401Y-129413562D01*
X91134401Y-129413562D02*
X91324877Y-129413562D01*
X91324877Y-129413562D02*
X91420115Y-129461181D01*
X91420115Y-129461181D02*
X91467734Y-129556419D01*
X91467734Y-129556419D02*
X91467734Y-129651657D01*
X91467734Y-129651657D02*
X90991544Y-129746895D01*
X91896306Y-130080229D02*
X91896306Y-129413562D01*
X91896306Y-129604038D02*
X91943925Y-129508800D01*
X91943925Y-129508800D02*
X91991544Y-129461181D01*
X91991544Y-129461181D02*
X92086782Y-129413562D01*
X92086782Y-129413562D02*
X92182020Y-129413562D01*
X93801068Y-129127848D02*
X93705830Y-129080229D01*
X93705830Y-129080229D02*
X93562973Y-129080229D01*
X93562973Y-129080229D02*
X93420116Y-129127848D01*
X93420116Y-129127848D02*
X93324878Y-129223086D01*
X93324878Y-129223086D02*
X93277259Y-129318324D01*
X93277259Y-129318324D02*
X93229640Y-129508800D01*
X93229640Y-129508800D02*
X93229640Y-129651657D01*
X93229640Y-129651657D02*
X93277259Y-129842133D01*
X93277259Y-129842133D02*
X93324878Y-129937371D01*
X93324878Y-129937371D02*
X93420116Y-130032610D01*
X93420116Y-130032610D02*
X93562973Y-130080229D01*
X93562973Y-130080229D02*
X93658211Y-130080229D01*
X93658211Y-130080229D02*
X93801068Y-130032610D01*
X93801068Y-130032610D02*
X93848687Y-129984990D01*
X93848687Y-129984990D02*
X93848687Y-129651657D01*
X93848687Y-129651657D02*
X93658211Y-129651657D01*
X94658211Y-130032610D02*
X94562973Y-130080229D01*
X94562973Y-130080229D02*
X94372497Y-130080229D01*
X94372497Y-130080229D02*
X94277259Y-130032610D01*
X94277259Y-130032610D02*
X94229640Y-129937371D01*
X94229640Y-129937371D02*
X94229640Y-129556419D01*
X94229640Y-129556419D02*
X94277259Y-129461181D01*
X94277259Y-129461181D02*
X94372497Y-129413562D01*
X94372497Y-129413562D02*
X94562973Y-129413562D01*
X94562973Y-129413562D02*
X94658211Y-129461181D01*
X94658211Y-129461181D02*
X94705830Y-129556419D01*
X94705830Y-129556419D02*
X94705830Y-129651657D01*
X94705830Y-129651657D02*
X94229640Y-129746895D01*
X95134402Y-130080229D02*
X95134402Y-129413562D01*
X95134402Y-129604038D02*
X95182021Y-129508800D01*
X95182021Y-129508800D02*
X95229640Y-129461181D01*
X95229640Y-129461181D02*
X95324878Y-129413562D01*
X95324878Y-129413562D02*
X95420116Y-129413562D01*
X95753450Y-130080229D02*
X95753450Y-129080229D01*
X95753450Y-129461181D02*
X95848688Y-129413562D01*
X95848688Y-129413562D02*
X96039164Y-129413562D01*
X96039164Y-129413562D02*
X96134402Y-129461181D01*
X96134402Y-129461181D02*
X96182021Y-129508800D01*
X96182021Y-129508800D02*
X96229640Y-129604038D01*
X96229640Y-129604038D02*
X96229640Y-129889752D01*
X96229640Y-129889752D02*
X96182021Y-129984990D01*
X96182021Y-129984990D02*
X96134402Y-130032610D01*
X96134402Y-130032610D02*
X96039164Y-130080229D01*
X96039164Y-130080229D02*
X95848688Y-130080229D01*
X95848688Y-130080229D02*
X95753450Y-130032610D01*
X97039164Y-130032610D02*
X96943926Y-130080229D01*
X96943926Y-130080229D02*
X96753450Y-130080229D01*
X96753450Y-130080229D02*
X96658212Y-130032610D01*
X96658212Y-130032610D02*
X96610593Y-129937371D01*
X96610593Y-129937371D02*
X96610593Y-129556419D01*
X96610593Y-129556419D02*
X96658212Y-129461181D01*
X96658212Y-129461181D02*
X96753450Y-129413562D01*
X96753450Y-129413562D02*
X96943926Y-129413562D01*
X96943926Y-129413562D02*
X97039164Y-129461181D01*
X97039164Y-129461181D02*
X97086783Y-129556419D01*
X97086783Y-129556419D02*
X97086783Y-129651657D01*
X97086783Y-129651657D02*
X96610593Y-129746895D01*
X97515355Y-130080229D02*
X97515355Y-129413562D01*
X97515355Y-129604038D02*
X97562974Y-129508800D01*
X97562974Y-129508800D02*
X97610593Y-129461181D01*
X97610593Y-129461181D02*
X97705831Y-129413562D01*
X97705831Y-129413562D02*
X97801069Y-129413562D01*
X99039165Y-130080229D02*
X98943927Y-130032610D01*
X98943927Y-130032610D02*
X98896308Y-129937371D01*
X98896308Y-129937371D02*
X98896308Y-129080229D01*
X99848689Y-130080229D02*
X99848689Y-129556419D01*
X99848689Y-129556419D02*
X99801070Y-129461181D01*
X99801070Y-129461181D02*
X99705832Y-129413562D01*
X99705832Y-129413562D02*
X99515356Y-129413562D01*
X99515356Y-129413562D02*
X99420118Y-129461181D01*
X99848689Y-130032610D02*
X99753451Y-130080229D01*
X99753451Y-130080229D02*
X99515356Y-130080229D01*
X99515356Y-130080229D02*
X99420118Y-130032610D01*
X99420118Y-130032610D02*
X99372499Y-129937371D01*
X99372499Y-129937371D02*
X99372499Y-129842133D01*
X99372499Y-129842133D02*
X99420118Y-129746895D01*
X99420118Y-129746895D02*
X99515356Y-129699276D01*
X99515356Y-129699276D02*
X99753451Y-129699276D01*
X99753451Y-129699276D02*
X99848689Y-129651657D01*
X100229642Y-129413562D02*
X100467737Y-130080229D01*
X100705832Y-129413562D02*
X100467737Y-130080229D01*
X100467737Y-130080229D02*
X100372499Y-130318324D01*
X100372499Y-130318324D02*
X100324880Y-130365943D01*
X100324880Y-130365943D02*
X100229642Y-130413562D01*
X101467737Y-130032610D02*
X101372499Y-130080229D01*
X101372499Y-130080229D02*
X101182023Y-130080229D01*
X101182023Y-130080229D02*
X101086785Y-130032610D01*
X101086785Y-130032610D02*
X101039166Y-129937371D01*
X101039166Y-129937371D02*
X101039166Y-129556419D01*
X101039166Y-129556419D02*
X101086785Y-129461181D01*
X101086785Y-129461181D02*
X101182023Y-129413562D01*
X101182023Y-129413562D02*
X101372499Y-129413562D01*
X101372499Y-129413562D02*
X101467737Y-129461181D01*
X101467737Y-129461181D02*
X101515356Y-129556419D01*
X101515356Y-129556419D02*
X101515356Y-129651657D01*
X101515356Y-129651657D02*
X101039166Y-129746895D01*
X101943928Y-130080229D02*
X101943928Y-129413562D01*
X101943928Y-129604038D02*
X101991547Y-129508800D01*
X101991547Y-129508800D02*
X102039166Y-129461181D01*
X102039166Y-129461181D02*
X102134404Y-129413562D01*
X102134404Y-129413562D02*
X102229642Y-129413562D01*
X102467738Y-130461181D02*
X102515357Y-130413562D01*
X102515357Y-130413562D02*
X102610595Y-130270705D01*
X102610595Y-130270705D02*
X102658214Y-130175467D01*
X102658214Y-130175467D02*
X102705833Y-130032610D01*
X102705833Y-130032610D02*
X102753452Y-129794514D01*
X102753452Y-129794514D02*
X102753452Y-129604038D01*
X102753452Y-129604038D02*
X102705833Y-129365943D01*
X102705833Y-129365943D02*
X102658214Y-129223086D01*
X102658214Y-129223086D02*
X102610595Y-129127848D01*
X102610595Y-129127848D02*
X102515357Y-128984990D01*
X102515357Y-128984990D02*
X102467738Y-128937371D01*
X68039160Y-131404458D02*
X68515350Y-131404458D01*
X67943922Y-131690173D02*
X68277255Y-130690173D01*
X68277255Y-130690173D02*
X68610588Y-131690173D01*
X69372493Y-131690173D02*
X69372493Y-130690173D01*
X69372493Y-131642554D02*
X69277255Y-131690173D01*
X69277255Y-131690173D02*
X69086779Y-131690173D01*
X69086779Y-131690173D02*
X68991541Y-131642554D01*
X68991541Y-131642554D02*
X68943922Y-131594934D01*
X68943922Y-131594934D02*
X68896303Y-131499696D01*
X68896303Y-131499696D02*
X68896303Y-131213982D01*
X68896303Y-131213982D02*
X68943922Y-131118744D01*
X68943922Y-131118744D02*
X68991541Y-131071125D01*
X68991541Y-131071125D02*
X69086779Y-131023506D01*
X69086779Y-131023506D02*
X69277255Y-131023506D01*
X69277255Y-131023506D02*
X69372493Y-131071125D01*
X69848684Y-131690173D02*
X69848684Y-130690173D01*
X70277255Y-131690173D02*
X70277255Y-131166363D01*
X70277255Y-131166363D02*
X70229636Y-131071125D01*
X70229636Y-131071125D02*
X70134398Y-131023506D01*
X70134398Y-131023506D02*
X69991541Y-131023506D01*
X69991541Y-131023506D02*
X69896303Y-131071125D01*
X69896303Y-131071125D02*
X69848684Y-131118744D01*
X71134398Y-131642554D02*
X71039160Y-131690173D01*
X71039160Y-131690173D02*
X70848684Y-131690173D01*
X70848684Y-131690173D02*
X70753446Y-131642554D01*
X70753446Y-131642554D02*
X70705827Y-131547315D01*
X70705827Y-131547315D02*
X70705827Y-131166363D01*
X70705827Y-131166363D02*
X70753446Y-131071125D01*
X70753446Y-131071125D02*
X70848684Y-131023506D01*
X70848684Y-131023506D02*
X71039160Y-131023506D01*
X71039160Y-131023506D02*
X71134398Y-131071125D01*
X71134398Y-131071125D02*
X71182017Y-131166363D01*
X71182017Y-131166363D02*
X71182017Y-131261601D01*
X71182017Y-131261601D02*
X70705827Y-131356839D01*
X71562970Y-131642554D02*
X71658208Y-131690173D01*
X71658208Y-131690173D02*
X71848684Y-131690173D01*
X71848684Y-131690173D02*
X71943922Y-131642554D01*
X71943922Y-131642554D02*
X71991541Y-131547315D01*
X71991541Y-131547315D02*
X71991541Y-131499696D01*
X71991541Y-131499696D02*
X71943922Y-131404458D01*
X71943922Y-131404458D02*
X71848684Y-131356839D01*
X71848684Y-131356839D02*
X71705827Y-131356839D01*
X71705827Y-131356839D02*
X71610589Y-131309220D01*
X71610589Y-131309220D02*
X71562970Y-131213982D01*
X71562970Y-131213982D02*
X71562970Y-131166363D01*
X71562970Y-131166363D02*
X71610589Y-131071125D01*
X71610589Y-131071125D02*
X71705827Y-131023506D01*
X71705827Y-131023506D02*
X71848684Y-131023506D01*
X71848684Y-131023506D02*
X71943922Y-131071125D01*
X72420113Y-131690173D02*
X72420113Y-131023506D01*
X72420113Y-130690173D02*
X72372494Y-130737792D01*
X72372494Y-130737792D02*
X72420113Y-130785411D01*
X72420113Y-130785411D02*
X72467732Y-130737792D01*
X72467732Y-130737792D02*
X72420113Y-130690173D01*
X72420113Y-130690173D02*
X72420113Y-130785411D01*
X72801065Y-131023506D02*
X73039160Y-131690173D01*
X73039160Y-131690173D02*
X73277255Y-131023506D01*
X74039160Y-131642554D02*
X73943922Y-131690173D01*
X73943922Y-131690173D02*
X73753446Y-131690173D01*
X73753446Y-131690173D02*
X73658208Y-131642554D01*
X73658208Y-131642554D02*
X73610589Y-131547315D01*
X73610589Y-131547315D02*
X73610589Y-131166363D01*
X73610589Y-131166363D02*
X73658208Y-131071125D01*
X73658208Y-131071125D02*
X73753446Y-131023506D01*
X73753446Y-131023506D02*
X73943922Y-131023506D01*
X73943922Y-131023506D02*
X74039160Y-131071125D01*
X74039160Y-131071125D02*
X74086779Y-131166363D01*
X74086779Y-131166363D02*
X74086779Y-131261601D01*
X74086779Y-131261601D02*
X73610589Y-131356839D01*
X74515351Y-131594934D02*
X74562970Y-131642554D01*
X74562970Y-131642554D02*
X74515351Y-131690173D01*
X74515351Y-131690173D02*
X74467732Y-131642554D01*
X74467732Y-131642554D02*
X74515351Y-131594934D01*
X74515351Y-131594934D02*
X74515351Y-131690173D01*
X74515351Y-131071125D02*
X74562970Y-131118744D01*
X74562970Y-131118744D02*
X74515351Y-131166363D01*
X74515351Y-131166363D02*
X74467732Y-131118744D01*
X74467732Y-131118744D02*
X74515351Y-131071125D01*
X74515351Y-131071125D02*
X74515351Y-131166363D01*
X75658208Y-130690173D02*
X76277255Y-130690173D01*
X76277255Y-130690173D02*
X75943922Y-131071125D01*
X75943922Y-131071125D02*
X76086779Y-131071125D01*
X76086779Y-131071125D02*
X76182017Y-131118744D01*
X76182017Y-131118744D02*
X76229636Y-131166363D01*
X76229636Y-131166363D02*
X76277255Y-131261601D01*
X76277255Y-131261601D02*
X76277255Y-131499696D01*
X76277255Y-131499696D02*
X76229636Y-131594934D01*
X76229636Y-131594934D02*
X76182017Y-131642554D01*
X76182017Y-131642554D02*
X76086779Y-131690173D01*
X76086779Y-131690173D02*
X75801065Y-131690173D01*
X75801065Y-131690173D02*
X75705827Y-131642554D01*
X75705827Y-131642554D02*
X75658208Y-131594934D01*
X76705827Y-131690173D02*
X76705827Y-130690173D01*
X76705827Y-130690173D02*
X77039160Y-131404458D01*
X77039160Y-131404458D02*
X77372493Y-130690173D01*
X77372493Y-130690173D02*
X77372493Y-131690173D01*
X77896303Y-131690173D02*
X78086779Y-131690173D01*
X78086779Y-131690173D02*
X78182017Y-131642554D01*
X78182017Y-131642554D02*
X78229636Y-131594934D01*
X78229636Y-131594934D02*
X78324874Y-131452077D01*
X78324874Y-131452077D02*
X78372493Y-131261601D01*
X78372493Y-131261601D02*
X78372493Y-130880649D01*
X78372493Y-130880649D02*
X78324874Y-130785411D01*
X78324874Y-130785411D02*
X78277255Y-130737792D01*
X78277255Y-130737792D02*
X78182017Y-130690173D01*
X78182017Y-130690173D02*
X77991541Y-130690173D01*
X77991541Y-130690173D02*
X77896303Y-130737792D01*
X77896303Y-130737792D02*
X77848684Y-130785411D01*
X77848684Y-130785411D02*
X77801065Y-130880649D01*
X77801065Y-130880649D02*
X77801065Y-131118744D01*
X77801065Y-131118744D02*
X77848684Y-131213982D01*
X77848684Y-131213982D02*
X77896303Y-131261601D01*
X77896303Y-131261601D02*
X77991541Y-131309220D01*
X77991541Y-131309220D02*
X78182017Y-131309220D01*
X78182017Y-131309220D02*
X78277255Y-131261601D01*
X78277255Y-131261601D02*
X78324874Y-131213982D01*
X78324874Y-131213982D02*
X78372493Y-131118744D01*
X78991541Y-130690173D02*
X79086779Y-130690173D01*
X79086779Y-130690173D02*
X79182017Y-130737792D01*
X79182017Y-130737792D02*
X79229636Y-130785411D01*
X79229636Y-130785411D02*
X79277255Y-130880649D01*
X79277255Y-130880649D02*
X79324874Y-131071125D01*
X79324874Y-131071125D02*
X79324874Y-131309220D01*
X79324874Y-131309220D02*
X79277255Y-131499696D01*
X79277255Y-131499696D02*
X79229636Y-131594934D01*
X79229636Y-131594934D02*
X79182017Y-131642554D01*
X79182017Y-131642554D02*
X79086779Y-131690173D01*
X79086779Y-131690173D02*
X78991541Y-131690173D01*
X78991541Y-131690173D02*
X78896303Y-131642554D01*
X78896303Y-131642554D02*
X78848684Y-131594934D01*
X78848684Y-131594934D02*
X78801065Y-131499696D01*
X78801065Y-131499696D02*
X78753446Y-131309220D01*
X78753446Y-131309220D02*
X78753446Y-131071125D01*
X78753446Y-131071125D02*
X78801065Y-130880649D01*
X78801065Y-130880649D02*
X78848684Y-130785411D01*
X78848684Y-130785411D02*
X78896303Y-130737792D01*
X78896303Y-130737792D02*
X78991541Y-130690173D01*
X79658208Y-130690173D02*
X80324874Y-130690173D01*
X80324874Y-130690173D02*
X79896303Y-131690173D01*
X80610589Y-130690173D02*
X81277255Y-130690173D01*
X81277255Y-130690173D02*
X80848684Y-131690173D01*
X82324875Y-130690173D02*
X82943922Y-130690173D01*
X82943922Y-130690173D02*
X82610589Y-131071125D01*
X82610589Y-131071125D02*
X82753446Y-131071125D01*
X82753446Y-131071125D02*
X82848684Y-131118744D01*
X82848684Y-131118744D02*
X82896303Y-131166363D01*
X82896303Y-131166363D02*
X82943922Y-131261601D01*
X82943922Y-131261601D02*
X82943922Y-131499696D01*
X82943922Y-131499696D02*
X82896303Y-131594934D01*
X82896303Y-131594934D02*
X82848684Y-131642554D01*
X82848684Y-131642554D02*
X82753446Y-131690173D01*
X82753446Y-131690173D02*
X82467732Y-131690173D01*
X82467732Y-131690173D02*
X82372494Y-131642554D01*
X82372494Y-131642554D02*
X82324875Y-131594934D01*
X83372494Y-131690173D02*
X83372494Y-130690173D01*
X83372494Y-130690173D02*
X83705827Y-131404458D01*
X83705827Y-131404458D02*
X84039160Y-130690173D01*
X84039160Y-130690173D02*
X84039160Y-131690173D01*
X85134399Y-131023506D02*
X85515351Y-131023506D01*
X85277256Y-130690173D02*
X85277256Y-131547315D01*
X85277256Y-131547315D02*
X85324875Y-131642554D01*
X85324875Y-131642554D02*
X85420113Y-131690173D01*
X85420113Y-131690173D02*
X85515351Y-131690173D01*
X86277256Y-131690173D02*
X86277256Y-131166363D01*
X86277256Y-131166363D02*
X86229637Y-131071125D01*
X86229637Y-131071125D02*
X86134399Y-131023506D01*
X86134399Y-131023506D02*
X85943923Y-131023506D01*
X85943923Y-131023506D02*
X85848685Y-131071125D01*
X86277256Y-131642554D02*
X86182018Y-131690173D01*
X86182018Y-131690173D02*
X85943923Y-131690173D01*
X85943923Y-131690173D02*
X85848685Y-131642554D01*
X85848685Y-131642554D02*
X85801066Y-131547315D01*
X85801066Y-131547315D02*
X85801066Y-131452077D01*
X85801066Y-131452077D02*
X85848685Y-131356839D01*
X85848685Y-131356839D02*
X85943923Y-131309220D01*
X85943923Y-131309220D02*
X86182018Y-131309220D01*
X86182018Y-131309220D02*
X86277256Y-131261601D01*
X86753447Y-131023506D02*
X86753447Y-132023506D01*
X86753447Y-131071125D02*
X86848685Y-131023506D01*
X86848685Y-131023506D02*
X87039161Y-131023506D01*
X87039161Y-131023506D02*
X87134399Y-131071125D01*
X87134399Y-131071125D02*
X87182018Y-131118744D01*
X87182018Y-131118744D02*
X87229637Y-131213982D01*
X87229637Y-131213982D02*
X87229637Y-131499696D01*
X87229637Y-131499696D02*
X87182018Y-131594934D01*
X87182018Y-131594934D02*
X87134399Y-131642554D01*
X87134399Y-131642554D02*
X87039161Y-131690173D01*
X87039161Y-131690173D02*
X86848685Y-131690173D01*
X86848685Y-131690173D02*
X86753447Y-131642554D01*
X88039161Y-131642554D02*
X87943923Y-131690173D01*
X87943923Y-131690173D02*
X87753447Y-131690173D01*
X87753447Y-131690173D02*
X87658209Y-131642554D01*
X87658209Y-131642554D02*
X87610590Y-131547315D01*
X87610590Y-131547315D02*
X87610590Y-131166363D01*
X87610590Y-131166363D02*
X87658209Y-131071125D01*
X87658209Y-131071125D02*
X87753447Y-131023506D01*
X87753447Y-131023506D02*
X87943923Y-131023506D01*
X87943923Y-131023506D02*
X88039161Y-131071125D01*
X88039161Y-131071125D02*
X88086780Y-131166363D01*
X88086780Y-131166363D02*
X88086780Y-131261601D01*
X88086780Y-131261601D02*
X87610590Y-131356839D01*
G36*
X119349930Y-104400305D02*
G01*
X119350312Y-104400307D01*
X119350987Y-104400313D01*
X119351029Y-104400331D01*
X119351030Y-104400314D01*
X119384993Y-104400646D01*
X119385160Y-104400647D01*
X119385780Y-104400654D01*
X119386016Y-104400755D01*
X119386018Y-104400658D01*
X119386885Y-104400672D01*
X119387055Y-104400745D01*
X119387057Y-104400676D01*
X119401454Y-104400959D01*
X119402089Y-104400976D01*
X119406288Y-104401113D01*
X119407553Y-104401171D01*
X119411773Y-104401418D01*
X119412407Y-104401459D01*
X119495294Y-104407389D01*
X119496342Y-104407475D01*
X119503309Y-104408124D01*
X119505394Y-104408364D01*
X119512270Y-104409303D01*
X119513307Y-104409455D01*
X119645615Y-104430414D01*
X119646301Y-104430528D01*
X119650833Y-104431312D01*
X119652218Y-104431572D01*
X119656809Y-104432503D01*
X119657488Y-104432646D01*
X119713719Y-104444880D01*
X119714568Y-104445073D01*
X119720244Y-104446414D01*
X119721935Y-104446845D01*
X119727504Y-104448372D01*
X119728352Y-104448613D01*
X119741259Y-104452403D01*
X119741594Y-104452503D01*
X119743890Y-104453195D01*
X119744575Y-104453407D01*
X119746755Y-104454099D01*
X119747073Y-104454200D01*
X119871472Y-104494622D01*
X119871976Y-104494789D01*
X119875276Y-104495901D01*
X119876262Y-104496245D01*
X119879482Y-104497407D01*
X119879973Y-104497587D01*
X119917163Y-104511458D01*
X119917982Y-104511773D01*
X119923387Y-104513900D01*
X119924993Y-104514565D01*
X119930300Y-104516874D01*
X119931108Y-104517234D01*
X119966643Y-104533464D01*
X119967101Y-104533676D01*
X119970304Y-104535179D01*
X119971273Y-104535647D01*
X119974396Y-104537197D01*
X119974858Y-104537429D01*
X120092620Y-104597434D01*
X120092932Y-104597594D01*
X120094976Y-104598654D01*
X120095597Y-104598982D01*
X120097696Y-104600109D01*
X120098001Y-104600274D01*
X120109038Y-104606301D01*
X120109798Y-104606725D01*
X120114853Y-104609603D01*
X120116362Y-104610498D01*
X120121283Y-104613538D01*
X120122021Y-104614003D01*
X120169444Y-104644479D01*
X120170025Y-104644859D01*
X120173863Y-104647403D01*
X120175029Y-104648200D01*
X120178814Y-104650869D01*
X120179378Y-104651272D01*
X120289444Y-104731241D01*
X120290286Y-104731867D01*
X120295823Y-104736074D01*
X120297463Y-104737377D01*
X120302842Y-104741839D01*
X120303646Y-104742520D01*
X120350317Y-104782961D01*
X120350972Y-104783539D01*
X120355314Y-104787439D01*
X120356595Y-104788631D01*
X120360781Y-104792670D01*
X120361405Y-104793284D01*
X120457101Y-104888980D01*
X120457714Y-104889604D01*
X120461758Y-104893795D01*
X120462948Y-104895072D01*
X120466838Y-104899402D01*
X120467418Y-104900061D01*
X120507193Y-104945963D01*
X120507872Y-104946763D01*
X120512335Y-104952142D01*
X120513640Y-104953785D01*
X120517851Y-104959327D01*
X120518477Y-104960170D01*
X120599940Y-105072291D01*
X120600353Y-105072868D01*
X120603042Y-105076684D01*
X120603825Y-105077829D01*
X120606386Y-105081691D01*
X120606769Y-105082278D01*
X120636330Y-105128272D01*
X120636800Y-105129017D01*
X120639896Y-105134030D01*
X120640784Y-105135527D01*
X120643646Y-105140552D01*
X120644072Y-105141315D01*
X120647242Y-105147119D01*
X120647422Y-105147452D01*
X120648489Y-105149442D01*
X120648803Y-105150038D01*
X120649876Y-105152107D01*
X120650037Y-105152420D01*
X120714663Y-105279250D01*
X120714898Y-105279717D01*
X120716452Y-105282849D01*
X120716907Y-105283791D01*
X120718410Y-105286990D01*
X120718632Y-105287470D01*
X120733120Y-105319191D01*
X120733478Y-105319993D01*
X120735827Y-105325390D01*
X120736493Y-105326998D01*
X120738613Y-105332384D01*
X120738928Y-105333206D01*
X120750707Y-105364785D01*
X120750881Y-105365260D01*
X120752048Y-105368490D01*
X120752401Y-105369500D01*
X120753499Y-105372760D01*
X120753664Y-105373258D01*
X120798774Y-105512086D01*
X120798876Y-105512404D01*
X120799540Y-105514496D01*
X120799752Y-105515180D01*
X120800450Y-105517496D01*
X120800547Y-105517824D01*
X120801753Y-105521929D01*
X120801995Y-105522782D01*
X120803545Y-105528434D01*
X120803975Y-105530119D01*
X120805321Y-105535812D01*
X120805516Y-105536669D01*
X120816511Y-105587205D01*
X120816654Y-105587887D01*
X120817580Y-105592455D01*
X120817840Y-105593836D01*
X120818634Y-105598425D01*
X120818748Y-105599112D01*
X120841216Y-105740944D01*
X120841368Y-105741979D01*
X120842309Y-105748868D01*
X120842549Y-105750955D01*
X120843198Y-105757921D01*
X120843284Y-105758967D01*
X120848399Y-105830417D01*
X120848440Y-105831046D01*
X120848686Y-105835239D01*
X120848744Y-105836514D01*
X120848881Y-105840720D01*
X120848898Y-105841352D01*
X120850038Y-105899325D01*
X120850039Y-105899428D01*
X120850041Y-105899542D01*
X120850048Y-105900304D01*
X120850049Y-105900304D01*
X120850050Y-105900631D01*
X120850050Y-117897985D01*
X120850049Y-117898235D01*
X120850042Y-117899605D01*
X120850038Y-117900061D01*
X120850015Y-117901658D01*
X120850011Y-117901915D01*
X120848895Y-117958706D01*
X120848878Y-117959344D01*
X120848740Y-117963566D01*
X120848683Y-117964816D01*
X120848440Y-117968986D01*
X120848398Y-117969631D01*
X120843312Y-118040740D01*
X120843225Y-118041793D01*
X120842573Y-118048786D01*
X120842335Y-118050865D01*
X120841386Y-118057816D01*
X120841232Y-118058855D01*
X120818417Y-118202874D01*
X120818303Y-118203563D01*
X120817500Y-118208203D01*
X120817243Y-118209574D01*
X120816315Y-118214156D01*
X120816170Y-118214844D01*
X120804833Y-118266961D01*
X120804640Y-118267814D01*
X120804002Y-118270514D01*
X120803569Y-118272211D01*
X120802843Y-118274857D01*
X120802609Y-118275680D01*
X120802453Y-118276212D01*
X120802350Y-118276560D01*
X120801682Y-118278777D01*
X120801476Y-118279443D01*
X120800821Y-118281510D01*
X120800711Y-118281851D01*
X120751972Y-118431845D01*
X120751807Y-118432344D01*
X120750719Y-118435574D01*
X120750375Y-118436562D01*
X120749202Y-118439813D01*
X120749021Y-118440307D01*
X120738911Y-118467413D01*
X120738599Y-118468227D01*
X120736468Y-118473644D01*
X120735797Y-118475263D01*
X120733483Y-118480579D01*
X120733127Y-118481378D01*
X120721651Y-118506506D01*
X120721431Y-118506980D01*
X120719953Y-118510127D01*
X120719495Y-118511077D01*
X120717930Y-118514231D01*
X120717695Y-118514697D01*
X120644663Y-118658025D01*
X120644516Y-118658312D01*
X120643428Y-118660413D01*
X120643081Y-118661071D01*
X120642144Y-118662815D01*
X120641553Y-118663881D01*
X120640818Y-118665171D01*
X120639939Y-118666654D01*
X120639084Y-118668039D01*
X120638610Y-118668791D01*
X120610765Y-118712118D01*
X120610382Y-118712704D01*
X120607802Y-118716595D01*
X120607014Y-118717748D01*
X120604329Y-118721557D01*
X120603921Y-118722128D01*
X120515225Y-118844207D01*
X120514597Y-118845051D01*
X120510350Y-118850640D01*
X120509042Y-118852287D01*
X120504607Y-118857631D01*
X120503933Y-118858426D01*
X120472168Y-118895086D01*
X120471590Y-118895741D01*
X120467690Y-118900083D01*
X120466498Y-118901364D01*
X120462459Y-118905550D01*
X120461845Y-118906174D01*
X120355904Y-119012115D01*
X120355278Y-119012730D01*
X120351045Y-119016814D01*
X120349771Y-119018000D01*
X120345457Y-119021876D01*
X120344798Y-119022458D01*
X120308960Y-119053513D01*
X120308160Y-119054192D01*
X120302751Y-119058680D01*
X120301108Y-119059984D01*
X120295565Y-119064196D01*
X120294721Y-119064824D01*
X120170505Y-119155073D01*
X120169929Y-119155485D01*
X120166160Y-119158141D01*
X120165010Y-119158927D01*
X120161120Y-119161506D01*
X120160537Y-119161886D01*
X120124626Y-119184967D01*
X120123587Y-119185617D01*
X120116629Y-119189847D01*
X120114507Y-119191065D01*
X120107327Y-119194953D01*
X120106241Y-119195524D01*
X119960632Y-119269718D01*
X119960162Y-119269954D01*
X119957090Y-119271478D01*
X119956139Y-119271938D01*
X119952925Y-119273447D01*
X119952459Y-119273662D01*
X119931138Y-119283401D01*
X119930331Y-119283761D01*
X119924979Y-119286090D01*
X119923373Y-119286755D01*
X119917974Y-119288880D01*
X119917152Y-119289196D01*
X119895620Y-119297227D01*
X119895129Y-119297407D01*
X119891898Y-119298573D01*
X119890906Y-119298919D01*
X119887572Y-119300042D01*
X119887074Y-119300206D01*
X119730938Y-119350941D01*
X119729774Y-119351304D01*
X119721953Y-119353632D01*
X119719581Y-119354274D01*
X119711665Y-119356204D01*
X119710475Y-119356478D01*
X119670198Y-119365241D01*
X119669509Y-119365386D01*
X119664967Y-119366306D01*
X119663590Y-119366564D01*
X119659034Y-119367352D01*
X119658350Y-119367466D01*
X119504624Y-119391818D01*
X119503587Y-119391970D01*
X119496711Y-119392909D01*
X119494625Y-119393149D01*
X119487656Y-119393798D01*
X119486609Y-119393884D01*
X119426932Y-119398154D01*
X119426301Y-119398195D01*
X119422086Y-119398442D01*
X119420817Y-119398500D01*
X119416615Y-119398637D01*
X119415981Y-119398654D01*
X119352111Y-119399909D01*
X119351858Y-119399913D01*
X119350201Y-119399937D01*
X119349760Y-119399941D01*
X119348302Y-119399949D01*
X119348033Y-119399950D01*
X104351958Y-119399999D01*
X104351747Y-119399999D01*
X104350354Y-119399993D01*
X104349843Y-119399988D01*
X104348146Y-119399963D01*
X104347913Y-119399959D01*
X104283454Y-119398703D01*
X104282825Y-119398686D01*
X104278652Y-119398551D01*
X104277369Y-119398493D01*
X104273137Y-119398245D01*
X104272505Y-119398204D01*
X104214105Y-119394023D01*
X104213073Y-119393938D01*
X104206138Y-119393294D01*
X104204055Y-119393056D01*
X104197162Y-119392117D01*
X104196133Y-119391965D01*
X104042276Y-119367670D01*
X104041585Y-119367556D01*
X104036950Y-119366756D01*
X104035549Y-119366493D01*
X104030971Y-119365565D01*
X104030288Y-119365422D01*
X103990570Y-119356780D01*
X103989388Y-119356507D01*
X103981582Y-119354605D01*
X103979243Y-119353973D01*
X103971482Y-119351670D01*
X103970326Y-119351312D01*
X103814643Y-119300901D01*
X103814133Y-119300733D01*
X103810707Y-119299582D01*
X103809687Y-119299227D01*
X103806371Y-119298031D01*
X103805872Y-119297847D01*
X103782869Y-119289267D01*
X103782049Y-119288953D01*
X103776662Y-119286833D01*
X103775046Y-119286164D01*
X103769699Y-119283836D01*
X103768902Y-119283480D01*
X103750569Y-119275107D01*
X103750115Y-119274897D01*
X103747022Y-119273446D01*
X103746095Y-119272999D01*
X103743085Y-119271509D01*
X103742645Y-119271289D01*
X103590396Y-119194010D01*
X103590064Y-119193840D01*
X103588639Y-119193103D01*
X103587993Y-119192762D01*
X103586889Y-119192170D01*
X103585791Y-119191563D01*
X103585145Y-119191195D01*
X103583670Y-119190320D01*
X103582858Y-119189819D01*
X103582094Y-119189338D01*
X103542061Y-119163608D01*
X103541499Y-119163242D01*
X103537733Y-119160748D01*
X103536629Y-119159995D01*
X103532972Y-119157427D01*
X103532412Y-119157027D01*
X103407038Y-119066334D01*
X103406177Y-119065697D01*
X103400435Y-119061349D01*
X103398745Y-119060011D01*
X103393293Y-119055492D01*
X103392473Y-119054796D01*
X103357463Y-119024457D01*
X103356837Y-119023905D01*
X103352716Y-119020209D01*
X103351469Y-119019051D01*
X103347407Y-119015145D01*
X103346813Y-119014564D01*
X103240210Y-118908519D01*
X103239574Y-118907874D01*
X103235385Y-118903550D01*
X103234142Y-118902219D01*
X103230110Y-118897735D01*
X103229514Y-118897060D01*
X103198148Y-118860861D01*
X103197497Y-118860094D01*
X103193170Y-118854888D01*
X103191906Y-118853302D01*
X103187842Y-118847979D01*
X103187238Y-118847170D01*
X103098459Y-118725781D01*
X103098033Y-118725189D01*
X103095181Y-118721165D01*
X103094337Y-118719935D01*
X103091614Y-118715834D01*
X103091214Y-118715222D01*
X103066176Y-118676263D01*
X103065549Y-118675261D01*
X103061463Y-118668553D01*
X103060287Y-118666514D01*
X103056520Y-118659603D01*
X103055967Y-118658558D01*
X102985017Y-118520569D01*
X102984759Y-118520061D01*
X102983064Y-118516668D01*
X102982569Y-118515647D01*
X102980957Y-118512224D01*
X102980715Y-118511702D01*
X102966889Y-118481427D01*
X102966533Y-118480628D01*
X102964223Y-118475321D01*
X102963555Y-118473708D01*
X102961428Y-118468303D01*
X102961113Y-118467483D01*
X102953772Y-118447800D01*
X102953615Y-118447372D01*
X102952547Y-118444425D01*
X102952224Y-118443506D01*
X102951215Y-118440539D01*
X102951069Y-118440102D01*
X102902661Y-118293232D01*
X102902539Y-118292857D01*
X102901735Y-118290350D01*
X102901498Y-118289590D01*
X102900712Y-118286995D01*
X102900591Y-118286590D01*
X102898268Y-118278675D01*
X102898031Y-118277841D01*
X102896494Y-118272239D01*
X102896062Y-118270545D01*
X102894728Y-118264901D01*
X102894534Y-118264047D01*
X102885155Y-118220938D01*
X102885023Y-118220313D01*
X102884177Y-118216165D01*
X102883936Y-118214898D01*
X102883203Y-118210749D01*
X102883096Y-118210120D01*
X102859215Y-118063850D01*
X102859049Y-118062756D01*
X102858022Y-118055429D01*
X102857765Y-118053230D01*
X102857075Y-118045918D01*
X102856983Y-118044812D01*
X102851856Y-117973158D01*
X102851818Y-117972583D01*
X102851587Y-117968716D01*
X102851533Y-117967594D01*
X102851396Y-117963867D01*
X102851378Y-117963285D01*
X102850144Y-117913656D01*
X102850141Y-117913507D01*
X102850114Y-117912270D01*
X102850105Y-117911780D01*
X102850089Y-117910425D01*
X102850088Y-117910280D01*
X102850008Y-117901241D01*
X102850007Y-117901171D01*
X102850002Y-117900498D01*
X102850001Y-117900197D01*
X102850000Y-117899418D01*
X102850000Y-105900690D01*
X102850001Y-105900382D01*
X102850004Y-105900036D01*
X102850007Y-105899745D01*
X102850035Y-105899277D01*
X102850014Y-105899277D01*
X102851133Y-105842382D01*
X102851150Y-105841745D01*
X102851288Y-105837523D01*
X102851345Y-105836271D01*
X102851588Y-105832104D01*
X102851630Y-105831460D01*
X102856848Y-105758530D01*
X102856934Y-105757482D01*
X102857585Y-105750494D01*
X102857824Y-105748412D01*
X102858772Y-105741467D01*
X102858926Y-105740426D01*
X102881205Y-105599808D01*
X102881319Y-105599118D01*
X102882121Y-105594485D01*
X102882379Y-105593114D01*
X102883302Y-105588558D01*
X102883446Y-105587869D01*
X102894586Y-105536671D01*
X102894777Y-105535829D01*
X102896112Y-105530175D01*
X102896547Y-105528470D01*
X102898086Y-105522861D01*
X102898327Y-105522014D01*
X102899820Y-105516932D01*
X102899917Y-105516606D01*
X102900627Y-105514250D01*
X102900835Y-105513578D01*
X102901531Y-105511383D01*
X102901638Y-105511050D01*
X102946233Y-105373817D01*
X102946397Y-105373319D01*
X102947520Y-105369985D01*
X102947866Y-105368993D01*
X102949032Y-105365762D01*
X102949213Y-105365270D01*
X102961139Y-105333297D01*
X102961454Y-105332476D01*
X102963603Y-105327016D01*
X102964267Y-105325413D01*
X102966596Y-105320060D01*
X102966955Y-105319253D01*
X102981591Y-105287206D01*
X102981807Y-105286741D01*
X102983287Y-105283588D01*
X102983750Y-105282628D01*
X102985269Y-105279567D01*
X102985503Y-105279101D01*
X103049960Y-105152607D01*
X103050122Y-105152292D01*
X103051148Y-105150314D01*
X103051475Y-105149696D01*
X103052594Y-105147612D01*
X103052754Y-105147317D01*
X103055977Y-105141412D01*
X103056412Y-105140631D01*
X103059321Y-105135525D01*
X103060206Y-105134034D01*
X103063247Y-105129110D01*
X103063715Y-105128367D01*
X103093288Y-105082347D01*
X103093673Y-105081756D01*
X103096254Y-105077864D01*
X103097044Y-105076710D01*
X103099750Y-105072872D01*
X103100156Y-105072305D01*
X103181621Y-104960181D01*
X103182247Y-104959339D01*
X103186486Y-104953760D01*
X103187789Y-104952118D01*
X103192249Y-104946742D01*
X103192929Y-104945940D01*
X103232521Y-104900249D01*
X103233099Y-104899594D01*
X103236999Y-104895252D01*
X103238191Y-104893971D01*
X103242230Y-104889785D01*
X103242844Y-104889161D01*
X103338853Y-104793152D01*
X103339477Y-104792539D01*
X103343668Y-104788495D01*
X103344945Y-104787305D01*
X103349275Y-104783415D01*
X103349933Y-104782835D01*
X103396207Y-104742737D01*
X103397012Y-104742054D01*
X103402385Y-104737597D01*
X103404022Y-104736297D01*
X103409624Y-104732040D01*
X103410469Y-104731413D01*
X103521025Y-104651086D01*
X103521591Y-104650681D01*
X103525426Y-104647977D01*
X103526586Y-104647183D01*
X103530461Y-104644614D01*
X103531045Y-104644233D01*
X103578022Y-104614042D01*
X103578758Y-104613578D01*
X103583704Y-104610522D01*
X103585212Y-104609627D01*
X103590243Y-104606762D01*
X103591004Y-104606338D01*
X103601060Y-104600846D01*
X103601380Y-104600672D01*
X103603501Y-104599534D01*
X103604117Y-104599210D01*
X103606075Y-104598195D01*
X103606379Y-104598038D01*
X103726024Y-104537072D01*
X103726497Y-104536835D01*
X103729531Y-104535330D01*
X103730474Y-104534874D01*
X103733723Y-104533348D01*
X103734197Y-104533129D01*
X103768911Y-104517274D01*
X103769714Y-104516916D01*
X103775063Y-104514588D01*
X103776669Y-104513923D01*
X103782090Y-104511789D01*
X103782912Y-104511473D01*
X103819182Y-104497943D01*
X103819672Y-104497763D01*
X103822908Y-104496595D01*
X103823908Y-104496247D01*
X103827273Y-104495114D01*
X103827765Y-104494951D01*
X103954406Y-104453797D01*
X103954730Y-104453693D01*
X103956873Y-104453013D01*
X103957550Y-104452804D01*
X103959789Y-104452129D01*
X103960126Y-104452028D01*
X103971667Y-104448639D01*
X103972507Y-104448401D01*
X103978123Y-104446860D01*
X103979818Y-104446427D01*
X103985521Y-104445079D01*
X103986374Y-104444885D01*
X104041793Y-104432826D01*
X104042470Y-104432684D01*
X104047035Y-104431758D01*
X104048427Y-104431497D01*
X104053088Y-104430691D01*
X104053769Y-104430578D01*
X104187201Y-104409437D01*
X104188231Y-104409285D01*
X104195186Y-104408334D01*
X104197287Y-104408092D01*
X104204234Y-104407446D01*
X104205273Y-104407361D01*
X104286774Y-104401528D01*
X104287403Y-104401487D01*
X104291615Y-104401240D01*
X104292886Y-104401182D01*
X104297085Y-104401045D01*
X104297719Y-104401028D01*
X104315766Y-104400673D01*
X104315767Y-104400725D01*
X104315898Y-104400670D01*
X104316782Y-104400655D01*
X104317011Y-104400652D01*
X104317743Y-104400643D01*
X104317905Y-104400708D01*
X104317905Y-104400642D01*
X104348994Y-104400362D01*
X104349119Y-104400361D01*
X104349895Y-104400356D01*
X104350149Y-104400355D01*
X104350945Y-104400354D01*
X104350945Y-104400378D01*
X104351006Y-104400353D01*
X119348970Y-104400304D01*
X119349024Y-104400304D01*
X119349930Y-104400305D01*
G37*
G36*
X93848769Y-65902600D02*
G01*
X93851195Y-65902624D01*
X93955056Y-65904667D01*
X93959088Y-65904812D01*
X94097069Y-65912022D01*
X94103587Y-65912535D01*
X94361322Y-65939682D01*
X94365765Y-65940231D01*
X94471155Y-65955195D01*
X94476599Y-65956092D01*
X94485645Y-65957790D01*
X94487659Y-65958186D01*
X94745201Y-66010956D01*
X94748565Y-66011694D01*
X94821565Y-66028777D01*
X94826896Y-66030150D01*
X94886794Y-66047003D01*
X94889767Y-66047880D01*
X95132824Y-66122872D01*
X95135121Y-66123605D01*
X95164079Y-66133160D01*
X95169267Y-66135000D01*
X95259787Y-66169394D01*
X95263624Y-66170926D01*
X95504864Y-66271908D01*
X95511136Y-66274740D01*
X95612610Y-66324000D01*
X95617208Y-66326352D01*
X95842971Y-66447815D01*
X95848057Y-66450708D01*
X95946034Y-66509543D01*
X95951264Y-66512864D01*
X96165026Y-66656221D01*
X96168975Y-66658982D01*
X96258836Y-66724448D01*
X96264552Y-66728873D01*
X96469306Y-66897146D01*
X96472194Y-66899595D01*
X96537231Y-66956459D01*
X96541296Y-66960175D01*
X96575668Y-66993032D01*
X96577637Y-66994956D01*
X96755869Y-67173072D01*
X96757794Y-67175040D01*
X96790673Y-67209390D01*
X96794393Y-67213452D01*
X96851227Y-67278370D01*
X96853677Y-67281257D01*
X97022175Y-67486012D01*
X97026603Y-67491725D01*
X97092024Y-67581402D01*
X97094788Y-67585349D01*
X97238426Y-67799227D01*
X97241750Y-67804455D01*
X97300489Y-67902129D01*
X97303386Y-67907213D01*
X97425181Y-68133241D01*
X97427535Y-68137837D01*
X97476692Y-68238929D01*
X97479529Y-68245200D01*
X97580873Y-68486867D01*
X97582407Y-68490702D01*
X97616734Y-68580867D01*
X97618578Y-68586055D01*
X97627931Y-68614339D01*
X97628666Y-68616635D01*
X97704190Y-68860853D01*
X97705068Y-68863824D01*
X97721810Y-68923176D01*
X97723187Y-68928508D01*
X97740190Y-69000955D01*
X97740930Y-69004317D01*
X97794176Y-69263320D01*
X97794574Y-69265343D01*
X97796101Y-69273452D01*
X97797000Y-69278888D01*
X97811959Y-69383755D01*
X97812511Y-69388197D01*
X97839914Y-69646745D01*
X97840432Y-69653263D01*
X97847699Y-69790616D01*
X97847846Y-69794633D01*
X97849969Y-69898517D01*
X97849994Y-69901492D01*
X97844670Y-71399998D01*
X97846981Y-71517869D01*
X97848287Y-71526116D01*
X97849813Y-71545521D01*
X97847582Y-91269153D01*
X97847104Y-91280018D01*
X97846918Y-91282124D01*
X97844670Y-91399968D01*
X97847396Y-92898691D01*
X97847372Y-92901332D01*
X97845352Y-93005026D01*
X97845207Y-93009081D01*
X97837971Y-93147580D01*
X97837460Y-93154078D01*
X97810614Y-93409369D01*
X97810063Y-93413830D01*
X97794828Y-93521142D01*
X97793932Y-93526581D01*
X97791275Y-93540741D01*
X97790881Y-93542749D01*
X97740027Y-93791089D01*
X97739287Y-93794465D01*
X97721245Y-93871569D01*
X97719871Y-93876904D01*
X97701666Y-93941603D01*
X97700792Y-93944564D01*
X97629448Y-94175866D01*
X97628713Y-94178170D01*
X97616866Y-94214077D01*
X97615024Y-94219270D01*
X97579160Y-94313655D01*
X97577631Y-94317487D01*
X97479256Y-94552520D01*
X97476421Y-94558795D01*
X97424647Y-94665446D01*
X97422295Y-94670046D01*
X97303590Y-94890674D01*
X97300699Y-94895757D01*
X97239418Y-94997811D01*
X97236091Y-95003049D01*
X97095113Y-95213231D01*
X97092357Y-95217173D01*
X97025025Y-95309596D01*
X97020591Y-95315322D01*
X96853375Y-95518743D01*
X96850937Y-95521620D01*
X96793572Y-95587232D01*
X96789853Y-95591300D01*
X96757615Y-95625023D01*
X96755678Y-95627004D01*
X96574947Y-95807795D01*
X96572992Y-95809708D01*
X96540649Y-95840665D01*
X96536588Y-95844382D01*
X96474394Y-95898832D01*
X96471487Y-95901299D01*
X96261674Y-96073886D01*
X96255982Y-96078297D01*
X96173236Y-96138663D01*
X96169261Y-96141446D01*
X95945790Y-96291442D01*
X95940590Y-96294748D01*
X95854221Y-96346689D01*
X95849103Y-96349604D01*
X95607399Y-96479751D01*
X95602836Y-96482087D01*
X95519071Y-96522818D01*
X95512760Y-96525672D01*
X95246506Y-96637217D01*
X95242712Y-96638733D01*
X95170150Y-96666359D01*
X95162618Y-96668953D01*
X94859391Y-96762594D01*
X94856467Y-96763458D01*
X94826819Y-96771821D01*
X94821485Y-96773198D01*
X94778097Y-96783380D01*
X94774683Y-96784131D01*
X94465091Y-96847633D01*
X94457685Y-96848919D01*
X94394098Y-96857989D01*
X94389597Y-96858548D01*
X94081132Y-96891090D01*
X94074673Y-96891601D01*
X93996917Y-96895714D01*
X93992829Y-96895863D01*
X93850132Y-96898697D01*
X93849801Y-96898703D01*
X93775915Y-96899973D01*
X93773771Y-96899991D01*
X68351232Y-96897399D01*
X68348805Y-96897375D01*
X68244294Y-96895318D01*
X68240264Y-96895173D01*
X68103327Y-96888018D01*
X68096808Y-96887505D01*
X67838076Y-96860253D01*
X67833635Y-96859704D01*
X67728858Y-96844828D01*
X67723418Y-96843932D01*
X67715643Y-96842473D01*
X67713622Y-96842076D01*
X67453994Y-96788877D01*
X67450633Y-96788140D01*
X67378430Y-96771245D01*
X67373096Y-96769871D01*
X67314120Y-96753277D01*
X67311149Y-96752401D01*
X67065916Y-96676739D01*
X67063617Y-96676005D01*
X67035933Y-96666870D01*
X67030746Y-96665030D01*
X66940895Y-96630890D01*
X66937058Y-96629358D01*
X66694725Y-96527919D01*
X66688452Y-96525086D01*
X66587909Y-96476277D01*
X66583312Y-96473926D01*
X66356583Y-96351943D01*
X66351498Y-96349051D01*
X66254364Y-96290724D01*
X66249133Y-96287402D01*
X66034472Y-96143442D01*
X66030523Y-96140681D01*
X65941469Y-96075803D01*
X65935753Y-96071378D01*
X65730092Y-95902359D01*
X65727204Y-95899910D01*
X65662756Y-95843561D01*
X65658692Y-95839846D01*
X65625077Y-95807713D01*
X65623107Y-95805788D01*
X65443423Y-95626220D01*
X65441497Y-95624251D01*
X65409323Y-95590637D01*
X65405605Y-95586576D01*
X65349209Y-95522159D01*
X65346758Y-95519272D01*
X65177616Y-95313733D01*
X65173189Y-95308022D01*
X65108247Y-95219004D01*
X65105482Y-95215055D01*
X64961393Y-95000505D01*
X64958068Y-94995276D01*
X64899666Y-94898161D01*
X64896770Y-94893078D01*
X64774641Y-94666429D01*
X64772287Y-94661833D01*
X64723412Y-94561320D01*
X64720575Y-94555049D01*
X64618982Y-94312790D01*
X64617448Y-94308954D01*
X64583251Y-94219127D01*
X64581407Y-94213941D01*
X64572245Y-94186235D01*
X64571510Y-94183938D01*
X64495693Y-93938771D01*
X64494815Y-93935801D01*
X64478182Y-93876836D01*
X64476805Y-93871503D01*
X64459869Y-93799339D01*
X64459129Y-93795976D01*
X64405734Y-93536243D01*
X64405338Y-93534231D01*
X64403897Y-93526582D01*
X64402996Y-93521135D01*
X64388055Y-93416389D01*
X64387503Y-93411948D01*
X64360080Y-93153214D01*
X64359562Y-93146695D01*
X64352300Y-93009418D01*
X64352153Y-93005401D01*
X64350026Y-92901279D01*
X64350000Y-92898732D01*
X64352600Y-69901209D01*
X64352612Y-69899992D01*
X66850000Y-69899992D01*
X66850000Y-92900007D01*
X66850477Y-92953548D01*
X66858119Y-93060394D01*
X66873363Y-93166419D01*
X66896128Y-93271070D01*
X66896129Y-93271072D01*
X66926305Y-93373840D01*
X66926312Y-93373861D01*
X66963742Y-93474216D01*
X67008233Y-93571636D01*
X67059565Y-93665645D01*
X67059575Y-93665660D01*
X67117476Y-93755756D01*
X67117487Y-93755772D01*
X67181654Y-93841488D01*
X67181662Y-93841497D01*
X67251807Y-93922451D01*
X67251827Y-93922473D01*
X67327526Y-93998172D01*
X67327548Y-93998192D01*
X67408502Y-94068337D01*
X67408511Y-94068345D01*
X67494227Y-94132512D01*
X67494243Y-94132523D01*
X67584339Y-94190424D01*
X67584354Y-94190434D01*
X67678363Y-94241766D01*
X67775783Y-94286257D01*
X67876138Y-94323687D01*
X67876159Y-94323694D01*
X67978927Y-94353870D01*
X67978929Y-94353871D01*
X68083580Y-94376636D01*
X68189605Y-94391880D01*
X68296451Y-94399522D01*
X68349993Y-94400000D01*
X93850007Y-94400000D01*
X93903548Y-94399522D01*
X94010394Y-94391880D01*
X94116419Y-94376636D01*
X94221070Y-94353871D01*
X94221072Y-94353870D01*
X94323840Y-94323694D01*
X94323861Y-94323687D01*
X94424216Y-94286257D01*
X94521636Y-94241766D01*
X94615645Y-94190434D01*
X94615660Y-94190424D01*
X94705756Y-94132523D01*
X94705772Y-94132512D01*
X94791488Y-94068345D01*
X94791497Y-94068337D01*
X94872451Y-93998192D01*
X94872473Y-93998172D01*
X94948172Y-93922473D01*
X94948192Y-93922451D01*
X95018337Y-93841497D01*
X95018345Y-93841488D01*
X95082512Y-93755772D01*
X95082523Y-93755756D01*
X95140424Y-93665660D01*
X95140434Y-93665645D01*
X95191766Y-93571636D01*
X95236257Y-93474216D01*
X95273687Y-93373861D01*
X95273694Y-93373840D01*
X95303870Y-93271072D01*
X95303871Y-93271070D01*
X95326636Y-93166419D01*
X95341880Y-93060394D01*
X95349522Y-92953548D01*
X95350000Y-92900007D01*
X95350000Y-69899992D01*
X95349522Y-69846451D01*
X95341880Y-69739605D01*
X95326636Y-69633580D01*
X95303871Y-69528929D01*
X95303870Y-69528927D01*
X95273694Y-69426159D01*
X95273687Y-69426138D01*
X95236257Y-69325783D01*
X95191766Y-69228363D01*
X95140434Y-69134354D01*
X95140424Y-69134339D01*
X95082523Y-69044243D01*
X95082512Y-69044227D01*
X95018345Y-68958511D01*
X95018337Y-68958502D01*
X94948192Y-68877548D01*
X94948172Y-68877526D01*
X94872473Y-68801827D01*
X94872451Y-68801807D01*
X94791497Y-68731662D01*
X94791488Y-68731654D01*
X94705772Y-68667487D01*
X94705756Y-68667476D01*
X94615660Y-68609575D01*
X94615645Y-68609565D01*
X94521636Y-68558233D01*
X94424216Y-68513742D01*
X94323861Y-68476312D01*
X94323840Y-68476305D01*
X94221072Y-68446129D01*
X94221070Y-68446128D01*
X94116419Y-68423363D01*
X94010394Y-68408119D01*
X93903548Y-68400477D01*
X93850007Y-68400000D01*
X68349993Y-68400000D01*
X68296451Y-68400477D01*
X68189605Y-68408119D01*
X68083580Y-68423363D01*
X67978929Y-68446128D01*
X67978927Y-68446129D01*
X67876159Y-68476305D01*
X67876138Y-68476312D01*
X67775783Y-68513742D01*
X67678363Y-68558233D01*
X67584354Y-68609565D01*
X67584339Y-68609575D01*
X67494243Y-68667476D01*
X67494227Y-68667487D01*
X67408511Y-68731654D01*
X67408502Y-68731662D01*
X67327548Y-68801807D01*
X67327526Y-68801827D01*
X67251827Y-68877526D01*
X67251807Y-68877548D01*
X67181662Y-68958502D01*
X67181654Y-68958511D01*
X67117487Y-69044227D01*
X67117476Y-69044243D01*
X67059575Y-69134339D01*
X67059565Y-69134354D01*
X67008233Y-69228363D01*
X66963742Y-69325783D01*
X66926312Y-69426138D01*
X66926305Y-69426159D01*
X66896129Y-69528927D01*
X66896128Y-69528929D01*
X66873363Y-69633580D01*
X66858119Y-69739605D01*
X66850477Y-69846451D01*
X66850000Y-69899992D01*
X64352612Y-69899992D01*
X64352624Y-69898785D01*
X64354690Y-69793712D01*
X64354835Y-69789679D01*
X64361944Y-69653639D01*
X64362457Y-69647121D01*
X64389786Y-69387652D01*
X64390335Y-69383210D01*
X64405157Y-69278818D01*
X64406051Y-69273390D01*
X64407354Y-69266443D01*
X64407753Y-69264412D01*
X64461205Y-69003542D01*
X64461943Y-69000179D01*
X64478734Y-68928424D01*
X64480107Y-68923091D01*
X64496598Y-68864481D01*
X64497474Y-68861509D01*
X64573360Y-68615552D01*
X64574094Y-68613256D01*
X64583116Y-68585913D01*
X64584956Y-68580724D01*
X64619049Y-68490996D01*
X64620581Y-68487159D01*
X64722087Y-68244663D01*
X64724920Y-68238390D01*
X64773695Y-68137918D01*
X64776046Y-68133322D01*
X64898039Y-67906570D01*
X64900932Y-67901483D01*
X64959286Y-67804307D01*
X64962607Y-67799077D01*
X65106497Y-67584521D01*
X65109259Y-67580571D01*
X65174244Y-67491371D01*
X65178668Y-67485657D01*
X65347474Y-67280253D01*
X65349923Y-67277363D01*
X65406430Y-67212735D01*
X65410146Y-67208671D01*
X65442559Y-67174764D01*
X65444483Y-67172796D01*
X65623432Y-66993728D01*
X65625402Y-66991800D01*
X65659368Y-66959290D01*
X65663427Y-66955573D01*
X65728091Y-66898960D01*
X65730979Y-66896509D01*
X65936098Y-66727713D01*
X65941810Y-66723286D01*
X66031256Y-66658032D01*
X66035204Y-66655267D01*
X66249280Y-66511497D01*
X66254508Y-66508173D01*
X66352075Y-66449498D01*
X66357159Y-66446601D01*
X66583219Y-66324788D01*
X66587815Y-66322434D01*
X66688943Y-66273260D01*
X66695214Y-66270423D01*
X66936714Y-66169148D01*
X66940551Y-66167614D01*
X67030857Y-66133235D01*
X67036041Y-66131392D01*
X67064683Y-66121920D01*
X67066981Y-66121184D01*
X67310523Y-66045870D01*
X67313496Y-66044991D01*
X67373158Y-66028163D01*
X67378487Y-66026787D01*
X67451321Y-66009693D01*
X67454684Y-66008953D01*
X67712549Y-65955940D01*
X67714593Y-65955538D01*
X67723459Y-65953870D01*
X67728874Y-65952975D01*
X67834155Y-65937957D01*
X67838596Y-65937405D01*
X68096404Y-65910080D01*
X68102924Y-65909562D01*
X68240920Y-65902262D01*
X68244950Y-65902115D01*
X68348714Y-65900006D01*
X68351247Y-65899980D01*
X93848769Y-65902600D01*
G37*
G36*
X89350614Y-50900360D02*
G01*
X89385412Y-50900700D01*
X89386631Y-50900718D01*
X89403663Y-50901052D01*
X89410078Y-50901344D01*
X89499019Y-50907705D01*
X89509571Y-50908916D01*
X89648013Y-50930843D01*
X89654973Y-50932150D01*
X89716746Y-50945588D01*
X89725317Y-50947775D01*
X89742461Y-50952808D01*
X89745850Y-50953856D01*
X89873189Y-50995231D01*
X89878205Y-50996980D01*
X89920049Y-51012587D01*
X89928224Y-51015974D01*
X89968352Y-51034299D01*
X89973138Y-51036609D01*
X90093674Y-51098025D01*
X90096805Y-51099677D01*
X90111740Y-51107832D01*
X90119352Y-51112349D01*
X90171510Y-51145868D01*
X90177358Y-51149866D01*
X90292441Y-51233480D01*
X90300755Y-51240083D01*
X90352658Y-51285055D01*
X90359139Y-51291089D01*
X90459292Y-51391242D01*
X90465322Y-51397718D01*
X90509629Y-51448848D01*
X90516236Y-51457167D01*
X90601372Y-51574345D01*
X90605369Y-51580191D01*
X90638026Y-51631006D01*
X90642541Y-51638615D01*
X90647801Y-51648247D01*
X90649456Y-51651384D01*
X90715487Y-51780979D01*
X90717794Y-51785757D01*
X90734409Y-51822135D01*
X90737798Y-51830314D01*
X90751317Y-51866557D01*
X90753067Y-51871576D01*
X90799086Y-52013208D01*
X90800132Y-52016592D01*
X90802611Y-52025035D01*
X90804800Y-52033609D01*
X90817011Y-52089737D01*
X90818318Y-52096699D01*
X90841756Y-52244683D01*
X90842967Y-52255230D01*
X90848514Y-52332748D01*
X90848806Y-52339166D01*
X90849976Y-52398784D01*
X90850000Y-52401217D01*
X90850000Y-60776354D01*
X90830315Y-60843393D01*
X90777511Y-60889148D01*
X90726000Y-60900354D01*
X77474000Y-60900354D01*
X77406961Y-60880669D01*
X77361206Y-60827865D01*
X77350000Y-60776354D01*
X77350000Y-52401162D01*
X77350024Y-52398732D01*
X77351209Y-52338280D01*
X77351501Y-52331860D01*
X77356946Y-52255766D01*
X77358157Y-52245219D01*
X77381806Y-52095900D01*
X77383114Y-52088934D01*
X77395155Y-52033594D01*
X77397343Y-52025023D01*
X77399369Y-52018123D01*
X77400415Y-52014739D01*
X77447262Y-51870559D01*
X77449013Y-51865539D01*
X77462160Y-51830295D01*
X77465547Y-51822119D01*
X77481716Y-51786716D01*
X77484024Y-51781936D01*
X77551284Y-51649929D01*
X77552944Y-51646783D01*
X77557425Y-51638579D01*
X77561936Y-51630978D01*
X77594157Y-51580843D01*
X77598153Y-51574998D01*
X77684080Y-51456731D01*
X77690686Y-51448413D01*
X77734215Y-51398179D01*
X77740246Y-51391702D01*
X77841305Y-51290643D01*
X77847784Y-51284611D01*
X77898810Y-51240397D01*
X77907127Y-51233792D01*
X78023304Y-51149385D01*
X78029150Y-51145387D01*
X78080615Y-51112313D01*
X78088226Y-51107797D01*
X78101754Y-51100410D01*
X78104888Y-51098757D01*
X78227821Y-51036120D01*
X78232605Y-51033810D01*
X78271756Y-51015931D01*
X78279933Y-51012544D01*
X78320761Y-50997316D01*
X78325776Y-50995567D01*
X78455669Y-50953362D01*
X78459057Y-50952315D01*
X78474664Y-50947733D01*
X78483235Y-50945545D01*
X78544239Y-50932274D01*
X78551201Y-50930967D01*
X78690962Y-50908832D01*
X78701512Y-50907621D01*
X78789031Y-50901361D01*
X78795449Y-50901069D01*
X78816220Y-50900662D01*
X78817545Y-50900643D01*
X78849440Y-50900359D01*
X78850544Y-50900354D01*
X89349402Y-50900354D01*
X89350614Y-50900360D01*
G37*
G36*
X93833567Y-101942471D02*
G01*
X93835284Y-101942483D01*
X93921594Y-101943687D01*
X93926332Y-101943844D01*
X94100029Y-101952916D01*
X94105521Y-101953325D01*
X94278289Y-101970067D01*
X94283758Y-101970720D01*
X94455591Y-101995114D01*
X94461025Y-101996009D01*
X94631607Y-102028009D01*
X94636996Y-102029144D01*
X94806016Y-102068694D01*
X94811349Y-102070068D01*
X94978416Y-102117074D01*
X94983683Y-102118683D01*
X95148504Y-102173063D01*
X95153694Y-102174904D01*
X95315942Y-102236550D01*
X95321046Y-102238620D01*
X95480395Y-102307409D01*
X95485401Y-102309703D01*
X95641561Y-102385510D01*
X95646461Y-102388025D01*
X95799047Y-102470662D01*
X95803830Y-102473392D01*
X95952661Y-102562763D01*
X95957318Y-102565702D01*
X96101987Y-102661561D01*
X96106509Y-102664704D01*
X96246785Y-102766896D01*
X96251163Y-102770237D01*
X96386778Y-102878569D01*
X96391004Y-102882100D01*
X96521679Y-102996350D01*
X96525743Y-103000066D01*
X96651198Y-103119988D01*
X96655094Y-103123881D01*
X96775111Y-103249266D01*
X96778830Y-103253328D01*
X96893167Y-103383925D01*
X96896702Y-103388149D01*
X97005112Y-103523676D01*
X97008456Y-103528052D01*
X97110751Y-103668273D01*
X97113896Y-103672792D01*
X97209864Y-103817414D01*
X97212807Y-103822070D01*
X97302252Y-103970800D01*
X97304985Y-103975581D01*
X97387754Y-104128166D01*
X97390272Y-104133065D01*
X97466165Y-104289136D01*
X97468462Y-104294140D01*
X97537354Y-104453434D01*
X97539428Y-104458536D01*
X97601196Y-104620777D01*
X97603040Y-104625966D01*
X97657520Y-104790718D01*
X97659133Y-104795984D01*
X97706260Y-104963051D01*
X97707637Y-104968383D01*
X97747293Y-105137349D01*
X97748432Y-105142738D01*
X97780550Y-105313318D01*
X97781448Y-105318751D01*
X97805955Y-105490553D01*
X97806612Y-105496021D01*
X97823470Y-105668778D01*
X97823883Y-105674270D01*
X97833070Y-105847935D01*
X97833231Y-105852755D01*
X97834437Y-105939137D01*
X97834449Y-105940544D01*
X97865844Y-117972831D01*
X97865832Y-117974888D01*
X97864628Y-118061009D01*
X97864471Y-118065746D01*
X97855396Y-118239445D01*
X97854987Y-118244935D01*
X97838246Y-118417700D01*
X97837593Y-118423169D01*
X97813198Y-118595007D01*
X97812303Y-118600442D01*
X97780302Y-118771022D01*
X97779167Y-118776409D01*
X97739620Y-118945422D01*
X97738246Y-118950757D01*
X97695265Y-119103512D01*
X97694388Y-119106485D01*
X97684371Y-119138950D01*
X97683639Y-119141242D01*
X97635244Y-119287925D01*
X97633402Y-119293118D01*
X97620200Y-119327863D01*
X97618670Y-119331698D01*
X97493422Y-119630919D01*
X97488237Y-119641790D01*
X97308326Y-119976192D01*
X97302112Y-119986507D01*
X97090604Y-120301892D01*
X97083418Y-120311557D01*
X96842322Y-120604923D01*
X96834233Y-120613846D01*
X96565810Y-120882445D01*
X96556893Y-120890540D01*
X96263676Y-121131837D01*
X96254016Y-121139029D01*
X95938778Y-121350740D01*
X95928466Y-121356961D01*
X95594176Y-121537093D01*
X95583310Y-121542284D01*
X95233123Y-121689139D01*
X95221803Y-121693252D01*
X94859019Y-121805443D01*
X94847354Y-121808438D01*
X94475397Y-121884906D01*
X94463497Y-121886755D01*
X94085149Y-121926858D01*
X94074595Y-121927523D01*
X93886556Y-121931339D01*
X93881503Y-121931339D01*
X92350002Y-121899999D01*
X72349968Y-121899999D01*
X68320339Y-121931405D01*
X68316935Y-121931385D01*
X68128050Y-121927670D01*
X68117499Y-121927012D01*
X67739114Y-121887157D01*
X67727212Y-121885315D01*
X67355214Y-121809092D01*
X67343548Y-121806105D01*
X66980682Y-121694150D01*
X66969360Y-121690044D01*
X66619088Y-121543425D01*
X66608217Y-121538241D01*
X66273807Y-121358326D01*
X66263492Y-121352112D01*
X65948107Y-121140604D01*
X65938442Y-121133418D01*
X65645076Y-120892322D01*
X65636153Y-120884233D01*
X65367554Y-120615810D01*
X65359459Y-120606893D01*
X65118162Y-120313676D01*
X65110970Y-120304016D01*
X64899259Y-119988778D01*
X64893038Y-119978466D01*
X64712906Y-119644176D01*
X64707715Y-119633310D01*
X64560860Y-119283123D01*
X64556747Y-119271803D01*
X64444556Y-118909019D01*
X64441561Y-118897354D01*
X64365093Y-118525397D01*
X64363244Y-118513497D01*
X64323141Y-118135149D01*
X64322476Y-118124595D01*
X64318638Y-117935494D01*
X64318612Y-117932628D01*
X64352612Y-105900350D01*
X66849999Y-105900350D01*
X66849999Y-117900392D01*
X66850509Y-117953887D01*
X66850511Y-117953929D01*
X66858148Y-118060740D01*
X66858150Y-118060761D01*
X66873388Y-118166763D01*
X66896153Y-118271431D01*
X66896157Y-118271445D01*
X66926329Y-118374207D01*
X66963760Y-118474573D01*
X67008247Y-118571989D01*
X67059574Y-118665995D01*
X67117487Y-118756114D01*
X67117491Y-118756119D01*
X67181668Y-118841852D01*
X67251810Y-118922804D01*
X67251817Y-118922811D01*
X67327553Y-118998550D01*
X67327566Y-118998562D01*
X67408497Y-119068691D01*
X67494241Y-119132881D01*
X67494247Y-119132885D01*
X67584351Y-119190792D01*
X67678366Y-119242129D01*
X67775786Y-119286621D01*
X67876150Y-119324056D01*
X67978905Y-119354229D01*
X67978915Y-119354231D01*
X68083584Y-119377003D01*
X68189603Y-119392245D01*
X68296438Y-119399887D01*
X68349966Y-119400354D01*
X72350000Y-119400354D01*
X92350001Y-119400355D01*
X93850022Y-119400354D01*
X93903546Y-119399933D01*
X93903566Y-119399932D01*
X94010398Y-119392290D01*
X94116428Y-119377046D01*
X94221078Y-119354280D01*
X94323863Y-119324099D01*
X94424212Y-119286670D01*
X94424224Y-119286665D01*
X94521664Y-119242164D01*
X94615664Y-119190835D01*
X94705775Y-119132923D01*
X94791517Y-119068737D01*
X94872463Y-118998595D01*
X94872476Y-118998583D01*
X94948210Y-118922848D01*
X94948215Y-118922843D01*
X95018366Y-118841880D01*
X95082541Y-118756151D01*
X95082544Y-118756146D01*
X95140446Y-118666044D01*
X95140453Y-118666032D01*
X95191789Y-118572016D01*
X95191791Y-118572011D01*
X95236282Y-118474583D01*
X95273712Y-118374221D01*
X95303885Y-118271455D01*
X95303887Y-118271446D01*
X95326655Y-118166770D01*
X95341895Y-118060755D01*
X95349534Y-117953918D01*
X95350000Y-117900389D01*
X95350000Y-105900363D01*
X95349565Y-105846797D01*
X95341922Y-105739970D01*
X95341920Y-105739948D01*
X95326676Y-105633946D01*
X95303904Y-105529276D01*
X95273725Y-105426504D01*
X95236285Y-105326130D01*
X95191793Y-105228713D01*
X95191788Y-105228704D01*
X95140463Y-105134711D01*
X95140449Y-105134688D01*
X95082542Y-105044590D01*
X95018364Y-104958860D01*
X95018360Y-104958854D01*
X94948212Y-104877902D01*
X94948188Y-104877876D01*
X94872483Y-104802175D01*
X94872458Y-104802152D01*
X94791507Y-104732009D01*
X94705773Y-104667831D01*
X94705760Y-104667822D01*
X94615663Y-104609922D01*
X94521651Y-104558588D01*
X94424200Y-104514085D01*
X94323875Y-104476667D01*
X94323849Y-104476659D01*
X94221070Y-104446482D01*
X94116424Y-104423717D01*
X94010396Y-104408473D01*
X93903548Y-104400831D01*
X93850007Y-104400354D01*
X68349994Y-104400354D01*
X68296448Y-104400878D01*
X68296439Y-104400878D01*
X68189607Y-104408519D01*
X68083583Y-104423762D01*
X67978941Y-104446525D01*
X67978926Y-104446529D01*
X67876175Y-104476699D01*
X67876147Y-104476708D01*
X67775812Y-104514130D01*
X67678373Y-104558628D01*
X67584369Y-104609956D01*
X67584368Y-104609957D01*
X67494257Y-104667865D01*
X67494252Y-104667869D01*
X67408521Y-104732045D01*
X67327569Y-104802187D01*
X67327550Y-104802205D01*
X67251846Y-104877907D01*
X67251818Y-104877937D01*
X67181681Y-104958876D01*
X67117495Y-105044616D01*
X67059584Y-105134723D01*
X67008241Y-105228745D01*
X66963757Y-105326146D01*
X66963756Y-105326148D01*
X66926313Y-105426531D01*
X66896142Y-105529275D01*
X66873368Y-105633953D01*
X66858123Y-105739964D01*
X66850479Y-105846807D01*
X66849999Y-105900350D01*
X64352612Y-105900350D01*
X64352618Y-105898391D01*
X64352641Y-105896327D01*
X64356330Y-105706856D01*
X64356987Y-105696302D01*
X64396775Y-105317940D01*
X64398616Y-105306032D01*
X64474789Y-104934050D01*
X64477777Y-104922378D01*
X64575750Y-104604745D01*
X64578327Y-104597249D01*
X64627334Y-104468273D01*
X64628864Y-104464438D01*
X64645146Y-104425540D01*
X64645686Y-104424272D01*
X64701966Y-104293905D01*
X64704260Y-104288899D01*
X64780046Y-104132786D01*
X64782561Y-104127886D01*
X64865230Y-103975246D01*
X64867959Y-103970463D01*
X64957306Y-103821675D01*
X64960245Y-103817018D01*
X65056117Y-103672331D01*
X65059261Y-103667808D01*
X65161457Y-103527531D01*
X65164797Y-103523154D01*
X65273136Y-103387533D01*
X65276668Y-103383307D01*
X65390910Y-103252643D01*
X65394626Y-103248579D01*
X65514550Y-103123124D01*
X65518443Y-103119228D01*
X65643842Y-102999200D01*
X65647904Y-102995482D01*
X65778480Y-102881165D01*
X65782703Y-102877630D01*
X65918243Y-102769210D01*
X65922619Y-102765866D01*
X66062841Y-102663571D01*
X66067361Y-102660425D01*
X66211984Y-102564458D01*
X66216639Y-102561516D01*
X66365378Y-102472066D01*
X66370159Y-102469333D01*
X66522726Y-102386574D01*
X66527625Y-102384056D01*
X66683707Y-102308158D01*
X66688711Y-102305861D01*
X66848013Y-102236966D01*
X66853116Y-102234892D01*
X67015337Y-102173132D01*
X67020524Y-102171288D01*
X67185297Y-102116800D01*
X67190564Y-102115187D01*
X67357625Y-102068062D01*
X67362957Y-102066685D01*
X67531919Y-102027030D01*
X67537307Y-102025891D01*
X67707897Y-101993770D01*
X67713331Y-101992872D01*
X67885129Y-101968365D01*
X67890597Y-101967708D01*
X68063353Y-101950850D01*
X68068844Y-101950437D01*
X68242512Y-101941248D01*
X68247333Y-101941087D01*
X68333582Y-101939883D01*
X68335326Y-101939871D01*
X93833567Y-101942471D01*
G37*
G36*
X119351132Y-72900021D02*
G01*
X119459286Y-72902024D01*
X119476381Y-72903529D01*
X119691105Y-72937526D01*
X119710028Y-72942068D01*
X119915691Y-73008884D01*
X119933669Y-73016330D01*
X120126348Y-73114498D01*
X120142940Y-73124665D01*
X120317889Y-73251769D01*
X120332686Y-73264407D01*
X120485592Y-73417313D01*
X120498230Y-73432110D01*
X120625334Y-73607059D01*
X120635501Y-73623651D01*
X120733669Y-73816330D01*
X120741115Y-73834308D01*
X120807931Y-74039971D01*
X120812473Y-74058894D01*
X120846470Y-74273618D01*
X120847975Y-74290712D01*
X120849979Y-74398866D01*
X120850000Y-74401163D01*
X120850000Y-88398791D01*
X120849976Y-88401223D01*
X120847855Y-88509337D01*
X120846352Y-88526303D01*
X120812336Y-88741068D01*
X120807794Y-88759988D01*
X120742601Y-88960633D01*
X120737462Y-88973832D01*
X120729484Y-88991299D01*
X120727177Y-88996076D01*
X120647658Y-89152142D01*
X120641488Y-89162888D01*
X120601385Y-89225289D01*
X120597388Y-89231134D01*
X120536797Y-89314531D01*
X120535749Y-89315953D01*
X120526310Y-89328563D01*
X120520753Y-89335459D01*
X120456410Y-89409714D01*
X120450379Y-89416192D01*
X120380893Y-89485679D01*
X120374415Y-89491710D01*
X120300179Y-89556037D01*
X120293285Y-89561592D01*
X120214617Y-89620482D01*
X120207347Y-89625530D01*
X120124700Y-89678645D01*
X120117087Y-89683162D01*
X120030840Y-89730257D01*
X120022926Y-89734219D01*
X119933555Y-89775035D01*
X119925377Y-89778422D01*
X119833338Y-89812752D01*
X119824940Y-89815548D01*
X119730652Y-89843235D01*
X119722076Y-89845424D01*
X119626070Y-89866311D01*
X119617358Y-89867883D01*
X119520100Y-89881868D01*
X119511299Y-89882814D01*
X119412747Y-89889864D01*
X119405010Y-89890175D01*
X119355891Y-89890615D01*
X119354780Y-89890620D01*
X102979330Y-89890620D01*
X102912291Y-89870935D01*
X102866536Y-89818131D01*
X102855330Y-89766620D01*
X102855330Y-75000032D01*
X104000000Y-75000032D01*
X104000000Y-87799967D01*
X104000523Y-87848000D01*
X104000523Y-87848004D01*
X104008891Y-87943649D01*
X104025562Y-88038191D01*
X104025565Y-88038204D01*
X104050407Y-88130920D01*
X104050412Y-88130935D01*
X104083242Y-88221139D01*
X104083249Y-88221156D01*
X104123818Y-88308156D01*
X104123826Y-88308171D01*
X104171822Y-88391302D01*
X104171831Y-88391317D01*
X104226894Y-88469954D01*
X104288597Y-88543490D01*
X104288617Y-88543511D01*
X104356488Y-88611382D01*
X104356509Y-88611402D01*
X104430045Y-88673105D01*
X104508682Y-88728168D01*
X104508697Y-88728177D01*
X104591828Y-88776173D01*
X104591843Y-88776181D01*
X104678843Y-88816750D01*
X104678860Y-88816757D01*
X104769064Y-88849587D01*
X104769079Y-88849592D01*
X104861795Y-88874434D01*
X104861808Y-88874437D01*
X104956351Y-88891108D01*
X104956350Y-88891108D01*
X105051997Y-88899476D01*
X105100032Y-88900000D01*
X118799968Y-88900000D01*
X118848000Y-88899476D01*
X118848004Y-88899476D01*
X118943649Y-88891108D01*
X119038191Y-88874437D01*
X119038204Y-88874434D01*
X119130920Y-88849592D01*
X119130935Y-88849587D01*
X119221139Y-88816757D01*
X119221156Y-88816750D01*
X119308156Y-88776181D01*
X119308171Y-88776173D01*
X119391302Y-88728177D01*
X119391317Y-88728168D01*
X119469954Y-88673105D01*
X119543490Y-88611402D01*
X119543511Y-88611382D01*
X119611382Y-88543511D01*
X119611402Y-88543490D01*
X119673105Y-88469954D01*
X119728168Y-88391317D01*
X119728177Y-88391302D01*
X119776173Y-88308171D01*
X119776181Y-88308156D01*
X119816750Y-88221156D01*
X119816757Y-88221139D01*
X119849587Y-88130935D01*
X119849592Y-88130920D01*
X119874434Y-88038204D01*
X119874437Y-88038191D01*
X119891108Y-87943649D01*
X119899476Y-87848004D01*
X119899476Y-87848000D01*
X119900000Y-87799967D01*
X119900000Y-75000032D01*
X119899476Y-74951999D01*
X119899476Y-74951995D01*
X119891108Y-74856350D01*
X119874437Y-74761808D01*
X119874434Y-74761795D01*
X119849592Y-74669079D01*
X119849587Y-74669064D01*
X119816757Y-74578860D01*
X119816750Y-74578843D01*
X119776181Y-74491843D01*
X119776173Y-74491828D01*
X119728177Y-74408697D01*
X119728168Y-74408682D01*
X119673105Y-74330045D01*
X119611402Y-74256509D01*
X119611382Y-74256488D01*
X119543511Y-74188617D01*
X119543490Y-74188597D01*
X119469954Y-74126894D01*
X119391317Y-74071831D01*
X119391302Y-74071822D01*
X119308171Y-74023826D01*
X119308156Y-74023818D01*
X119221156Y-73983249D01*
X119221139Y-73983242D01*
X119130935Y-73950412D01*
X119130920Y-73950407D01*
X119038204Y-73925565D01*
X119038191Y-73925562D01*
X118943648Y-73908891D01*
X118943649Y-73908891D01*
X118848002Y-73900523D01*
X118799968Y-73900000D01*
X105100032Y-73900000D01*
X105051999Y-73900523D01*
X105051995Y-73900523D01*
X104956350Y-73908891D01*
X104861808Y-73925562D01*
X104861795Y-73925565D01*
X104769079Y-73950407D01*
X104769064Y-73950412D01*
X104678860Y-73983242D01*
X104678843Y-73983249D01*
X104591843Y-74023818D01*
X104591828Y-74023826D01*
X104508697Y-74071822D01*
X104508682Y-74071831D01*
X104430045Y-74126894D01*
X104356509Y-74188597D01*
X104356488Y-74188617D01*
X104288617Y-74256488D01*
X104288597Y-74256509D01*
X104226894Y-74330045D01*
X104171831Y-74408682D01*
X104171822Y-74408697D01*
X104123826Y-74491828D01*
X104123818Y-74491843D01*
X104083249Y-74578843D01*
X104083242Y-74578860D01*
X104050412Y-74669064D01*
X104050407Y-74669079D01*
X104025565Y-74761795D01*
X104025562Y-74761808D01*
X104008891Y-74856350D01*
X104000523Y-74951995D01*
X104000523Y-74951999D01*
X104000000Y-75000032D01*
X102855330Y-75000032D01*
X102855330Y-73024000D01*
X102875015Y-72956961D01*
X102927819Y-72911206D01*
X102979330Y-72900000D01*
X119348836Y-72900000D01*
X119351132Y-72900021D01*
G37*
M02*
