M48
; DRILL file KiCad 10.0.0 date 2026-04-08T20:54:56
; FORMAT={-:-/ absolute / metric / decimal}
; #@! TF.CreationDate,2026-04-08T20:54:56+02:00
; #@! TF.GenerationSoftware,Kicad,Pcbnew,10.0.0
; #@! TF.FileFunction,Plated,1,4,PTH
FMAT,2
METRIC
; #@! TA.AperFunction,Plated,PTH,ViaDrill
T1C0.150
; #@! TA.AperFunction,Plated,PTH,ViaDrill
T2C0.300
; #@! TA.AperFunction,Plated,PTH,ComponentDrill
T3C1.000
%
G90
G05
T1
X65.05Y-77.4
X65.05Y-79.912
X65.05Y-82.425
X65.05Y-84.938
X65.05Y-87.45
X65.075Y-69.862
X65.075Y-72.375
X65.075Y-74.888
X65.075Y-89.962
X65.575Y-105.487
X65.575Y-108.0
X65.575Y-110.512
X65.575Y-113.025
X65.575Y-115.537
X65.6Y-118.05
X66.1Y-92.95
X66.125Y-78.587
X66.125Y-81.1
X66.125Y-83.612
X66.125Y-86.125
X66.125Y-88.638
X66.15Y-71.05
X66.15Y-73.562
X66.15Y-76.075
X66.15Y-91.15
X66.65Y-68.675
X66.85Y-120.1
X67.0Y-92.0
X67.4Y-106.5
X67.4Y-108.35
X67.4Y-109.679
X67.4Y-111.008
X67.4Y-112.337
X67.4Y-113.667
X67.4Y-114.996
X67.4Y-116.325
X67.525Y-94.4
X67.55Y-69.625
X67.675Y-86.325
X68.05Y-67.25
X68.05Y-73.0
X68.05Y-74.45
X68.05Y-102.95
X68.3Y-105.35
X68.3Y-107.4
X68.4Y-79.0
X68.425Y-93.45
X68.45Y-82.35
X68.45Y-83.3
X68.45Y-84.39
X68.55Y-86.3
X68.938Y-120.775
X68.95Y-88.5
X68.95Y-89.8
X68.95Y-91.0
X68.95Y-95.8
X69.0Y-68.2
X69.3Y-71.0
X69.325Y-73.0
X69.452Y-116.169
X69.675Y-79.0
X69.85Y-94.85
X70.05Y-85.75
X70.1Y-84.8
X70.15Y-66.75
X70.275Y-106.55
X70.3Y-110.75
X70.305Y-111.706
X70.55Y-71.0
X70.6Y-73.0
X70.866Y-86.81
X70.95Y-74.65
X70.95Y-79.0
X70.95Y-118.9
X71.0Y-117.3
X71.192Y-109.035
X71.2Y-105.75
X71.4Y-68.2
X71.45Y-86.8
X71.45Y-120.775
X71.825Y-71.0
X71.85Y-109.8
X71.85Y-117.4
X71.865Y-74.665
X71.9Y-105.525
X71.9Y-118.7
X71.925Y-107.65
X71.984Y-105.967
X72.2Y-81.962
X72.245Y-77.075
X72.3Y-108.1
X72.3Y-110.9
X72.35Y-114.2
X72.35Y-114.7
X72.55Y-119.45
X72.59Y-74.59
X72.662Y-66.75
X72.695Y-108.38
X72.738Y-88.355
X72.74Y-80.31
X72.769Y-107.281
X72.775Y-103.5
X72.9Y-77.4
X72.97Y-75.811
X73.1Y-71.0
X73.15Y-73.45
X73.318Y-85.987
X73.5Y-109.45
X73.55Y-77.4
X73.6Y-72.2
X73.7Y-95.1
X73.7Y-96.0
X73.7Y-102.4
X73.7Y-103.5
X73.7Y-104.6
X73.759Y-75.802
X73.8Y-86.3
X73.895Y-114.292
X73.912Y-68.2
X73.962Y-120.775
X74.25Y-76.225
X74.545Y-104.575
X74.55Y-102.4
X74.55Y-103.5
X74.55Y-105.65
X74.6Y-95.1
X74.6Y-96.0
X74.612Y-78.368
X74.65Y-89.55
X74.767Y-112.125
X74.8Y-73.15
X74.8Y-91.1
X74.825Y-84.1
X74.848Y-79.716
X74.85Y-78.75
X74.854Y-80.166
X74.861Y-79.24
X74.95Y-81.75
X74.95Y-114.825
X74.955Y-81.025
X75.02Y-110.97
X75.05Y-94.15
X75.05Y-104.6
X75.07Y-87.307
X75.1Y-89.55
X75.2Y-66.75
X75.249Y-73.655
X75.35Y-119.45
X75.45Y-95.1
X75.45Y-96.0
X75.462Y-110.97
X75.5Y-105.65
X75.5Y-111.75
X75.575Y-84.9
X75.85Y-91.45
X76.05Y-93.1
X76.05Y-102.4
X76.05Y-103.5
X76.175Y-76.155
X76.218Y-75.234
X76.25Y-90.1
X76.425Y-68.2
X76.432Y-110.306
X76.45Y-119.45
X76.475Y-120.775
X76.486Y-111.691
X76.635Y-104.575
X76.65Y-105.64
X76.875Y-102.4
X76.9Y-94.05
X76.9Y-95.1
X76.9Y-96.0
X76.9Y-103.5
X77.05Y-91.2
X77.15Y-74.15
X77.225Y-84.813
X77.36Y-109.24
X77.554Y-76.501
X77.665Y-87.8
X77.665Y-88.757
X77.675Y-107.075
X77.675Y-84.813
X77.775Y-108.29
X77.85Y-95.1
X77.85Y-96.0
X77.9Y-102.4
X77.9Y-103.5
X77.911Y-78.862
X78.1Y-116.2
X78.1Y-117.15
X78.125Y-93.2
X78.135Y-105.665
X78.145Y-89.193
X78.15Y-52.4
X78.518Y-89.725
X78.615Y-91.485
X78.8Y-93.425
X78.9Y-95.1
X78.9Y-96.0
X78.9Y-102.4
X78.9Y-103.5
X78.907Y-110.33
X78.938Y-68.225
X78.95Y-106.7
X78.95Y-109.8
X78.962Y-119.45
X78.987Y-120.775
X79.05Y-108.7
X79.204Y-113.305
X79.226Y-87.067
X79.255Y-84.843
X79.281Y-108.109
X79.295Y-88.681
X79.399Y-106.722
X79.515Y-93.265
X79.7Y-84.913
X79.725Y-94.225
X79.725Y-96.0
X79.725Y-102.4
X79.725Y-103.521
X79.735Y-87.074
X79.75Y-52.4
X79.775Y-75.235
X79.872Y-74.072
X80.0Y-109.9
X80.035Y-93.27
X80.5Y-87.125
X80.775Y-102.447
X80.79Y-96.0
X80.794Y-110.948
X80.8Y-95.075
X81.0Y-66.75
X81.015Y-87.07
X81.025Y-84.092
X81.025Y-84.575
X81.025Y-82.5
X81.025Y-83.05
X81.025Y-83.642
X81.15Y-88.7
X81.175Y-85.025
X81.425Y-102.825
X81.425Y-104.275
X81.425Y-105.4
X81.475Y-119.425
X81.5Y-120.75
X81.55Y-75.235
X81.569Y-91.415
X81.575Y-93.264
X81.9Y-76.55
X82.2Y-107.5
X82.275Y-77.25
X82.3Y-92.75
X82.353Y-93.778
X82.425Y-109.075
X82.55Y-66.75
X82.55Y-86.02
X82.55Y-88.075
X82.562Y-75.235
X82.757Y-72.325
X82.8Y-90.325
X82.928Y-93.203
X82.95Y-102.8
X82.95Y-104.25
X82.95Y-105.275
X82.975Y-76.439
X83.0Y-94.75
X83.0Y-96.0
X83.05Y-88.575
X83.095Y-85.21
X83.225Y-86.0
X83.225Y-86.5
X83.489Y-88.075
X83.509Y-75.235
X83.61Y-69.66
X83.65Y-83.475
X83.65Y-92.48
X83.675Y-106.75
X83.775Y-76.801
X83.775Y-77.201
X83.8Y-88.775
X83.85Y-77.7
X83.88Y-78.18
X84.0Y-110.8
X84.05Y-76.445
X84.112Y-119.453
X84.137Y-120.778
X84.15Y-113.675
X84.24Y-74.175
X84.25Y-90.325
X84.288Y-112.8
X84.4Y-102.8
X84.4Y-104.2
X84.403Y-93.203
X84.628Y-91.503
X84.725Y-114.425
X84.75Y-110.875
X84.8Y-70.8
X84.84Y-66.75
X84.85Y-60.05
X84.85Y-87.95
X84.85Y-88.4
X84.9Y-79.15
X84.966Y-85.058
X84.978Y-75.255
X85.047Y-76.547
X85.065Y-73.09
X85.11Y-111.37
X85.15Y-102.8
X85.15Y-104.2
X85.29Y-96.0
X85.3Y-94.8
X85.315Y-93.66
X85.325Y-92.6
X85.35Y-79.15
X85.38Y-116.675
X85.45Y-70.75
X85.45Y-78.6
X85.821Y-113.0
X85.836Y-87.836
X85.85Y-79.15
X85.864Y-89.704
X85.9Y-73.075
X85.9Y-107.7
X85.9Y-110.45
X85.9Y-115.65
X85.95Y-82.75
X85.95Y-83.65
X85.95Y-84.15
X85.95Y-86.5
X85.971Y-82.265
X85.988Y-87.005
X86.051Y-85.042
X86.225Y-79.45
X86.275Y-95.975
X86.275Y-102.8
X86.275Y-104.2
X86.346Y-54.45
X86.346Y-57.95
X86.4Y-70.75
X86.425Y-76.105
X86.465Y-94.81
X86.475Y-92.575
X86.475Y-93.65
X86.624Y-119.453
X86.649Y-120.778
X86.65Y-73.075
X86.735Y-105.14
X86.812Y-75.388
X86.825Y-76.421
X86.825Y-75.899
X86.83Y-74.48
X86.865Y-88.715
X86.9Y-110.45
X86.949Y-89.162
X87.13Y-66.75
X87.15Y-60.05
X87.15Y-68.8
X87.15Y-70.275
X87.15Y-113.0
X87.253Y-104.597
X87.35Y-107.65
X87.376Y-116.672
X87.385Y-81.815
X87.425Y-83.15
X87.425Y-83.65
X87.425Y-84.2
X87.45Y-74.175
X87.473Y-90.236
X87.475Y-75.775
X87.5Y-80.1
X87.52Y-115.69
X87.525Y-72.8
X87.532Y-80.615
X87.65Y-90.65
X87.74Y-87.84
X87.742Y-88.528
X87.742Y-104.158
X87.8Y-71.6
X87.8Y-72.3
X87.821Y-73.92
X87.9Y-80.95
X87.9Y-110.45
X87.95Y-102.8
X88.196Y-56.8
X88.2Y-57.8
X88.25Y-94.8
X88.25Y-96.0
X88.3Y-81.35
X88.4Y-84.0
X88.479Y-113.0
X88.525Y-73.95
X88.6Y-91.5
X88.775Y-110.35
X88.8Y-116.15
X89.137Y-119.453
X89.162Y-120.778
X89.224Y-79.579
X89.32Y-84.06
X89.35Y-86.85
X89.35Y-87.3
X89.39Y-116.632
X89.4Y-75.26
X89.5Y-66.75
X89.5Y-68.75
X89.5Y-70.75
X89.55Y-106.0
X89.7Y-84.75
X89.821Y-81.999
X89.85Y-60.05
X89.9Y-57.6
X89.92Y-111.33
X90.07Y-89.72
X90.075Y-91.5
X90.251Y-116.5
X90.379Y-81.325
X90.45Y-104.2
X90.462Y-102.8
X90.54Y-96.0
X90.55Y-106.75
X90.55Y-117.45
X90.55Y-118.4
X90.774Y-78.831
X90.979Y-84.45
X91.2Y-73.4
X91.35Y-94.8
X91.4Y-106.75
X91.536Y-105.817
X91.649Y-119.453
X91.674Y-120.778
X92.04Y-105.26
X92.35Y-79.85
X92.475Y-86.3
X92.528Y-87.303
X92.55Y-107.5
X92.55Y-108.4
X92.582Y-73.99
X92.6Y-106.75
X92.775Y-112.545
X93.11Y-77.14
X93.165Y-73.175
X93.165Y-75.86
X93.175Y-86.3
X93.3Y-73.95
X93.4Y-81.325
X93.4Y-102.8
X93.45Y-79.85
X93.45Y-96.0
X93.5Y-66.75
X93.5Y-68.75
X93.5Y-70.75
X93.5Y-82.525
X93.7Y-112.55
X93.9Y-106.75
X93.9Y-108.05
X94.15Y-118.75
X94.162Y-119.453
X94.187Y-120.778
X94.2Y-73.99
X94.4Y-75.2
X94.4Y-111.35
X94.4Y-111.85
X94.75Y-91.25
X94.75Y-92.65
X94.75Y-94.35
X94.95Y-82.1
X94.95Y-82.95
X95.0Y-111.35
X95.0Y-111.85
X95.022Y-108.078
X95.05Y-116.175
X95.05Y-117.0
X95.05Y-117.9
X95.4Y-108.5
X95.5Y-78.05
X95.5Y-79.25
X95.65Y-87.95
X95.85Y-108.1
X96.0Y-103.95
X96.025Y-111.525
X96.05Y-119.75
X96.1Y-87.65
X96.1Y-89.05
X96.1Y-91.25
X96.1Y-92.65
X96.15Y-84.75
X96.15Y-86.15
X96.15Y-94.35
X96.6Y-111.5
X96.8Y-68.75
X96.8Y-70.75
X96.8Y-73.0
X96.8Y-75.0
X96.8Y-76.65
X96.8Y-79.45
X96.8Y-80.95
X96.8Y-83.45
X96.85Y-106.5
X96.95Y-117.3
X97.15Y-111.55
X97.15Y-113.2
X103.975Y-73.8
X103.975Y-76.675
X103.975Y-77.975
X105.575Y-81.825
X105.575Y-82.975
X105.6Y-77.95
X105.625Y-73.825
X105.825Y-113.575
X105.85Y-106.5
X105.85Y-107.85
X106.65Y-107.75
X106.65Y-112.2
X106.65Y-113.55
X106.65Y-118.25
X106.95Y-76.675
X106.975Y-75.0
X107.175Y-81.825
X107.175Y-82.975
X107.2Y-77.95
X107.225Y-73.825
X107.45Y-106.5
X107.45Y-107.85
X107.45Y-115.625
X108.2Y-109.7
X108.25Y-112.2
X108.25Y-113.55
X108.25Y-118.25
X108.775Y-81.825
X108.775Y-82.975
X108.8Y-77.95
X108.825Y-73.825
X109.05Y-106.5
X109.05Y-107.85
X109.05Y-115.75
X109.342Y-76.517
X109.4Y-75.0
X109.85Y-107.75
X109.85Y-112.2
X109.85Y-118.25
X109.85Y-113.55
X110.375Y-81.825
X110.375Y-82.975
X110.4Y-77.95
X110.4Y-76.975
X110.425Y-73.825
X110.65Y-106.5
X110.65Y-107.85
X110.65Y-115.475
X111.412Y-76.975
X111.45Y-112.2
X111.45Y-118.25
X111.45Y-109.65
X111.45Y-113.55
X111.975Y-81.825
X111.975Y-82.975
X112.0Y-75.0
X112.0Y-77.95
X112.025Y-73.825
X112.25Y-115.5
X112.25Y-106.5
X112.25Y-107.85
X113.05Y-109.8
X113.05Y-112.2
X113.05Y-113.55
X113.05Y-118.25
X113.575Y-81.825
X113.575Y-82.975
X113.6Y-77.95
X113.625Y-73.825
X113.85Y-106.5
X113.85Y-107.85
X113.85Y-115.4
X114.432Y-75.0
X114.65Y-110.05
X114.65Y-112.2
X114.65Y-113.55
X114.65Y-118.25
X115.175Y-81.825
X115.175Y-82.975
X115.2Y-77.95
X115.225Y-73.825
X115.45Y-115.3
X115.45Y-106.5
X115.45Y-107.85
X115.975Y-83.9
X115.975Y-85.05
X115.975Y-86.5
X115.975Y-87.65
X116.25Y-110.0
X116.25Y-112.2
X116.25Y-113.55
X116.25Y-118.25
X116.771Y-115.4
X116.775Y-81.825
X116.775Y-82.975
X116.8Y-77.95
X116.815Y-74.735
X116.825Y-73.825
X117.05Y-106.5
X117.05Y-107.85
X117.85Y-110.025
X117.85Y-112.2
X117.85Y-113.55
X117.85Y-116.5
X117.85Y-118.25
X118.275Y-81.85
X118.275Y-83.0
X118.325Y-77.1
X118.325Y-78.25
X118.4Y-73.825
X119.2Y-108.0
X119.2Y-109.3
X119.2Y-110.65
X119.2Y-112.2
X119.2Y-113.55
X119.2Y-114.95
X119.775Y-76.3
X119.775Y-77.9
X119.775Y-79.5
X119.775Y-81.1
X119.775Y-82.7
X119.775Y-84.3
X119.775Y-85.9
X119.775Y-87.2
X119.775Y-88.8
T2
X68.75Y-87.8
X69.45Y-107.45
X69.9Y-88.6
X69.9Y-89.3
X70.2Y-107.45
X70.639Y-89.289
X70.65Y-88.6
X71.175Y-77.0
X71.4Y-88.6
X72.1Y-88.6
X72.25Y-91.25
X72.386Y-94.414
X73.2Y-94.4
X73.7Y-73.15
X74.65Y-70.55
X75.525Y-102.95
X75.525Y-104.05
X76.65Y-117.825
X76.7Y-79.8
X77.75Y-70.675
X77.75Y-111.925
X77.755Y-73.474
X77.774Y-72.7
X77.845Y-113.404
X78.45Y-58.7
X78.6Y-79.8
X78.6Y-81.775
X78.6Y-83.75
X78.7Y-57.4
X78.7Y-58.05
X78.845Y-104.98
X79.15Y-70.7
X79.85Y-79.8
X79.85Y-81.75
X79.85Y-83.75
X80.25Y-105.2
X80.45Y-59.5
X80.9Y-108.475
X81.15Y-53.7
X81.2Y-59.5
X81.775Y-92.05
X81.95Y-53.7
X82.075Y-70.675
X82.416Y-55.375
X82.475Y-92.05
X82.8Y-52.25
X82.8Y-53.05
X82.8Y-53.7
X83.8Y-58.275
X86.072Y-91.475
X86.725Y-91.475
X87.2Y-51.95
X87.5Y-79.4
X87.539Y-77.765
X88.0Y-51.95
X89.1Y-54.05
X89.3Y-72.55
X89.95Y-72.55
X90.25Y-82.8
X90.25Y-83.45
X90.25Y-84.1
X90.6Y-72.55
X90.9Y-107.75
X90.9Y-108.4
X91.3Y-92.55
X91.6Y-107.75
X91.6Y-108.4
X92.5Y-79.25
X92.5Y-83.4
X92.5Y-84.05
X92.5Y-84.7
X92.5Y-85.35
X93.139Y-83.411
X93.15Y-84.05
X93.15Y-84.7
X93.15Y-85.35
X93.2Y-116.7
X93.3Y-79.25
X94.7Y-112.375
X94.714Y-113.039
X94.75Y-90.05
X95.425Y-84.4
X95.425Y-85.05
X95.6Y-82.15
X95.6Y-82.8
X95.75Y-90.05
X96.239Y-82.161
X96.25Y-82.8
T3
X105.61Y-75.7
X105.61Y-79.8
X105.65Y-84.535
X105.65Y-87.075
X108.15Y-75.7
X108.15Y-79.8
X109.783Y-84.535
X109.783Y-87.075
X110.69Y-75.7
X110.69Y-79.8
X113.23Y-75.7
X113.23Y-79.8
X113.917Y-84.525
X113.917Y-87.065
X115.77Y-75.7
X115.77Y-79.8
X118.05Y-84.525
X118.05Y-87.065
X118.31Y-75.7
X118.31Y-79.8
M30
