%TF.GenerationSoftware,KiCad,Pcbnew,10.0.0*%
%TF.CreationDate,2026-04-08T11:19:38+02:00*%
%TF.ProjectId,wulpus_pro_acq_pcb,77756c70-7573-45f7-9072-6f5f6163715f,rev?*%
%TF.SameCoordinates,Original*%
%TF.FileFunction,Legend,Bot*%
%TF.FilePolarity,Positive*%
%FSLAX46Y46*%
G04 Gerber Fmt 4.6, Leading zero omitted, Abs format (unit mm)*
G04 Created by KiCad (PCBNEW 10.0.0) date 2026-04-08 11:19:38*
%MOMM*%
%LPD*%
G01*
G04 APERTURE LIST*
%ADD10C,0.150000*%
%ADD11C,0.120000*%
%ADD12C,0.152400*%
%ADD13C,0.508000*%
%ADD14C,0.127000*%
%ADD15C,0.000000*%
%ADD16C,0.177800*%
G04 APERTURE END LIST*
D10*
X94808458Y-93719819D02*
X94808458Y-92719819D01*
X94522744Y-93719819D02*
X94522744Y-92719819D01*
X94465602Y-93338866D02*
X94294173Y-93719819D01*
X94294173Y-93053152D02*
X94522744Y-93434104D01*
X93808459Y-93672200D02*
X93865602Y-93719819D01*
X93865602Y-93719819D02*
X93979888Y-93719819D01*
X93979888Y-93719819D02*
X94037030Y-93672200D01*
X94037030Y-93672200D02*
X94065602Y-93576961D01*
X94065602Y-93576961D02*
X94065602Y-93196009D01*
X94065602Y-93196009D02*
X94037030Y-93100771D01*
X94037030Y-93100771D02*
X93979888Y-93053152D01*
X93979888Y-93053152D02*
X93865602Y-93053152D01*
X93865602Y-93053152D02*
X93808459Y-93100771D01*
X93808459Y-93100771D02*
X93779888Y-93196009D01*
X93779888Y-93196009D02*
X93779888Y-93291247D01*
X93779888Y-93291247D02*
X94065602Y-93386485D01*
X93522744Y-93719819D02*
X93522744Y-93053152D01*
X93522744Y-93243628D02*
X93494173Y-93148390D01*
X93494173Y-93148390D02*
X93465602Y-93100771D01*
X93465602Y-93100771D02*
X93408459Y-93053152D01*
X93408459Y-93053152D02*
X93351316Y-93053152D01*
X92694172Y-93719819D02*
X92694172Y-92719819D01*
X92694172Y-92719819D02*
X92551315Y-92719819D01*
X92551315Y-92719819D02*
X92465601Y-92767438D01*
X92465601Y-92767438D02*
X92408458Y-92862676D01*
X92408458Y-92862676D02*
X92379887Y-92957914D01*
X92379887Y-92957914D02*
X92351315Y-93148390D01*
X92351315Y-93148390D02*
X92351315Y-93291247D01*
X92351315Y-93291247D02*
X92379887Y-93481723D01*
X92379887Y-93481723D02*
X92408458Y-93576961D01*
X92408458Y-93576961D02*
X92465601Y-93672200D01*
X92465601Y-93672200D02*
X92551315Y-93719819D01*
X92551315Y-93719819D02*
X92694172Y-93719819D01*
X91865601Y-93672200D02*
X91922744Y-93719819D01*
X91922744Y-93719819D02*
X92037030Y-93719819D01*
X92037030Y-93719819D02*
X92094172Y-93672200D01*
X92094172Y-93672200D02*
X92122744Y-93576961D01*
X92122744Y-93576961D02*
X92122744Y-93196009D01*
X92122744Y-93196009D02*
X92094172Y-93100771D01*
X92094172Y-93100771D02*
X92037030Y-93053152D01*
X92037030Y-93053152D02*
X91922744Y-93053152D01*
X91922744Y-93053152D02*
X91865601Y-93100771D01*
X91865601Y-93100771D02*
X91837030Y-93196009D01*
X91837030Y-93196009D02*
X91837030Y-93291247D01*
X91837030Y-93291247D02*
X92122744Y-93386485D01*
X91494172Y-93719819D02*
X91551315Y-93672200D01*
X91551315Y-93672200D02*
X91579886Y-93576961D01*
X91579886Y-93576961D02*
X91579886Y-92719819D01*
X90465600Y-93624580D02*
X90494172Y-93672200D01*
X90494172Y-93672200D02*
X90579886Y-93719819D01*
X90579886Y-93719819D02*
X90637029Y-93719819D01*
X90637029Y-93719819D02*
X90722743Y-93672200D01*
X90722743Y-93672200D02*
X90779886Y-93576961D01*
X90779886Y-93576961D02*
X90808457Y-93481723D01*
X90808457Y-93481723D02*
X90837029Y-93291247D01*
X90837029Y-93291247D02*
X90837029Y-93148390D01*
X90837029Y-93148390D02*
X90808457Y-92957914D01*
X90808457Y-92957914D02*
X90779886Y-92862676D01*
X90779886Y-92862676D02*
X90722743Y-92767438D01*
X90722743Y-92767438D02*
X90637029Y-92719819D01*
X90637029Y-92719819D02*
X90579886Y-92719819D01*
X90579886Y-92719819D02*
X90494172Y-92767438D01*
X90494172Y-92767438D02*
X90465600Y-92815057D01*
X89951315Y-93719819D02*
X89951315Y-93196009D01*
X89951315Y-93196009D02*
X89979886Y-93100771D01*
X89979886Y-93100771D02*
X90037029Y-93053152D01*
X90037029Y-93053152D02*
X90151315Y-93053152D01*
X90151315Y-93053152D02*
X90208457Y-93100771D01*
X89951315Y-93672200D02*
X90008457Y-93719819D01*
X90008457Y-93719819D02*
X90151315Y-93719819D01*
X90151315Y-93719819D02*
X90208457Y-93672200D01*
X90208457Y-93672200D02*
X90237029Y-93576961D01*
X90237029Y-93576961D02*
X90237029Y-93481723D01*
X90237029Y-93481723D02*
X90208457Y-93386485D01*
X90208457Y-93386485D02*
X90151315Y-93338866D01*
X90151315Y-93338866D02*
X90008457Y-93338866D01*
X90008457Y-93338866D02*
X89951315Y-93291247D01*
X89665600Y-93719819D02*
X89665600Y-93053152D01*
X89665600Y-93148390D02*
X89637029Y-93100771D01*
X89637029Y-93100771D02*
X89579886Y-93053152D01*
X89579886Y-93053152D02*
X89494172Y-93053152D01*
X89494172Y-93053152D02*
X89437029Y-93100771D01*
X89437029Y-93100771D02*
X89408458Y-93196009D01*
X89408458Y-93196009D02*
X89408458Y-93719819D01*
X89408458Y-93196009D02*
X89379886Y-93100771D01*
X89379886Y-93100771D02*
X89322743Y-93053152D01*
X89322743Y-93053152D02*
X89237029Y-93053152D01*
X89237029Y-93053152D02*
X89179886Y-93100771D01*
X89179886Y-93100771D02*
X89151315Y-93196009D01*
X89151315Y-93196009D02*
X89151315Y-93719819D01*
X88865600Y-93053152D02*
X88865600Y-94053152D01*
X88865600Y-93100771D02*
X88808458Y-93053152D01*
X88808458Y-93053152D02*
X88694172Y-93053152D01*
X88694172Y-93053152D02*
X88637029Y-93100771D01*
X88637029Y-93100771D02*
X88608458Y-93148390D01*
X88608458Y-93148390D02*
X88579886Y-93243628D01*
X88579886Y-93243628D02*
X88579886Y-93529342D01*
X88579886Y-93529342D02*
X88608458Y-93624580D01*
X88608458Y-93624580D02*
X88637029Y-93672200D01*
X88637029Y-93672200D02*
X88694172Y-93719819D01*
X88694172Y-93719819D02*
X88808458Y-93719819D01*
X88808458Y-93719819D02*
X88865600Y-93672200D01*
X88237029Y-93719819D02*
X88294172Y-93672200D01*
X88294172Y-93672200D02*
X88322743Y-93624580D01*
X88322743Y-93624580D02*
X88351315Y-93529342D01*
X88351315Y-93529342D02*
X88351315Y-93243628D01*
X88351315Y-93243628D02*
X88322743Y-93148390D01*
X88322743Y-93148390D02*
X88294172Y-93100771D01*
X88294172Y-93100771D02*
X88237029Y-93053152D01*
X88237029Y-93053152D02*
X88151315Y-93053152D01*
X88151315Y-93053152D02*
X88094172Y-93100771D01*
X88094172Y-93100771D02*
X88065601Y-93148390D01*
X88065601Y-93148390D02*
X88037029Y-93243628D01*
X88037029Y-93243628D02*
X88037029Y-93529342D01*
X88037029Y-93529342D02*
X88065601Y-93624580D01*
X88065601Y-93624580D02*
X88094172Y-93672200D01*
X88094172Y-93672200D02*
X88151315Y-93719819D01*
X88151315Y-93719819D02*
X88237029Y-93719819D01*
%TO.C,U15*%
D11*
X88390000Y-78690000D02*
X88390000Y-79140000D01*
X88390000Y-81060000D02*
X88390000Y-81510000D01*
X88390000Y-81510000D02*
X88440000Y-81510000D01*
X88440000Y-78690000D02*
X88390000Y-78690000D01*
X90360000Y-81510000D02*
X90410000Y-81510000D01*
X90410000Y-78690000D02*
X90360000Y-78690000D01*
X90410000Y-78710000D02*
X90410000Y-78690000D01*
X90410000Y-81510000D02*
X90410000Y-81060000D01*
X90560000Y-79140000D02*
X90420000Y-78950000D01*
X90700000Y-78950000D01*
X90560000Y-79140000D01*
G36*
X90560000Y-79140000D02*
G01*
X90420000Y-78950000D01*
X90700000Y-78950000D01*
X90560000Y-79140000D01*
G37*
%TO.C,U14*%
X88390000Y-74440000D02*
X88390000Y-74890000D01*
X88390000Y-76810000D02*
X88390000Y-77260000D01*
X88390000Y-77260000D02*
X88440000Y-77260000D01*
X88440000Y-74440000D02*
X88390000Y-74440000D01*
X90360000Y-77260000D02*
X90410000Y-77260000D01*
X90410000Y-74440000D02*
X90360000Y-74440000D01*
X90410000Y-74460000D02*
X90410000Y-74440000D01*
X90410000Y-77260000D02*
X90410000Y-76810000D01*
X90560000Y-74890000D02*
X90420000Y-74700000D01*
X90700000Y-74700000D01*
X90560000Y-74890000D01*
G36*
X90560000Y-74890000D02*
G01*
X90420000Y-74700000D01*
X90700000Y-74700000D01*
X90560000Y-74890000D01*
G37*
%TO.C,R56*%
X72920000Y-75646359D02*
X72920000Y-75953641D01*
X73680000Y-75646359D02*
X73680000Y-75953641D01*
%TO.C,C37*%
X73010000Y-114357836D02*
X73010000Y-114142164D01*
X73730000Y-114357836D02*
X73730000Y-114142164D01*
%TO.C,C44*%
X74612164Y-74940000D02*
X74827836Y-74940000D01*
X74612164Y-75660000D02*
X74827836Y-75660000D01*
%TO.C,R88*%
X78320000Y-75423641D02*
X78320000Y-75116359D01*
X79080000Y-75423641D02*
X79080000Y-75116359D01*
%TO.C,R23*%
X83887500Y-107137258D02*
X83887500Y-106662742D01*
X84932500Y-107137258D02*
X84932500Y-106662742D01*
%TO.C,R45*%
X87995000Y-82771359D02*
X87995000Y-83078641D01*
X88755000Y-82771359D02*
X88755000Y-83078641D01*
%TO.C,R74*%
X84020000Y-75116359D02*
X84020000Y-75423641D01*
X84780000Y-75116359D02*
X84780000Y-75423641D01*
%TO.C,C19*%
X72410000Y-110792164D02*
X72410000Y-111007836D01*
X73130000Y-110792164D02*
X73130000Y-111007836D01*
%TO.C,C41*%
X78257836Y-87440000D02*
X78042164Y-87440000D01*
X78257836Y-88160000D02*
X78042164Y-88160000D01*
%TO.C,C48*%
X82892164Y-87640000D02*
X83107836Y-87640000D01*
X82892164Y-88360000D02*
X83107836Y-88360000D01*
%TO.C,R24*%
X74870000Y-116303641D02*
X74870000Y-115996359D01*
X75630000Y-116303641D02*
X75630000Y-115996359D01*
%TO.C,C32*%
X92415000Y-112917164D02*
X92415000Y-113132836D01*
X93135000Y-112917164D02*
X93135000Y-113132836D01*
%TO.C,R104*%
X93770000Y-117246359D02*
X93770000Y-117553641D01*
X94530000Y-117246359D02*
X94530000Y-117553641D01*
%TO.C,U8*%
X83515600Y-109940000D02*
X83515600Y-110390000D01*
X83515600Y-116710000D02*
X83515600Y-117160000D01*
X83515600Y-117160000D02*
X83965600Y-117160000D01*
X83965600Y-109940000D02*
X83515600Y-109940000D01*
X90285600Y-117160000D02*
X90735600Y-117160000D01*
X90735600Y-109940000D02*
X90285600Y-109940000D01*
X90735600Y-110390000D02*
X90735600Y-109940000D01*
X90735600Y-117160000D02*
X90735600Y-116710000D01*
X83965600Y-109300000D02*
X83495600Y-109640000D01*
X83495600Y-108960000D01*
X83965600Y-109300000D01*
G36*
X83965600Y-109300000D02*
G01*
X83495600Y-109640000D01*
X83495600Y-108960000D01*
X83965600Y-109300000D01*
G37*
%TO.C,Q1*%
X75650000Y-92715000D02*
X74650000Y-92715000D01*
X75650000Y-93935000D02*
X74650000Y-93935000D01*
X76170000Y-92785000D02*
X75890000Y-92785000D01*
X75890000Y-92505000D01*
X76170000Y-92785000D01*
G36*
X76170000Y-92785000D02*
G01*
X75890000Y-92785000D01*
X75890000Y-92505000D01*
X76170000Y-92785000D01*
G37*
%TO.C,R10*%
X89320000Y-85953641D02*
X89320000Y-85646359D01*
X90080000Y-85953641D02*
X90080000Y-85646359D01*
%TO.C,C55*%
X69942164Y-83890000D02*
X70157836Y-83890000D01*
X69942164Y-84610000D02*
X70157836Y-84610000D01*
%TO.C,X2*%
X104230000Y-78420000D02*
X104230000Y-79800000D01*
X105610000Y-78420000D02*
X104230000Y-78420000D01*
X106880000Y-78420000D02*
X106880000Y-81180000D01*
X106880000Y-78420000D02*
X119690000Y-78420000D01*
X106880000Y-81180000D02*
X119690000Y-81180000D01*
X119690000Y-78420000D02*
X119690000Y-81180000D01*
%TO.C,R90*%
X77370000Y-75423641D02*
X77370000Y-75116359D01*
X78130000Y-75423641D02*
X78130000Y-75116359D01*
%TO.C,R86*%
X71970000Y-75646359D02*
X71970000Y-75953641D01*
X72730000Y-75646359D02*
X72730000Y-75953641D01*
%TO.C,C21*%
X76385580Y-112040000D02*
X76104420Y-112040000D01*
X76385580Y-113060000D02*
X76104420Y-113060000D01*
%TO.C,FB2*%
X77960000Y-111637221D02*
X77960000Y-111962779D01*
X78980000Y-111637221D02*
X78980000Y-111962779D01*
%TO.C,C70*%
X87107836Y-78290000D02*
X86892164Y-78290000D01*
X87107836Y-79010000D02*
X86892164Y-79010000D01*
%TO.C,C38*%
X75390000Y-88357836D02*
X75390000Y-88142164D01*
X76110000Y-88357836D02*
X76110000Y-88142164D01*
%TO.C,FB1*%
X80940000Y-106737221D02*
X80940000Y-107062779D01*
X81960000Y-106737221D02*
X81960000Y-107062779D01*
%TO.C,R109*%
X89160000Y-107561141D02*
X89160000Y-107253859D01*
X89920000Y-107561141D02*
X89920000Y-107253859D01*
%TO.C,R92*%
X84796359Y-85170000D02*
X85103641Y-85170000D01*
X84796359Y-85930000D02*
X85103641Y-85930000D01*
%TO.C,C61*%
X76410580Y-113540000D02*
X76129420Y-113540000D01*
X76410580Y-114560000D02*
X76129420Y-114560000D01*
%TO.C,L2*%
X70489758Y-87040000D02*
X71310242Y-87040000D01*
X70489758Y-88160000D02*
X71310242Y-88160000D01*
%TO.C,R15*%
X75136359Y-91870000D02*
X75443641Y-91870000D01*
X75136359Y-92630000D02*
X75443641Y-92630000D01*
%TO.C,C35*%
X93540000Y-109122164D02*
X93540000Y-109337836D01*
X94260000Y-109122164D02*
X94260000Y-109337836D01*
%TO.C,R112*%
X80240000Y-112493641D02*
X80240000Y-112186359D01*
X81000000Y-112493641D02*
X81000000Y-112186359D01*
%TO.C,R72*%
X84796359Y-86120000D02*
X85103641Y-86120000D01*
X84796359Y-86880000D02*
X85103641Y-86880000D01*
%TO.C,R94*%
X84796359Y-81370000D02*
X85103641Y-81370000D01*
X84796359Y-82130000D02*
X85103641Y-82130000D01*
%TO.C,U11*%
X73340000Y-77227500D02*
X73340000Y-77702500D01*
X73340000Y-85972500D02*
X73340000Y-86447500D01*
X73340000Y-86447500D02*
X73815000Y-86447500D01*
X73815000Y-77227500D02*
X73340000Y-77227500D01*
X82085000Y-86447500D02*
X82560000Y-86447500D01*
X82560000Y-77227500D02*
X82085000Y-77227500D01*
X82560000Y-77702500D02*
X82560000Y-77227500D01*
X82560000Y-86447500D02*
X82560000Y-85972500D01*
X72840000Y-85587500D02*
X72510000Y-85827500D01*
X72510000Y-85347500D01*
X72840000Y-85587500D01*
G36*
X72840000Y-85587500D02*
G01*
X72510000Y-85827500D01*
X72510000Y-85347500D01*
X72840000Y-85587500D01*
G37*
%TO.C,L1*%
X81410242Y-89040000D02*
X80589758Y-89040000D01*
X81410242Y-90160000D02*
X80589758Y-90160000D01*
%TO.C,C54*%
X72772164Y-93190000D02*
X72987836Y-93190000D01*
X72772164Y-93910000D02*
X72987836Y-93910000D01*
%TO.C,R101*%
X76096359Y-89270000D02*
X76403641Y-89270000D01*
X76096359Y-90030000D02*
X76403641Y-90030000D01*
%TO.C,J11*%
D12*
X91279800Y-75698799D02*
X94480200Y-75698799D01*
X91279800Y-76890661D02*
X91279800Y-75698799D01*
X91279800Y-88551199D02*
X91279800Y-87359340D01*
X94480200Y-75698799D02*
X94480200Y-76890661D01*
X94480200Y-87359340D02*
X94480200Y-88551199D01*
X94480200Y-88551199D02*
X91279800Y-88551199D01*
D13*
X96461000Y-86874999D02*
G75*
G02*
X95699000Y-86874999I-381000J0D01*
G01*
X95699000Y-86874999D02*
G75*
G02*
X96461000Y-86874999I381000J0D01*
G01*
%TO.C,J8*%
D14*
X79300000Y-71975000D02*
X79930000Y-71975000D01*
X81900000Y-69375000D02*
X79300000Y-69375000D01*
X81900000Y-71975000D02*
X81270000Y-71975000D01*
%TO.C,C74*%
D11*
X91927836Y-117090000D02*
X91712164Y-117090000D01*
X91927836Y-117810000D02*
X91712164Y-117810000D01*
%TO.C,X4*%
X104270000Y-83155000D02*
X107030000Y-83155000D01*
X104270000Y-85805000D02*
X104270000Y-83155000D01*
X104270000Y-85805000D02*
X107030000Y-85805000D01*
X104270000Y-87075000D02*
X104270000Y-88455000D01*
X104270000Y-88455000D02*
X105650000Y-88455000D01*
X107030000Y-85805000D02*
X107030000Y-83155000D01*
%TO.C,R103*%
X71970000Y-78456359D02*
X71970000Y-78763641D01*
X72730000Y-78456359D02*
X72730000Y-78763641D01*
%TO.C,R33*%
X80946359Y-73070000D02*
X81253641Y-73070000D01*
X80946359Y-73830000D02*
X81253641Y-73830000D01*
%TO.C,R76*%
X82120000Y-75116359D02*
X82120000Y-75423641D01*
X82880000Y-75116359D02*
X82880000Y-75423641D01*
%TO.C,R47*%
X86320000Y-72153641D02*
X86320000Y-71846359D01*
X87080000Y-72153641D02*
X87080000Y-71846359D01*
%TO.C,R46*%
X88945000Y-83078641D02*
X88945000Y-82771359D01*
X89705000Y-83078641D02*
X89705000Y-82771359D01*
%TO.C,R34*%
X76446359Y-73070000D02*
X76753641Y-73070000D01*
X76446359Y-73830000D02*
X76753641Y-73830000D01*
%TO.C,C46*%
X72940000Y-87392164D02*
X72940000Y-87607836D01*
X73660000Y-87392164D02*
X73660000Y-87607836D01*
%TO.C,R102*%
X76096359Y-90220000D02*
X76403641Y-90220000D01*
X76096359Y-90980000D02*
X76403641Y-90980000D01*
%TO.C,C45*%
X83107836Y-86690000D02*
X82892164Y-86690000D01*
X83107836Y-87410000D02*
X82892164Y-87410000D01*
%TO.C,C51*%
X91927836Y-118040000D02*
X91712164Y-118040000D01*
X91927836Y-118760000D02*
X91712164Y-118760000D01*
%TO.C,R18*%
X77890000Y-107513641D02*
X77890000Y-107206359D01*
X78650000Y-107513641D02*
X78650000Y-107206359D01*
D15*
%TO.C,ART1*%
G36*
X87737595Y-89888308D02*
G01*
X87745454Y-89926820D01*
X87756299Y-89988498D01*
X87760554Y-90026121D01*
X87755208Y-90040388D01*
X87723411Y-90053106D01*
X87656812Y-90056881D01*
X87608811Y-90055856D01*
X87567181Y-90046989D01*
X87542422Y-90021692D01*
X87527346Y-89971394D01*
X87514764Y-89887523D01*
X87500667Y-89781255D01*
X87607652Y-89781255D01*
X87714636Y-89781255D01*
X87737595Y-89888308D01*
G37*
G36*
X85256961Y-89888308D02*
G01*
X85264820Y-89926820D01*
X85275665Y-89988498D01*
X85279920Y-90026121D01*
X85274049Y-90040895D01*
X85241563Y-90053230D01*
X85174314Y-90056881D01*
X85141282Y-90057107D01*
X85102171Y-90055129D01*
X85077471Y-90043411D01*
X85060989Y-90014108D01*
X85046536Y-89959373D01*
X85027921Y-89871363D01*
X85008801Y-89781255D01*
X85121401Y-89781255D01*
X85234002Y-89781255D01*
X85256961Y-89888308D01*
G37*
G36*
X87206375Y-89901402D02*
G01*
X87216491Y-89953512D01*
X87226593Y-90010633D01*
X87230504Y-90040323D01*
X87221951Y-90047051D01*
X87181866Y-90053038D01*
X87120049Y-90052688D01*
X87009595Y-90046280D01*
X86992928Y-89961472D01*
X86990433Y-89948866D01*
X86976577Y-89881275D01*
X86965166Y-89828959D01*
X86961542Y-89805995D01*
X86970314Y-89789356D01*
X87002729Y-89782557D01*
X87068158Y-89781255D01*
X87182246Y-89781255D01*
X87206375Y-89901402D01*
G37*
G36*
X85296285Y-90417835D02*
G01*
X85345572Y-90420123D01*
X85364728Y-90423616D01*
X85365521Y-90428539D01*
X85372815Y-90466915D01*
X85386744Y-90538103D01*
X85406090Y-90636023D01*
X85429638Y-90754593D01*
X85456170Y-90887734D01*
X85484468Y-91029366D01*
X85513315Y-91173406D01*
X85541495Y-91313776D01*
X85567790Y-91444394D01*
X85590983Y-91559180D01*
X85609857Y-91652054D01*
X85623195Y-91716934D01*
X85629779Y-91747741D01*
X85633554Y-91770705D01*
X85624925Y-91787351D01*
X85592614Y-91794147D01*
X85527268Y-91795445D01*
X85413374Y-91795445D01*
X85275598Y-91106380D01*
X85137823Y-90417315D01*
X85251275Y-90417315D01*
X85296285Y-90417835D01*
G37*
G36*
X86053129Y-90404506D02*
G01*
X86182712Y-90449029D01*
X86225724Y-90470623D01*
X86272144Y-90493229D01*
X86292315Y-90502034D01*
X86295385Y-90494195D01*
X86297616Y-90459719D01*
X86298069Y-90449911D01*
X86308328Y-90429024D01*
X86340041Y-90419547D01*
X86403626Y-90417315D01*
X86441759Y-90417739D01*
X86490551Y-90420020D01*
X86509636Y-90423616D01*
X86510429Y-90428539D01*
X86517723Y-90466915D01*
X86531652Y-90538103D01*
X86550999Y-90636023D01*
X86574546Y-90754593D01*
X86601078Y-90887734D01*
X86629376Y-91029366D01*
X86658223Y-91173406D01*
X86686403Y-91313776D01*
X86712698Y-91444394D01*
X86735891Y-91559180D01*
X86754765Y-91652054D01*
X86768103Y-91716934D01*
X86774687Y-91747741D01*
X86778462Y-91770721D01*
X86769821Y-91787357D01*
X86737496Y-91794148D01*
X86672134Y-91795445D01*
X86558198Y-91795445D01*
X86468252Y-91345321D01*
X86454813Y-91278632D01*
X86421121Y-91118845D01*
X86391484Y-90993389D01*
X86363941Y-90896712D01*
X86336531Y-90823268D01*
X86307291Y-90767505D01*
X86274261Y-90723875D01*
X86235478Y-90686829D01*
X86231713Y-90683691D01*
X86131891Y-90621164D01*
X86032175Y-90595394D01*
X85938639Y-90606876D01*
X85857357Y-90656102D01*
X85809336Y-90700928D01*
X85724594Y-90618180D01*
X85690463Y-90582387D01*
X85656984Y-90539579D01*
X85646857Y-90514418D01*
X85654324Y-90504766D01*
X85690839Y-90477125D01*
X85745851Y-90444758D01*
X85790509Y-90424528D01*
X85918711Y-90396303D01*
X86053129Y-90404506D01*
G37*
G36*
X84321055Y-90402564D02*
G01*
X84448289Y-90428223D01*
X84557597Y-90471575D01*
X84608051Y-90502289D01*
X84729833Y-90609256D01*
X84828008Y-90747591D01*
X84900645Y-90913282D01*
X84945812Y-91102315D01*
X84961576Y-91310678D01*
X84960682Y-91374201D01*
X84953341Y-91451310D01*
X84935352Y-91515745D01*
X84902856Y-91585576D01*
X84859585Y-91657227D01*
X84806933Y-91710974D01*
X84730819Y-91757613D01*
X84704000Y-91770469D01*
X84571663Y-91809038D01*
X84426197Y-91817838D01*
X84282694Y-91795592D01*
X84268166Y-91791131D01*
X84202725Y-91763788D01*
X84133372Y-91726298D01*
X84070790Y-91685466D01*
X84025659Y-91648096D01*
X84008661Y-91620996D01*
X84011072Y-91611336D01*
X84033334Y-91571621D01*
X84071158Y-91521949D01*
X84132792Y-91449872D01*
X84206290Y-91514404D01*
X84229301Y-91533484D01*
X84335563Y-91595466D01*
X84443457Y-91619199D01*
X84547402Y-91604224D01*
X84641820Y-91550085D01*
X84694093Y-91492225D01*
X84733295Y-91402218D01*
X84744674Y-91288845D01*
X84728460Y-91149032D01*
X84684887Y-90979703D01*
X84682794Y-90973037D01*
X84625953Y-90842503D01*
X84549701Y-90736822D01*
X84459341Y-90658611D01*
X84360174Y-90610486D01*
X84257502Y-90595062D01*
X84156628Y-90614957D01*
X84062853Y-90672785D01*
X84042554Y-90690019D01*
X83999471Y-90722469D01*
X83974358Y-90735345D01*
X83964588Y-90732547D01*
X83929126Y-90707413D01*
X83887420Y-90667198D01*
X83852697Y-90625462D01*
X83838183Y-90595762D01*
X83845918Y-90574753D01*
X83881929Y-90532847D01*
X83937344Y-90486651D01*
X84001039Y-90445057D01*
X84061888Y-90416957D01*
X84079636Y-90411686D01*
X84192602Y-90396439D01*
X84321055Y-90402564D01*
G37*
G36*
X88798241Y-90417316D02*
G01*
X88943938Y-90417468D01*
X89053626Y-90418246D01*
X89132607Y-90420167D01*
X89186186Y-90423749D01*
X89219664Y-90429507D01*
X89238346Y-90437961D01*
X89247534Y-90449626D01*
X89252533Y-90465019D01*
X89259588Y-90499026D01*
X89265607Y-90560428D01*
X89265314Y-90573172D01*
X89260530Y-90587805D01*
X89244915Y-90597651D01*
X89212157Y-90603659D01*
X89155939Y-90606777D01*
X89069947Y-90607952D01*
X88947866Y-90608133D01*
X88890883Y-90608329D01*
X88787668Y-90609793D01*
X88704870Y-90612454D01*
X88649816Y-90616032D01*
X88629836Y-90620248D01*
X88630255Y-90621276D01*
X88648304Y-90644689D01*
X88690425Y-90694902D01*
X88753059Y-90767795D01*
X88832646Y-90859253D01*
X88925628Y-90965157D01*
X89028446Y-91081391D01*
X89084185Y-91144216D01*
X89203471Y-91279133D01*
X89298499Y-91387758D01*
X89372172Y-91473835D01*
X89427390Y-91541110D01*
X89467054Y-91593328D01*
X89494066Y-91634235D01*
X89511327Y-91667576D01*
X89521738Y-91697095D01*
X89528200Y-91726539D01*
X89540462Y-91795445D01*
X89043149Y-91795445D01*
X88545836Y-91795445D01*
X88532860Y-91737140D01*
X88522119Y-91690750D01*
X88509990Y-91642249D01*
X88508769Y-91635879D01*
X88512542Y-91623989D01*
X88530136Y-91615395D01*
X88567268Y-91609390D01*
X88629654Y-91605268D01*
X88723010Y-91602322D01*
X88853053Y-91599845D01*
X89206011Y-91594026D01*
X88761264Y-91093391D01*
X88730541Y-91058785D01*
X88610093Y-90922444D01*
X88514626Y-90812814D01*
X88441201Y-90726129D01*
X88386873Y-90658621D01*
X88348700Y-90606525D01*
X88323742Y-90566073D01*
X88309055Y-90533498D01*
X88301697Y-90505035D01*
X88286877Y-90417315D01*
X88763313Y-90417315D01*
X88798241Y-90417316D01*
G37*
G36*
X87250686Y-90867439D02*
G01*
X87259057Y-90908828D01*
X87287913Y-91044648D01*
X87316269Y-91168613D01*
X87342296Y-91273267D01*
X87364165Y-91351155D01*
X87380048Y-91394822D01*
X87396043Y-91423189D01*
X87471015Y-91513226D01*
X87565206Y-91579253D01*
X87668620Y-91615603D01*
X87771259Y-91616607D01*
X87812230Y-91603446D01*
X87882090Y-91554092D01*
X87932192Y-91483821D01*
X87951372Y-91405702D01*
X87950767Y-91394858D01*
X87943724Y-91340447D01*
X87929774Y-91254350D01*
X87910164Y-91143700D01*
X87886141Y-91015631D01*
X87858953Y-90877278D01*
X87766534Y-90417315D01*
X87878398Y-90417315D01*
X87990262Y-90417315D01*
X88011581Y-90518024D01*
X88022402Y-90570548D01*
X88039706Y-90656194D01*
X88061770Y-90766372D01*
X88086884Y-90892539D01*
X88113337Y-91026150D01*
X88137014Y-91147320D01*
X88158121Y-91260795D01*
X88171839Y-91345342D01*
X88178906Y-91407828D01*
X88180059Y-91455117D01*
X88176033Y-91494073D01*
X88167565Y-91531563D01*
X88164182Y-91543851D01*
X88124431Y-91645454D01*
X88067110Y-91718480D01*
X87983175Y-91774863D01*
X87956522Y-91786748D01*
X87853158Y-91810607D01*
X87734034Y-91813475D01*
X87614881Y-91795898D01*
X87511431Y-91758426D01*
X87469367Y-91736821D01*
X87436118Y-91723517D01*
X87423382Y-91729221D01*
X87421322Y-91753381D01*
X87420917Y-91762558D01*
X87410793Y-91783592D01*
X87379194Y-91793173D01*
X87315716Y-91795445D01*
X87292156Y-91795265D01*
X87238296Y-91790770D01*
X87211132Y-91776551D01*
X87198728Y-91747741D01*
X87196742Y-91738782D01*
X87187039Y-91692244D01*
X87171117Y-91614307D01*
X87150194Y-91511050D01*
X87125487Y-91388553D01*
X87098213Y-91252899D01*
X87069590Y-91110166D01*
X87040834Y-90966435D01*
X87013163Y-90827788D01*
X86987793Y-90700305D01*
X86965943Y-90590065D01*
X86948828Y-90503150D01*
X86937667Y-90445640D01*
X86933676Y-90423616D01*
X86943066Y-90421114D01*
X86984293Y-90418378D01*
X87047208Y-90417315D01*
X87160739Y-90417315D01*
X87250686Y-90867439D01*
G37*
G36*
X83248516Y-89785447D02*
G01*
X83358514Y-89791856D01*
X83555329Y-90767148D01*
X83592680Y-90952681D01*
X83630062Y-91139322D01*
X83663989Y-91309698D01*
X83693631Y-91459592D01*
X83718159Y-91584789D01*
X83736743Y-91681075D01*
X83748553Y-91744234D01*
X83752760Y-91770051D01*
X83746736Y-91782712D01*
X83712511Y-91791902D01*
X83642756Y-91791253D01*
X83532138Y-91784844D01*
X83444764Y-91339602D01*
X83416647Y-91201983D01*
X83385435Y-91061982D01*
X83356392Y-90944806D01*
X83331100Y-90856791D01*
X83311141Y-90804275D01*
X83291142Y-90769898D01*
X83221884Y-90690641D01*
X83137860Y-90634781D01*
X83046704Y-90603235D01*
X82956049Y-90596920D01*
X82873529Y-90616752D01*
X82806776Y-90663647D01*
X82763425Y-90738522D01*
X82762470Y-90741507D01*
X82755463Y-90771460D01*
X82752898Y-90807786D01*
X82755504Y-90856335D01*
X82764013Y-90922958D01*
X82779155Y-91013505D01*
X82801661Y-91133827D01*
X82832262Y-91289774D01*
X82846766Y-91363005D01*
X82872303Y-91492911D01*
X82894210Y-91605611D01*
X82911314Y-91695013D01*
X82922444Y-91755021D01*
X82926428Y-91779544D01*
X82917552Y-91785742D01*
X82876953Y-91792727D01*
X82814575Y-91795445D01*
X82702653Y-91795445D01*
X82612311Y-91334302D01*
X82603092Y-91286662D01*
X82577311Y-91146796D01*
X82555195Y-91017065D01*
X82537975Y-90905315D01*
X82526887Y-90819393D01*
X82523163Y-90767148D01*
X82524120Y-90743250D01*
X82551492Y-90622579D01*
X82613061Y-90519877D01*
X82704308Y-90443228D01*
X82749404Y-90419811D01*
X82799044Y-90404734D01*
X82861071Y-90399637D01*
X82950346Y-90402033D01*
X83028857Y-90408186D01*
X83119747Y-90425644D01*
X83188869Y-90455344D01*
X83214989Y-90469962D01*
X83253709Y-90484452D01*
X83265729Y-90472913D01*
X83264792Y-90463532D01*
X83257205Y-90416974D01*
X83243237Y-90340704D01*
X83224379Y-90242736D01*
X83202123Y-90131088D01*
X83190973Y-90075742D01*
X83170241Y-89971096D01*
X83153602Y-89884771D01*
X83142535Y-89824507D01*
X83138517Y-89798041D01*
X83146933Y-89791261D01*
X83186847Y-89785144D01*
X83248516Y-89785447D01*
G37*
G36*
X94577005Y-89828959D02*
G01*
X94579190Y-89838975D01*
X94589059Y-89886708D01*
X94605512Y-89967571D01*
X94627553Y-90076584D01*
X94654186Y-90208768D01*
X94684413Y-90359142D01*
X94717239Y-90522725D01*
X94751668Y-90694538D01*
X94786702Y-90869601D01*
X94821347Y-91042934D01*
X94854604Y-91209556D01*
X94885479Y-91364487D01*
X94912974Y-91502747D01*
X94936094Y-91619356D01*
X94953841Y-91709335D01*
X94965221Y-91767701D01*
X94969235Y-91789477D01*
X94969232Y-91789495D01*
X94948288Y-91790856D01*
X94889704Y-91792107D01*
X94798184Y-91793212D01*
X94678430Y-91794134D01*
X94535145Y-91794838D01*
X94373031Y-91795287D01*
X94196791Y-91795445D01*
X94055793Y-91795396D01*
X93880253Y-91795056D01*
X93740280Y-91794222D01*
X93631793Y-91792701D01*
X93550716Y-91790301D01*
X93492968Y-91786828D01*
X93454473Y-91782089D01*
X93431151Y-91775890D01*
X93418924Y-91768039D01*
X93413713Y-91758342D01*
X93411508Y-91749848D01*
X93400710Y-91701408D01*
X93385517Y-91627708D01*
X93368484Y-91541021D01*
X93362683Y-91511050D01*
X93345986Y-91427377D01*
X93331992Y-91360836D01*
X93323255Y-91323701D01*
X93321996Y-91317858D01*
X93324673Y-91307004D01*
X93339144Y-91298991D01*
X93370508Y-91293392D01*
X93423869Y-91289779D01*
X93504327Y-91287727D01*
X93616985Y-91286808D01*
X93766944Y-91286597D01*
X94221267Y-91286597D01*
X94196869Y-91164686D01*
X94172471Y-91042774D01*
X93718374Y-91032173D01*
X93264277Y-91021572D01*
X93218750Y-90793650D01*
X93173224Y-90565729D01*
X93628256Y-90565729D01*
X93713308Y-90565625D01*
X93845876Y-90564732D01*
X93943134Y-90562670D01*
X94009736Y-90559135D01*
X94050333Y-90553820D01*
X94069578Y-90546423D01*
X94072124Y-90536637D01*
X94068426Y-90524620D01*
X94057428Y-90474701D01*
X94046246Y-90409425D01*
X94031532Y-90311305D01*
X93326731Y-90311305D01*
X92621929Y-90311305D01*
X92767285Y-91036724D01*
X92796181Y-91181264D01*
X92827803Y-91340268D01*
X92855808Y-91481979D01*
X92879246Y-91601543D01*
X92897165Y-91694104D01*
X92908613Y-91754806D01*
X92912641Y-91778794D01*
X92906626Y-91781987D01*
X92866722Y-91787315D01*
X92795608Y-91791583D01*
X92700547Y-91794417D01*
X92588801Y-91795445D01*
X92264962Y-91795445D01*
X92117566Y-91053375D01*
X91970170Y-90311305D01*
X91720537Y-90311305D01*
X91624495Y-90311787D01*
X91544682Y-90313122D01*
X91490728Y-90315105D01*
X91470905Y-90317529D01*
X91474898Y-90339485D01*
X91486102Y-90397165D01*
X91503348Y-90484722D01*
X91525465Y-90596310D01*
X91551284Y-90726083D01*
X91579634Y-90868195D01*
X91609345Y-91016799D01*
X91639247Y-91166049D01*
X91668170Y-91310100D01*
X91694945Y-91443105D01*
X91718400Y-91559217D01*
X91737366Y-91652592D01*
X91750673Y-91717381D01*
X91757150Y-91747741D01*
X91768541Y-91795445D01*
X91442550Y-91795445D01*
X91116559Y-91795445D01*
X91048682Y-91450913D01*
X91032802Y-91370784D01*
X91010622Y-91260504D01*
X90991681Y-91168249D01*
X90977600Y-91101884D01*
X90970002Y-91069277D01*
X90964547Y-91057368D01*
X90946481Y-91044359D01*
X90909736Y-91036706D01*
X90846412Y-91033086D01*
X90748608Y-91032173D01*
X90688301Y-91032468D01*
X90610814Y-91033893D01*
X90557717Y-91036232D01*
X90538016Y-91039184D01*
X90541103Y-91056473D01*
X90551372Y-91109347D01*
X90567544Y-91191050D01*
X90588276Y-91294799D01*
X90612223Y-91413809D01*
X90633365Y-91518831D01*
X90654565Y-91624828D01*
X90671372Y-91709617D01*
X90682442Y-91766413D01*
X90686431Y-91788434D01*
X90680496Y-91789770D01*
X90640722Y-91792016D01*
X90569719Y-91793815D01*
X90474755Y-91795009D01*
X90363100Y-91795441D01*
X90039769Y-91795436D01*
X89843370Y-90825449D01*
X89807122Y-90645766D01*
X89769658Y-90458568D01*
X89735680Y-90287235D01*
X89706021Y-90136048D01*
X89681516Y-90009287D01*
X89662996Y-89911231D01*
X89651297Y-89846162D01*
X89647251Y-89818358D01*
X89647266Y-89817421D01*
X89651269Y-89803352D01*
X89666606Y-89793466D01*
X89699491Y-89787037D01*
X89756136Y-89783342D01*
X89842756Y-89781656D01*
X89965562Y-89781255D01*
X90022440Y-89781340D01*
X90125783Y-89781981D01*
X90208775Y-89783145D01*
X90264064Y-89784710D01*
X90284301Y-89786555D01*
X90288408Y-89806948D01*
X90299810Y-89862459D01*
X90317139Y-89946456D01*
X90339035Y-90052334D01*
X90364135Y-90173492D01*
X90443260Y-90555128D01*
X90658071Y-90561146D01*
X90872882Y-90567164D01*
X90800981Y-90221914D01*
X90784287Y-90141906D01*
X90760794Y-90029839D01*
X90740762Y-89934907D01*
X90725909Y-89865238D01*
X90717953Y-89828959D01*
X90706825Y-89781255D01*
X92636207Y-89781255D01*
X94565589Y-89781255D01*
X94577005Y-89828959D01*
G37*
%TO.C,C53*%
D11*
X69942164Y-82940000D02*
X70157836Y-82940000D01*
X69942164Y-83660000D02*
X70157836Y-83660000D01*
%TO.C,R114*%
X79066359Y-113370000D02*
X79373641Y-113370000D01*
X79066359Y-114130000D02*
X79373641Y-114130000D01*
%TO.C,R29*%
X73920000Y-115996359D02*
X73920000Y-116303641D01*
X74680000Y-115996359D02*
X74680000Y-116303641D01*
%TO.C,R100*%
X76370000Y-88096359D02*
X76370000Y-88403641D01*
X77130000Y-88096359D02*
X77130000Y-88403641D01*
%TO.C,TP9*%
X93800000Y-105250000D02*
G75*
G02*
X92400000Y-105250000I-700000J0D01*
G01*
X92400000Y-105250000D02*
G75*
G02*
X93800000Y-105250000I700000J0D01*
G01*
%TO.C,R70*%
X84796359Y-84220000D02*
X85103641Y-84220000D01*
X84796359Y-84980000D02*
X85103641Y-84980000D01*
%TO.C,C57*%
X82440000Y-107040580D02*
X82440000Y-106759420D01*
X83460000Y-107040580D02*
X83460000Y-106759420D01*
%TO.C,R27*%
X73940000Y-114403641D02*
X73940000Y-114096359D01*
X74700000Y-114403641D02*
X74700000Y-114096359D01*
%TO.C,R62*%
X88370000Y-85646359D02*
X88370000Y-85953641D01*
X89130000Y-85646359D02*
X89130000Y-85953641D01*
%TO.C,R25*%
X70490000Y-111053641D02*
X70490000Y-110746359D01*
X71250000Y-111053641D02*
X71250000Y-110746359D01*
%TO.C,X5*%
X108403333Y-83155000D02*
X111163333Y-83155000D01*
X108403333Y-85805000D02*
X108403333Y-83155000D01*
X108403333Y-85805000D02*
X111163333Y-85805000D01*
X108403333Y-87075000D02*
X108403333Y-88455000D01*
X108403333Y-88455000D02*
X109783333Y-88455000D01*
X111163333Y-85805000D02*
X111163333Y-83155000D01*
%TO.C,C56*%
X79480000Y-106759420D02*
X79480000Y-107040580D01*
X80500000Y-106759420D02*
X80500000Y-107040580D01*
%TO.C,C42*%
X80409420Y-87490000D02*
X80690580Y-87490000D01*
X80409420Y-88510000D02*
X80690580Y-88510000D01*
%TO.C,C20*%
X71460000Y-110792164D02*
X71460000Y-111007836D01*
X72180000Y-110792164D02*
X72180000Y-111007836D01*
%TO.C,R44*%
X84420000Y-72153641D02*
X84420000Y-71846359D01*
X85180000Y-72153641D02*
X85180000Y-71846359D01*
%TO.C,X6*%
X112536667Y-85795000D02*
X112536667Y-88445000D01*
X115296667Y-83145000D02*
X113916667Y-83145000D01*
X115296667Y-84525000D02*
X115296667Y-83145000D01*
X115296667Y-85795000D02*
X112536667Y-85795000D01*
X115296667Y-85795000D02*
X115296667Y-88445000D01*
X115296667Y-88445000D02*
X112536667Y-88445000D01*
%TO.C,C60*%
X79460000Y-110040580D02*
X79460000Y-109759420D01*
X80480000Y-110040580D02*
X80480000Y-109759420D01*
%TO.C,C25*%
X93142164Y-110340000D02*
X93357836Y-110340000D01*
X93142164Y-111060000D02*
X93357836Y-111060000D01*
%TO.C,R113*%
X80240000Y-114363641D02*
X80240000Y-114056359D01*
X81000000Y-114363641D02*
X81000000Y-114056359D01*
%TO.C,C43*%
X71792164Y-85890000D02*
X72007836Y-85890000D01*
X71792164Y-86610000D02*
X72007836Y-86610000D01*
%TO.C,R54*%
X70203641Y-85870000D02*
X69896359Y-85870000D01*
X70203641Y-86630000D02*
X69896359Y-86630000D01*
%TO.C,R14*%
X73482258Y-112027500D02*
X73007742Y-112027500D01*
X73482258Y-113072500D02*
X73007742Y-113072500D01*
%TO.C,U9*%
D16*
X92249998Y-109050160D02*
X92249998Y-109175158D01*
X92250001Y-109800159D02*
X92250001Y-110025159D01*
X92250001Y-110025159D02*
X92250001Y-110050161D01*
X92250001Y-110050161D02*
X92500000Y-110050161D01*
X92275000Y-109050160D02*
X92374999Y-109050160D01*
X93125001Y-109050157D02*
X93249999Y-109050157D01*
X93125001Y-110050158D02*
X93225000Y-110050158D01*
X93249999Y-109075159D02*
X93249999Y-109175158D01*
X93250002Y-109925160D02*
X93250002Y-110050158D01*
%TO.C,R110*%
D11*
X88220000Y-107246359D02*
X88220000Y-107553641D01*
X88980000Y-107246359D02*
X88980000Y-107553641D01*
%TO.C,C39*%
X80940580Y-90690000D02*
X80659420Y-90690000D01*
X80940580Y-91710000D02*
X80659420Y-91710000D01*
%TO.C,D2*%
X82865000Y-69952500D02*
X84335000Y-69952500D01*
X82865000Y-72237500D02*
X82865000Y-69952500D01*
X84335000Y-69952500D02*
X84335000Y-72237500D01*
%TO.C,R21*%
X80096359Y-92070000D02*
X80403641Y-92070000D01*
X80096359Y-92830000D02*
X80403641Y-92830000D01*
%TO.C,R17*%
X78220000Y-91856359D02*
X78220000Y-92163641D01*
X78980000Y-91856359D02*
X78980000Y-92163641D01*
%TO.C,R26*%
X79066359Y-114320000D02*
X79373641Y-114320000D01*
X79066359Y-115080000D02*
X79373641Y-115080000D01*
%TO.C,C47*%
X74827836Y-75890000D02*
X74612164Y-75890000D01*
X74827836Y-76610000D02*
X74612164Y-76610000D01*
%TO.C,R66*%
X87420000Y-85646359D02*
X87420000Y-85953641D01*
X88180000Y-85646359D02*
X88180000Y-85953641D01*
%TO.C,C33*%
X85390000Y-106759420D02*
X85390000Y-107040580D01*
X86410000Y-106759420D02*
X86410000Y-107040580D01*
%TO.C,X1*%
X104230000Y-77080000D02*
X104230000Y-74320000D01*
X117040000Y-74320000D02*
X104230000Y-74320000D01*
X117040000Y-77080000D02*
X104230000Y-77080000D01*
X117040000Y-77080000D02*
X117040000Y-74320000D01*
X118310000Y-77080000D02*
X119690000Y-77080000D01*
X119690000Y-77080000D02*
X119690000Y-75700000D01*
%TO.C,R98*%
X84846359Y-82320000D02*
X85153641Y-82320000D01*
X84846359Y-83080000D02*
X85153641Y-83080000D01*
%TO.C,C27*%
X93340000Y-113132836D02*
X93340000Y-112917164D01*
X94060000Y-113132836D02*
X94060000Y-112917164D01*
%TO.C,R78*%
X83070000Y-75116359D02*
X83070000Y-75423641D01*
X83830000Y-75116359D02*
X83830000Y-75423641D01*
%TO.C,R80*%
X84986667Y-75116359D02*
X84986667Y-75423641D01*
X85746667Y-75116359D02*
X85746667Y-75423641D01*
%TO.C,R52*%
X74420000Y-88403641D02*
X74420000Y-88096359D01*
X75180000Y-88403641D02*
X75180000Y-88096359D01*
%TO.C,R13*%
X78220000Y-89996359D02*
X78220000Y-90303641D01*
X78980000Y-89996359D02*
X78980000Y-90303641D01*
%TO.C,C71*%
X86557836Y-77340000D02*
X86342164Y-77340000D01*
X86557836Y-78060000D02*
X86342164Y-78060000D01*
%TO.C,R19*%
X77890000Y-109096359D02*
X77890000Y-109403641D01*
X78650000Y-109096359D02*
X78650000Y-109403641D01*
%TO.C,X3*%
X116670000Y-85795000D02*
X116670000Y-88445000D01*
X119430000Y-83145000D02*
X118050000Y-83145000D01*
X119430000Y-84525000D02*
X119430000Y-83145000D01*
X119430000Y-85795000D02*
X116670000Y-85795000D01*
X119430000Y-85795000D02*
X119430000Y-88445000D01*
X119430000Y-88445000D02*
X116670000Y-88445000D01*
%TO.C,U10*%
D12*
X68023600Y-113417300D02*
X69125360Y-113417300D01*
X68023600Y-116135100D02*
X68023600Y-113417300D01*
X68325760Y-116135100D02*
X68023600Y-116135100D01*
X69785760Y-116135100D02*
X69471241Y-116135100D01*
X71325760Y-116135100D02*
X71011240Y-116135100D01*
X71671640Y-113417300D02*
X72773400Y-113417300D01*
X72773400Y-113417300D02*
X72773400Y-116135100D01*
X72773400Y-116135100D02*
X72471240Y-116135100D01*
X74043400Y-116897100D02*
G75*
G02*
X73789400Y-116897100I-127000J0D01*
G01*
X73789400Y-116897100D02*
G75*
G02*
X74043400Y-116897100I127000J0D01*
G01*
%TO.C,R68*%
D11*
X81170000Y-75423641D02*
X81170000Y-75116359D01*
X81930000Y-75423641D02*
X81930000Y-75116359D01*
%TO.C,C40*%
X78042164Y-88390000D02*
X78257836Y-88390000D01*
X78042164Y-89110000D02*
X78257836Y-89110000D01*
%TO.C,R49*%
X85372978Y-72153641D02*
X85372978Y-71846359D01*
X86132978Y-72153641D02*
X86132978Y-71846359D01*
%TO.C,J9*%
D14*
X74800000Y-71975000D02*
X75430000Y-71975000D01*
X77400000Y-69375000D02*
X74800000Y-69375000D01*
X77400000Y-71975000D02*
X76770000Y-71975000D01*
%TO.C,C26*%
D11*
X93357836Y-111290000D02*
X93142164Y-111290000D01*
X93357836Y-112010000D02*
X93142164Y-112010000D01*
%TO.C,R22*%
X93546359Y-115595000D02*
X93853641Y-115595000D01*
X93546359Y-116355000D02*
X93853641Y-116355000D01*
%TO.C,R64*%
X86470000Y-85646359D02*
X86470000Y-85953641D01*
X87230000Y-85646359D02*
X87230000Y-85953641D01*
%TO.C,C69*%
X89842164Y-73090000D02*
X90057836Y-73090000D01*
X89842164Y-73810000D02*
X90057836Y-73810000D01*
%TO.C,C72*%
X69857836Y-74690004D02*
X69642164Y-74690004D01*
X69857836Y-75410004D02*
X69642164Y-75410004D01*
%TO.C,R37*%
X73096359Y-88570000D02*
X73403641Y-88570000D01*
X73096359Y-89330000D02*
X73403641Y-89330000D01*
%TO.C,C73*%
X69942164Y-81990000D02*
X70157836Y-81990000D01*
X69942164Y-82710000D02*
X70157836Y-82710000D01*
%TO.C,R58*%
X70193641Y-84920000D02*
X69886359Y-84920000D01*
X70193641Y-85680000D02*
X69886359Y-85680000D01*
%TO.C,R111*%
X79290000Y-112196359D02*
X79290000Y-112503641D01*
X80050000Y-112196359D02*
X80050000Y-112503641D01*
%TO.C,C34*%
X86850000Y-106759420D02*
X86850000Y-107040580D01*
X87870000Y-106759420D02*
X87870000Y-107040580D01*
%TO.C,R16*%
X77270000Y-91856359D02*
X77270000Y-92163641D01*
X78030000Y-91856359D02*
X78030000Y-92163641D01*
%TO.C,R82*%
X79270000Y-75423641D02*
X79270000Y-75116359D01*
X80030000Y-75423641D02*
X80030000Y-75116359D01*
%TO.C,C52*%
X71107836Y-93190000D02*
X70892164Y-93190000D01*
X71107836Y-93910000D02*
X70892164Y-93910000D01*
%TO.C,R36*%
X80220000Y-75423641D02*
X80220000Y-75116359D01*
X80980000Y-75423641D02*
X80980000Y-75116359D01*
%TO.C,C68*%
X88190000Y-73127836D02*
X88190000Y-72912164D01*
X88910000Y-73127836D02*
X88910000Y-72912164D01*
%TO.C,R84*%
X84796359Y-87070000D02*
X85103641Y-87070000D01*
X84796359Y-87830000D02*
X85103641Y-87830000D01*
%TO.C,R96*%
X84796359Y-83270000D02*
X85103641Y-83270000D01*
X84796359Y-84030000D02*
X85103641Y-84030000D01*
%TO.C,C36*%
X75840000Y-116257836D02*
X75840000Y-116042164D01*
X76560000Y-116257836D02*
X76560000Y-116042164D01*
%TO.C,XTAL2*%
D12*
X67846600Y-79667160D02*
X67846600Y-77732844D01*
X69481240Y-75994902D02*
X69818760Y-75994902D01*
X69818760Y-81405102D02*
X69481240Y-81405102D01*
X71453400Y-77732844D02*
X71453400Y-79667160D01*
X68577000Y-73698202D02*
G75*
G02*
X68323000Y-73698202I-127000J0D01*
G01*
X68323000Y-73698202D02*
G75*
G02*
X68577000Y-73698202I127000J0D01*
G01*
%TO.C,U6*%
X73374099Y-106106300D02*
X73534061Y-106106300D01*
X73374099Y-111364100D02*
X73374099Y-106106300D01*
X73534058Y-111364100D02*
X73374099Y-111364100D01*
X77455940Y-106106300D02*
X77615899Y-106106300D01*
X77615899Y-106106300D02*
X77615899Y-111364100D01*
X77615899Y-111364100D02*
X77455937Y-111364100D01*
X74146199Y-105351900D02*
G75*
G02*
X73993799Y-105351900I-76200J0D01*
G01*
X73993799Y-105351900D02*
G75*
G02*
X74146199Y-105351900I76200J0D01*
G01*
%TO.C,R12*%
D11*
X77270000Y-89996359D02*
X77270000Y-90303641D01*
X78030000Y-89996359D02*
X78030000Y-90303641D01*
%TO.C,R115*%
X92820000Y-117796359D02*
X92820000Y-118103641D01*
X93580000Y-117796359D02*
X93580000Y-118103641D01*
%TD*%
M02*
