%TF.GenerationSoftware,KiCad,Pcbnew,10.0.0*%
%TF.CreationDate,2026-04-16T18:07:22+02:00*%
%TF.ProjectId,wulpus_pro_acq_pcb,77756c70-7573-45f7-9072-6f5f6163715f,rev?*%
%TF.SameCoordinates,Original*%
%TF.FileFunction,Other,User*%
%FSLAX46Y46*%
G04 Gerber Fmt 4.6, Leading zero omitted, Abs format (unit mm)*
G04 Created by KiCad (PCBNEW 10.0.0) date 2026-04-16 18:07:22*
%MOMM*%
%LPD*%
G01*
G04 APERTURE LIST*
%ADD10C,0.150000*%
G04 APERTURE END LIST*
D10*
X68039160Y-126812368D02*
X68182017Y-126859987D01*
X68182017Y-126859987D02*
X68420112Y-126859987D01*
X68420112Y-126859987D02*
X68515350Y-126812368D01*
X68515350Y-126812368D02*
X68562969Y-126764748D01*
X68562969Y-126764748D02*
X68610588Y-126669510D01*
X68610588Y-126669510D02*
X68610588Y-126574272D01*
X68610588Y-126574272D02*
X68562969Y-126479034D01*
X68562969Y-126479034D02*
X68515350Y-126431415D01*
X68515350Y-126431415D02*
X68420112Y-126383796D01*
X68420112Y-126383796D02*
X68229636Y-126336177D01*
X68229636Y-126336177D02*
X68134398Y-126288558D01*
X68134398Y-126288558D02*
X68086779Y-126240939D01*
X68086779Y-126240939D02*
X68039160Y-126145701D01*
X68039160Y-126145701D02*
X68039160Y-126050463D01*
X68039160Y-126050463D02*
X68086779Y-125955225D01*
X68086779Y-125955225D02*
X68134398Y-125907606D01*
X68134398Y-125907606D02*
X68229636Y-125859987D01*
X68229636Y-125859987D02*
X68467731Y-125859987D01*
X68467731Y-125859987D02*
X68610588Y-125907606D01*
X68896303Y-126193320D02*
X69277255Y-126193320D01*
X69039160Y-125859987D02*
X69039160Y-126717129D01*
X69039160Y-126717129D02*
X69086779Y-126812368D01*
X69086779Y-126812368D02*
X69182017Y-126859987D01*
X69182017Y-126859987D02*
X69277255Y-126859987D01*
X69610589Y-126859987D02*
X69610589Y-126193320D01*
X69610589Y-125859987D02*
X69562970Y-125907606D01*
X69562970Y-125907606D02*
X69610589Y-125955225D01*
X69610589Y-125955225D02*
X69658208Y-125907606D01*
X69658208Y-125907606D02*
X69610589Y-125859987D01*
X69610589Y-125859987D02*
X69610589Y-125955225D01*
X69943922Y-126193320D02*
X70324874Y-126193320D01*
X70086779Y-126859987D02*
X70086779Y-126002844D01*
X70086779Y-126002844D02*
X70134398Y-125907606D01*
X70134398Y-125907606D02*
X70229636Y-125859987D01*
X70229636Y-125859987D02*
X70324874Y-125859987D01*
X70515351Y-126193320D02*
X70896303Y-126193320D01*
X70658208Y-126859987D02*
X70658208Y-126002844D01*
X70658208Y-126002844D02*
X70705827Y-125907606D01*
X70705827Y-125907606D02*
X70801065Y-125859987D01*
X70801065Y-125859987D02*
X70896303Y-125859987D01*
X71610589Y-126812368D02*
X71515351Y-126859987D01*
X71515351Y-126859987D02*
X71324875Y-126859987D01*
X71324875Y-126859987D02*
X71229637Y-126812368D01*
X71229637Y-126812368D02*
X71182018Y-126717129D01*
X71182018Y-126717129D02*
X71182018Y-126336177D01*
X71182018Y-126336177D02*
X71229637Y-126240939D01*
X71229637Y-126240939D02*
X71324875Y-126193320D01*
X71324875Y-126193320D02*
X71515351Y-126193320D01*
X71515351Y-126193320D02*
X71610589Y-126240939D01*
X71610589Y-126240939D02*
X71658208Y-126336177D01*
X71658208Y-126336177D02*
X71658208Y-126431415D01*
X71658208Y-126431415D02*
X71182018Y-126526653D01*
X72086780Y-126193320D02*
X72086780Y-126859987D01*
X72086780Y-126288558D02*
X72134399Y-126240939D01*
X72134399Y-126240939D02*
X72229637Y-126193320D01*
X72229637Y-126193320D02*
X72372494Y-126193320D01*
X72372494Y-126193320D02*
X72467732Y-126240939D01*
X72467732Y-126240939D02*
X72515351Y-126336177D01*
X72515351Y-126336177D02*
X72515351Y-126859987D01*
X73372494Y-126812368D02*
X73277256Y-126859987D01*
X73277256Y-126859987D02*
X73086780Y-126859987D01*
X73086780Y-126859987D02*
X72991542Y-126812368D01*
X72991542Y-126812368D02*
X72943923Y-126717129D01*
X72943923Y-126717129D02*
X72943923Y-126336177D01*
X72943923Y-126336177D02*
X72991542Y-126240939D01*
X72991542Y-126240939D02*
X73086780Y-126193320D01*
X73086780Y-126193320D02*
X73277256Y-126193320D01*
X73277256Y-126193320D02*
X73372494Y-126240939D01*
X73372494Y-126240939D02*
X73420113Y-126336177D01*
X73420113Y-126336177D02*
X73420113Y-126431415D01*
X73420113Y-126431415D02*
X72943923Y-126526653D01*
X73848685Y-126859987D02*
X73848685Y-126193320D01*
X73848685Y-126383796D02*
X73896304Y-126288558D01*
X73896304Y-126288558D02*
X73943923Y-126240939D01*
X73943923Y-126240939D02*
X74039161Y-126193320D01*
X74039161Y-126193320D02*
X74134399Y-126193320D01*
X75229638Y-126859987D02*
X75229638Y-125859987D01*
X75229638Y-125859987D02*
X75562971Y-126574272D01*
X75562971Y-126574272D02*
X75896304Y-125859987D01*
X75896304Y-125859987D02*
X75896304Y-126859987D01*
X76801066Y-126859987D02*
X76801066Y-126336177D01*
X76801066Y-126336177D02*
X76753447Y-126240939D01*
X76753447Y-126240939D02*
X76658209Y-126193320D01*
X76658209Y-126193320D02*
X76467733Y-126193320D01*
X76467733Y-126193320D02*
X76372495Y-126240939D01*
X76801066Y-126812368D02*
X76705828Y-126859987D01*
X76705828Y-126859987D02*
X76467733Y-126859987D01*
X76467733Y-126859987D02*
X76372495Y-126812368D01*
X76372495Y-126812368D02*
X76324876Y-126717129D01*
X76324876Y-126717129D02*
X76324876Y-126621891D01*
X76324876Y-126621891D02*
X76372495Y-126526653D01*
X76372495Y-126526653D02*
X76467733Y-126479034D01*
X76467733Y-126479034D02*
X76705828Y-126479034D01*
X76705828Y-126479034D02*
X76801066Y-126431415D01*
X77134400Y-126193320D02*
X77515352Y-126193320D01*
X77277257Y-125859987D02*
X77277257Y-126717129D01*
X77277257Y-126717129D02*
X77324876Y-126812368D01*
X77324876Y-126812368D02*
X77420114Y-126859987D01*
X77420114Y-126859987D02*
X77515352Y-126859987D01*
X78229638Y-126812368D02*
X78134400Y-126859987D01*
X78134400Y-126859987D02*
X77943924Y-126859987D01*
X77943924Y-126859987D02*
X77848686Y-126812368D01*
X77848686Y-126812368D02*
X77801067Y-126717129D01*
X77801067Y-126717129D02*
X77801067Y-126336177D01*
X77801067Y-126336177D02*
X77848686Y-126240939D01*
X77848686Y-126240939D02*
X77943924Y-126193320D01*
X77943924Y-126193320D02*
X78134400Y-126193320D01*
X78134400Y-126193320D02*
X78229638Y-126240939D01*
X78229638Y-126240939D02*
X78277257Y-126336177D01*
X78277257Y-126336177D02*
X78277257Y-126431415D01*
X78277257Y-126431415D02*
X77801067Y-126526653D01*
X78705829Y-126859987D02*
X78705829Y-126193320D01*
X78705829Y-126383796D02*
X78753448Y-126288558D01*
X78753448Y-126288558D02*
X78801067Y-126240939D01*
X78801067Y-126240939D02*
X78896305Y-126193320D01*
X78896305Y-126193320D02*
X78991543Y-126193320D01*
X79324877Y-126859987D02*
X79324877Y-126193320D01*
X79324877Y-125859987D02*
X79277258Y-125907606D01*
X79277258Y-125907606D02*
X79324877Y-125955225D01*
X79324877Y-125955225D02*
X79372496Y-125907606D01*
X79372496Y-125907606D02*
X79324877Y-125859987D01*
X79324877Y-125859987D02*
X79324877Y-125955225D01*
X80229638Y-126859987D02*
X80229638Y-126336177D01*
X80229638Y-126336177D02*
X80182019Y-126240939D01*
X80182019Y-126240939D02*
X80086781Y-126193320D01*
X80086781Y-126193320D02*
X79896305Y-126193320D01*
X79896305Y-126193320D02*
X79801067Y-126240939D01*
X80229638Y-126812368D02*
X80134400Y-126859987D01*
X80134400Y-126859987D02*
X79896305Y-126859987D01*
X79896305Y-126859987D02*
X79801067Y-126812368D01*
X79801067Y-126812368D02*
X79753448Y-126717129D01*
X79753448Y-126717129D02*
X79753448Y-126621891D01*
X79753448Y-126621891D02*
X79801067Y-126526653D01*
X79801067Y-126526653D02*
X79896305Y-126479034D01*
X79896305Y-126479034D02*
X80134400Y-126479034D01*
X80134400Y-126479034D02*
X80229638Y-126431415D01*
X80848686Y-126859987D02*
X80753448Y-126812368D01*
X80753448Y-126812368D02*
X80705829Y-126717129D01*
X80705829Y-126717129D02*
X80705829Y-125859987D01*
X81229639Y-126764748D02*
X81277258Y-126812368D01*
X81277258Y-126812368D02*
X81229639Y-126859987D01*
X81229639Y-126859987D02*
X81182020Y-126812368D01*
X81182020Y-126812368D02*
X81229639Y-126764748D01*
X81229639Y-126764748D02*
X81229639Y-126859987D01*
X81229639Y-126240939D02*
X81277258Y-126288558D01*
X81277258Y-126288558D02*
X81229639Y-126336177D01*
X81229639Y-126336177D02*
X81182020Y-126288558D01*
X81182020Y-126288558D02*
X81229639Y-126240939D01*
X81229639Y-126240939D02*
X81229639Y-126336177D01*
X82467734Y-126859987D02*
X82467734Y-125859987D01*
X82467734Y-125859987D02*
X82848686Y-125859987D01*
X82848686Y-125859987D02*
X82943924Y-125907606D01*
X82943924Y-125907606D02*
X82991543Y-125955225D01*
X82991543Y-125955225D02*
X83039162Y-126050463D01*
X83039162Y-126050463D02*
X83039162Y-126193320D01*
X83039162Y-126193320D02*
X82991543Y-126288558D01*
X82991543Y-126288558D02*
X82943924Y-126336177D01*
X82943924Y-126336177D02*
X82848686Y-126383796D01*
X82848686Y-126383796D02*
X82467734Y-126383796D01*
X83467734Y-126859987D02*
X83467734Y-125859987D01*
X68039160Y-128422312D02*
X68182017Y-128469931D01*
X68182017Y-128469931D02*
X68420112Y-128469931D01*
X68420112Y-128469931D02*
X68515350Y-128422312D01*
X68515350Y-128422312D02*
X68562969Y-128374692D01*
X68562969Y-128374692D02*
X68610588Y-128279454D01*
X68610588Y-128279454D02*
X68610588Y-128184216D01*
X68610588Y-128184216D02*
X68562969Y-128088978D01*
X68562969Y-128088978D02*
X68515350Y-128041359D01*
X68515350Y-128041359D02*
X68420112Y-127993740D01*
X68420112Y-127993740D02*
X68229636Y-127946121D01*
X68229636Y-127946121D02*
X68134398Y-127898502D01*
X68134398Y-127898502D02*
X68086779Y-127850883D01*
X68086779Y-127850883D02*
X68039160Y-127755645D01*
X68039160Y-127755645D02*
X68039160Y-127660407D01*
X68039160Y-127660407D02*
X68086779Y-127565169D01*
X68086779Y-127565169D02*
X68134398Y-127517550D01*
X68134398Y-127517550D02*
X68229636Y-127469931D01*
X68229636Y-127469931D02*
X68467731Y-127469931D01*
X68467731Y-127469931D02*
X68610588Y-127517550D01*
X68896303Y-127803264D02*
X69277255Y-127803264D01*
X69039160Y-127469931D02*
X69039160Y-128327073D01*
X69039160Y-128327073D02*
X69086779Y-128422312D01*
X69086779Y-128422312D02*
X69182017Y-128469931D01*
X69182017Y-128469931D02*
X69277255Y-128469931D01*
X69610589Y-128469931D02*
X69610589Y-127803264D01*
X69610589Y-127469931D02*
X69562970Y-127517550D01*
X69562970Y-127517550D02*
X69610589Y-127565169D01*
X69610589Y-127565169D02*
X69658208Y-127517550D01*
X69658208Y-127517550D02*
X69610589Y-127469931D01*
X69610589Y-127469931D02*
X69610589Y-127565169D01*
X69943922Y-127803264D02*
X70324874Y-127803264D01*
X70086779Y-128469931D02*
X70086779Y-127612788D01*
X70086779Y-127612788D02*
X70134398Y-127517550D01*
X70134398Y-127517550D02*
X70229636Y-127469931D01*
X70229636Y-127469931D02*
X70324874Y-127469931D01*
X70515351Y-127803264D02*
X70896303Y-127803264D01*
X70658208Y-128469931D02*
X70658208Y-127612788D01*
X70658208Y-127612788D02*
X70705827Y-127517550D01*
X70705827Y-127517550D02*
X70801065Y-127469931D01*
X70801065Y-127469931D02*
X70896303Y-127469931D01*
X71610589Y-128422312D02*
X71515351Y-128469931D01*
X71515351Y-128469931D02*
X71324875Y-128469931D01*
X71324875Y-128469931D02*
X71229637Y-128422312D01*
X71229637Y-128422312D02*
X71182018Y-128327073D01*
X71182018Y-128327073D02*
X71182018Y-127946121D01*
X71182018Y-127946121D02*
X71229637Y-127850883D01*
X71229637Y-127850883D02*
X71324875Y-127803264D01*
X71324875Y-127803264D02*
X71515351Y-127803264D01*
X71515351Y-127803264D02*
X71610589Y-127850883D01*
X71610589Y-127850883D02*
X71658208Y-127946121D01*
X71658208Y-127946121D02*
X71658208Y-128041359D01*
X71658208Y-128041359D02*
X71182018Y-128136597D01*
X72086780Y-127803264D02*
X72086780Y-128469931D01*
X72086780Y-127898502D02*
X72134399Y-127850883D01*
X72134399Y-127850883D02*
X72229637Y-127803264D01*
X72229637Y-127803264D02*
X72372494Y-127803264D01*
X72372494Y-127803264D02*
X72467732Y-127850883D01*
X72467732Y-127850883D02*
X72515351Y-127946121D01*
X72515351Y-127946121D02*
X72515351Y-128469931D01*
X73372494Y-128422312D02*
X73277256Y-128469931D01*
X73277256Y-128469931D02*
X73086780Y-128469931D01*
X73086780Y-128469931D02*
X72991542Y-128422312D01*
X72991542Y-128422312D02*
X72943923Y-128327073D01*
X72943923Y-128327073D02*
X72943923Y-127946121D01*
X72943923Y-127946121D02*
X72991542Y-127850883D01*
X72991542Y-127850883D02*
X73086780Y-127803264D01*
X73086780Y-127803264D02*
X73277256Y-127803264D01*
X73277256Y-127803264D02*
X73372494Y-127850883D01*
X73372494Y-127850883D02*
X73420113Y-127946121D01*
X73420113Y-127946121D02*
X73420113Y-128041359D01*
X73420113Y-128041359D02*
X72943923Y-128136597D01*
X73848685Y-128469931D02*
X73848685Y-127803264D01*
X73848685Y-127993740D02*
X73896304Y-127898502D01*
X73896304Y-127898502D02*
X73943923Y-127850883D01*
X73943923Y-127850883D02*
X74039161Y-127803264D01*
X74039161Y-127803264D02*
X74134399Y-127803264D01*
X75086781Y-127469931D02*
X75658209Y-127469931D01*
X75372495Y-128469931D02*
X75372495Y-127469931D01*
X75991543Y-128469931D02*
X75991543Y-127469931D01*
X76420114Y-128469931D02*
X76420114Y-127946121D01*
X76420114Y-127946121D02*
X76372495Y-127850883D01*
X76372495Y-127850883D02*
X76277257Y-127803264D01*
X76277257Y-127803264D02*
X76134400Y-127803264D01*
X76134400Y-127803264D02*
X76039162Y-127850883D01*
X76039162Y-127850883D02*
X75991543Y-127898502D01*
X76896305Y-128469931D02*
X76896305Y-127803264D01*
X76896305Y-127469931D02*
X76848686Y-127517550D01*
X76848686Y-127517550D02*
X76896305Y-127565169D01*
X76896305Y-127565169D02*
X76943924Y-127517550D01*
X76943924Y-127517550D02*
X76896305Y-127469931D01*
X76896305Y-127469931D02*
X76896305Y-127565169D01*
X77801066Y-128422312D02*
X77705828Y-128469931D01*
X77705828Y-128469931D02*
X77515352Y-128469931D01*
X77515352Y-128469931D02*
X77420114Y-128422312D01*
X77420114Y-128422312D02*
X77372495Y-128374692D01*
X77372495Y-128374692D02*
X77324876Y-128279454D01*
X77324876Y-128279454D02*
X77324876Y-127993740D01*
X77324876Y-127993740D02*
X77372495Y-127898502D01*
X77372495Y-127898502D02*
X77420114Y-127850883D01*
X77420114Y-127850883D02*
X77515352Y-127803264D01*
X77515352Y-127803264D02*
X77705828Y-127803264D01*
X77705828Y-127803264D02*
X77801066Y-127850883D01*
X78229638Y-128469931D02*
X78229638Y-127469931D01*
X78324876Y-128088978D02*
X78610590Y-128469931D01*
X78610590Y-127803264D02*
X78229638Y-128184216D01*
X79039162Y-127803264D02*
X79039162Y-128469931D01*
X79039162Y-127898502D02*
X79086781Y-127850883D01*
X79086781Y-127850883D02*
X79182019Y-127803264D01*
X79182019Y-127803264D02*
X79324876Y-127803264D01*
X79324876Y-127803264D02*
X79420114Y-127850883D01*
X79420114Y-127850883D02*
X79467733Y-127946121D01*
X79467733Y-127946121D02*
X79467733Y-128469931D01*
X80324876Y-128422312D02*
X80229638Y-128469931D01*
X80229638Y-128469931D02*
X80039162Y-128469931D01*
X80039162Y-128469931D02*
X79943924Y-128422312D01*
X79943924Y-128422312D02*
X79896305Y-128327073D01*
X79896305Y-128327073D02*
X79896305Y-127946121D01*
X79896305Y-127946121D02*
X79943924Y-127850883D01*
X79943924Y-127850883D02*
X80039162Y-127803264D01*
X80039162Y-127803264D02*
X80229638Y-127803264D01*
X80229638Y-127803264D02*
X80324876Y-127850883D01*
X80324876Y-127850883D02*
X80372495Y-127946121D01*
X80372495Y-127946121D02*
X80372495Y-128041359D01*
X80372495Y-128041359D02*
X79896305Y-128136597D01*
X80753448Y-128422312D02*
X80848686Y-128469931D01*
X80848686Y-128469931D02*
X81039162Y-128469931D01*
X81039162Y-128469931D02*
X81134400Y-128422312D01*
X81134400Y-128422312D02*
X81182019Y-128327073D01*
X81182019Y-128327073D02*
X81182019Y-128279454D01*
X81182019Y-128279454D02*
X81134400Y-128184216D01*
X81134400Y-128184216D02*
X81039162Y-128136597D01*
X81039162Y-128136597D02*
X80896305Y-128136597D01*
X80896305Y-128136597D02*
X80801067Y-128088978D01*
X80801067Y-128088978D02*
X80753448Y-127993740D01*
X80753448Y-127993740D02*
X80753448Y-127946121D01*
X80753448Y-127946121D02*
X80801067Y-127850883D01*
X80801067Y-127850883D02*
X80896305Y-127803264D01*
X80896305Y-127803264D02*
X81039162Y-127803264D01*
X81039162Y-127803264D02*
X81134400Y-127850883D01*
X81562972Y-128422312D02*
X81658210Y-128469931D01*
X81658210Y-128469931D02*
X81848686Y-128469931D01*
X81848686Y-128469931D02*
X81943924Y-128422312D01*
X81943924Y-128422312D02*
X81991543Y-128327073D01*
X81991543Y-128327073D02*
X81991543Y-128279454D01*
X81991543Y-128279454D02*
X81943924Y-128184216D01*
X81943924Y-128184216D02*
X81848686Y-128136597D01*
X81848686Y-128136597D02*
X81705829Y-128136597D01*
X81705829Y-128136597D02*
X81610591Y-128088978D01*
X81610591Y-128088978D02*
X81562972Y-127993740D01*
X81562972Y-127993740D02*
X81562972Y-127946121D01*
X81562972Y-127946121D02*
X81610591Y-127850883D01*
X81610591Y-127850883D02*
X81705829Y-127803264D01*
X81705829Y-127803264D02*
X81848686Y-127803264D01*
X81848686Y-127803264D02*
X81943924Y-127850883D01*
X82420115Y-128374692D02*
X82467734Y-128422312D01*
X82467734Y-128422312D02*
X82420115Y-128469931D01*
X82420115Y-128469931D02*
X82372496Y-128422312D01*
X82372496Y-128422312D02*
X82420115Y-128374692D01*
X82420115Y-128374692D02*
X82420115Y-128469931D01*
X82420115Y-127850883D02*
X82467734Y-127898502D01*
X82467734Y-127898502D02*
X82420115Y-127946121D01*
X82420115Y-127946121D02*
X82372496Y-127898502D01*
X82372496Y-127898502D02*
X82420115Y-127850883D01*
X82420115Y-127850883D02*
X82420115Y-127946121D01*
X83848686Y-127469931D02*
X83943924Y-127469931D01*
X83943924Y-127469931D02*
X84039162Y-127517550D01*
X84039162Y-127517550D02*
X84086781Y-127565169D01*
X84086781Y-127565169D02*
X84134400Y-127660407D01*
X84134400Y-127660407D02*
X84182019Y-127850883D01*
X84182019Y-127850883D02*
X84182019Y-128088978D01*
X84182019Y-128088978D02*
X84134400Y-128279454D01*
X84134400Y-128279454D02*
X84086781Y-128374692D01*
X84086781Y-128374692D02*
X84039162Y-128422312D01*
X84039162Y-128422312D02*
X83943924Y-128469931D01*
X83943924Y-128469931D02*
X83848686Y-128469931D01*
X83848686Y-128469931D02*
X83753448Y-128422312D01*
X83753448Y-128422312D02*
X83705829Y-128374692D01*
X83705829Y-128374692D02*
X83658210Y-128279454D01*
X83658210Y-128279454D02*
X83610591Y-128088978D01*
X83610591Y-128088978D02*
X83610591Y-127850883D01*
X83610591Y-127850883D02*
X83658210Y-127660407D01*
X83658210Y-127660407D02*
X83705829Y-127565169D01*
X83705829Y-127565169D02*
X83753448Y-127517550D01*
X83753448Y-127517550D02*
X83848686Y-127469931D01*
X84610591Y-128374692D02*
X84658210Y-128422312D01*
X84658210Y-128422312D02*
X84610591Y-128469931D01*
X84610591Y-128469931D02*
X84562972Y-128422312D01*
X84562972Y-128422312D02*
X84610591Y-128374692D01*
X84610591Y-128374692D02*
X84610591Y-128469931D01*
X85039162Y-127565169D02*
X85086781Y-127517550D01*
X85086781Y-127517550D02*
X85182019Y-127469931D01*
X85182019Y-127469931D02*
X85420114Y-127469931D01*
X85420114Y-127469931D02*
X85515352Y-127517550D01*
X85515352Y-127517550D02*
X85562971Y-127565169D01*
X85562971Y-127565169D02*
X85610590Y-127660407D01*
X85610590Y-127660407D02*
X85610590Y-127755645D01*
X85610590Y-127755645D02*
X85562971Y-127898502D01*
X85562971Y-127898502D02*
X84991543Y-128469931D01*
X84991543Y-128469931D02*
X85610590Y-128469931D01*
X86515352Y-127469931D02*
X86039162Y-127469931D01*
X86039162Y-127469931D02*
X85991543Y-127946121D01*
X85991543Y-127946121D02*
X86039162Y-127898502D01*
X86039162Y-127898502D02*
X86134400Y-127850883D01*
X86134400Y-127850883D02*
X86372495Y-127850883D01*
X86372495Y-127850883D02*
X86467733Y-127898502D01*
X86467733Y-127898502D02*
X86515352Y-127946121D01*
X86515352Y-127946121D02*
X86562971Y-128041359D01*
X86562971Y-128041359D02*
X86562971Y-128279454D01*
X86562971Y-128279454D02*
X86515352Y-128374692D01*
X86515352Y-128374692D02*
X86467733Y-128422312D01*
X86467733Y-128422312D02*
X86372495Y-128469931D01*
X86372495Y-128469931D02*
X86134400Y-128469931D01*
X86134400Y-128469931D02*
X86039162Y-128422312D01*
X86039162Y-128422312D02*
X85991543Y-128374692D01*
X86991543Y-128469931D02*
X86991543Y-127803264D01*
X86991543Y-127898502D02*
X87039162Y-127850883D01*
X87039162Y-127850883D02*
X87134400Y-127803264D01*
X87134400Y-127803264D02*
X87277257Y-127803264D01*
X87277257Y-127803264D02*
X87372495Y-127850883D01*
X87372495Y-127850883D02*
X87420114Y-127946121D01*
X87420114Y-127946121D02*
X87420114Y-128469931D01*
X87420114Y-127946121D02*
X87467733Y-127850883D01*
X87467733Y-127850883D02*
X87562971Y-127803264D01*
X87562971Y-127803264D02*
X87705828Y-127803264D01*
X87705828Y-127803264D02*
X87801067Y-127850883D01*
X87801067Y-127850883D02*
X87848686Y-127946121D01*
X87848686Y-127946121D02*
X87848686Y-128469931D01*
X88324876Y-128469931D02*
X88324876Y-127803264D01*
X88324876Y-127898502D02*
X88372495Y-127850883D01*
X88372495Y-127850883D02*
X88467733Y-127803264D01*
X88467733Y-127803264D02*
X88610590Y-127803264D01*
X88610590Y-127803264D02*
X88705828Y-127850883D01*
X88705828Y-127850883D02*
X88753447Y-127946121D01*
X88753447Y-127946121D02*
X88753447Y-128469931D01*
X88753447Y-127946121D02*
X88801066Y-127850883D01*
X88801066Y-127850883D02*
X88896304Y-127803264D01*
X88896304Y-127803264D02*
X89039161Y-127803264D01*
X89039161Y-127803264D02*
X89134400Y-127850883D01*
X89134400Y-127850883D02*
X89182019Y-127946121D01*
X89182019Y-127946121D02*
X89182019Y-128469931D01*
X68086779Y-130079875D02*
X68086779Y-129079875D01*
X68086779Y-129079875D02*
X68467731Y-129079875D01*
X68467731Y-129079875D02*
X68562969Y-129127494D01*
X68562969Y-129127494D02*
X68610588Y-129175113D01*
X68610588Y-129175113D02*
X68658207Y-129270351D01*
X68658207Y-129270351D02*
X68658207Y-129413208D01*
X68658207Y-129413208D02*
X68610588Y-129508446D01*
X68610588Y-129508446D02*
X68562969Y-129556065D01*
X68562969Y-129556065D02*
X68467731Y-129603684D01*
X68467731Y-129603684D02*
X68086779Y-129603684D01*
X69229636Y-130079875D02*
X69134398Y-130032256D01*
X69134398Y-130032256D02*
X69086779Y-129937017D01*
X69086779Y-129937017D02*
X69086779Y-129079875D01*
X70039160Y-130079875D02*
X70039160Y-129556065D01*
X70039160Y-129556065D02*
X69991541Y-129460827D01*
X69991541Y-129460827D02*
X69896303Y-129413208D01*
X69896303Y-129413208D02*
X69705827Y-129413208D01*
X69705827Y-129413208D02*
X69610589Y-129460827D01*
X70039160Y-130032256D02*
X69943922Y-130079875D01*
X69943922Y-130079875D02*
X69705827Y-130079875D01*
X69705827Y-130079875D02*
X69610589Y-130032256D01*
X69610589Y-130032256D02*
X69562970Y-129937017D01*
X69562970Y-129937017D02*
X69562970Y-129841779D01*
X69562970Y-129841779D02*
X69610589Y-129746541D01*
X69610589Y-129746541D02*
X69705827Y-129698922D01*
X69705827Y-129698922D02*
X69943922Y-129698922D01*
X69943922Y-129698922D02*
X70039160Y-129651303D01*
X70943922Y-130032256D02*
X70848684Y-130079875D01*
X70848684Y-130079875D02*
X70658208Y-130079875D01*
X70658208Y-130079875D02*
X70562970Y-130032256D01*
X70562970Y-130032256D02*
X70515351Y-129984636D01*
X70515351Y-129984636D02*
X70467732Y-129889398D01*
X70467732Y-129889398D02*
X70467732Y-129603684D01*
X70467732Y-129603684D02*
X70515351Y-129508446D01*
X70515351Y-129508446D02*
X70562970Y-129460827D01*
X70562970Y-129460827D02*
X70658208Y-129413208D01*
X70658208Y-129413208D02*
X70848684Y-129413208D01*
X70848684Y-129413208D02*
X70943922Y-129460827D01*
X71753446Y-130032256D02*
X71658208Y-130079875D01*
X71658208Y-130079875D02*
X71467732Y-130079875D01*
X71467732Y-130079875D02*
X71372494Y-130032256D01*
X71372494Y-130032256D02*
X71324875Y-129937017D01*
X71324875Y-129937017D02*
X71324875Y-129556065D01*
X71324875Y-129556065D02*
X71372494Y-129460827D01*
X71372494Y-129460827D02*
X71467732Y-129413208D01*
X71467732Y-129413208D02*
X71658208Y-129413208D01*
X71658208Y-129413208D02*
X71753446Y-129460827D01*
X71753446Y-129460827D02*
X71801065Y-129556065D01*
X71801065Y-129556065D02*
X71801065Y-129651303D01*
X71801065Y-129651303D02*
X71324875Y-129746541D01*
X72229637Y-130079875D02*
X72229637Y-129413208D01*
X72229637Y-129508446D02*
X72277256Y-129460827D01*
X72277256Y-129460827D02*
X72372494Y-129413208D01*
X72372494Y-129413208D02*
X72515351Y-129413208D01*
X72515351Y-129413208D02*
X72610589Y-129460827D01*
X72610589Y-129460827D02*
X72658208Y-129556065D01*
X72658208Y-129556065D02*
X72658208Y-130079875D01*
X72658208Y-129556065D02*
X72705827Y-129460827D01*
X72705827Y-129460827D02*
X72801065Y-129413208D01*
X72801065Y-129413208D02*
X72943922Y-129413208D01*
X72943922Y-129413208D02*
X73039161Y-129460827D01*
X73039161Y-129460827D02*
X73086780Y-129556065D01*
X73086780Y-129556065D02*
X73086780Y-130079875D01*
X73943922Y-130032256D02*
X73848684Y-130079875D01*
X73848684Y-130079875D02*
X73658208Y-130079875D01*
X73658208Y-130079875D02*
X73562970Y-130032256D01*
X73562970Y-130032256D02*
X73515351Y-129937017D01*
X73515351Y-129937017D02*
X73515351Y-129556065D01*
X73515351Y-129556065D02*
X73562970Y-129460827D01*
X73562970Y-129460827D02*
X73658208Y-129413208D01*
X73658208Y-129413208D02*
X73848684Y-129413208D01*
X73848684Y-129413208D02*
X73943922Y-129460827D01*
X73943922Y-129460827D02*
X73991541Y-129556065D01*
X73991541Y-129556065D02*
X73991541Y-129651303D01*
X73991541Y-129651303D02*
X73515351Y-129746541D01*
X74420113Y-129413208D02*
X74420113Y-130079875D01*
X74420113Y-129508446D02*
X74467732Y-129460827D01*
X74467732Y-129460827D02*
X74562970Y-129413208D01*
X74562970Y-129413208D02*
X74705827Y-129413208D01*
X74705827Y-129413208D02*
X74801065Y-129460827D01*
X74801065Y-129460827D02*
X74848684Y-129556065D01*
X74848684Y-129556065D02*
X74848684Y-130079875D01*
X75182018Y-129413208D02*
X75562970Y-129413208D01*
X75324875Y-129079875D02*
X75324875Y-129937017D01*
X75324875Y-129937017D02*
X75372494Y-130032256D01*
X75372494Y-130032256D02*
X75467732Y-130079875D01*
X75467732Y-130079875D02*
X75562970Y-130079875D01*
X75896304Y-129984636D02*
X75943923Y-130032256D01*
X75943923Y-130032256D02*
X75896304Y-130079875D01*
X75896304Y-130079875D02*
X75848685Y-130032256D01*
X75848685Y-130032256D02*
X75896304Y-129984636D01*
X75896304Y-129984636D02*
X75896304Y-130079875D01*
X75896304Y-129460827D02*
X75943923Y-129508446D01*
X75943923Y-129508446D02*
X75896304Y-129556065D01*
X75896304Y-129556065D02*
X75848685Y-129508446D01*
X75848685Y-129508446D02*
X75896304Y-129460827D01*
X75896304Y-129460827D02*
X75896304Y-129556065D01*
X77467732Y-129556065D02*
X77610589Y-129603684D01*
X77610589Y-129603684D02*
X77658208Y-129651303D01*
X77658208Y-129651303D02*
X77705827Y-129746541D01*
X77705827Y-129746541D02*
X77705827Y-129889398D01*
X77705827Y-129889398D02*
X77658208Y-129984636D01*
X77658208Y-129984636D02*
X77610589Y-130032256D01*
X77610589Y-130032256D02*
X77515351Y-130079875D01*
X77515351Y-130079875D02*
X77134399Y-130079875D01*
X77134399Y-130079875D02*
X77134399Y-129079875D01*
X77134399Y-129079875D02*
X77467732Y-129079875D01*
X77467732Y-129079875D02*
X77562970Y-129127494D01*
X77562970Y-129127494D02*
X77610589Y-129175113D01*
X77610589Y-129175113D02*
X77658208Y-129270351D01*
X77658208Y-129270351D02*
X77658208Y-129365589D01*
X77658208Y-129365589D02*
X77610589Y-129460827D01*
X77610589Y-129460827D02*
X77562970Y-129508446D01*
X77562970Y-129508446D02*
X77467732Y-129556065D01*
X77467732Y-129556065D02*
X77134399Y-129556065D01*
X78277256Y-130079875D02*
X78182018Y-130032256D01*
X78182018Y-130032256D02*
X78134399Y-129984636D01*
X78134399Y-129984636D02*
X78086780Y-129889398D01*
X78086780Y-129889398D02*
X78086780Y-129603684D01*
X78086780Y-129603684D02*
X78134399Y-129508446D01*
X78134399Y-129508446D02*
X78182018Y-129460827D01*
X78182018Y-129460827D02*
X78277256Y-129413208D01*
X78277256Y-129413208D02*
X78420113Y-129413208D01*
X78420113Y-129413208D02*
X78515351Y-129460827D01*
X78515351Y-129460827D02*
X78562970Y-129508446D01*
X78562970Y-129508446D02*
X78610589Y-129603684D01*
X78610589Y-129603684D02*
X78610589Y-129889398D01*
X78610589Y-129889398D02*
X78562970Y-129984636D01*
X78562970Y-129984636D02*
X78515351Y-130032256D01*
X78515351Y-130032256D02*
X78420113Y-130079875D01*
X78420113Y-130079875D02*
X78277256Y-130079875D01*
X78896304Y-129413208D02*
X79277256Y-129413208D01*
X79039161Y-129079875D02*
X79039161Y-129937017D01*
X79039161Y-129937017D02*
X79086780Y-130032256D01*
X79086780Y-130032256D02*
X79182018Y-130079875D01*
X79182018Y-130079875D02*
X79277256Y-130079875D01*
X79467733Y-129413208D02*
X79848685Y-129413208D01*
X79610590Y-129079875D02*
X79610590Y-129937017D01*
X79610590Y-129937017D02*
X79658209Y-130032256D01*
X79658209Y-130032256D02*
X79753447Y-130079875D01*
X79753447Y-130079875D02*
X79848685Y-130079875D01*
X80324876Y-130079875D02*
X80229638Y-130032256D01*
X80229638Y-130032256D02*
X80182019Y-129984636D01*
X80182019Y-129984636D02*
X80134400Y-129889398D01*
X80134400Y-129889398D02*
X80134400Y-129603684D01*
X80134400Y-129603684D02*
X80182019Y-129508446D01*
X80182019Y-129508446D02*
X80229638Y-129460827D01*
X80229638Y-129460827D02*
X80324876Y-129413208D01*
X80324876Y-129413208D02*
X80467733Y-129413208D01*
X80467733Y-129413208D02*
X80562971Y-129460827D01*
X80562971Y-129460827D02*
X80610590Y-129508446D01*
X80610590Y-129508446D02*
X80658209Y-129603684D01*
X80658209Y-129603684D02*
X80658209Y-129889398D01*
X80658209Y-129889398D02*
X80610590Y-129984636D01*
X80610590Y-129984636D02*
X80562971Y-130032256D01*
X80562971Y-130032256D02*
X80467733Y-130079875D01*
X80467733Y-130079875D02*
X80324876Y-130079875D01*
X81086781Y-130079875D02*
X81086781Y-129413208D01*
X81086781Y-129508446D02*
X81134400Y-129460827D01*
X81134400Y-129460827D02*
X81229638Y-129413208D01*
X81229638Y-129413208D02*
X81372495Y-129413208D01*
X81372495Y-129413208D02*
X81467733Y-129460827D01*
X81467733Y-129460827D02*
X81515352Y-129556065D01*
X81515352Y-129556065D02*
X81515352Y-130079875D01*
X81515352Y-129556065D02*
X81562971Y-129460827D01*
X81562971Y-129460827D02*
X81658209Y-129413208D01*
X81658209Y-129413208D02*
X81801066Y-129413208D01*
X81801066Y-129413208D02*
X81896305Y-129460827D01*
X81896305Y-129460827D02*
X81943924Y-129556065D01*
X81943924Y-129556065D02*
X81943924Y-130079875D01*
X83134400Y-130032256D02*
X83229638Y-130079875D01*
X83229638Y-130079875D02*
X83420114Y-130079875D01*
X83420114Y-130079875D02*
X83515352Y-130032256D01*
X83515352Y-130032256D02*
X83562971Y-129937017D01*
X83562971Y-129937017D02*
X83562971Y-129889398D01*
X83562971Y-129889398D02*
X83515352Y-129794160D01*
X83515352Y-129794160D02*
X83420114Y-129746541D01*
X83420114Y-129746541D02*
X83277257Y-129746541D01*
X83277257Y-129746541D02*
X83182019Y-129698922D01*
X83182019Y-129698922D02*
X83134400Y-129603684D01*
X83134400Y-129603684D02*
X83134400Y-129556065D01*
X83134400Y-129556065D02*
X83182019Y-129460827D01*
X83182019Y-129460827D02*
X83277257Y-129413208D01*
X83277257Y-129413208D02*
X83420114Y-129413208D01*
X83420114Y-129413208D02*
X83515352Y-129460827D01*
X83991543Y-130079875D02*
X83991543Y-129413208D01*
X83991543Y-129079875D02*
X83943924Y-129127494D01*
X83943924Y-129127494D02*
X83991543Y-129175113D01*
X83991543Y-129175113D02*
X84039162Y-129127494D01*
X84039162Y-129127494D02*
X83991543Y-129079875D01*
X83991543Y-129079875D02*
X83991543Y-129175113D01*
X84896304Y-130079875D02*
X84896304Y-129079875D01*
X84896304Y-130032256D02*
X84801066Y-130079875D01*
X84801066Y-130079875D02*
X84610590Y-130079875D01*
X84610590Y-130079875D02*
X84515352Y-130032256D01*
X84515352Y-130032256D02*
X84467733Y-129984636D01*
X84467733Y-129984636D02*
X84420114Y-129889398D01*
X84420114Y-129889398D02*
X84420114Y-129603684D01*
X84420114Y-129603684D02*
X84467733Y-129508446D01*
X84467733Y-129508446D02*
X84515352Y-129460827D01*
X84515352Y-129460827D02*
X84610590Y-129413208D01*
X84610590Y-129413208D02*
X84801066Y-129413208D01*
X84801066Y-129413208D02*
X84896304Y-129460827D01*
X85753447Y-130032256D02*
X85658209Y-130079875D01*
X85658209Y-130079875D02*
X85467733Y-130079875D01*
X85467733Y-130079875D02*
X85372495Y-130032256D01*
X85372495Y-130032256D02*
X85324876Y-129937017D01*
X85324876Y-129937017D02*
X85324876Y-129556065D01*
X85324876Y-129556065D02*
X85372495Y-129460827D01*
X85372495Y-129460827D02*
X85467733Y-129413208D01*
X85467733Y-129413208D02*
X85658209Y-129413208D01*
X85658209Y-129413208D02*
X85753447Y-129460827D01*
X85753447Y-129460827D02*
X85801066Y-129556065D01*
X85801066Y-129556065D02*
X85801066Y-129651303D01*
X85801066Y-129651303D02*
X85324876Y-129746541D01*
X87277257Y-130460827D02*
X87229638Y-130413208D01*
X87229638Y-130413208D02*
X87134400Y-130270351D01*
X87134400Y-130270351D02*
X87086781Y-130175113D01*
X87086781Y-130175113D02*
X87039162Y-130032256D01*
X87039162Y-130032256D02*
X86991543Y-129794160D01*
X86991543Y-129794160D02*
X86991543Y-129603684D01*
X86991543Y-129603684D02*
X87039162Y-129365589D01*
X87039162Y-129365589D02*
X87086781Y-129222732D01*
X87086781Y-129222732D02*
X87134400Y-129127494D01*
X87134400Y-129127494D02*
X87229638Y-128984636D01*
X87229638Y-128984636D02*
X87277257Y-128937017D01*
X88086781Y-130079875D02*
X88086781Y-129556065D01*
X88086781Y-129556065D02*
X88039162Y-129460827D01*
X88039162Y-129460827D02*
X87943924Y-129413208D01*
X87943924Y-129413208D02*
X87753448Y-129413208D01*
X87753448Y-129413208D02*
X87658210Y-129460827D01*
X88086781Y-130032256D02*
X87991543Y-130079875D01*
X87991543Y-130079875D02*
X87753448Y-130079875D01*
X87753448Y-130079875D02*
X87658210Y-130032256D01*
X87658210Y-130032256D02*
X87610591Y-129937017D01*
X87610591Y-129937017D02*
X87610591Y-129841779D01*
X87610591Y-129841779D02*
X87658210Y-129746541D01*
X87658210Y-129746541D02*
X87753448Y-129698922D01*
X87753448Y-129698922D02*
X87991543Y-129698922D01*
X87991543Y-129698922D02*
X88086781Y-129651303D01*
X88515353Y-130032256D02*
X88610591Y-130079875D01*
X88610591Y-130079875D02*
X88801067Y-130079875D01*
X88801067Y-130079875D02*
X88896305Y-130032256D01*
X88896305Y-130032256D02*
X88943924Y-129937017D01*
X88943924Y-129937017D02*
X88943924Y-129889398D01*
X88943924Y-129889398D02*
X88896305Y-129794160D01*
X88896305Y-129794160D02*
X88801067Y-129746541D01*
X88801067Y-129746541D02*
X88658210Y-129746541D01*
X88658210Y-129746541D02*
X88562972Y-129698922D01*
X88562972Y-129698922D02*
X88515353Y-129603684D01*
X88515353Y-129603684D02*
X88515353Y-129556065D01*
X88515353Y-129556065D02*
X88562972Y-129460827D01*
X88562972Y-129460827D02*
X88658210Y-129413208D01*
X88658210Y-129413208D02*
X88801067Y-129413208D01*
X88801067Y-129413208D02*
X88896305Y-129460827D01*
X90134401Y-129413208D02*
X90134401Y-130413208D01*
X90134401Y-129460827D02*
X90229639Y-129413208D01*
X90229639Y-129413208D02*
X90420115Y-129413208D01*
X90420115Y-129413208D02*
X90515353Y-129460827D01*
X90515353Y-129460827D02*
X90562972Y-129508446D01*
X90562972Y-129508446D02*
X90610591Y-129603684D01*
X90610591Y-129603684D02*
X90610591Y-129889398D01*
X90610591Y-129889398D02*
X90562972Y-129984636D01*
X90562972Y-129984636D02*
X90515353Y-130032256D01*
X90515353Y-130032256D02*
X90420115Y-130079875D01*
X90420115Y-130079875D02*
X90229639Y-130079875D01*
X90229639Y-130079875D02*
X90134401Y-130032256D01*
X91420115Y-130032256D02*
X91324877Y-130079875D01*
X91324877Y-130079875D02*
X91134401Y-130079875D01*
X91134401Y-130079875D02*
X91039163Y-130032256D01*
X91039163Y-130032256D02*
X90991544Y-129937017D01*
X90991544Y-129937017D02*
X90991544Y-129556065D01*
X90991544Y-129556065D02*
X91039163Y-129460827D01*
X91039163Y-129460827D02*
X91134401Y-129413208D01*
X91134401Y-129413208D02*
X91324877Y-129413208D01*
X91324877Y-129413208D02*
X91420115Y-129460827D01*
X91420115Y-129460827D02*
X91467734Y-129556065D01*
X91467734Y-129556065D02*
X91467734Y-129651303D01*
X91467734Y-129651303D02*
X90991544Y-129746541D01*
X91896306Y-130079875D02*
X91896306Y-129413208D01*
X91896306Y-129603684D02*
X91943925Y-129508446D01*
X91943925Y-129508446D02*
X91991544Y-129460827D01*
X91991544Y-129460827D02*
X92086782Y-129413208D01*
X92086782Y-129413208D02*
X92182020Y-129413208D01*
X93801068Y-129127494D02*
X93705830Y-129079875D01*
X93705830Y-129079875D02*
X93562973Y-129079875D01*
X93562973Y-129079875D02*
X93420116Y-129127494D01*
X93420116Y-129127494D02*
X93324878Y-129222732D01*
X93324878Y-129222732D02*
X93277259Y-129317970D01*
X93277259Y-129317970D02*
X93229640Y-129508446D01*
X93229640Y-129508446D02*
X93229640Y-129651303D01*
X93229640Y-129651303D02*
X93277259Y-129841779D01*
X93277259Y-129841779D02*
X93324878Y-129937017D01*
X93324878Y-129937017D02*
X93420116Y-130032256D01*
X93420116Y-130032256D02*
X93562973Y-130079875D01*
X93562973Y-130079875D02*
X93658211Y-130079875D01*
X93658211Y-130079875D02*
X93801068Y-130032256D01*
X93801068Y-130032256D02*
X93848687Y-129984636D01*
X93848687Y-129984636D02*
X93848687Y-129651303D01*
X93848687Y-129651303D02*
X93658211Y-129651303D01*
X94658211Y-130032256D02*
X94562973Y-130079875D01*
X94562973Y-130079875D02*
X94372497Y-130079875D01*
X94372497Y-130079875D02*
X94277259Y-130032256D01*
X94277259Y-130032256D02*
X94229640Y-129937017D01*
X94229640Y-129937017D02*
X94229640Y-129556065D01*
X94229640Y-129556065D02*
X94277259Y-129460827D01*
X94277259Y-129460827D02*
X94372497Y-129413208D01*
X94372497Y-129413208D02*
X94562973Y-129413208D01*
X94562973Y-129413208D02*
X94658211Y-129460827D01*
X94658211Y-129460827D02*
X94705830Y-129556065D01*
X94705830Y-129556065D02*
X94705830Y-129651303D01*
X94705830Y-129651303D02*
X94229640Y-129746541D01*
X95134402Y-130079875D02*
X95134402Y-129413208D01*
X95134402Y-129603684D02*
X95182021Y-129508446D01*
X95182021Y-129508446D02*
X95229640Y-129460827D01*
X95229640Y-129460827D02*
X95324878Y-129413208D01*
X95324878Y-129413208D02*
X95420116Y-129413208D01*
X95753450Y-130079875D02*
X95753450Y-129079875D01*
X95753450Y-129460827D02*
X95848688Y-129413208D01*
X95848688Y-129413208D02*
X96039164Y-129413208D01*
X96039164Y-129413208D02*
X96134402Y-129460827D01*
X96134402Y-129460827D02*
X96182021Y-129508446D01*
X96182021Y-129508446D02*
X96229640Y-129603684D01*
X96229640Y-129603684D02*
X96229640Y-129889398D01*
X96229640Y-129889398D02*
X96182021Y-129984636D01*
X96182021Y-129984636D02*
X96134402Y-130032256D01*
X96134402Y-130032256D02*
X96039164Y-130079875D01*
X96039164Y-130079875D02*
X95848688Y-130079875D01*
X95848688Y-130079875D02*
X95753450Y-130032256D01*
X97039164Y-130032256D02*
X96943926Y-130079875D01*
X96943926Y-130079875D02*
X96753450Y-130079875D01*
X96753450Y-130079875D02*
X96658212Y-130032256D01*
X96658212Y-130032256D02*
X96610593Y-129937017D01*
X96610593Y-129937017D02*
X96610593Y-129556065D01*
X96610593Y-129556065D02*
X96658212Y-129460827D01*
X96658212Y-129460827D02*
X96753450Y-129413208D01*
X96753450Y-129413208D02*
X96943926Y-129413208D01*
X96943926Y-129413208D02*
X97039164Y-129460827D01*
X97039164Y-129460827D02*
X97086783Y-129556065D01*
X97086783Y-129556065D02*
X97086783Y-129651303D01*
X97086783Y-129651303D02*
X96610593Y-129746541D01*
X97515355Y-130079875D02*
X97515355Y-129413208D01*
X97515355Y-129603684D02*
X97562974Y-129508446D01*
X97562974Y-129508446D02*
X97610593Y-129460827D01*
X97610593Y-129460827D02*
X97705831Y-129413208D01*
X97705831Y-129413208D02*
X97801069Y-129413208D01*
X99039165Y-130079875D02*
X98943927Y-130032256D01*
X98943927Y-130032256D02*
X98896308Y-129937017D01*
X98896308Y-129937017D02*
X98896308Y-129079875D01*
X99848689Y-130079875D02*
X99848689Y-129556065D01*
X99848689Y-129556065D02*
X99801070Y-129460827D01*
X99801070Y-129460827D02*
X99705832Y-129413208D01*
X99705832Y-129413208D02*
X99515356Y-129413208D01*
X99515356Y-129413208D02*
X99420118Y-129460827D01*
X99848689Y-130032256D02*
X99753451Y-130079875D01*
X99753451Y-130079875D02*
X99515356Y-130079875D01*
X99515356Y-130079875D02*
X99420118Y-130032256D01*
X99420118Y-130032256D02*
X99372499Y-129937017D01*
X99372499Y-129937017D02*
X99372499Y-129841779D01*
X99372499Y-129841779D02*
X99420118Y-129746541D01*
X99420118Y-129746541D02*
X99515356Y-129698922D01*
X99515356Y-129698922D02*
X99753451Y-129698922D01*
X99753451Y-129698922D02*
X99848689Y-129651303D01*
X100229642Y-129413208D02*
X100467737Y-130079875D01*
X100705832Y-129413208D02*
X100467737Y-130079875D01*
X100467737Y-130079875D02*
X100372499Y-130317970D01*
X100372499Y-130317970D02*
X100324880Y-130365589D01*
X100324880Y-130365589D02*
X100229642Y-130413208D01*
X101467737Y-130032256D02*
X101372499Y-130079875D01*
X101372499Y-130079875D02*
X101182023Y-130079875D01*
X101182023Y-130079875D02*
X101086785Y-130032256D01*
X101086785Y-130032256D02*
X101039166Y-129937017D01*
X101039166Y-129937017D02*
X101039166Y-129556065D01*
X101039166Y-129556065D02*
X101086785Y-129460827D01*
X101086785Y-129460827D02*
X101182023Y-129413208D01*
X101182023Y-129413208D02*
X101372499Y-129413208D01*
X101372499Y-129413208D02*
X101467737Y-129460827D01*
X101467737Y-129460827D02*
X101515356Y-129556065D01*
X101515356Y-129556065D02*
X101515356Y-129651303D01*
X101515356Y-129651303D02*
X101039166Y-129746541D01*
X101943928Y-130079875D02*
X101943928Y-129413208D01*
X101943928Y-129603684D02*
X101991547Y-129508446D01*
X101991547Y-129508446D02*
X102039166Y-129460827D01*
X102039166Y-129460827D02*
X102134404Y-129413208D01*
X102134404Y-129413208D02*
X102229642Y-129413208D01*
X102467738Y-130460827D02*
X102515357Y-130413208D01*
X102515357Y-130413208D02*
X102610595Y-130270351D01*
X102610595Y-130270351D02*
X102658214Y-130175113D01*
X102658214Y-130175113D02*
X102705833Y-130032256D01*
X102705833Y-130032256D02*
X102753452Y-129794160D01*
X102753452Y-129794160D02*
X102753452Y-129603684D01*
X102753452Y-129603684D02*
X102705833Y-129365589D01*
X102705833Y-129365589D02*
X102658214Y-129222732D01*
X102658214Y-129222732D02*
X102610595Y-129127494D01*
X102610595Y-129127494D02*
X102515357Y-128984636D01*
X102515357Y-128984636D02*
X102467738Y-128937017D01*
X68039160Y-131404104D02*
X68515350Y-131404104D01*
X67943922Y-131689819D02*
X68277255Y-130689819D01*
X68277255Y-130689819D02*
X68610588Y-131689819D01*
X69372493Y-131689819D02*
X69372493Y-130689819D01*
X69372493Y-131642200D02*
X69277255Y-131689819D01*
X69277255Y-131689819D02*
X69086779Y-131689819D01*
X69086779Y-131689819D02*
X68991541Y-131642200D01*
X68991541Y-131642200D02*
X68943922Y-131594580D01*
X68943922Y-131594580D02*
X68896303Y-131499342D01*
X68896303Y-131499342D02*
X68896303Y-131213628D01*
X68896303Y-131213628D02*
X68943922Y-131118390D01*
X68943922Y-131118390D02*
X68991541Y-131070771D01*
X68991541Y-131070771D02*
X69086779Y-131023152D01*
X69086779Y-131023152D02*
X69277255Y-131023152D01*
X69277255Y-131023152D02*
X69372493Y-131070771D01*
X69848684Y-131689819D02*
X69848684Y-130689819D01*
X70277255Y-131689819D02*
X70277255Y-131166009D01*
X70277255Y-131166009D02*
X70229636Y-131070771D01*
X70229636Y-131070771D02*
X70134398Y-131023152D01*
X70134398Y-131023152D02*
X69991541Y-131023152D01*
X69991541Y-131023152D02*
X69896303Y-131070771D01*
X69896303Y-131070771D02*
X69848684Y-131118390D01*
X71134398Y-131642200D02*
X71039160Y-131689819D01*
X71039160Y-131689819D02*
X70848684Y-131689819D01*
X70848684Y-131689819D02*
X70753446Y-131642200D01*
X70753446Y-131642200D02*
X70705827Y-131546961D01*
X70705827Y-131546961D02*
X70705827Y-131166009D01*
X70705827Y-131166009D02*
X70753446Y-131070771D01*
X70753446Y-131070771D02*
X70848684Y-131023152D01*
X70848684Y-131023152D02*
X71039160Y-131023152D01*
X71039160Y-131023152D02*
X71134398Y-131070771D01*
X71134398Y-131070771D02*
X71182017Y-131166009D01*
X71182017Y-131166009D02*
X71182017Y-131261247D01*
X71182017Y-131261247D02*
X70705827Y-131356485D01*
X71562970Y-131642200D02*
X71658208Y-131689819D01*
X71658208Y-131689819D02*
X71848684Y-131689819D01*
X71848684Y-131689819D02*
X71943922Y-131642200D01*
X71943922Y-131642200D02*
X71991541Y-131546961D01*
X71991541Y-131546961D02*
X71991541Y-131499342D01*
X71991541Y-131499342D02*
X71943922Y-131404104D01*
X71943922Y-131404104D02*
X71848684Y-131356485D01*
X71848684Y-131356485D02*
X71705827Y-131356485D01*
X71705827Y-131356485D02*
X71610589Y-131308866D01*
X71610589Y-131308866D02*
X71562970Y-131213628D01*
X71562970Y-131213628D02*
X71562970Y-131166009D01*
X71562970Y-131166009D02*
X71610589Y-131070771D01*
X71610589Y-131070771D02*
X71705827Y-131023152D01*
X71705827Y-131023152D02*
X71848684Y-131023152D01*
X71848684Y-131023152D02*
X71943922Y-131070771D01*
X72420113Y-131689819D02*
X72420113Y-131023152D01*
X72420113Y-130689819D02*
X72372494Y-130737438D01*
X72372494Y-130737438D02*
X72420113Y-130785057D01*
X72420113Y-130785057D02*
X72467732Y-130737438D01*
X72467732Y-130737438D02*
X72420113Y-130689819D01*
X72420113Y-130689819D02*
X72420113Y-130785057D01*
X72801065Y-131023152D02*
X73039160Y-131689819D01*
X73039160Y-131689819D02*
X73277255Y-131023152D01*
X74039160Y-131642200D02*
X73943922Y-131689819D01*
X73943922Y-131689819D02*
X73753446Y-131689819D01*
X73753446Y-131689819D02*
X73658208Y-131642200D01*
X73658208Y-131642200D02*
X73610589Y-131546961D01*
X73610589Y-131546961D02*
X73610589Y-131166009D01*
X73610589Y-131166009D02*
X73658208Y-131070771D01*
X73658208Y-131070771D02*
X73753446Y-131023152D01*
X73753446Y-131023152D02*
X73943922Y-131023152D01*
X73943922Y-131023152D02*
X74039160Y-131070771D01*
X74039160Y-131070771D02*
X74086779Y-131166009D01*
X74086779Y-131166009D02*
X74086779Y-131261247D01*
X74086779Y-131261247D02*
X73610589Y-131356485D01*
X74515351Y-131594580D02*
X74562970Y-131642200D01*
X74562970Y-131642200D02*
X74515351Y-131689819D01*
X74515351Y-131689819D02*
X74467732Y-131642200D01*
X74467732Y-131642200D02*
X74515351Y-131594580D01*
X74515351Y-131594580D02*
X74515351Y-131689819D01*
X74515351Y-131070771D02*
X74562970Y-131118390D01*
X74562970Y-131118390D02*
X74515351Y-131166009D01*
X74515351Y-131166009D02*
X74467732Y-131118390D01*
X74467732Y-131118390D02*
X74515351Y-131070771D01*
X74515351Y-131070771D02*
X74515351Y-131166009D01*
X75658208Y-130689819D02*
X76277255Y-130689819D01*
X76277255Y-130689819D02*
X75943922Y-131070771D01*
X75943922Y-131070771D02*
X76086779Y-131070771D01*
X76086779Y-131070771D02*
X76182017Y-131118390D01*
X76182017Y-131118390D02*
X76229636Y-131166009D01*
X76229636Y-131166009D02*
X76277255Y-131261247D01*
X76277255Y-131261247D02*
X76277255Y-131499342D01*
X76277255Y-131499342D02*
X76229636Y-131594580D01*
X76229636Y-131594580D02*
X76182017Y-131642200D01*
X76182017Y-131642200D02*
X76086779Y-131689819D01*
X76086779Y-131689819D02*
X75801065Y-131689819D01*
X75801065Y-131689819D02*
X75705827Y-131642200D01*
X75705827Y-131642200D02*
X75658208Y-131594580D01*
X76705827Y-131689819D02*
X76705827Y-130689819D01*
X76705827Y-130689819D02*
X77039160Y-131404104D01*
X77039160Y-131404104D02*
X77372493Y-130689819D01*
X77372493Y-130689819D02*
X77372493Y-131689819D01*
X77896303Y-131689819D02*
X78086779Y-131689819D01*
X78086779Y-131689819D02*
X78182017Y-131642200D01*
X78182017Y-131642200D02*
X78229636Y-131594580D01*
X78229636Y-131594580D02*
X78324874Y-131451723D01*
X78324874Y-131451723D02*
X78372493Y-131261247D01*
X78372493Y-131261247D02*
X78372493Y-130880295D01*
X78372493Y-130880295D02*
X78324874Y-130785057D01*
X78324874Y-130785057D02*
X78277255Y-130737438D01*
X78277255Y-130737438D02*
X78182017Y-130689819D01*
X78182017Y-130689819D02*
X77991541Y-130689819D01*
X77991541Y-130689819D02*
X77896303Y-130737438D01*
X77896303Y-130737438D02*
X77848684Y-130785057D01*
X77848684Y-130785057D02*
X77801065Y-130880295D01*
X77801065Y-130880295D02*
X77801065Y-131118390D01*
X77801065Y-131118390D02*
X77848684Y-131213628D01*
X77848684Y-131213628D02*
X77896303Y-131261247D01*
X77896303Y-131261247D02*
X77991541Y-131308866D01*
X77991541Y-131308866D02*
X78182017Y-131308866D01*
X78182017Y-131308866D02*
X78277255Y-131261247D01*
X78277255Y-131261247D02*
X78324874Y-131213628D01*
X78324874Y-131213628D02*
X78372493Y-131118390D01*
X78991541Y-130689819D02*
X79086779Y-130689819D01*
X79086779Y-130689819D02*
X79182017Y-130737438D01*
X79182017Y-130737438D02*
X79229636Y-130785057D01*
X79229636Y-130785057D02*
X79277255Y-130880295D01*
X79277255Y-130880295D02*
X79324874Y-131070771D01*
X79324874Y-131070771D02*
X79324874Y-131308866D01*
X79324874Y-131308866D02*
X79277255Y-131499342D01*
X79277255Y-131499342D02*
X79229636Y-131594580D01*
X79229636Y-131594580D02*
X79182017Y-131642200D01*
X79182017Y-131642200D02*
X79086779Y-131689819D01*
X79086779Y-131689819D02*
X78991541Y-131689819D01*
X78991541Y-131689819D02*
X78896303Y-131642200D01*
X78896303Y-131642200D02*
X78848684Y-131594580D01*
X78848684Y-131594580D02*
X78801065Y-131499342D01*
X78801065Y-131499342D02*
X78753446Y-131308866D01*
X78753446Y-131308866D02*
X78753446Y-131070771D01*
X78753446Y-131070771D02*
X78801065Y-130880295D01*
X78801065Y-130880295D02*
X78848684Y-130785057D01*
X78848684Y-130785057D02*
X78896303Y-130737438D01*
X78896303Y-130737438D02*
X78991541Y-130689819D01*
X79658208Y-130689819D02*
X80324874Y-130689819D01*
X80324874Y-130689819D02*
X79896303Y-131689819D01*
X80610589Y-130689819D02*
X81277255Y-130689819D01*
X81277255Y-130689819D02*
X80848684Y-131689819D01*
X82324875Y-130689819D02*
X82943922Y-130689819D01*
X82943922Y-130689819D02*
X82610589Y-131070771D01*
X82610589Y-131070771D02*
X82753446Y-131070771D01*
X82753446Y-131070771D02*
X82848684Y-131118390D01*
X82848684Y-131118390D02*
X82896303Y-131166009D01*
X82896303Y-131166009D02*
X82943922Y-131261247D01*
X82943922Y-131261247D02*
X82943922Y-131499342D01*
X82943922Y-131499342D02*
X82896303Y-131594580D01*
X82896303Y-131594580D02*
X82848684Y-131642200D01*
X82848684Y-131642200D02*
X82753446Y-131689819D01*
X82753446Y-131689819D02*
X82467732Y-131689819D01*
X82467732Y-131689819D02*
X82372494Y-131642200D01*
X82372494Y-131642200D02*
X82324875Y-131594580D01*
X83372494Y-131689819D02*
X83372494Y-130689819D01*
X83372494Y-130689819D02*
X83705827Y-131404104D01*
X83705827Y-131404104D02*
X84039160Y-130689819D01*
X84039160Y-130689819D02*
X84039160Y-131689819D01*
X85134399Y-131023152D02*
X85515351Y-131023152D01*
X85277256Y-130689819D02*
X85277256Y-131546961D01*
X85277256Y-131546961D02*
X85324875Y-131642200D01*
X85324875Y-131642200D02*
X85420113Y-131689819D01*
X85420113Y-131689819D02*
X85515351Y-131689819D01*
X86277256Y-131689819D02*
X86277256Y-131166009D01*
X86277256Y-131166009D02*
X86229637Y-131070771D01*
X86229637Y-131070771D02*
X86134399Y-131023152D01*
X86134399Y-131023152D02*
X85943923Y-131023152D01*
X85943923Y-131023152D02*
X85848685Y-131070771D01*
X86277256Y-131642200D02*
X86182018Y-131689819D01*
X86182018Y-131689819D02*
X85943923Y-131689819D01*
X85943923Y-131689819D02*
X85848685Y-131642200D01*
X85848685Y-131642200D02*
X85801066Y-131546961D01*
X85801066Y-131546961D02*
X85801066Y-131451723D01*
X85801066Y-131451723D02*
X85848685Y-131356485D01*
X85848685Y-131356485D02*
X85943923Y-131308866D01*
X85943923Y-131308866D02*
X86182018Y-131308866D01*
X86182018Y-131308866D02*
X86277256Y-131261247D01*
X86753447Y-131023152D02*
X86753447Y-132023152D01*
X86753447Y-131070771D02*
X86848685Y-131023152D01*
X86848685Y-131023152D02*
X87039161Y-131023152D01*
X87039161Y-131023152D02*
X87134399Y-131070771D01*
X87134399Y-131070771D02*
X87182018Y-131118390D01*
X87182018Y-131118390D02*
X87229637Y-131213628D01*
X87229637Y-131213628D02*
X87229637Y-131499342D01*
X87229637Y-131499342D02*
X87182018Y-131594580D01*
X87182018Y-131594580D02*
X87134399Y-131642200D01*
X87134399Y-131642200D02*
X87039161Y-131689819D01*
X87039161Y-131689819D02*
X86848685Y-131689819D01*
X86848685Y-131689819D02*
X86753447Y-131642200D01*
X88039161Y-131642200D02*
X87943923Y-131689819D01*
X87943923Y-131689819D02*
X87753447Y-131689819D01*
X87753447Y-131689819D02*
X87658209Y-131642200D01*
X87658209Y-131642200D02*
X87610590Y-131546961D01*
X87610590Y-131546961D02*
X87610590Y-131166009D01*
X87610590Y-131166009D02*
X87658209Y-131070771D01*
X87658209Y-131070771D02*
X87753447Y-131023152D01*
X87753447Y-131023152D02*
X87943923Y-131023152D01*
X87943923Y-131023152D02*
X88039161Y-131070771D01*
X88039161Y-131070771D02*
X88086780Y-131166009D01*
X88086780Y-131166009D02*
X88086780Y-131261247D01*
X88086780Y-131261247D02*
X87610590Y-131356485D01*
G36*
X71885824Y-65899988D02*
G01*
X71885836Y-65899991D01*
X71885837Y-65899989D01*
X93632765Y-65902223D01*
X93632966Y-65902282D01*
X93632967Y-65902224D01*
X93848880Y-65902599D01*
X93851103Y-65902623D01*
X93964914Y-65904861D01*
X93968945Y-65905006D01*
X94091002Y-65911382D01*
X94097523Y-65911895D01*
X94370133Y-65940611D01*
X94374573Y-65941160D01*
X94468494Y-65954494D01*
X94475955Y-65955787D01*
X94756356Y-66013242D01*
X94759718Y-66013979D01*
X94821556Y-66028449D01*
X94826889Y-66029823D01*
X94874797Y-66043303D01*
X94877769Y-66044180D01*
X95148072Y-66127578D01*
X95150360Y-66128308D01*
X95164062Y-66132828D01*
X95169258Y-66134671D01*
X95251339Y-66165858D01*
X95255177Y-66167390D01*
X95509763Y-66273958D01*
X95516035Y-66276790D01*
X95606370Y-66320643D01*
X95610968Y-66322995D01*
X95848227Y-66450643D01*
X95853312Y-66453535D01*
X95941353Y-66506402D01*
X95946584Y-66509724D01*
X96170710Y-66660033D01*
X96174659Y-66662794D01*
X96255305Y-66721546D01*
X96261021Y-66725971D01*
X96475626Y-66902340D01*
X96478513Y-66904788D01*
X96537214Y-66956111D01*
X96541280Y-66959828D01*
X96568038Y-66985407D01*
X96570007Y-66987331D01*
X96763194Y-67180392D01*
X96765119Y-67182360D01*
X96790667Y-67209051D01*
X96794386Y-67213112D01*
X96846668Y-67272829D01*
X96849119Y-67275717D01*
X97024308Y-67488604D01*
X97028736Y-67494316D01*
X97089213Y-67577215D01*
X97091977Y-67581163D01*
X97240337Y-67802074D01*
X97243661Y-67807301D01*
X97298765Y-67898928D01*
X97301662Y-67904013D01*
X97426858Y-68136355D01*
X97429211Y-68140949D01*
X97475659Y-68236467D01*
X97478497Y-68242740D01*
X97582265Y-68490187D01*
X97583798Y-68494021D01*
X97616729Y-68580518D01*
X97618574Y-68585706D01*
X97626325Y-68609145D01*
X97627060Y-68611442D01*
X97705277Y-68864367D01*
X97706155Y-68867338D01*
X97721807Y-68922827D01*
X97723184Y-68928158D01*
X97739629Y-68998226D01*
X97740369Y-69001589D01*
X97794940Y-69267039D01*
X97795336Y-69269051D01*
X97796096Y-69273085D01*
X97796997Y-69278531D01*
X97811820Y-69382441D01*
X97812372Y-69386884D01*
X97839949Y-69647079D01*
X97840467Y-69653596D01*
X97847687Y-69790045D01*
X97847834Y-69794063D01*
X97849969Y-69898517D01*
X97849994Y-69901492D01*
X97844670Y-71399998D01*
X97846981Y-71517869D01*
X97848287Y-71526117D01*
X97849812Y-71545519D01*
X97847582Y-91269159D01*
X97847103Y-91280036D01*
X97846918Y-91282130D01*
X97844670Y-91399968D01*
X97847396Y-92898689D01*
X97847372Y-92901330D01*
X97845337Y-93005800D01*
X97845192Y-93009855D01*
X97838020Y-93147114D01*
X97837509Y-93153612D01*
X97810643Y-93409097D01*
X97810092Y-93413561D01*
X97794863Y-93520816D01*
X97793968Y-93526249D01*
X97790961Y-93542277D01*
X97790566Y-93544288D01*
X97740347Y-93789526D01*
X97739606Y-93792904D01*
X97721280Y-93871217D01*
X97719907Y-93876550D01*
X97700939Y-93943961D01*
X97700065Y-93946923D01*
X97630652Y-94171960D01*
X97629917Y-94174265D01*
X97616899Y-94213719D01*
X97615057Y-94218909D01*
X97578031Y-94316353D01*
X97576502Y-94320185D01*
X97480154Y-94550376D01*
X97477319Y-94556654D01*
X97423173Y-94668188D01*
X97420821Y-94672786D01*
X97305199Y-94887685D01*
X97302307Y-94892770D01*
X97237621Y-95000490D01*
X97234295Y-95005726D01*
X97097841Y-95209164D01*
X97095085Y-95213106D01*
X97023042Y-95311996D01*
X97019624Y-95316471D01*
X97019283Y-95316897D01*
X97018268Y-95318148D01*
X96857934Y-95513199D01*
X96855493Y-95516077D01*
X96793577Y-95586892D01*
X96789860Y-95590958D01*
X96750330Y-95632309D01*
X96748393Y-95634291D01*
X96582738Y-95800001D01*
X96580784Y-95801912D01*
X96540668Y-95840310D01*
X96536604Y-95844031D01*
X96467976Y-95904111D01*
X96465072Y-95906576D01*
X96265341Y-96070871D01*
X96259646Y-96075284D01*
X96167339Y-96142622D01*
X96163367Y-96145403D01*
X95950768Y-96288103D01*
X95945566Y-96291409D01*
X95848712Y-96349655D01*
X95843595Y-96352570D01*
X95614088Y-96476149D01*
X95609525Y-96478485D01*
X95513885Y-96524991D01*
X95507574Y-96527845D01*
X95255695Y-96633368D01*
X95251900Y-96634885D01*
X95169132Y-96666396D01*
X95163932Y-96668244D01*
X95151181Y-96672459D01*
X95148850Y-96673204D01*
X94872578Y-96758521D01*
X94869653Y-96759385D01*
X94826827Y-96771465D01*
X94821496Y-96772842D01*
X94766142Y-96785833D01*
X94762726Y-96786584D01*
X94470739Y-96846475D01*
X94463334Y-96847761D01*
X94384600Y-96858992D01*
X94380098Y-96859551D01*
X94087862Y-96890380D01*
X94081403Y-96890891D01*
X93986204Y-96895927D01*
X93982116Y-96896076D01*
X93850126Y-96898697D01*
X93849795Y-96898703D01*
X93796379Y-96899621D01*
X93794235Y-96899639D01*
X68350844Y-96897045D01*
X68349202Y-96897034D01*
X68294513Y-96896304D01*
X68293729Y-96896291D01*
X68255958Y-96895548D01*
X68251928Y-96895403D01*
X68096187Y-96887267D01*
X68089666Y-96886754D01*
X67848395Y-96861340D01*
X67843955Y-96860791D01*
X67728838Y-96844447D01*
X67723402Y-96843551D01*
X67693832Y-96838003D01*
X67691807Y-96837606D01*
X67466932Y-96791529D01*
X67463570Y-96790792D01*
X67378454Y-96770875D01*
X67373121Y-96769501D01*
X67300232Y-96748992D01*
X67297260Y-96748116D01*
X67083566Y-96682184D01*
X67081272Y-96681451D01*
X67035939Y-96666494D01*
X67030749Y-96664653D01*
X66931116Y-96626797D01*
X66927278Y-96625265D01*
X66700355Y-96530276D01*
X66694082Y-96527443D01*
X66580745Y-96472423D01*
X66576148Y-96470072D01*
X66362588Y-96355175D01*
X66357502Y-96352282D01*
X66249015Y-96287137D01*
X66243785Y-96283816D01*
X66040957Y-96147791D01*
X66037007Y-96145029D01*
X65937639Y-96072636D01*
X65933339Y-96069357D01*
X65932529Y-96068711D01*
X65931114Y-96067566D01*
X65737250Y-95908242D01*
X65734362Y-95905794D01*
X65662762Y-95843192D01*
X65658698Y-95839476D01*
X65616435Y-95799076D01*
X65614465Y-95797151D01*
X65451657Y-95634449D01*
X65449732Y-95632481D01*
X65409319Y-95590260D01*
X65405600Y-95586198D01*
X65344089Y-95515938D01*
X65341638Y-95513051D01*
X65180018Y-95316652D01*
X65175590Y-95310940D01*
X65105087Y-95214298D01*
X65102323Y-95210350D01*
X64963524Y-95003678D01*
X64960199Y-94998449D01*
X64897740Y-94894587D01*
X64894844Y-94889504D01*
X64776502Y-94669884D01*
X64774148Y-94665289D01*
X64722279Y-94558622D01*
X64719442Y-94552350D01*
X64620517Y-94316451D01*
X64618983Y-94312616D01*
X64583254Y-94218768D01*
X64581410Y-94213579D01*
X64570477Y-94180516D01*
X64569742Y-94178221D01*
X64496873Y-93942589D01*
X64495995Y-93939616D01*
X64478187Y-93876481D01*
X64476810Y-93871152D01*
X64459255Y-93796354D01*
X64458515Y-93792991D01*
X64406562Y-93540277D01*
X64406162Y-93538247D01*
X64403894Y-93526199D01*
X64402997Y-93520769D01*
X64387902Y-93414944D01*
X64387350Y-93410504D01*
X64360119Y-93153586D01*
X64359601Y-93147067D01*
X64352288Y-93008838D01*
X64352141Y-93004820D01*
X64350026Y-92901303D01*
X64350000Y-92898756D01*
X64350340Y-89897688D01*
X64352600Y-69901210D01*
X64352616Y-69899608D01*
X66850000Y-69899608D01*
X66850000Y-92899649D01*
X66850479Y-92953192D01*
X66858123Y-93060035D01*
X66873368Y-93166046D01*
X66896142Y-93270724D01*
X66926313Y-93373468D01*
X66963756Y-93473851D01*
X66963757Y-93473853D01*
X67008241Y-93571254D01*
X67059584Y-93665276D01*
X67117495Y-93755383D01*
X67181681Y-93841123D01*
X67251818Y-93922062D01*
X67251846Y-93922092D01*
X67327550Y-93997794D01*
X67327569Y-93997812D01*
X67408521Y-94067954D01*
X67494252Y-94132130D01*
X67494257Y-94132134D01*
X67584368Y-94190042D01*
X67584369Y-94190043D01*
X67678373Y-94241371D01*
X67775812Y-94285869D01*
X67876147Y-94323291D01*
X67876175Y-94323300D01*
X67978926Y-94353470D01*
X67978941Y-94353474D01*
X68083583Y-94376237D01*
X68189607Y-94391480D01*
X68296443Y-94399121D01*
X68349994Y-94399646D01*
X93850007Y-94399646D01*
X93903548Y-94399168D01*
X94010396Y-94391526D01*
X94116424Y-94376282D01*
X94221070Y-94353517D01*
X94323849Y-94323340D01*
X94323875Y-94323332D01*
X94424200Y-94285914D01*
X94521651Y-94241411D01*
X94615663Y-94190077D01*
X94705760Y-94132177D01*
X94705773Y-94132168D01*
X94791507Y-94067990D01*
X94872458Y-93997847D01*
X94872483Y-93997824D01*
X94948188Y-93922123D01*
X94948212Y-93922097D01*
X95018360Y-93841145D01*
X95018364Y-93841139D01*
X95082542Y-93755409D01*
X95140449Y-93665311D01*
X95140463Y-93665288D01*
X95191788Y-93571295D01*
X95191793Y-93571286D01*
X95236285Y-93473869D01*
X95273725Y-93373495D01*
X95303904Y-93270723D01*
X95326676Y-93166053D01*
X95341920Y-93060051D01*
X95341922Y-93060029D01*
X95349565Y-92953202D01*
X95350000Y-92899636D01*
X95350000Y-69899610D01*
X95349534Y-69846081D01*
X95341895Y-69739244D01*
X95326655Y-69633229D01*
X95303887Y-69528553D01*
X95303885Y-69528544D01*
X95273712Y-69425778D01*
X95236282Y-69325416D01*
X95191791Y-69227988D01*
X95191789Y-69227983D01*
X95140453Y-69133967D01*
X95140446Y-69133955D01*
X95082544Y-69043853D01*
X95082541Y-69043848D01*
X95018366Y-68958119D01*
X94948215Y-68877156D01*
X94948210Y-68877151D01*
X94872476Y-68801416D01*
X94872463Y-68801404D01*
X94791517Y-68731262D01*
X94705775Y-68667076D01*
X94615664Y-68609164D01*
X94521664Y-68557835D01*
X94424224Y-68513334D01*
X94424212Y-68513329D01*
X94323863Y-68475900D01*
X94221078Y-68445719D01*
X94116428Y-68422953D01*
X94010397Y-68407709D01*
X94010399Y-68407709D01*
X93903566Y-68400067D01*
X93903546Y-68400066D01*
X93850022Y-68399646D01*
X68349968Y-68399646D01*
X68296437Y-68400113D01*
X68189606Y-68407754D01*
X68083585Y-68422997D01*
X67978916Y-68445769D01*
X67978906Y-68445771D01*
X67876151Y-68475944D01*
X67775787Y-68513379D01*
X67678356Y-68557876D01*
X67584358Y-68609204D01*
X67494250Y-68667114D01*
X67408511Y-68731298D01*
X67408510Y-68731298D01*
X67327559Y-68801445D01*
X67327533Y-68801469D01*
X67251839Y-68877167D01*
X67251802Y-68877207D01*
X67181677Y-68958136D01*
X67117489Y-69043887D01*
X67059579Y-69133999D01*
X67059579Y-69134000D01*
X67008250Y-69228005D01*
X66963759Y-69325434D01*
X66926330Y-69425792D01*
X66896158Y-69528555D01*
X66896154Y-69528569D01*
X66873389Y-69633237D01*
X66858151Y-69739239D01*
X66858149Y-69739260D01*
X66850512Y-69846071D01*
X66850510Y-69846113D01*
X66850000Y-69899608D01*
X64352616Y-69899608D01*
X64352624Y-69898785D01*
X64354675Y-69794515D01*
X64354820Y-69790485D01*
X64361993Y-69653175D01*
X64362506Y-69646655D01*
X64389816Y-69387366D01*
X64390365Y-69382926D01*
X64405194Y-69278472D01*
X64406087Y-69273048D01*
X64407021Y-69268067D01*
X64407421Y-69266030D01*
X64461531Y-69001948D01*
X64462269Y-68998584D01*
X64478771Y-68928066D01*
X64480144Y-68922736D01*
X64495863Y-68866867D01*
X64496739Y-68863894D01*
X64574574Y-68611616D01*
X64575309Y-68609315D01*
X64583147Y-68585563D01*
X64584986Y-68580379D01*
X64617920Y-68493700D01*
X64619451Y-68489863D01*
X64722982Y-68242525D01*
X64725815Y-68236252D01*
X64772230Y-68140640D01*
X64774582Y-68136042D01*
X64899652Y-67903571D01*
X64902545Y-67898485D01*
X64957494Y-67806978D01*
X64960815Y-67801748D01*
X65109220Y-67580460D01*
X65111982Y-67576510D01*
X65172168Y-67493897D01*
X65176592Y-67488183D01*
X65351989Y-67274759D01*
X65354438Y-67271869D01*
X65406448Y-67212384D01*
X65410164Y-67208320D01*
X65435239Y-67182089D01*
X65437163Y-67180121D01*
X65631192Y-66985964D01*
X65633160Y-66984038D01*
X65659358Y-66958962D01*
X65663419Y-66955244D01*
X65721671Y-66904244D01*
X65724559Y-66901792D01*
X65939776Y-66724686D01*
X65945488Y-66720258D01*
X66025320Y-66662018D01*
X66029268Y-66659254D01*
X66254202Y-66508191D01*
X66259430Y-66504867D01*
X66346536Y-66452483D01*
X66351620Y-66449586D01*
X66589858Y-66321211D01*
X66594455Y-66318856D01*
X66683726Y-66275448D01*
X66689996Y-66272612D01*
X66945787Y-66165344D01*
X66949622Y-66163810D01*
X67030869Y-66132878D01*
X67036060Y-66131033D01*
X67048245Y-66127004D01*
X67050538Y-66126270D01*
X67323508Y-66041855D01*
X67326481Y-66040977D01*
X67373162Y-66027810D01*
X67378492Y-66026433D01*
X67439192Y-66012187D01*
X67442554Y-66011447D01*
X67724585Y-65953467D01*
X67732045Y-65952170D01*
X67824535Y-65938977D01*
X67828976Y-65938425D01*
X68103070Y-65909374D01*
X68109588Y-65908856D01*
X68230051Y-65902483D01*
X68234082Y-65902336D01*
X68348720Y-65900006D01*
X68351240Y-65899980D01*
X71885824Y-65899988D01*
G37*
G36*
X119351132Y-72900021D02*
G01*
X119459286Y-72902024D01*
X119476381Y-72903529D01*
X119691105Y-72937526D01*
X119710028Y-72942068D01*
X119915691Y-73008884D01*
X119933669Y-73016330D01*
X120126348Y-73114498D01*
X120142940Y-73124665D01*
X120317889Y-73251769D01*
X120332686Y-73264407D01*
X120485592Y-73417313D01*
X120498230Y-73432110D01*
X120625334Y-73607059D01*
X120635501Y-73623651D01*
X120733669Y-73816330D01*
X120741115Y-73834308D01*
X120807931Y-74039971D01*
X120812473Y-74058894D01*
X120846470Y-74273618D01*
X120847975Y-74290712D01*
X120849979Y-74398866D01*
X120850000Y-74401163D01*
X120850000Y-88398791D01*
X120849976Y-88401223D01*
X120847855Y-88509337D01*
X120846352Y-88526303D01*
X120812336Y-88741068D01*
X120807794Y-88759988D01*
X120743059Y-88959221D01*
X120737924Y-88972410D01*
X120727704Y-88994791D01*
X120725393Y-88999579D01*
X120648593Y-89150308D01*
X120642424Y-89161051D01*
X120599278Y-89228189D01*
X120595280Y-89234037D01*
X120545951Y-89301932D01*
X120544903Y-89303352D01*
X120526291Y-89328217D01*
X120520736Y-89335112D01*
X120456404Y-89409358D01*
X120450372Y-89415836D01*
X120380887Y-89485324D01*
X120374409Y-89491356D01*
X120300161Y-89555696D01*
X120293268Y-89561251D01*
X120214615Y-89620132D01*
X120207344Y-89625180D01*
X120124686Y-89678303D01*
X120117074Y-89682820D01*
X120030841Y-89729909D01*
X120022927Y-89733871D01*
X119933561Y-89774686D01*
X119925382Y-89778074D01*
X119833326Y-89812411D01*
X119824927Y-89815207D01*
X119730649Y-89842891D01*
X119722073Y-89845079D01*
X119626056Y-89865969D01*
X119617344Y-89867542D01*
X119520110Y-89881524D01*
X119511310Y-89882470D01*
X119412757Y-89889521D01*
X119404992Y-89889832D01*
X119355902Y-89890261D01*
X119354818Y-89890266D01*
X102979330Y-89890266D01*
X102912291Y-89870581D01*
X102866536Y-89817777D01*
X102855330Y-89766266D01*
X102855330Y-73024000D01*
X102875015Y-72956961D01*
X102927819Y-72911206D01*
X102979330Y-72900000D01*
X119348836Y-72900000D01*
X119351132Y-72900021D01*
G37*
G36*
X93833629Y-101942117D02*
G01*
X93835256Y-101942128D01*
X93921540Y-101943269D01*
X93926370Y-101943427D01*
X94100031Y-101952500D01*
X94105523Y-101952909D01*
X94278288Y-101969653D01*
X94283756Y-101970306D01*
X94455597Y-101994703D01*
X94461031Y-101995598D01*
X94631633Y-102027604D01*
X94637022Y-102028740D01*
X94806000Y-102068281D01*
X94811333Y-102069654D01*
X94978421Y-102116668D01*
X94983688Y-102118277D01*
X95148510Y-102172659D01*
X95153700Y-102174501D01*
X95315949Y-102236150D01*
X95321053Y-102238219D01*
X95480411Y-102307014D01*
X95485418Y-102309309D01*
X95641559Y-102385110D01*
X95646457Y-102387624D01*
X95799071Y-102470277D01*
X95803855Y-102473007D01*
X95952653Y-102562359D01*
X95957310Y-102565298D01*
X96101995Y-102661170D01*
X96106517Y-102664313D01*
X96246808Y-102766518D01*
X96251186Y-102769859D01*
X96386786Y-102878181D01*
X96391012Y-102881713D01*
X96521687Y-102995965D01*
X96525751Y-102999681D01*
X96651205Y-103119605D01*
X96655101Y-103123498D01*
X96775130Y-103248898D01*
X96778848Y-103252960D01*
X96893165Y-103383536D01*
X96896700Y-103387759D01*
X97005128Y-103523310D01*
X97008472Y-103527686D01*
X97110752Y-103667887D01*
X97113898Y-103672407D01*
X97209879Y-103817051D01*
X97212822Y-103821707D01*
X97302259Y-103970428D01*
X97304991Y-103975209D01*
X97387755Y-104127788D01*
X97390273Y-104132686D01*
X97466166Y-104288757D01*
X97468464Y-104293762D01*
X97537367Y-104453086D01*
X97539440Y-104458187D01*
X97601191Y-104620384D01*
X97603036Y-104625575D01*
X97657532Y-104790382D01*
X97659144Y-104795647D01*
X97706262Y-104962685D01*
X97707639Y-104968017D01*
X97747296Y-105136989D01*
X97748435Y-105142378D01*
X97780552Y-105312960D01*
X97781450Y-105318392D01*
X97805957Y-105490197D01*
X97806614Y-105495666D01*
X97823471Y-105668420D01*
X97823884Y-105673912D01*
X97833071Y-105847581D01*
X97833232Y-105852401D01*
X97834437Y-105938782D01*
X97834449Y-105940188D01*
X97865844Y-117972500D01*
X97865833Y-117974495D01*
X97864672Y-118060626D01*
X97864514Y-118065425D01*
X97855440Y-118239088D01*
X97855031Y-118244580D01*
X97838286Y-118417349D01*
X97837633Y-118422817D01*
X97813236Y-118594655D01*
X97812341Y-118600089D01*
X97780335Y-118770691D01*
X97779199Y-118776080D01*
X97739660Y-118945049D01*
X97738287Y-118950383D01*
X97694519Y-119105928D01*
X97693643Y-119108896D01*
X97685553Y-119135119D01*
X97684820Y-119137416D01*
X97635281Y-119287562D01*
X97633439Y-119292756D01*
X97619090Y-119330518D01*
X97617560Y-119334351D01*
X97493422Y-119630919D01*
X97488237Y-119641790D01*
X97308326Y-119976192D01*
X97302112Y-119986507D01*
X97090604Y-120301892D01*
X97083418Y-120311557D01*
X96842322Y-120604923D01*
X96834233Y-120613846D01*
X96565810Y-120882445D01*
X96556893Y-120890540D01*
X96263676Y-121131837D01*
X96254016Y-121139029D01*
X95938778Y-121350740D01*
X95928466Y-121356961D01*
X95594176Y-121537093D01*
X95583310Y-121542284D01*
X95233123Y-121689139D01*
X95221803Y-121693252D01*
X94859019Y-121805443D01*
X94847354Y-121808438D01*
X94475397Y-121884906D01*
X94463497Y-121886755D01*
X94085149Y-121926858D01*
X94074595Y-121927523D01*
X93886556Y-121931339D01*
X93881503Y-121931339D01*
X92350002Y-121899999D01*
X72349968Y-121899999D01*
X68320339Y-121931405D01*
X68316935Y-121931385D01*
X68128050Y-121927670D01*
X68117499Y-121927012D01*
X67739114Y-121887157D01*
X67727212Y-121885315D01*
X67355214Y-121809092D01*
X67343548Y-121806105D01*
X66980682Y-121694150D01*
X66969360Y-121690044D01*
X66619088Y-121543425D01*
X66608217Y-121538241D01*
X66273807Y-121358326D01*
X66263492Y-121352112D01*
X65948107Y-121140604D01*
X65938442Y-121133418D01*
X65645076Y-120892322D01*
X65636153Y-120884233D01*
X65367554Y-120615810D01*
X65359459Y-120606893D01*
X65118162Y-120313676D01*
X65110970Y-120304016D01*
X64899259Y-119988778D01*
X64893038Y-119978466D01*
X64712906Y-119644176D01*
X64707715Y-119633310D01*
X64560860Y-119283123D01*
X64556747Y-119271803D01*
X64444556Y-118909019D01*
X64441561Y-118897354D01*
X64365093Y-118525397D01*
X64363244Y-118513497D01*
X64323141Y-118135149D01*
X64322476Y-118124595D01*
X64318638Y-117935494D01*
X64318612Y-117932628D01*
X64352613Y-105899992D01*
X66849999Y-105899992D01*
X66849999Y-117900008D01*
X66850476Y-117953549D01*
X66858118Y-118060395D01*
X66873362Y-118166420D01*
X66896127Y-118271071D01*
X66896128Y-118271073D01*
X66926304Y-118373841D01*
X66926311Y-118373862D01*
X66963741Y-118474217D01*
X67008232Y-118571637D01*
X67059565Y-118665647D01*
X67117485Y-118755771D01*
X67181669Y-118841510D01*
X67251784Y-118922426D01*
X67251822Y-118922467D01*
X67327532Y-118998177D01*
X67327573Y-118998215D01*
X67408489Y-119068330D01*
X67494228Y-119132514D01*
X67584352Y-119190434D01*
X67678362Y-119241767D01*
X67775782Y-119286258D01*
X67876137Y-119323688D01*
X67876158Y-119323695D01*
X67978926Y-119353871D01*
X67978928Y-119353872D01*
X68083579Y-119376637D01*
X68189604Y-119391881D01*
X68296450Y-119399523D01*
X68349991Y-119400000D01*
X72350000Y-119400000D01*
X92350001Y-119400001D01*
X93850007Y-119400000D01*
X93903548Y-119399522D01*
X94010394Y-119391880D01*
X94116419Y-119376636D01*
X94221070Y-119353871D01*
X94221072Y-119353870D01*
X94323840Y-119323694D01*
X94323861Y-119323687D01*
X94424216Y-119286257D01*
X94521636Y-119241766D01*
X94615645Y-119190434D01*
X94615660Y-119190424D01*
X94705756Y-119132523D01*
X94705772Y-119132512D01*
X94791488Y-119068345D01*
X94791497Y-119068337D01*
X94872451Y-118998192D01*
X94872473Y-118998172D01*
X94948172Y-118922473D01*
X94948192Y-118922451D01*
X95018337Y-118841497D01*
X95018345Y-118841488D01*
X95082512Y-118755772D01*
X95082523Y-118755756D01*
X95140424Y-118665660D01*
X95140434Y-118665645D01*
X95191766Y-118571636D01*
X95236257Y-118474216D01*
X95273687Y-118373861D01*
X95273694Y-118373840D01*
X95303870Y-118271072D01*
X95303871Y-118271070D01*
X95326636Y-118166419D01*
X95341880Y-118060394D01*
X95349522Y-117953548D01*
X95350000Y-117900007D01*
X95350000Y-105899992D01*
X95349522Y-105846451D01*
X95341880Y-105739605D01*
X95326636Y-105633580D01*
X95303871Y-105528929D01*
X95303870Y-105528927D01*
X95273694Y-105426159D01*
X95273687Y-105426138D01*
X95236257Y-105325783D01*
X95191766Y-105228363D01*
X95140434Y-105134354D01*
X95140424Y-105134339D01*
X95082523Y-105044243D01*
X95082512Y-105044227D01*
X95018345Y-104958511D01*
X95018337Y-104958502D01*
X94948192Y-104877548D01*
X94948172Y-104877526D01*
X94872473Y-104801827D01*
X94872451Y-104801807D01*
X94791497Y-104731662D01*
X94791488Y-104731654D01*
X94705772Y-104667487D01*
X94705756Y-104667476D01*
X94615660Y-104609575D01*
X94615645Y-104609565D01*
X94521636Y-104558233D01*
X94424216Y-104513742D01*
X94323861Y-104476312D01*
X94323840Y-104476305D01*
X94221072Y-104446129D01*
X94221070Y-104446128D01*
X94116419Y-104423363D01*
X94010394Y-104408119D01*
X93903548Y-104400477D01*
X93850007Y-104400000D01*
X68349993Y-104400000D01*
X68296451Y-104400477D01*
X68189605Y-104408119D01*
X68083580Y-104423363D01*
X67978929Y-104446128D01*
X67978927Y-104446129D01*
X67876159Y-104476305D01*
X67876138Y-104476312D01*
X67775783Y-104513742D01*
X67678363Y-104558233D01*
X67584354Y-104609565D01*
X67584339Y-104609575D01*
X67494243Y-104667476D01*
X67494227Y-104667487D01*
X67408511Y-104731654D01*
X67408502Y-104731662D01*
X67327548Y-104801807D01*
X67327526Y-104801827D01*
X67251827Y-104877526D01*
X67251807Y-104877548D01*
X67181662Y-104958502D01*
X67181654Y-104958511D01*
X67117487Y-105044227D01*
X67117476Y-105044243D01*
X67059575Y-105134339D01*
X67059565Y-105134354D01*
X67008233Y-105228363D01*
X66963742Y-105325783D01*
X66926312Y-105426138D01*
X66926305Y-105426159D01*
X66896129Y-105528927D01*
X66896128Y-105528929D01*
X66873363Y-105633580D01*
X66858119Y-105739605D01*
X66850477Y-105846451D01*
X66849999Y-105899992D01*
X64352613Y-105899992D01*
X64352618Y-105898391D01*
X64352641Y-105896327D01*
X64356330Y-105706856D01*
X64356987Y-105696302D01*
X64396775Y-105317940D01*
X64398616Y-105306032D01*
X64474789Y-104934050D01*
X64477777Y-104922377D01*
X64576191Y-104603316D01*
X64578767Y-104595822D01*
X64626209Y-104470962D01*
X64627739Y-104467130D01*
X64649056Y-104416199D01*
X64649597Y-104414927D01*
X64701990Y-104293564D01*
X64704283Y-104288559D01*
X64780077Y-104132426D01*
X64782592Y-104127525D01*
X64865251Y-103974902D01*
X64867981Y-103970120D01*
X64957341Y-103821307D01*
X64960280Y-103816650D01*
X65056132Y-103671992D01*
X65059275Y-103667470D01*
X65161484Y-103527171D01*
X65164825Y-103522792D01*
X65273155Y-103387180D01*
X65276687Y-103382955D01*
X65390918Y-103252303D01*
X65394634Y-103248238D01*
X65514568Y-103122771D01*
X65518461Y-103118876D01*
X65643857Y-102998850D01*
X65647919Y-102995131D01*
X65778494Y-102880814D01*
X65782717Y-102877279D01*
X65918260Y-102768856D01*
X65922635Y-102765513D01*
X66062853Y-102663218D01*
X66067374Y-102660071D01*
X66211989Y-102564109D01*
X66216644Y-102561167D01*
X66365396Y-102471709D01*
X66370177Y-102468976D01*
X66522728Y-102386225D01*
X66527626Y-102383708D01*
X66683714Y-102307806D01*
X66688719Y-102305508D01*
X66848032Y-102236607D01*
X66853135Y-102234533D01*
X67015330Y-102172783D01*
X67020517Y-102170939D01*
X67185302Y-102116447D01*
X67190569Y-102114834D01*
X67357625Y-102067710D01*
X67362957Y-102066333D01*
X67531928Y-102026675D01*
X67537316Y-102025536D01*
X67707899Y-101993417D01*
X67713332Y-101992519D01*
X67885128Y-101968012D01*
X67890597Y-101967355D01*
X68063357Y-101950496D01*
X68068848Y-101950083D01*
X68242513Y-101940894D01*
X68247334Y-101940733D01*
X68333582Y-101939529D01*
X68335326Y-101939517D01*
X93833629Y-101942117D01*
G37*
G36*
X119348269Y-104399951D02*
G01*
X119349725Y-104399958D01*
X119350225Y-104399963D01*
X119351890Y-104399988D01*
X119352115Y-104399991D01*
X119409158Y-104401110D01*
X119409792Y-104401127D01*
X119413999Y-104401264D01*
X119415275Y-104401322D01*
X119419484Y-104401569D01*
X119420110Y-104401610D01*
X119490682Y-104406659D01*
X119491726Y-104406745D01*
X119498699Y-104407394D01*
X119500790Y-104407634D01*
X119507657Y-104408572D01*
X119508692Y-104408724D01*
X119652367Y-104431484D01*
X119653052Y-104431598D01*
X119657619Y-104432388D01*
X119659000Y-104432647D01*
X119663579Y-104433575D01*
X119664264Y-104433719D01*
X119715443Y-104444855D01*
X119716296Y-104445049D01*
X119720252Y-104445984D01*
X119721940Y-104446415D01*
X119725860Y-104447490D01*
X119726703Y-104447729D01*
X119728505Y-104448258D01*
X119728857Y-104448363D01*
X119731124Y-104449047D01*
X119731780Y-104449250D01*
X119733994Y-104449952D01*
X119734327Y-104450059D01*
X119879781Y-104497323D01*
X119880267Y-104497483D01*
X119883601Y-104498605D01*
X119884614Y-104498959D01*
X119887843Y-104500125D01*
X119888325Y-104500302D01*
X119917133Y-104511047D01*
X119917957Y-104511362D01*
X119923396Y-104513503D01*
X119924998Y-104514167D01*
X119930323Y-104516484D01*
X119931130Y-104516844D01*
X119959072Y-104529606D01*
X119959530Y-104529818D01*
X119962733Y-104531321D01*
X119963702Y-104531789D01*
X119966825Y-104533339D01*
X119967288Y-104533571D01*
X120103519Y-104602988D01*
X120103815Y-104603141D01*
X120105907Y-104604225D01*
X120106552Y-104604565D01*
X120108676Y-104605706D01*
X120108965Y-104605862D01*
X120110590Y-104606749D01*
X120111356Y-104607176D01*
X120114869Y-104609176D01*
X120116378Y-104610072D01*
X120119847Y-104612215D01*
X120120587Y-104612681D01*
X120164658Y-104641004D01*
X120165242Y-104641385D01*
X120169117Y-104643954D01*
X120170280Y-104644750D01*
X120174069Y-104647422D01*
X120174632Y-104647824D01*
X120292277Y-104733299D01*
X120293121Y-104733927D01*
X120298693Y-104738161D01*
X120300331Y-104739461D01*
X120305704Y-104743918D01*
X120306509Y-104744601D01*
X120347326Y-104779970D01*
X120347981Y-104780548D01*
X120352326Y-104784451D01*
X120353605Y-104785642D01*
X120357790Y-104789680D01*
X120358415Y-104790294D01*
X120459704Y-104891583D01*
X120460318Y-104892208D01*
X120464356Y-104896393D01*
X120465547Y-104897672D01*
X120469450Y-104902017D01*
X120470028Y-104902672D01*
X120505397Y-104943489D01*
X120506080Y-104944294D01*
X120510537Y-104949667D01*
X120511837Y-104951305D01*
X120516071Y-104956877D01*
X120516699Y-104957721D01*
X120602174Y-105075366D01*
X120602576Y-105075929D01*
X120605248Y-105079718D01*
X120606042Y-105080878D01*
X120608632Y-105084784D01*
X120609016Y-105085372D01*
X120637318Y-105129412D01*
X120637778Y-105130142D01*
X120639917Y-105133603D01*
X120640817Y-105135120D01*
X120642824Y-105138645D01*
X120643255Y-105139418D01*
X120644175Y-105141104D01*
X120644327Y-105141385D01*
X120645409Y-105143399D01*
X120645747Y-105144039D01*
X120646863Y-105146192D01*
X120647019Y-105146496D01*
X120716445Y-105282746D01*
X120716680Y-105283214D01*
X120718224Y-105286326D01*
X120718686Y-105287281D01*
X120720138Y-105290374D01*
X120720354Y-105290841D01*
X120733145Y-105318848D01*
X120733501Y-105319646D01*
X120735840Y-105325019D01*
X120736507Y-105326629D01*
X120738622Y-105332002D01*
X120738938Y-105332826D01*
X120749692Y-105361659D01*
X120749873Y-105362153D01*
X120751051Y-105365418D01*
X120751394Y-105366402D01*
X120752482Y-105369631D01*
X120752649Y-105370135D01*
X120799967Y-105515758D01*
X120800069Y-105516078D01*
X120800758Y-105518249D01*
X120800964Y-105518912D01*
X120801590Y-105520986D01*
X120801693Y-105521334D01*
X120802272Y-105523305D01*
X120802514Y-105524158D01*
X120803584Y-105528060D01*
X120804014Y-105529743D01*
X120804952Y-105533710D01*
X120805147Y-105534568D01*
X120816285Y-105585762D01*
X120816428Y-105586443D01*
X120817346Y-105590971D01*
X120817606Y-105592357D01*
X120818402Y-105596960D01*
X120818516Y-105597643D01*
X120841274Y-105741306D01*
X120841426Y-105742341D01*
X120842364Y-105749208D01*
X120842604Y-105751299D01*
X120843253Y-105758272D01*
X120843339Y-105759316D01*
X120848388Y-105829884D01*
X120848429Y-105830515D01*
X120848676Y-105834731D01*
X120848734Y-105836000D01*
X120848871Y-105840202D01*
X120848888Y-105840836D01*
X120850011Y-105897985D01*
X120850015Y-105898257D01*
X120850037Y-105899817D01*
X120850041Y-105900229D01*
X120850049Y-105901636D01*
X120850050Y-105901915D01*
X120850050Y-117897985D01*
X120850049Y-117898264D01*
X120850041Y-117899670D01*
X120850037Y-117900082D01*
X120850015Y-117901643D01*
X120850011Y-117901915D01*
X120848888Y-117959062D01*
X120848871Y-117959696D01*
X120848734Y-117963898D01*
X120848676Y-117965167D01*
X120848429Y-117969383D01*
X120848388Y-117970014D01*
X120843339Y-118040582D01*
X120843253Y-118041626D01*
X120842604Y-118048599D01*
X120842364Y-118050690D01*
X120841426Y-118057557D01*
X120841274Y-118058592D01*
X120818516Y-118202255D01*
X120818402Y-118202942D01*
X120817608Y-118207531D01*
X120817348Y-118208912D01*
X120816422Y-118213480D01*
X120816279Y-118214161D01*
X120805147Y-118265330D01*
X120804952Y-118266189D01*
X120804014Y-118270156D01*
X120803584Y-118271841D01*
X120802513Y-118275746D01*
X120802272Y-118276596D01*
X120801733Y-118278431D01*
X120801631Y-118278771D01*
X120800962Y-118280989D01*
X120800760Y-118281645D01*
X120800030Y-118283948D01*
X120799921Y-118284285D01*
X120752692Y-118429629D01*
X120752529Y-118430121D01*
X120751393Y-118433495D01*
X120751048Y-118434486D01*
X120749880Y-118437724D01*
X120749697Y-118438222D01*
X120738936Y-118467072D01*
X120738624Y-118467888D01*
X120736499Y-118473289D01*
X120735829Y-118474905D01*
X120733522Y-118480205D01*
X120733166Y-118481005D01*
X120720368Y-118509028D01*
X120720148Y-118509502D01*
X120718686Y-118512615D01*
X120718228Y-118513565D01*
X120716663Y-118516719D01*
X120716428Y-118517185D01*
X120647010Y-118653421D01*
X120646844Y-118653744D01*
X120645746Y-118655860D01*
X120645432Y-118656455D01*
X120644336Y-118658498D01*
X120644161Y-118658821D01*
X120643244Y-118660500D01*
X120642820Y-118661261D01*
X120640816Y-118664780D01*
X120639923Y-118666284D01*
X120637806Y-118669711D01*
X120637340Y-118670451D01*
X120608961Y-118714608D01*
X120608576Y-118715197D01*
X120606048Y-118719009D01*
X120605266Y-118720153D01*
X120602577Y-118723969D01*
X120602165Y-118724546D01*
X120516699Y-118842177D01*
X120516071Y-118843021D01*
X120511837Y-118848593D01*
X120510537Y-118850231D01*
X120506080Y-118855604D01*
X120505397Y-118856409D01*
X120470028Y-118897226D01*
X120469450Y-118897881D01*
X120465547Y-118902226D01*
X120464356Y-118903505D01*
X120460318Y-118907690D01*
X120459704Y-118908315D01*
X120358415Y-119009604D01*
X120357790Y-119010218D01*
X120353605Y-119014256D01*
X120352326Y-119015447D01*
X120347981Y-119019350D01*
X120347326Y-119019928D01*
X120306509Y-119055297D01*
X120305704Y-119055980D01*
X120300331Y-119060437D01*
X120298693Y-119061737D01*
X120293121Y-119065971D01*
X120292277Y-119066599D01*
X120174646Y-119152065D01*
X120174069Y-119152477D01*
X120170253Y-119155166D01*
X120169109Y-119155948D01*
X120165297Y-119158476D01*
X120164708Y-119158861D01*
X120120551Y-119187240D01*
X120119807Y-119187709D01*
X120116376Y-119189828D01*
X120114871Y-119190720D01*
X120111337Y-119192732D01*
X120110595Y-119193146D01*
X120108996Y-119194020D01*
X120108663Y-119194201D01*
X120106559Y-119195330D01*
X120105960Y-119195646D01*
X120103844Y-119196744D01*
X120103521Y-119196910D01*
X119967285Y-119266328D01*
X119966819Y-119266563D01*
X119963665Y-119268128D01*
X119962715Y-119268586D01*
X119959602Y-119270048D01*
X119959128Y-119270268D01*
X119931105Y-119283066D01*
X119930305Y-119283422D01*
X119925005Y-119285729D01*
X119923389Y-119286399D01*
X119917988Y-119288524D01*
X119917171Y-119288837D01*
X119888372Y-119299578D01*
X119887895Y-119299753D01*
X119884606Y-119300941D01*
X119883595Y-119301293D01*
X119880221Y-119302429D01*
X119879729Y-119302592D01*
X119734385Y-119349821D01*
X119734048Y-119349930D01*
X119731745Y-119350660D01*
X119731089Y-119350862D01*
X119728871Y-119351531D01*
X119728531Y-119351633D01*
X119726696Y-119352172D01*
X119725846Y-119352413D01*
X119721941Y-119353484D01*
X119720256Y-119353914D01*
X119716289Y-119354852D01*
X119715430Y-119355047D01*
X119664261Y-119366179D01*
X119663580Y-119366322D01*
X119659012Y-119367248D01*
X119657631Y-119367508D01*
X119653042Y-119368302D01*
X119652355Y-119368416D01*
X119508692Y-119391174D01*
X119507657Y-119391326D01*
X119500790Y-119392264D01*
X119498699Y-119392504D01*
X119491726Y-119393153D01*
X119490682Y-119393239D01*
X119420114Y-119398288D01*
X119419483Y-119398329D01*
X119415267Y-119398576D01*
X119413998Y-119398634D01*
X119409796Y-119398771D01*
X119409162Y-119398788D01*
X119352111Y-119399909D01*
X119351858Y-119399913D01*
X119350201Y-119399937D01*
X119349760Y-119399941D01*
X119348302Y-119399949D01*
X119348033Y-119399950D01*
X104351957Y-119399999D01*
X104351746Y-119399999D01*
X104350354Y-119399993D01*
X104349845Y-119399988D01*
X104348144Y-119399963D01*
X104347910Y-119399959D01*
X104291136Y-119398853D01*
X104290507Y-119398836D01*
X104286331Y-119398701D01*
X104285044Y-119398643D01*
X104280817Y-119398395D01*
X104280188Y-119398354D01*
X104209469Y-119393291D01*
X104208436Y-119393206D01*
X104201503Y-119392562D01*
X104199421Y-119392324D01*
X104192521Y-119391384D01*
X104191492Y-119391232D01*
X104049000Y-119368732D01*
X104048301Y-119368617D01*
X104043630Y-119367810D01*
X104042251Y-119367551D01*
X104037671Y-119366624D01*
X104036974Y-119366478D01*
X103983584Y-119354861D01*
X103982732Y-119354667D01*
X103979804Y-119353975D01*
X103978104Y-119353541D01*
X103975153Y-119352731D01*
X103974360Y-119352506D01*
X103973516Y-119352259D01*
X103973141Y-119352148D01*
X103970931Y-119351482D01*
X103970299Y-119351287D01*
X103968148Y-119350607D01*
X103967823Y-119350503D01*
X103822717Y-119303516D01*
X103822209Y-119303348D01*
X103818854Y-119302221D01*
X103817833Y-119301866D01*
X103814478Y-119300656D01*
X103813977Y-119300472D01*
X103782895Y-119288878D01*
X103782073Y-119288563D01*
X103776687Y-119286443D01*
X103775076Y-119285776D01*
X103769703Y-119283437D01*
X103768906Y-119283081D01*
X103742579Y-119271058D01*
X103742111Y-119270841D01*
X103739180Y-119269465D01*
X103738268Y-119269026D01*
X103735217Y-119267516D01*
X103734774Y-119267294D01*
X103601559Y-119199677D01*
X103601222Y-119199504D01*
X103599003Y-119198356D01*
X103598356Y-119198015D01*
X103596227Y-119196873D01*
X103595910Y-119196702D01*
X103591019Y-119194032D01*
X103590245Y-119193600D01*
X103585189Y-119190720D01*
X103583687Y-119189829D01*
X103578739Y-119186772D01*
X103578002Y-119186307D01*
X103537069Y-119160000D01*
X103536503Y-119159631D01*
X103532795Y-119157175D01*
X103531680Y-119156414D01*
X103527990Y-119153821D01*
X103527444Y-119153432D01*
X103409823Y-119068348D01*
X103408962Y-119067710D01*
X103403249Y-119063384D01*
X103401564Y-119062050D01*
X103396043Y-119057475D01*
X103395219Y-119056776D01*
X103354394Y-119021400D01*
X103353763Y-119020843D01*
X103349595Y-119017104D01*
X103348356Y-119015954D01*
X103344291Y-119012046D01*
X103343693Y-119011461D01*
X103242714Y-118911010D01*
X103242079Y-118910367D01*
X103237910Y-118906064D01*
X103236671Y-118904737D01*
X103232599Y-118900210D01*
X103231998Y-118899529D01*
X103196258Y-118858282D01*
X103195608Y-118857516D01*
X103191323Y-118852361D01*
X103190058Y-118850774D01*
X103185965Y-118845413D01*
X103185361Y-118844604D01*
X103100583Y-118728685D01*
X103100157Y-118728093D01*
X103097305Y-118724069D01*
X103096461Y-118722840D01*
X103093718Y-118718709D01*
X103093318Y-118718096D01*
X103065166Y-118674291D01*
X103064542Y-118673294D01*
X103060438Y-118666558D01*
X103059259Y-118664513D01*
X103055502Y-118657620D01*
X103054949Y-118656577D01*
X102986615Y-118523679D01*
X102986354Y-118523164D01*
X102984700Y-118519852D01*
X102984209Y-118518838D01*
X102982594Y-118515409D01*
X102982352Y-118514888D01*
X102966898Y-118481051D01*
X102966540Y-118480248D01*
X102964229Y-118474938D01*
X102963560Y-118473323D01*
X102961434Y-118467919D01*
X102961123Y-118467107D01*
X102952661Y-118444425D01*
X102952497Y-118443980D01*
X102951418Y-118441000D01*
X102951105Y-118440108D01*
X102950062Y-118437044D01*
X102949911Y-118436592D01*
X102903764Y-118296578D01*
X102903639Y-118296194D01*
X102902791Y-118293548D01*
X102902553Y-118292785D01*
X102901753Y-118290141D01*
X102901639Y-118289758D01*
X102898290Y-118278355D01*
X102898050Y-118277510D01*
X102896508Y-118271889D01*
X102896077Y-118270201D01*
X102894733Y-118264517D01*
X102894538Y-118263660D01*
X102884908Y-118219400D01*
X102884776Y-118218770D01*
X102883912Y-118214532D01*
X102883674Y-118213283D01*
X102882939Y-118209130D01*
X102882829Y-118208487D01*
X102859264Y-118064153D01*
X102859098Y-118063054D01*
X102858076Y-118055758D01*
X102857819Y-118053564D01*
X102857128Y-118046241D01*
X102857036Y-118045136D01*
X102851838Y-117972514D01*
X102851801Y-117971951D01*
X102851573Y-117968151D01*
X102851518Y-117967009D01*
X102851381Y-117963268D01*
X102851363Y-117962692D01*
X102850150Y-117913877D01*
X102850147Y-117913728D01*
X102850120Y-117912489D01*
X102850111Y-117912005D01*
X102850095Y-117910662D01*
X102850094Y-117910516D01*
X102850008Y-117900893D01*
X102850007Y-117900821D01*
X102850002Y-117900152D01*
X102850001Y-117899848D01*
X102850000Y-117899058D01*
X102850000Y-105901967D01*
X102850001Y-105901724D01*
X102850008Y-105900315D01*
X102850012Y-105899836D01*
X102850035Y-105898275D01*
X102850039Y-105898034D01*
X102851162Y-105840898D01*
X102851179Y-105840264D01*
X102851316Y-105836063D01*
X102851374Y-105834789D01*
X102851621Y-105830581D01*
X102851662Y-105829954D01*
X102856713Y-105759379D01*
X102856799Y-105758330D01*
X102857450Y-105751345D01*
X102857688Y-105749270D01*
X102858637Y-105742312D01*
X102858792Y-105741266D01*
X102881534Y-105597738D01*
X102881647Y-105597052D01*
X102882441Y-105592463D01*
X102882702Y-105591077D01*
X102883633Y-105586487D01*
X102883775Y-105585810D01*
X102894915Y-105534607D01*
X102895112Y-105533741D01*
X102896049Y-105529781D01*
X102896476Y-105528106D01*
X102897552Y-105524182D01*
X102897788Y-105523351D01*
X102898293Y-105521629D01*
X102898402Y-105521262D01*
X102899119Y-105518886D01*
X102899320Y-105518236D01*
X102899998Y-105516097D01*
X102900107Y-105515759D01*
X102947387Y-105370266D01*
X102947551Y-105369772D01*
X102948664Y-105366467D01*
X102949010Y-105365474D01*
X102950169Y-105362262D01*
X102950351Y-105361766D01*
X102961123Y-105332892D01*
X102961437Y-105332072D01*
X102963568Y-105326658D01*
X102964233Y-105325052D01*
X102966563Y-105319698D01*
X102966921Y-105318895D01*
X102979670Y-105290979D01*
X102979892Y-105290501D01*
X102981383Y-105287327D01*
X102981842Y-105286375D01*
X102983411Y-105283214D01*
X102983643Y-105282754D01*
X103053045Y-105146550D01*
X103053209Y-105146232D01*
X103054273Y-105144181D01*
X103054599Y-105143562D01*
X103055737Y-105141443D01*
X103055898Y-105141146D01*
X103056783Y-105139525D01*
X103057214Y-105138752D01*
X103059251Y-105135176D01*
X103060141Y-105133676D01*
X103062310Y-105130165D01*
X103062775Y-105129427D01*
X103091069Y-105085400D01*
X103091454Y-105084811D01*
X103094023Y-105080937D01*
X103094813Y-105079781D01*
X103097543Y-105075909D01*
X103097949Y-105075343D01*
X103183332Y-104957827D01*
X103183959Y-104956983D01*
X103188225Y-104951369D01*
X103189527Y-104949729D01*
X103193982Y-104944359D01*
X103194663Y-104943556D01*
X103230040Y-104902730D01*
X103230618Y-104902075D01*
X103234521Y-104897730D01*
X103235712Y-104896451D01*
X103239750Y-104892266D01*
X103240364Y-104891641D01*
X103341641Y-104790364D01*
X103342266Y-104789750D01*
X103346451Y-104785712D01*
X103347730Y-104784521D01*
X103352075Y-104780618D01*
X103352730Y-104780040D01*
X103393556Y-104744663D01*
X103394359Y-104743982D01*
X103399729Y-104739527D01*
X103401369Y-104738225D01*
X103406983Y-104733959D01*
X103407827Y-104733332D01*
X103525343Y-104647949D01*
X103525909Y-104647543D01*
X103529781Y-104644813D01*
X103530937Y-104644023D01*
X103534811Y-104641454D01*
X103535400Y-104641069D01*
X103579427Y-104612775D01*
X103580165Y-104612310D01*
X103583676Y-104610141D01*
X103585176Y-104609251D01*
X103588752Y-104607214D01*
X103589525Y-104606783D01*
X103591146Y-104605898D01*
X103591443Y-104605737D01*
X103593562Y-104604599D01*
X103594181Y-104604273D01*
X103596232Y-104603209D01*
X103596550Y-104603045D01*
X103732754Y-104533643D01*
X103733214Y-104533411D01*
X103736375Y-104531842D01*
X103737327Y-104531383D01*
X103740501Y-104529892D01*
X103740979Y-104529670D01*
X103768895Y-104516921D01*
X103769698Y-104516563D01*
X103775052Y-104514233D01*
X103776658Y-104513568D01*
X103782072Y-104511437D01*
X103782892Y-104511123D01*
X103811766Y-104500351D01*
X103812262Y-104500169D01*
X103815474Y-104499010D01*
X103816467Y-104498664D01*
X103819772Y-104497551D01*
X103820266Y-104497387D01*
X103965759Y-104450107D01*
X103966097Y-104449998D01*
X103968236Y-104449320D01*
X103968886Y-104449119D01*
X103971262Y-104448402D01*
X103971629Y-104448293D01*
X103973351Y-104447788D01*
X103974182Y-104447552D01*
X103978106Y-104446476D01*
X103979781Y-104446049D01*
X103983741Y-104445112D01*
X103984607Y-104444915D01*
X104035810Y-104433775D01*
X104036487Y-104433633D01*
X104041077Y-104432702D01*
X104042463Y-104432441D01*
X104047052Y-104431647D01*
X104047738Y-104431534D01*
X104191266Y-104408792D01*
X104192312Y-104408637D01*
X104199270Y-104407688D01*
X104201345Y-104407450D01*
X104208330Y-104406799D01*
X104209379Y-104406713D01*
X104279954Y-104401662D01*
X104280581Y-104401621D01*
X104284789Y-104401374D01*
X104286063Y-104401316D01*
X104290264Y-104401179D01*
X104290897Y-104401162D01*
X104347939Y-104400040D01*
X104348193Y-104400036D01*
X104349848Y-104400012D01*
X104350290Y-104400008D01*
X104351750Y-104400000D01*
X104352018Y-104399999D01*
X119348033Y-104399950D01*
X119348269Y-104399951D01*
G37*
G36*
X89351222Y-50900024D02*
G01*
X89411368Y-50901202D01*
X89417787Y-50901494D01*
X89494412Y-50906975D01*
X89504963Y-50908186D01*
X89654774Y-50931914D01*
X89661735Y-50933221D01*
X89716758Y-50945191D01*
X89725320Y-50947376D01*
X89729671Y-50948653D01*
X89733068Y-50949703D01*
X89881516Y-50997937D01*
X89886530Y-50999686D01*
X89920064Y-51012193D01*
X89928244Y-51015581D01*
X89960767Y-51030434D01*
X89965550Y-51032743D01*
X90104623Y-51103604D01*
X90107759Y-51105259D01*
X90111762Y-51107445D01*
X90119371Y-51111960D01*
X90166738Y-51142401D01*
X90172584Y-51146398D01*
X90295299Y-51235556D01*
X90303615Y-51242160D01*
X90349669Y-51282065D01*
X90356148Y-51288098D01*
X90461900Y-51393850D01*
X90467933Y-51400329D01*
X90507838Y-51446383D01*
X90514442Y-51454699D01*
X90603601Y-51577414D01*
X90607599Y-51583261D01*
X90638040Y-51630629D01*
X90642561Y-51638250D01*
X90644742Y-51642245D01*
X90646390Y-51645368D01*
X90717246Y-51784431D01*
X90719554Y-51789211D01*
X90734423Y-51821767D01*
X90737813Y-51829952D01*
X90750310Y-51863461D01*
X90752058Y-51868472D01*
X90800296Y-52016931D01*
X90801346Y-52020328D01*
X90802621Y-52024672D01*
X90804806Y-52033237D01*
X90816779Y-52088278D01*
X90818086Y-52095237D01*
X90841812Y-52245035D01*
X90843023Y-52255586D01*
X90848504Y-52332211D01*
X90848796Y-52338626D01*
X90849976Y-52398776D01*
X90850000Y-52401208D01*
X90850000Y-60776000D01*
X90830315Y-60843039D01*
X90777511Y-60888794D01*
X90726000Y-60900000D01*
X77474000Y-60900000D01*
X77406961Y-60880315D01*
X77361206Y-60827511D01*
X77350000Y-60776000D01*
X77350000Y-52401205D01*
X77350024Y-52398777D01*
X77351202Y-52338630D01*
X77351494Y-52332211D01*
X77356975Y-52255586D01*
X77358186Y-52245035D01*
X77381913Y-52095228D01*
X77383220Y-52088267D01*
X77395191Y-52033239D01*
X77397382Y-52024657D01*
X77398661Y-52020302D01*
X77399705Y-52016925D01*
X77447941Y-51868469D01*
X77449691Y-51863451D01*
X77462189Y-51829945D01*
X77465575Y-51821771D01*
X77480439Y-51789222D01*
X77482749Y-51784437D01*
X77553593Y-51645397D01*
X77555253Y-51642252D01*
X77557452Y-51638226D01*
X77561960Y-51630629D01*
X77592402Y-51583258D01*
X77596401Y-51577409D01*
X77685556Y-51454699D01*
X77692160Y-51446383D01*
X77732065Y-51400329D01*
X77738098Y-51393850D01*
X77843850Y-51288098D01*
X77850329Y-51282065D01*
X77896383Y-51242160D01*
X77904699Y-51235556D01*
X78027409Y-51146401D01*
X78033258Y-51142402D01*
X78080629Y-51111960D01*
X78088226Y-51107452D01*
X78092252Y-51105253D01*
X78095397Y-51103593D01*
X78234437Y-51032749D01*
X78239222Y-51030439D01*
X78271771Y-51015575D01*
X78279945Y-51012189D01*
X78313451Y-50999691D01*
X78318469Y-50997941D01*
X78466925Y-50949705D01*
X78470302Y-50948661D01*
X78474657Y-50947382D01*
X78483239Y-50945191D01*
X78538267Y-50933220D01*
X78545228Y-50931913D01*
X78695035Y-50908186D01*
X78705586Y-50906975D01*
X78782211Y-50901494D01*
X78788630Y-50901202D01*
X78848778Y-50900024D01*
X78851206Y-50900000D01*
X89348794Y-50900000D01*
X89351222Y-50900024D01*
G37*
M02*
