%TF.GenerationSoftware,KiCad,Pcbnew,10.0.0*%
%TF.CreationDate,2026-04-10T12:15:49+02:00*%
%TF.ProjectId,wulpus_pro_acq_pcb,77756c70-7573-45f7-9072-6f5f6163715f,rev?*%
%TF.SameCoordinates,Original*%
%TF.FileFunction,Profile,NP*%
%FSLAX46Y46*%
G04 Gerber Fmt 4.6, Leading zero omitted, Abs format (unit mm)*
G04 Created by KiCad (PCBNEW 10.0.0) date 2026-04-10 12:15:49*
%MOMM*%
%LPD*%
G01*
G04 APERTURE LIST*
%TA.AperFunction,Profile*%
%ADD10C,0.050000*%
%TD*%
G04 APERTURE END LIST*
D10*
X64350000Y-92900000D02*
X64352601Y-69900000D01*
X64352601Y-69900000D02*
G75*
G02*
X68350000Y-65899982I4031399J-31360D01*
G01*
X64352621Y-105897419D02*
X64318609Y-117934020D01*
X64352621Y-105897419D02*
G75*
G02*
X68350010Y-101898731I4029179J-30481D01*
G01*
X68318629Y-121931419D02*
G75*
G02*
X64318602Y-117934020I31371J4031419D01*
G01*
X68350000Y-65899980D02*
X75850000Y-65900000D01*
X68350020Y-96897399D02*
G75*
G02*
X64350022Y-92900000I31380J4031399D01*
G01*
X68350020Y-96897399D02*
G75*
G02*
X69850001Y-98397399I-20J-1500001D01*
G01*
X69850000Y-100400000D02*
G75*
G02*
X68350010Y-101898699I-1497800J-900D01*
G01*
X69850020Y-98397399D02*
X69850000Y-100400000D01*
X72349999Y-121899999D02*
X68318629Y-121931419D01*
X77350000Y-52400000D02*
G75*
G02*
X78850000Y-50900000I1500000J0D01*
G01*
X77350000Y-64400000D02*
G75*
G02*
X75850000Y-65900000I-1500000J0D01*
G01*
X77350000Y-64400000D02*
X77350000Y-52400000D01*
X89350000Y-50900000D02*
X78850000Y-50900000D01*
X89350000Y-50900000D02*
G75*
G02*
X90850000Y-52400000I0J-1500000D01*
G01*
X90850000Y-64400000D02*
X90850000Y-52400000D01*
X92350000Y-65900000D02*
G75*
G02*
X90850000Y-64400000I0J1500000D01*
G01*
X92350000Y-100400000D02*
X92350020Y-98397399D01*
X92350000Y-121900000D02*
X72349999Y-121899999D01*
X92350000Y-121900000D02*
X93884020Y-121931391D01*
X92350020Y-98397399D02*
G75*
G02*
X93850010Y-96898721I1497780J899D01*
G01*
X93849980Y-65902601D02*
X92350000Y-65900000D01*
X93849980Y-65902601D02*
G75*
G02*
X97849978Y-69900000I-31380J-4031399D01*
G01*
X93850000Y-101900000D02*
G75*
G02*
X92350000Y-100400000I0J1500000D01*
G01*
X93850000Y-101900000D02*
G75*
G02*
X97849990Y-105898700I-31400J-4031400D01*
G01*
X97844670Y-91400000D02*
X97847399Y-92899980D01*
X97844670Y-91400000D02*
G75*
G02*
X99344670Y-89900070I1500030J-100D01*
G01*
X97847399Y-92899980D02*
G75*
G02*
X93850010Y-96898689I-4029199J30480D01*
G01*
X97850000Y-69900000D02*
X97844670Y-71400000D01*
X97881419Y-117931371D02*
G75*
G02*
X93884020Y-121931398I-4031419J31371D01*
G01*
X97881419Y-117931371D02*
G75*
G02*
X99381419Y-116431319I1500081J-29D01*
G01*
X99344670Y-72900000D02*
G75*
G02*
X97844700Y-71400000I30J1500000D01*
G01*
X99344670Y-72900000D02*
X119350000Y-72900000D01*
X99344670Y-89900000D02*
X119350000Y-89900000D01*
X99350000Y-107400000D02*
G75*
G02*
X97850001Y-105898700I0J1500000D01*
G01*
X99350000Y-107400000D02*
X101350000Y-107400000D01*
X101350000Y-116415686D02*
X99381419Y-116431371D01*
X101350000Y-116415686D02*
G75*
G02*
X102849993Y-117907843I-100J-1500114D01*
G01*
X102850000Y-105900000D02*
G75*
G02*
X101350000Y-107400000I-1500000J0D01*
G01*
X102850000Y-105900000D02*
G75*
G02*
X104350000Y-104400000I1500100J-100D01*
G01*
X104350000Y-119400000D02*
G75*
G02*
X102850021Y-117907843I100J1500100D01*
G01*
X119350000Y-72900000D02*
G75*
G02*
X120850000Y-74400000I100J-1499900D01*
G01*
X119350050Y-104399950D02*
X104350000Y-104400000D01*
X119350050Y-104399950D02*
G75*
G02*
X120850050Y-105899950I-50J-1500050D01*
G01*
X119350050Y-119399950D02*
X104350000Y-119400000D01*
X120850000Y-88400000D02*
G75*
G02*
X119350000Y-89900000I-1500000J0D01*
G01*
X120850000Y-88400000D02*
X120850000Y-74400000D01*
X120850050Y-105899950D02*
X120850050Y-117899950D01*
X120850050Y-117899950D02*
G75*
G02*
X119350050Y-119399950I-1500050J50D01*
G01*
M02*
